<?xml version="1.0" encoding="utf-8"?>
<!-- Generator: Adobe Illustrator 24.0.3, SVG Export Plug-In . SVG Version: 6.00 Build 0)  -->
<svg version="1.1" id="Layer_1" xmlns="http://www.w3.org/2000/svg" xmlns:xlink="http://www.w3.org/1999/xlink" x="0px" y="0px"
	 viewBox="0 0 534 273" style="enable-background:new 0 0 534 273;" xml:space="preserve">
<style type="text/css">
	.st0{fill:#22205F;}
	.st1{fill:#37B34A;}
	.st2{fill:#FCB614;}
	.st3{enable-background:new    ;}
</style>
<g>
	<g>
		<path id="feather" class="st0" d="M298.4,98.5l-7.7,3.3c-0.6,0.2-1.2,0.2-1.4-0.3l0,0c-0.2-0.6,0-0.9,0.5-1.3l7.4-4.3
			c0.6-0.2,1.4,0.1,1.6,0.7l0,0C299.1,97.4,299,98.2,298.4,98.5z"/>
		<g>
			<path id="body" class="st1" d="M293.7,127.9c4,15.3,49.5,42.5,48.6,46.6c-2.4,9.9-41-30.9-50.7-30.5
				c-25.2,0.8-46.9-6.5-54.5-21.9s1.2-31.7,4.8-43.3c1-3.1,1.7-3.8,1-7.4c0.5-0.7-30.9-21.5-30.3-22.1c18.9,10,31,19.2,31.7,18.9
				c5.1-3.1,14.2-3,20.2,1.5c7.7,5.5,9,15.6,5.8,21.5C268.3,95.3,287.2,104.9,293.7,127.9z"/>
			<path id="back" class="st0" d="M293.7,127.9c4,15.3,49.5,42.5,48.6,46.6c-2.4,9.9-41.4-30.3-50.2-30.5
				c-31.6-17.4-10.7-55.3-48.9-72.5c0.5-0.7-30.9-21.5-30.3-22.1c18.9,10,31,19.2,31.7,18.9c5.1-3.1,14.2-3,20.2,1.5
				c7.7,5.5,9,15.6,5.8,21.5C268.3,95.3,287.2,104.9,293.7,127.9z"/>
			<g id="wings_1_">
				<path class="st0" d="M287.4,75.3c-0.3,0.9-0.8,1.5-1.4,2c-0.5,0.5-1,0.7-1.5,0.5c-0.9-0.3-1.3-2-0.7-3.8l15.4-49.4
					c0.6-1.7,2.5-2.8,4.4-2.1c0.9,0.3,1.6,1,2.1,1.7c0.3,0.8,0.5,1.7,0.1,2.5L287.4,75.3z"/>
				<path class="st0" d="M305.9,68.4c-0.8,1.2-1.7,2.1-2.7,2.7c-0.5,0.2-0.8,0.5-1.2,0.5c-0.3,0-0.7,0-0.9-0.1
					c-0.5-0.3-0.7-1.2-0.6-2.1c0.1-1,0.5-2.2,1.3-3.5l4.8-8.5c0.7-1.3,1.6-2.2,2.5-2.8c0.9-0.6,1.8-0.6,2.7-0.1
					c0.3,0.2,0.6,0.6,0.8,1c0.1,0.5,0.2,0.9,0.2,1.5c0,1-0.5,2.3-1.4,3.5L305.9,68.4z"/>
				<path class="st0" d="M309.6,109.3c-0.8,0-1.5-0.1-2.1-0.5c-0.6-0.3-0.9-0.7-0.9-1.2c0-0.5,0.2-0.9,0.7-1.3
					c0.5-0.3,1.2-0.6,2-0.7l5.4-0.6c0.8-0.1,1.5,0,2.1,0.3c0.6,0.3,0.9,0.8,0.9,1.4c0,0.6-0.2,1.2-0.7,1.5c-0.5,0.3-1.3,0.7-2,0.7
					L309.6,109.3z"/>
				<path class="st0" d="M311.7,119.1c-1-0.1-2-0.5-2.5-0.9s-1-0.9-0.9-1.5c0.1-1,1.8-1.7,3.9-1.6l7.1,0.5c2.1,0.1,3.7,1.3,3.6,2.5
					c-0.1,1.3-1.8,2.1-3.9,1.8L311.7,119.1z"/>
				<path class="st0" d="M327.3,116.2c-1.5-0.1-2.8-1.3-2.8-2.5c0-0.7,0.3-1.3,0.9-1.6c0.5-0.5,1.3-0.7,2-0.7h5.5
					c0.8,0,1.5,0.2,2,0.8c0.5,0.5,0.8,1.2,0.8,2c0,1.5-1.4,2.7-3,2.5L327.3,116.2z"/>
				<path class="st0" d="M307.1,51c-0.3,0.7-0.9,1.2-1.6,1.4s-1.5,0.1-2.2-0.1c-0.3-0.1-0.7-0.3-0.9-0.7c-0.2-0.2-0.5-0.6-0.6-0.9
					c-0.2-0.7-0.2-1.4,0-2.1l8-18.3c0.2-0.7,0.9-1.2,1.7-1.4c0.3-0.1,0.8-0.1,1.3,0c0.5,0,0.9,0.2,1.4,0.5c0.9,0.5,1.6,1.2,2,1.8
					c0.3,0.8,0.5,1.5,0,2.2L307.1,51z"/>
				<path class="st0" d="M279.9,95.1c-0.6,1.4-1.5,2.4-2.1,2.2c-0.7-0.2-0.8-1.5-0.3-3l3.5-11.1c0.5-1.5,1.5-2.4,2.4-2.1
					c0.9,0.3,1.2,1.7,0.6,3.1L279.9,95.1z"/>
				<path class="st0" d="M292.1,77.1c-0.3,0.7-0.8,1.3-1.4,1.5c-0.5,0.3-1,0.3-1.5,0.2c-0.5-0.1-0.7-0.7-0.8-1.3
					c-0.1-0.6,0-1.3,0.2-2l6.8-16.6c0.2-0.7,0.8-1.3,1.4-1.5c0.6-0.2,1.4-0.2,2,0c0.7,0.2,1.2,0.8,1.3,1.5c0.2,0.7,0.1,1.4-0.1,2.1
					L292.1,77.1z"/>
				<path class="st0" d="M329.4,125.1c-1-0.1-1.6-1.4-1.5-2.8c0.1-0.7,0.3-1.3,0.8-1.6c0.3-0.3,0.9-0.6,1.4-0.6l16.8,1.8
					c0.5,0,0.9,0.5,1.3,1c0.2,0.6,0.3,1.4,0.2,2.2c-0.1,0.8-0.5,1.5-0.8,2c-0.5,0.5-0.9,0.7-1.5,0.7L329.4,125.1z"/>
				<path class="st0" d="M319.6,51.5c-0.5,0.6-1.2,1-2,1c-0.8,0.1-1.6,0-2.3-0.6c-0.1-0.1-0.3-0.2-0.5-0.3s-0.2-0.2-0.3-0.5
					c-0.2-0.3-0.3-0.7-0.5-1c-0.2-0.7-0.1-1.5,0.2-2.2l5.9-9.8c0.3-0.7,1.2-1,2-1.2c0.5,0,0.9,0,1.4,0.1c0.2,0,0.5,0.1,0.7,0.2
					c0.2,0.1,0.5,0.2,0.7,0.3c0.9,0.6,1.5,1.4,1.7,2.2c0.2,0.8,0.2,1.6-0.2,2.3L319.6,51.5z"/>
				<path class="st0" d="M308.1,79.1c-0.5,0.5-1,0.8-1.5,0.9c-0.5,0.1-1,0-1.4-0.2l-0.2-0.1c-0.3-0.3-0.5-0.8-0.3-1.4
					s0.2-1.2,0.7-1.6l24.4-29.2c0.5-0.5,1.2-0.7,1.8-0.7c0.8,0,1.6,0.5,2.3,1.2l0.5,0.3c0.7,0.7,1.2,1.5,1.3,2.2
					c0.1,0.8,0,1.5-0.5,2L308.1,79.1z"/>
				<path class="st0" d="M341.1,117.9c-1.5-0.1-2.8-1.5-2.7-3c0-0.8,0.3-1.5,0.9-2c0.5-0.5,1.3-0.8,2.1-0.8h4.7
					c1.5,0,2.9,1.5,2.8,3.1c-0.1,1.6-1.5,3-3,2.9L341.1,117.9z"/>
				<path class="st0" d="M329.1,108.6c-0.8,0-1.5-0.2-2.1-0.7c-0.6-0.5-0.9-1-0.9-1.6c0-0.7,0.2-1.3,0.7-1.7c0.5-0.5,1.2-0.8,2-0.9
					l21-2.3c0.8-0.1,1.5,0.2,2.1,0.8s1,1.4,1,2.3s-0.2,1.7-0.7,2.4c-0.5,0.6-1.2,1-2,1L329.1,108.6z"/>
				<path class="st0" d="M307.3,93.8c-0.7,0.2-1.4,0.5-1.8,0.3c-0.2,0-0.5,0-0.7-0.1c-0.1-0.1-0.3-0.2-0.5-0.3
					c-0.1-0.1-0.1-0.3,0-0.6s0.1-0.3,0.2-0.7c0.2-0.5,0.8-0.9,1.4-1.3l18.6-10.8c0.6-0.3,1.4-0.5,2-0.2c0.3,0.1,0.6,0.2,0.9,0.5
					s0.5,0.5,0.7,0.8c0.1,0.3,0.2,0.7,0.2,1c0,0.3,0,0.7-0.1,1c-0.2,0.6-0.7,1.2-1.4,1.5L307.3,93.8z"/>
				<path class="st0" d="M326.4,74c-0.7,0.5-1.4,0.6-2.1,0.5c-0.7-0.1-1.4-0.5-1.8-1c-0.5-0.6-0.6-1.3-0.6-2c0-0.7,0.5-1.4,1-2
					l13.9-12c0.6-0.5,1.4-0.7,2.3-0.5c0.8,0.1,1.7,0.7,2.4,1.6c0.7,0.8,1,1.8,1,2.7c0,0.9-0.3,1.6-1,2.1L326.4,74z"/>
				<path class="st0" d="M308.6,86.8c-0.6,0.5-1.3,0.7-1.8,0.7c-0.6,0-1-0.1-1.3-0.5c-0.2-0.3-0.2-0.8-0.1-1.4
					c0.1-0.6,0.6-1.2,1.2-1.6l5.5-4.7c0.6-0.5,1.3-0.7,1.8-0.8c0.6,0,1.3,0.2,1.6,0.7c0.3,0.5,0.5,1.2,0.2,1.7
					c-0.1,0.6-0.6,1.2-1.2,1.6L308.6,86.8z"/>
				<path class="st0" d="M335.1,80.9c-0.7,0.3-1.5,0.2-2.2,0c-0.7-0.2-1.3-0.8-1.6-1.5c-0.3-0.7-0.5-1.5-0.3-2.2
					c0.1-0.7,0.6-1.4,1.3-1.7l10.7-6.5c0.7-0.3,1.5-0.3,2.3,0s1.5,1,2.1,2c0.5,0.9,0.7,2,0.5,2.9c-0.1,0.8-0.6,1.5-1.3,1.8
					L335.1,80.9z"/>
				<path class="st0" d="M291.4,113.5c-1.2,0-2.1-0.7-2.1-1.4s0.9-1.2,2.1-1.3h13.3c1.2,0,2.1,0.8,2.1,1.7c0,0.5-0.2,0.9-0.7,1.3
					c-0.5,0.3-0.9,0.5-1.5,0.5L291.4,113.5z"/>
				<path class="st0" d="M293.3,89.1c-0.5,0.6-0.9,1-1.5,1.4c-0.5,0.2-0.8,0.3-1.2,0.1c-0.2-0.1-0.3-0.6-0.2-1.2
					c0.1-0.5,0.3-1.2,0.7-1.7l6.9-10.8c0.3-0.6,0.9-1.2,1.5-1.3c0.6-0.2,1.2-0.1,1.5,0.1c0.5,0.2,0.6,0.8,0.6,1.5
					c0,0.6-0.2,1.3-0.7,1.8L293.3,89.1z"/>
				<path class="st0" d="M295.1,93.4c-0.6,0.5-1.2,0.9-1.6,1c-0.5,0.2-0.8,0.2-1,0.1c-0.1-0.1-0.1-0.6,0.1-1c0.2-0.5,0.6-1,1-1.5
					l6.8-7.4c0.5-0.6,1-0.9,1.6-1c0.6-0.1,1,0,1.4,0.2c0.3,0.3,0.3,0.8,0.2,1.4c-0.1,0.6-0.6,1.2-1.2,1.6L295.1,93.4z"/>
				<path class="st0" d="M323,94.3c-0.8,0.2-1.5,0.2-2.1,0c-0.6-0.1-1-0.6-1.3-1c0-0.1-0.1-0.2-0.1-0.5c-0.1-0.5,0-1,0.3-1.5
					c0.3-0.5,0.9-1,1.6-1.3l24.5-9.8c1.5-0.6,3.2,0.2,3.8,2c0.1,0.2,0.1,0.5,0.2,0.8c0.2,0.8,0.2,1.7-0.1,2.4
					c-0.3,0.7-0.9,1.3-1.6,1.5L323,94.3z"/>
				<path class="st0" d="M304.7,100.3c-0.7,0.2-1.5,0.2-2,0.1c-0.2,0-0.5-0.1-0.7-0.2c-0.1-0.1-0.2-0.2-0.3-0.3c0-0.1,0-0.3,0-0.5
					c0.1-0.1,0.2-0.3,0.5-0.6c0.3-0.3,1-0.8,1.7-1l7.4-2.8c0.7-0.2,1.5-0.3,2-0.2c0.2,0,0.6,0.1,0.8,0.3c0.2,0.1,0.3,0.3,0.5,0.6
					c0,0.2,0,0.5,0,0.7s-0.2,0.5-0.3,0.7c-0.3,0.5-1,0.8-1.7,1L304.7,100.3z"/>
				<path class="st0" d="M334.4,99.5c-0.9,0.1-1.8,0-2.5-0.3c-0.3-0.1-0.6-0.3-0.8-0.7c-0.2-0.3-0.3-0.6-0.5-0.9
					c-0.1-0.7,0.1-1.4,0.6-2c0.5-0.6,1.3-1.2,2.2-1.4l14.6-3.6c0.9-0.2,1.8,0,2.5,0.5c0.7,0.5,1.4,1.3,1.5,2.2
					c0.1,0.5,0.1,0.9,0,1.4s-0.2,0.8-0.6,1.3c-0.5,0.7-1.3,1.3-2.2,1.4L334.4,99.5z"/>
				<path class="st0" d="M314.9,102.9c-0.9,0.1-1.8-0.6-2-1.5c-0.1-0.5,0-1,0.2-1.4s0.6-0.7,1-0.8l13-3.1c0.5-0.1,0.9,0,1.4,0.5
					c0.3,0.3,0.7,0.9,0.8,1.6c0.2,1.4-0.3,2.7-1.3,2.8L314.9,102.9z"/>
				<path class="st0" d="M322.8,138.6c-1.6-0.6-2.4-1.8-2.1-3c0.3-1.2,1.7-1.7,3.1-1.4l14.7,4c1.4,0.3,2.2,1.8,1.7,3.2
					c-0.5,1.5-2,2.3-3,1.8L322.8,138.6z"/>
				<path class="st0" d="M330.6,133.3c-1.5-0.3-2.4-1.7-2.1-3c0.2-1.4,1.7-2.2,3.2-1.8l11.1,2.1c1.5,0.2,2.5,1.7,2.2,3.3
					c-0.3,1.5-1.8,2.5-3.3,2.2L330.6,133.3z"/>
				<path class="st0" d="M303.5,126.1c-1.3-0.2-2.1-1.4-1.8-2.3c0.2-0.9,1.4-1.5,2.7-1.4l17.3,3.1c1.3,0.2,2.1,1.5,1.7,2.8
					c-0.2,1.3-1.5,2.1-2.8,1.7L303.5,126.1z"/>
				<path class="st0" d="M303.4,132.4c-1.5-0.5-2.4-1.6-2.1-2.5c0.2-0.9,1.6-1.4,3.1-1l9,2.4c1.5,0.3,2.4,1.6,2.1,2.9
					c-0.3,1.2-1.8,1.6-3.2,1.2L303.4,132.4z"/>
				<path class="st0" d="M285.5,94.9c-0.5,0.8-1,1.5-1.5,2c-0.2,0.2-0.5,0.3-0.6,0.5c-0.1,0.1-0.3,0.1-0.5,0
					c-0.5-0.2-0.2-1.8,0.6-3.6l5.1-10.5c0.3-0.8,0.9-1.5,1.5-2c0.6-0.5,1.2-0.6,1.5-0.3c0.2,0.1,0.3,0.2,0.5,0.6
					c0.1,0.2,0.1,0.6,0.1,0.9c0,0.7-0.3,1.5-0.8,2.3L285.5,94.9z"/>
				<path class="st0" d="M297.3,119.8c-0.7-0.1-1.4-0.3-1.7-0.7c-0.5-0.3-0.7-0.8-0.6-1.2c0.1-0.8,1.4-1.4,2.9-1.2l6.3,0.7
					c1.5,0.1,2.5,1,2.4,2.1s-1.5,1.6-2.9,1.4L297.3,119.8z"/>
				<path class="st0" d="M292.2,100.9c-0.7,0.3-1.4,0.5-1.7,0.7c-0.2,0-0.5,0.1-0.6,0.1s-0.2,0-0.2-0.1c0,0,0-0.1,0.1-0.2
					c0.1-0.1,0.2-0.2,0.3-0.5c0.3-0.3,0.9-0.7,1.5-1.2l4-2.3c0.6-0.3,1.3-0.6,1.7-0.7c0.2,0,0.5,0,0.7,0c0.1,0,0.2,0.1,0.3,0.2
					c0,0.1,0,0.2,0,0.5c0,0.1-0.2,0.3-0.3,0.6c-0.3,0.3-0.9,0.7-1.6,1L292.2,100.9z"/>
				<path class="st0" d="M295.7,106.6c-1.5,0.1-2.8-0.1-2.8-0.7c0-0.6,1-1.2,2.4-1.5l4.3-0.8c1.5-0.2,2.8,0,2.9,0.8s-1,1.5-2.4,1.7
					L295.7,106.6z"/>
			</g>
			<path class="st2" d="M253.8,162c-19.2,0-37.3-7.5-50.9-21.1c-13.6-13.6-21.1-31.7-21.1-50.9s7.5-37.3,21.1-50.9
				C216.5,25.5,234.6,18,253.8,18c15.2,0,25.2,2.7,35.8,9.6c1.2,0.7,1.5,2.2,0.7,3.2c-0.7,1.2-2.2,1.5-3.2,0.7
				c-9.9-6.5-19-8.9-33.3-8.9c-18,0-34.8,7-47.5,19.7c-12.8,12.7-19.8,29.6-19.8,47.5s7,34.8,19.7,47.5s29.6,19.7,47.5,19.7
				c13.3,0,20.9-2.7,31.3-7.7c1.2-0.6,2.7-0.1,3.1,1.2c0.6,1.2,0.1,2.7-1.2,3.1C276.4,159,267.9,162,253.8,162z"/>
		</g>
	</g>
	<g class="st3">
		<path d="M192.7,244.8h5.6v6h-0.5c0-0.2-0.1-1-0.1-2.3c-0.6,1.4-2,2.4-4.1,2.4c-3.3,0-5.5-2.7-5.5-6.7c0-4,2.3-6.7,5.6-6.7
			c3.7,0,4.6,2.8,4.7,3.9l-0.7,0.1c0-0.8-0.8-3.3-4-3.3c-2.9,0-4.8,2.3-4.8,6c0,3.6,1.8,6,4.8,6c3,0,4.1-2.2,4.1-3.5v-1.4h-5
			L192.7,244.8L192.7,244.8z"/>
		<path d="M219.6,250.9c0,0-0.2,0-0.5,0c-3,0-2.3-5.4-6.1-5.4H211v5.3h-0.8v-13h3.7c2.7,0,4.4,1.5,4.4,3.9c0,2.1-1.4,3.3-3.5,3.7
			c2.3,0.6,2.5,4.8,4.5,4.8c0.1,0,0.2,0,0.2,0L219.6,250.9z M213.6,244.9c2.2,0,3.8-1.2,3.8-3.2c0-2-1.5-3.2-3.7-3.2h-3v6.5H213.6
			L213.6,244.9z"/>
		<path d="M237.4,247H231l-1.5,3.8h-0.8l5-13h0.8l5,13h-0.8L237.4,247z M237.1,246.4l-2.8-7c0-0.1-0.1-0.5-0.2-0.7l0,0
			c0,0.2-0.1,0.5-0.2,0.7l-2.8,7H237.1z"/>
		<path d="M259.1,242c0,2.4-1.7,4-4.5,4h-3.3v4.8h-0.8v-13h4.1C257.3,237.9,259.1,239.5,259.1,242z M258.3,242
			c0-2.1-1.5-3.5-3.9-3.5h-3.3v6.8h3.3C256.8,245.4,258.3,244,258.3,242z"/>
		<path d="M280.2,237.9v13h-0.8v-6.5h-8.5v6.5h-0.8v-13h0.8v5.9h8.5v-5.9H280.2L280.2,237.9z"/>
		<path d="M292.6,237.9h0.8v13h-0.8V237.9z"/>
		<path d="M315.4,241.7l-0.7,0.1c0-0.8-0.8-3.5-4-3.5c-2.9,0-5,2.2-5,6s2.2,6,5.2,6c2.3,0,3.6-1.4,4-2.1l0.5,0.5
			c-0.5,0.6-1.8,2.3-4.6,2.3c-3.6,0-6-2.4-6-6.7c0-4.1,2.4-6.7,5.8-6.7C314.2,237.7,315.3,240.5,315.4,241.7z"/>
		<path d="M330.1,238.3c-2,0-3.3,1-3.3,2.7c0,3.9,7.7,1.7,7.7,6.7c0,2-1.7,3.2-4.4,3.2c-2.5,0-3.9-0.9-4.6-1.5l0.5-0.6
			c0.7,0.6,1.8,1.5,4.3,1.5c2.2,0,3.6-1,3.6-2.7c0-4.3-7.7-2-7.7-6.7c0-2,1.6-3.2,4.1-3.2c2.9,0,3.8,1.7,4.1,2.8l-0.7,0.1
			C333.4,239.9,332.4,238.3,330.1,238.3z"/>
	</g>
	<g class="st3">
		<path d="M170.5,201.5l-0.7-2.5c-0.1-0.6-0.6-0.9-1.5-0.9h-7.7v10h6.9c0.9,0,1.2,0,1.4-0.6l0.8-2.1h0.9v7.4h-0.9l-0.8-2.4
			c-0.1-0.5-0.5-0.6-1.4-0.6h-6.9v8.9c0,0.9,0,1.3,0.6,1.4l3.3,0.9v0.6H153v-0.6l2.7-0.8c0.5-0.1,0.6-0.5,0.6-1.4v-20.1
			c0-0.9,0-1.3-0.6-1.4l-2.7-0.8v-0.6h18.6v5.2L170.5,201.5L170.5,201.5z"/>
		<path d="M173.9,221.7v-0.6l2.4-0.8c0.5-0.1,0.5-0.3,0.5-1.3v-22.2c0-0.8-0.1-1-0.7-1.2l-2.4-0.5v-0.6l6.7-1l0.2,0.1v25.4
			c0,0.8,0,1,0.5,1.2l2.4,0.8v0.6L173.9,221.7L173.9,221.7z"/>
		<path d="M200,222l-0.2-0.2l-0.3-2.3H199c-2.3,2-4.1,2.8-6.3,2.8c-3.7,0-5.3-2.9-5.3-5.9v-10.9c0-0.8-0.1-1.2-0.7-1.3l-2.5-0.5
			v-0.6l6.7-1l0.2,0.1v13c0,2.7,1.5,4.4,4,4.4c1.4,0,2.7-0.7,3.8-1.5v-12.7c0-0.8,0-1.2-0.7-1.3l-2.5-0.5v-0.6l6.7-1l0.2,0.1V217
			l0.1,1.5c0.1,0.8,0.1,1.2,0.7,1.3l2.3,0.5v0.6L200,222z"/>
		<path d="M214.1,222.2c-3,0-4.7-2.4-4.7-5.8v-11.5h-3v-1.8h3.1v-3.9l3.6-1.8v5.9h5.3v2h-5.3V216c0,2.4,1.2,3.8,3.1,3.8
			c1.2,0,2.1-0.5,2.8-1l0.6,0.8C218.2,220.6,216.5,222.2,214.1,222.2z"/>
		<path d="M226.9,222.2c-3,0-4.7-2.4-4.7-5.8v-11.5h-3v-1.8h3.1v-3.9l3.6-1.8v5.9h5.3v2h-5.3V216c0,2.4,1.2,3.8,3.1,3.8
			c1.2,0,2.1-0.5,2.8-1l0.6,0.8C231,220.6,229.2,222.2,226.9,222.2z"/>
		<path d="M241.6,222.3c-5.4,0-8.3-4.5-8.3-9.6c0-5.5,3.1-10.8,9.2-10.8c4.8,0,7,3.9,7,8c0,0.2,0,0.5,0,0.7h-12.9
			c0.1,6.2,4,8.2,7.3,8.2c2.2,0,4-0.7,5.4-1.6l0.5,0.7C247.4,220.3,245.3,222.3,241.6,222.3z M241.1,203.5c-2.7,0-4.4,2.7-4.5,5.4
			h4.7l4.1-0.2C245.7,205.9,243.9,203.5,241.1,203.5z"/>
		<path d="M265.6,204.8l-0.8,2.2h-0.6c-0.5-1.2-1.6-1.7-2.7-1.7c-0.8,0-1.7,0.3-2.9,1.3v12.7c0,0.8,0,1.2,0.6,1.3l3.3,0.8v0.6H252
			v-0.6l2.4-0.8c0.5-0.1,0.6-0.3,0.6-1.3v-12.1l-0.2-1.7c0-0.8-0.1-1.2-0.7-1.3l-2.3-0.5v-0.6l6-1l0.2,0.1l0.2,2.8h0.2
			c1.6-1.5,3.1-3.1,5.5-3.1c1,0,1.8,0.3,1.8,1.5C265.9,203.9,265.8,204.2,265.6,204.8z"/>
		<path d="M289.1,221.7h-12.2v-0.6l2.7-0.8c0.5-0.1,0.6-0.5,0.6-1.4v-20.1c0-0.9,0-1.3-0.6-1.4l-2.7-0.8v-0.6H290
			c8,0,13.8,3.2,13.8,12.1C303.9,216.4,297.8,221.7,289.1,221.7z M289.5,198.1h-5v20.6c0,1,0.6,1.3,1.3,1.3h3.1
			c5.1,0,10.1-2.9,10.1-11.1C298.9,202.4,296,198.1,289.5,198.1z"/>
		<path d="M318.7,222l-0.2-0.2l-0.2-2.5H318c-1.8,1.5-3.5,3-6.2,3s-5-2-5-4.6c0-4.4,3.5-5.9,10.9-7.4v-2.1c0-3-2.1-4-4.5-4
			c-1.8,0-2.4,0.6-2.4,1.7v1.8l-0.2,0.1h-1.5c-0.8,0-1.2-0.5-1.2-1.2c0-1.2,1.3-2.3,2.1-3c1.4-1.2,3.2-1.7,5.3-1.7
			c4.5,0,6.1,2.7,6.1,7v8.3l0.1,1.5c0.1,0.8,0.1,1.2,0.7,1.3l2.5,0.5v0.6L318.7,222z M317.7,211.6c-5.6,1-7,2.7-7,4.5
			s1.5,3.1,3.3,3.1c1.4,0,2.9-0.3,3.7-1.2V211.6L317.7,211.6z"/>
		<path d="M337.3,221.7v-0.6l2.4-0.8c0.5-0.1,0.5-0.3,0.5-1.3v-10.4c0-2.7-1.6-4.4-4.1-4.4c-1.4,0-2.9,0.6-4,1.5v13.4
			c0,0.8,0,1,0.5,1.2l2.4,0.8v0.6h-9.6v-0.6l2.4-0.8c0.5-0.1,0.5-0.3,0.5-1.3v-12.3l-0.1-1.4c-0.1-0.8-0.1-1.2-0.7-1.3l-2.3-0.5
			v-0.6l6-1l0.2,0.1l0.3,2.3h0.2c2.3-2,4.4-2.7,6.6-2.7c3.9,0,5.5,2.8,5.5,5.9v11.5c0,0.8,0,1,0.5,1.2l2.4,0.8v0.6L337.3,221.7
			L337.3,221.7z"/>
		<path d="M355.7,222.3c-5,0-7.6-5.1-7.6-9.8c0-5.5,3.7-10.6,9.4-10.6c1.3,0,4.7,0.3,4.7,2c0,0.3-0.1,1-0.3,1.4l-0.9,2h-0.6
			c-0.7-1.8-2-3.3-4.3-3.3c-2.8,0-4.5,3-4.5,6.6c0,5.3,2.7,8.3,6.2,8.3c2,0,3.6-0.9,4.5-1.6l0.6,0.7
			C361.1,220.1,359.2,222.3,355.7,222.3z"/>
		<path d="M373,222.3c-5.4,0-8.3-4.5-8.3-9.6c0-5.5,3.1-10.8,9.2-10.8c4.8,0,7,3.9,7,8c0,0.2,0,0.5,0,0.7H368c0.1,6.2,4,8.2,7.3,8.2
			c2.2,0,4-0.7,5.4-1.6l0.5,0.7C378.6,220.3,376.6,222.3,373,222.3z M372.3,203.5c-2.7,0-4.4,2.7-4.5,5.4h4.7l4.1-0.2
			C376.9,205.9,375.2,203.5,372.3,203.5z"/>
	</g>
</g>
</svg>
