<?xml version="1.0" encoding="utf-8"?>
<!-- Generator: Adobe Illustrator 24.0.3, SVG Export Plug-In . SVG Version: 6.00 Build 0)  -->
<svg version="1.1" id="Layer_1" xmlns="http://www.w3.org/2000/svg" xmlns:xlink="http://www.w3.org/1999/xlink" x="0px" y="0px"
	 viewBox="0 0 213.8 119.3" style="enable-background:new 0 0 213.8 119.3;" xml:space="preserve">
<style type="text/css">
	.st0{display:none;}
	.st1{fill:#231F20;}
	.st2{font-family:'PenumbraSansStd-Semibold';}
	.st3{font-size:25.5247px;}
</style>
<g id="Layer_2_1_" class="st0">
</g>
<g id="Layer_1_1_">
	<g>
		<g>
			<circle class="st1" cx="94.1" cy="55.9" r="2.1"/>
			<path class="st1" d="M85,76.9c1.8,0.2,4.7-0.2,8-1.5c1.7-2.3,2-5.6,1.9-6.7c-0.2-1.4,0.8-4.1,0.9-4.5s-1-0.3-1-0.3
				c0.5-0.5,0.9-1.1,0.9-1.1c-1.8-4.8-8.2-3.5-8.2-3.5s0.2-1.1-0.4-0.9c-0.6,0.1-4.2-0.2-6.2-0.9s1.4-3.2-0.9-5.8
				c-1.1-1.3-2.7,0.2-4-0.7c-1.1-0.8-4.4-2.1-4.4-2.1s-7.1,17.3,12.2,27.9L85,76.9z M79.3,62.5c-1.1-0.1-2-1-2-2.2s1-2,2.2-2
				c1.1,0.1,2,1,2,2.2C81.4,61.7,80.4,62.5,79.3,62.5z"/>
			<path class="st1" d="M95.7,52.2c0,0,8.2-0.3,13.2,0.4c1.6,0.2,1.5,2.9,1.2,4.3c1.5-5.4,6.1-7.8,11.2-8.4
				c7.3-5.1,19.9-22,10.6-33.3c-11-13.4-27.7-1.6-31.1,3c-2.4,3.3,0.9,6.4,3,7.9c0.6,0.4,1.5,0.2,1.8-0.5c0.7-1.7,2.5-3.9,4.8-5.4
				c5.4-3.5,13.2-2.3,13.2,4.3c0,9.4-14.2,7-17,6.1c-2.2-0.7-20-5.3-30.3,11c0,0,6.5-1,4.7,6.3c0,0,8.1,0,10.9,0.4
				C93.6,48.6,94.9,50.3,95.7,52.2z M103.6,36.7c1.5,0,2.8,1.2,2.8,2.8c0,1.5-1.2,2.8-2.8,2.8c-1.5,0-2.8-1.2-2.8-2.8
				S102.1,36.7,103.6,36.7z"/>
			<path class="st1" d="M110.5,58.1c-3,13.7-16.8,19-23.4,19.6l0,0c3.5,1.1,11,2.5,18.2,2.1c8.1-0.5,14-4.1,15.4-11.5
				c1.3-7.5-1.7-14.7,9.5-20C124.1,48.7,112.5,48.9,110.5,58.1z M119.8,54.7c0,1.2-0.9,2.1-2.1,2.1s-2.1-0.9-2.1-2.1
				s0.9-2.1,2.1-2.1C118.9,52.6,119.8,53.5,119.8,54.7z"/>
		</g>
		<text transform="matrix(1 2.280000e-03 -2.280000e-03 1 -2 118.5131)" class="st1 st2 st3">Hono</text>
		<text transform="matrix(1 2.280000e-03 -2.280000e-03 1 83.3799 118.7076)" class="st1 st2 st3">l</text>
		<text transform="matrix(1 2.280000e-03 -2.280000e-03 1 95.55 118.7355)" class="st1 st2 st3">ulu Zoo</text>
	</g>
</g>
</svg>
