<?xml version="1.0" encoding="utf-8"?>
<!-- Generator: Adobe Illustrator 24.0.3, SVG Export Plug-In . SVG Version: 6.00 Build 0)  -->
<svg version="1.1" id="Layer_1" xmlns="http://www.w3.org/2000/svg" xmlns:xlink="http://www.w3.org/1999/xlink" x="0px" y="0px"
	 viewBox="0 0 100.6 72" style="enable-background:new 0 0 100.6 72;" xml:space="preserve">
<style type="text/css">
	.st0{enable-background:new    ;}
	.st1{fill:none;}
	.st2{font-family:'Speedee-Light';}
	.st3{font-size:12px;}
	.st4{font-family:'Speedee-Bold';}
	.st5{font-family:'SpeedeeCondensed-Light';}
</style>
<g class="st0">
	<path d="M2.7,68.4c0-0.9,0.7-2.8,1.4-4.7c0.7-1.9,1.4-3.7,1.4-4.6c0-0.6-0.1-0.9-0.3-1.1c-2.3,0.2-3.8,3.8-3.8,5.8
		c0,0.6,0.1,1.1,0.5,1.3c0.7-0.9,1.3-3,1.3-4.2c0-0.3,0-0.6-0.1-0.7C3.2,60.1,3.3,60,3.5,60c0.4,0,0.8,0.4,0.8,1.2
		c0,1.5-1.3,4.4-2.7,4.4c-0.9,0-1.3-0.8-1.3-1.8c0-2.9,2-6.4,4.3-6.4c1,0,2,0.8,2,2c0,1-0.9,3.2-1.7,5.3c-0.6,1.6-1.2,3.1-1.2,3.8
		c0,0.2,0,0.4,0.2,0.5c0.9-0.8,1.9-3.6,3.1-6.8c1.3-3.9,2.2-4.8,3.2-4.8c0.6,0,0.8,0.3,0.8,0.5c0,0.1,0,0.1-0.1,0.2
		c-0.1,0-0.2-0.1-0.4-0.1c-1,0-1.8,2.2-2.5,4.3c-1.9,5-3,7.3-4.3,7.3C3.1,69.6,2.7,69,2.7,68.4z"/>
	<path d="M8.5,67.6c-0.5,0-0.9-0.3-0.9-0.7c0-1.2,1.8-4.3,1.8-5.1c-0.2,0.1-0.4,0.1-0.6,0.1c-0.2,0-0.3-0.1-0.3-0.2
		c0-0.1,0-0.1,0-0.2c0.4,0,0.7-0.1,1-0.1c0.5,0,0.8,0.2,0.8,0.6c0,0.9-1.6,3.8-1.8,4.9c1-0.6,2.2-2.8,2.9-4.5c0.1,0,0.1,0,0.1,0.1
		C11.7,63.2,9.6,67.6,8.5,67.6z M11.6,59.3c0,0.4-0.6,0.9-1.1,1.3c-0.2,0.2-0.4,0.3-0.5,0.4c-0.1,0-0.2-0.1-0.2-0.2
		c0-0.1,0-0.2,0.1-0.4c0.1-0.3,0.4-0.7,0.6-1.5C11.2,58.9,11.6,58.9,11.6,59.3z"/>
	<path d="M12.9,67.6c-0.5,0-0.9-0.6-1.3-1.9c-0.3,0.7-0.6,1.3-0.8,1.8c-0.3,0-0.9,0.1-0.9-0.3c0-0.5,0.9-2.9,1.6-4.8
		c0.9-2.1,1.8-4.2,2.1-5c0.5,0,1.1,0,1,0.4c-0.5,1.3-1.6,3.7-2.8,6.7c0.9-1.7,1.6-3.2,2.3-3.2c0.5,0,1.1,0.5,1.1,1
		c0,0.3-0.1,1-0.5,1.8c-0.5,0.9-1.1,1.5-2.1,1.5c-0.3,0-0.5-0.1-0.8-0.2c0.3,0.2,1,0.9,1.6,0.9c1,0,2.3-2.2,3-3.8
		c0.1,0,0.1,0,0.1,0.1C16.5,63.2,14.4,67.6,12.9,67.6z M11.8,65.3c1.2,0,2.3-2.2,2.3-3.2c0-0.1,0-0.2-0.1-0.3
		C13.7,61.8,12.6,63.6,11.8,65.3z"/>
	<path d="M15,66.6c0-0.7,0.9-3,1.6-4.7c-0.2,0-0.5,0-0.6-0.1v-0.1c0-0.1,0-0.2,0.2-0.2s0.4,0,0.6,0c0.3-0.7,0.5-1.2,0.7-1.5
		c0.7,0,0.9,0.2,0.9,0.5c0,0.2-0.2,0.6-0.4,1c0.3,0,0.6,0,0.8,0c0,0.1,0,0.1,0,0.1c0,0.2-0.3,0.3-1.1,0.3c-0.4,1-0.9,2.2-1.5,3.8
		C16.1,66,16,66.3,16,66.5c0,0.2,0,0.3,0.1,0.4c0.9-0.6,2-2.7,2.7-4.5c0.1,0,0.1,0,0.1,0.1c0,0.6-1.8,5-3.1,5
		C15.5,67.6,15,67.1,15,66.6z"/>
	<path d="M19.1,67.5c-0.8,0-1.4-0.5-1.4-1.5c0-1.1,0.5-2.6,1.3-3.7c0.1-0.2,0.3-0.4,0.5-0.4c0,0,0.1,0,0.2,0
		c0.2-0.4,0.6-0.6,1.1-0.6c0.6,0,1.3,0.5,1.3,1.3s-0.5,2.3-1.2,3.5c0.9-0.4,1.8-2.1,2.5-4.1c0.1,0,0.3,0,0.3,0.2
		c0,0.7-1.2,4.2-2.8,4.2c-0.1,0-0.1,0-0.2,0c0,0.1-0.1,0.2-0.2,0.2C20.1,67.3,19.5,67.5,19.1,67.5z M19.8,66c-0.4-0.5-0.5-1.2-0.6-2
		c-0.3,0.8-0.5,1.7-0.5,2.3c0,0.4,0.1,0.7,0.4,0.8C19.3,66.9,19.6,66.5,19.8,66z M20,65.6c0.5-1,0.9-2.3,0.9-3.2
		c0-0.3-0.1-0.6-0.4-0.7c-0.4,0.3-0.8,1.4-0.8,2.4C19.7,64.6,19.8,65.2,20,65.6z"/>
	<path d="M22.3,66.6c0-0.6,1.7-3.4,1.7-3.7c0-0.2-0.1-0.2-0.3-0.3c-0.4-0.3-0.5-0.5-0.5-1c0-1.3,0.5-1.8,0.9-1.8
		c0.2,0,0.5,0.1,0.6,0.3c-0.3,0.4-0.6,0.9-1,1.6c-0.1,0.1-0.1,0.2-0.1,0.3s0,0.2,0.1,0.2c0.9,0.3,1.2,0.3,1.2,0.8
		c0,0.4-0.5,1.4-0.9,2.3c-0.3,0.7-0.6,1.3-0.7,1.7c0.5-0.2,0.9-0.9,1.2-1.4c0.1,0,0.2,0,0.2,0.1c0,0.5-0.9,1.9-1.7,1.9
		C22.7,67.6,22.3,67.1,22.3,66.6z"/>
	<path d="M29.3,69.6c-2.1,0-2.9-1.4-2.9-2.9c0-1.7,1-3.4,2.7-3.4c1.1,0,1.6,1,1.6,2.1s-0.5,2.1-1.5,2.1c-0.3,0-0.5-0.1-0.6-0.3
		c0.5-0.5,0.9-1.6,0.9-2.4c0-0.5-0.1-0.8-0.5-1c-0.8,0.2-1.5,1.7-1.5,3.1c0,1.1,0.5,2.2,1.7,2.4c1.2-0.3,2-1.9,2-3.1
		c0-2.6-1.5-3.7-1.5-6.1c0-1.6,1.1-2.5,2.1-2.5c1.4,0,2,0.8,2.2,1.7c0-0.3,0-0.6,0-0.8c0-1.1,0.1-2.1,0.9-2.1c0.3,0,0.7,0.2,0.9,0.7
		c-1,0.6-1.3,1.7-1.6,2.7c-0.1,0.4-0.2,0.7-0.3,1.1c-0.3,0.6-0.7,1-1.1,1c-0.2,0-0.4-0.1-0.5-0.2c0.5-0.6,0.8-1.3,0.8-2
		s-0.2-1.3-0.7-1.6c-0.6,0-1.2,0.8-1.2,1.8c0,2.2,1.5,3.5,1.5,6.1C32.6,67.8,31.4,69.6,29.3,69.6z"/>
	<path d="M38.6,62c0.1,0,0.3,0,0.3,0.1c0,0.5-2,5.4-4,5.4c-0.9,0-1.7-0.6-1.7-1.4c0-1.4,0.8-3.8,1.9-4.6c0.2-0.1,0.6-0.2,0.8-0.2
		c0.7,0,1.4,0.4,1.4,1.3c0,0.8-0.5,2.4-1.4,2.4c-0.2,0-0.4-0.1-0.5-0.3c0.4-0.4,1-2,1-2.7c0-0.2,0-0.3-0.1-0.3c-0.6,0-1.9,3-1.9,4.4
		c0,0.4,0.1,0.7,0.4,0.9C35.6,66.9,37.6,64.4,38.6,62z"/>
	<path d="M37.5,66.6c0-0.6,1.7-3.4,1.7-3.7c0-0.2-0.1-0.2-0.3-0.3c-0.4-0.3-0.5-0.5-0.5-1c0-1.3,0.5-1.8,0.9-1.8
		c0.2,0,0.5,0.1,0.6,0.3c-0.3,0.4-0.6,0.9-1,1.6c-0.1,0.1-0.1,0.2-0.1,0.3s0,0.2,0.1,0.2c0.9,0.3,1.2,0.3,1.2,0.8
		c0,0.4-0.5,1.4-0.9,2.3c-0.3,0.7-0.7,1.5-0.7,1.8c1-0.5,2.3-2.7,3-4.6c0.1,0,0.1,0,0.1,0.1c0,0.6-1.9,5-3.4,5
		C37.9,67.6,37.5,67.1,37.5,66.6z"/>
	<path d="M40.9,67.6c-0.5,0-0.9-0.3-0.9-0.7c0-1.2,1.8-4.3,1.8-5.1c-0.2,0.1-0.4,0.1-0.6,0.1c-0.2,0-0.3-0.1-0.3-0.2
		c0-0.1,0-0.1,0-0.2c0.4,0,0.7-0.1,1-0.1c0.5,0,0.8,0.2,0.8,0.6c0,0.9-1.6,3.8-1.8,4.9c1-0.6,2.2-2.8,2.9-4.5c0.1,0,0.1,0,0.1,0.1
		C44.1,63.2,42.1,67.6,40.9,67.6z M44,59.3c0,0.4-0.6,0.9-1.1,1.3c-0.2,0.2-0.4,0.3-0.5,0.4c-0.1,0-0.2-0.1-0.2-0.2
		c0-0.1,0-0.2,0.1-0.4c0.1-0.3,0.4-0.7,0.6-1.5C43.6,58.9,44,58.9,44,59.3z"/>
	<path d="M41.1,70.8c0-0.8,1.6-5.1,2.1-6.2c0.5-1.2,1.5-3.9,1.7-4.5c0.6,0,0.8,0.1,0.8,0.4c0,0.4-0.7,2.1-1,2.9
		c0.7-1.4,1.3-2.1,1.7-2.1s1,0.4,1,1c0,1.3-0.7,3.5-1.6,4.6c1-0.7,2.3-2.7,3-4.4c0.1,0,0.1,0,0.1,0.1c0,0.6-1.9,5-4.1,5
		c-0.5,0-0.9-0.3-1.1-0.8c-0.5,1.2-1,2.7-1.6,4.6C41.4,71.3,41.1,71.2,41.1,70.8z M45.6,64.4c0.4-1.1,0.7-2.1,0.6-2.5
		c-0.6,0.1-1.4,1.4-2.6,4.4c0.3,0.4,0.4,0.5,0.6,0.5C44.6,66.9,44.9,66.4,45.6,64.4z"/>
	<path d="M47.3,66.6c0-0.7,0.9-3,1.6-4.7c-0.2,0-0.5,0-0.6-0.1v-0.1c0-0.1,0-0.2,0.2-0.2s0.4,0,0.6,0c0.3-0.7,0.5-1.2,0.7-1.5
		c0.7,0,0.9,0.2,0.9,0.5c0,0.2-0.2,0.6-0.4,1c0.3,0,0.6,0,0.8,0c0,0.1,0,0.1,0,0.1c0,0.2-0.3,0.3-1.1,0.3c-0.4,1-0.9,2.2-1.5,3.8
		c-0.1,0.3-0.2,0.6-0.2,0.8c0,0.2,0,0.3,0.1,0.4c0.5-0.3,0.9-0.9,1.2-1.4c0.1,0,0.2,0,0.2,0.1c0,0.5-0.9,1.9-1.7,1.9
		C47.8,67.6,47.3,67.2,47.3,66.6z"/>
</g>
<rect x="0.6" y="1.1" class="st1" width="78.9" height="8.7"/>
<text transform="matrix(1 0 0 1 0.5583 9.5278)" class="st2 st3">Speedee Light</text>
<rect x="0.1" y="20.3" class="st1" width="78.9" height="8.7"/>
<text transform="matrix(1 0 0 1 0.1083 28.7278)" class="st4 st3">Speedee Bold</text>
<rect x="-0.2" y="39.6" class="st1" width="98.7" height="8.7"/>
<text transform="matrix(1 0 0 1 -0.1669 47.9773)" class="st5 st3">Speedee Condensed Light</text>
</svg>
