<svg id="Layer_1" data-name="Layer 1" xmlns="http://www.w3.org/2000/svg" viewBox="0 0 792 612"><defs><style>.cls-1{fill:#fff;}.cls-2{font-size:34px;font-family:BrandonGrotesque-Black, Brandon Grotesque;font-weight:800;letter-spacing:0.4em;}.cls-3{letter-spacing:0.52em;}.cls-4{letter-spacing:0.5em;}.cls-5{font-size:52.33px;letter-spacing:0.16em;}.cls-6{letter-spacing:0.14em;}.cls-7{letter-spacing:0.26em;}.cls-8{letter-spacing:0.22em;}.cls-9{letter-spacing:0.2em;}.cls-10{letter-spacing:0.21em;}.cls-11{letter-spacing:0.06em;}.cls-12{letter-spacing:0.18em;}.cls-13{letter-spacing:0.2em;}</style></defs><path d="M494.62,464C462.37,467.13,443,497.06,415,489.87c-.45-.11-.89-.23-1.34-.36-5.92-1.76-12.24-5.2-19.15-10.91q-1.1-.9-2.19-1.74l-.78-.59a66.63,66.63,0,0,0-21.78-10.63l-1.35-.37c-31.54-8.21-65.24,5.53-86.31-.4a45,45,0,0,1-10.53-4.51l-1.17-.7c-7.4-4.58-14.11-11.27-20.41-19.46l-.6-.79a197.19,197.19,0,0,1-13-19.91c-.16-.27-.31-.54-.46-.81-1.28-2.2-2.55-4.46-3.81-6.76l-.44-.79q-2.42-4.42-4.82-9c-.14-.27-.28-.53-.41-.8q-1.11-2.12-2.21-4.26c-.34-.65-.66-1.3-1-2-.13-.26-.26-.53-.38-.8-8.94-19.1-9.64-39.44-2.8-54.4.12-.28.25-.54.38-.81a41.16,41.16,0,0,1,3.64-6.17c.19-.27.39-.53.59-.79a35.72,35.72,0,0,1,9.05-8.5c.36-.24.73-.47,1.1-.7a38.26,38.26,0,0,1,14.31-5c.91-.13,1.83-.24,2.77-.31,7.64-.65,16.42.52,26.3,3.93,26.18,9,41.5,6.87,53.73,1.28l.93-.44c8.93-4.25,16.28-10.26,25.18-14.9,1.36-.7,2.72-1.38,4.08-2l1-.45c21.91-10,43.89-11,61.63-5.25q1.24.39,2.46.84C441.6,305.89,453,315.79,458.7,329c8.29,19,23,24.2,37.61,28.34l.88.24c10.11,2.84,20.17,5.28,28,11.54a79.48,79.48,0,0,1,6.35,5.6c.26.25.52.5.77.76C565.92,409.37,550.91,458.58,494.62,464Z"/><path class="cls-1" d="M249.3,387.89a3,3,0,0,1-2.64,3,2.31,2.31,0,0,1-.37,0,2.89,2.89,0,0,1-1.06-.2A3,3,0,0,1,243.5,389a3,3,0,0,1,2.79-4.14h.2a3,3,0,0,1,2.55,1.77h0a2.94,2.94,0,0,1,.25,1A1.55,1.55,0,0,1,249.3,387.89Z"/><path class="cls-1" d="M246.62,385.53c0,.42-.22.57-.59,1-.36.19-.86-.24-1.41.42-.41-.31-.79-.15-1.11-.23a3,3,0,0,1,2.78-1.86h.2A2.46,2.46,0,0,1,246.62,385.53Z"/><path class="cls-1" d="M246.8,387.69c0,.16.13,0,.35.85.21.62.52.73.85.35.33.59.63,0,.85-.35.21-.61.44-1,.44-.87,0-.43-.28-.9-.44-.82-.22-.39-.52.55-.85-.36-.33.27-.64-.39-.85.36S246.8,386.38,246.8,387.69Z"/><path class="cls-1" d="M248.57,389.85a3,3,0,0,1-1.91,1,.08.08,0,0,1,0-.08c0-1.32.13-.2.35-.85s.52-.09.85-.35C248.11,390.37,248.37,389.78,248.57,389.85Z"/><path class="cls-1" d="M246.29,390c0,.3-.2.27-.51.81a.43.43,0,0,0-.55-.14A3,3,0,0,1,243.5,389c.29-.17.65.14,1-.12.48.54.92,0,1.24.34C246.09,390,246.29,389.36,246.29,390Z"/><path class="cls-1" d="M282.76,362.16a22.36,22.36,0,0,0,4.63.58,6.32,6.32,0,0,0-.93-1.59,12.09,12.09,0,0,0-3.44.2c-2.2-.08-4.58.32-6.78,0l-.23,0a6.56,6.56,0,0,0-.85,1.56,5.37,5.37,0,0,0,.75-.13C278.1,362.36,280.56,362.79,282.76,362.16Z"/><path class="cls-1" d="M276.53,367.48c2.2-1,4.58-.06,6.78,0a6.56,6.56,0,0,1,4.29-.33,6.22,6.22,0,0,0,.27-1.56,4.4,4.4,0,0,0-5.19.27,34,34,0,0,1-6.77,0,11.16,11.16,0,0,0-1.16,0,7.28,7.28,0,0,0,.25,1.25c.17.07.33.14.5.23A5.23,5.23,0,0,1,276.53,367.48Z"/><path class="cls-1" d="M280.59,369.4c-1.36-.31-2.74-.78-4.06,0l-.27.08a6.81,6.81,0,0,0,.94.92C278.31,370.53,279.45,369.74,280.59,369.4Z"/><path class="cls-1" d="M286.35,369.46a11,11,0,0,1-2.71-.31,3.29,3.29,0,0,0-.33.23,2.73,2.73,0,0,1-.68.18,3.08,3.08,0,0,1,.68.6,11.87,11.87,0,0,0,2,.32A6.88,6.88,0,0,0,286.35,369.46Z"/><path class="cls-1" d="M282.68,364c1.3.72,2.52-.17,3.61-.58a7.74,7.74,0,0,0-3.14-.21,1.83,1.83,0,0,1-1-.07c-2-.7-3.93.09-6.23.21a4.27,4.27,0,0,0-.84-.2,7.14,7.14,0,0,0-.26,1.06,7.92,7.92,0,0,1,1.1-.21C278.1,365.4,280.49,365.81,282.68,364Z"/><path class="cls-1" d="M281.3,371.82l.45,0a13.55,13.55,0,0,0-2.8-.42A6.54,6.54,0,0,0,281.3,371.82Z"/><path class="cls-1" d="M282.09,369.32a2.13,2.13,0,0,1,.54.24,2.73,2.73,0,0,0,.68-.18,3.29,3.29,0,0,1,.33-.23L283,369A2.92,2.92,0,0,1,282.09,369.32Z"/><path class="cls-1" d="M287.6,367.15c0,.13-.08.25-.13.38-1.28,0-2.81.59-4.45.35-2.2,1-4.58.45-6.78,0a5.18,5.18,0,0,0-.74-.51,5.23,5.23,0,0,1,1,.11c2.2-1,4.58-.06,6.78,0A6.5,6.5,0,0,1,287.6,367.15Z"/><path class="cls-1" d="M280.83,369.33l-.24.07c-1.37-.31-2.74-.79-4.06,0l-.27.08c-.13-.15-.26-.32-.38-.49h.36C277.72,368.34,279.29,369.13,280.83,369.33Z"/><path class="cls-1" d="M286.88,368.73a6.48,6.48,0,0,1-.53.73,10.62,10.62,0,0,1-2.71-.32A3.79,3.79,0,0,1,286.88,368.73Z"/><path class="cls-1" d="M275.5,367.37h-.42a2.25,2.25,0,0,0-.08-.24C275.17,367.21,275.33,367.28,275.5,367.37Z"/><path class="cls-1" d="M287.47,367.53a6.68,6.68,0,0,1-.59,1.2,3.79,3.79,0,0,0-3.24.41c-.21,0-.41-.1-.62-.16a2.92,2.92,0,0,1-.93.34,2.45,2.45,0,0,0-1.26,0c-1.54-.2-3.11-1-4.59-.35h-.36a7,7,0,0,1-.8-1.59h.42a5.18,5.18,0,0,1,.74.51c2.2.45,4.58,1,6.78,0C284.66,368.12,286.19,367.48,287.47,367.53Z"/><path class="cls-1" d="M287.59,363.27a1.86,1.86,0,0,0-1.3.11,7.74,7.74,0,0,0-3.14-.21,1.83,1.83,0,0,1-1-.07c-2-.7-3.93.09-6.23.21a4.27,4.27,0,0,0-.84-.2l.09-.23a6.94,6.94,0,0,0,.75-.13c2.19-.39,4.65,0,6.85-.59a22.44,22.44,0,0,0,4.63.58A4.81,4.81,0,0,1,287.59,363.27Z"/><path class="cls-1" d="M287.88,365.23c0,.12,0,.25,0,.36a4.4,4.4,0,0,0-5.19.27,34,34,0,0,1-6.77,0,11.16,11.16,0,0,0-1.16,0q0-.33,0-.66a6.15,6.15,0,0,1,.09-1.06,9.73,9.73,0,0,1,1.1-.22c2.19,1.45,4.58,1.86,6.77,0,1.29.73,2.52-.16,3.61-.57a5,5,0,0,0,1.36.11A6.7,6.7,0,0,1,287.88,365.23Z"/><path class="cls-1" d="M286.29,363.38a5,5,0,0,0,1.36.11l-.06-.21A1.8,1.8,0,0,0,286.29,363.38Z"/><path class="cls-1" d="M286.46,361.15a12.09,12.09,0,0,0-3.44.2c-2.2-.08-4.58.32-6.78,0l-.23,0a6.75,6.75,0,0,1,1-1.07,12.1,12.1,0,0,0,5.82-.35,5.07,5.07,0,0,0,2.73.32A6.6,6.6,0,0,1,286.46,361.15Z"/><path class="cls-1" d="M284.31,359.38l-1.29.07c-1.83.57-3.8,1.16-5.67.53a6.55,6.55,0,0,1,7-.6Z"/><path class="cls-1" d="M285.56,360.22a5.07,5.07,0,0,1-2.73-.32,12.1,12.1,0,0,1-5.82.35,2.88,2.88,0,0,1,.34-.27c1.87.63,3.84,0,5.67-.53l1.29-.07A6.67,6.67,0,0,1,285.56,360.22Z"/><path class="cls-1" d="M285.28,370.48a6.62,6.62,0,0,1-3.53,1.32,13.55,13.55,0,0,0-2.8-.42,6.58,6.58,0,0,1-1.75-1c1.11.15,2.25-.64,3.39-1a5.46,5.46,0,0,0,2,.16,3.08,3.08,0,0,1,.68.6A14.4,14.4,0,0,0,285.28,370.48Z"/><path class="cls-1" d="M280.83,369.33l-.24.07a5.46,5.46,0,0,0,2,.16,2.13,2.13,0,0,0-.54-.24A3.81,3.81,0,0,1,280.83,369.33Z"/><path class="cls-1" d="M282.09,369.32a2.45,2.45,0,0,0-1.26,0A3.81,3.81,0,0,0,282.09,369.32Z"/><path class="cls-1" d="M287.59,397.05a9.24,9.24,0,0,1-9.23,9.24,9.13,9.13,0,0,1-4.47-1.16,9.24,9.24,0,0,1-4.58-6.19,9.77,9.77,0,0,1-.19-1.89,9.12,9.12,0,0,1,1-4.14h0a9.25,9.25,0,0,1,7.3-5.05h0c.32,0,.63-.05,1-.05a8.89,8.89,0,0,1,2.32.3,9.21,9.21,0,0,1,6.74,7.17h0A8.57,8.57,0,0,1,287.59,397.05Z"/><path class="cls-1" d="M287.21,398c-.57.33-1-3.61-1.43-3.11-.14.15-.38.14-.64,0l0,0c-.93-1.21-1.25-.71-1.25-.71a5,5,0,0,0,1.29.76c.82,1.18-1.35,2.17-1.35,1.69s-1.42-2.13-1.42-2.13c-.27.11,1.11,2.62,2.08,2.79a.21.21,0,0,1,.15.24c-.07.93-1.33,1.79-1.22,2.48a2.12,2.12,0,0,1-.25,1.31c-.15.23-.61.06-.76.66a2.43,2.43,0,0,1-1.53,1.59c-1.71-.06-.45-3.16-1.31-4.94-.51-1.06-1.76.07-2.61-.44a2.48,2.48,0,0,1-.66-2.54c.24-.8.85-.9,1.2-1.8.52-1.34,2.34-.67,2.24,0-.06.37,1.15.14,1.42.13,2.33,0,1.36-.16,1.28-.32s-.95-.51-1-.6c-.15-.25,1-.42.75-.69-.86-1.11-1.43.9-1.87.53s.57-1.24-2,0c-2.07,1-1-.71-.19-.71.37,0,0-.73.22-1,.62-.71,1.74.29,1.93-.42.09-.33-1.69-.12-1.14-.53s-1.48-1,.82-1.88c.26-.1.51-.18.76-.25a9.21,9.21,0,0,1,6.74,7.17C286.92,394.81,287.66,397.75,287.21,398Z"/><path class="cls-1" d="M284.14,401s-1.17.62-1,1.44S284.63,401.14,284.14,401Z"/><path class="cls-1" d="M275.17,390.21c.17-.56,1.12-1.24,1.19-1.29-.09,0-1.57.44-1.86,1.22s-3.64,1.85-4,3.54c-.3,1.44-.39-.26-.41-.77h0a9.25,9.25,0,0,1,7.3-5.05h0a8.56,8.56,0,0,1,.77.55C278.32,388.53,275,390.79,275.17,390.21Z"/><path class="cls-1" d="M273.89,400.18s-.81,1.78-.21,2.29-1,1.32.21,2.66a9.24,9.24,0,0,1-4.58-6.19c.28-.18.51-.6.46-1.54-.13-2.11.83-.31,1.29,0a1.24,1.24,0,0,1,.65,1.62C271.4,400,274.34,398.49,273.89,400.18Z"/><path class="cls-1" d="M320.85,374.62a4.53,4.53,0,0,1-1.2,3.09,4.73,4.73,0,0,1-1,.84l-.24.14a4.64,4.64,0,0,1-2.07.49,4.57,4.57,0,0,1-.83-.07,4.24,4.24,0,0,1-1.11-.36,4.6,4.6,0,0,1-2.5-3.05,4.83,4.83,0,0,1-.12-1.08,4.53,4.53,0,0,1,1.2-3.09,4.62,4.62,0,0,1,1.71-1.17,4.62,4.62,0,0,1,4.32.56,4.7,4.7,0,0,1,.43.35A4.53,4.53,0,0,1,320.85,374.62Z"/><path class="cls-1" d="M319.65,377.56v.15a4.73,4.73,0,0,1-1,.84l-.24.14a4.64,4.64,0,0,1-2.07.49,4.57,4.57,0,0,1-.83-.07,4.24,4.24,0,0,1-1.11-.36,4.6,4.6,0,0,1-2.5-3.05c.09,0,.73.83,1.4,1.2a1.58,1.58,0,0,0,1.24.08c.69-.67-.83-1.17.15-1.73a.5.5,0,0,1,.27-.05c.76.11.7-.85,1.38-.17.72.94,0,.56.4,1.88C317.11,377.28,319.65,376.45,319.65,377.56Z"/><path class="cls-1" d="M318.36,378.69a4.64,4.64,0,0,1-2.07.49,4.57,4.57,0,0,1-.83-.07l.18-.08A2.09,2.09,0,0,1,318.36,378.69Z"/><path class="cls-1" d="M319.39,371.27l-.46.28c-.76-.4-1.82.33-3,.28-1.17,1.09-2.22.32-3-.28l0,0a4.62,4.62,0,0,1,1.71-1.17,4.62,4.62,0,0,1,4.32.56A4.7,4.7,0,0,1,319.39,371.27Z"/><path class="cls-1" d="M319,370.92c-.73.33-1.71-.21-2.78-.13a1.82,1.82,0,0,1-1.54-.43,4.62,4.62,0,0,1,4.32.56Z"/><path class="cls-1" d="M381.15,350.31a24.89,24.89,0,0,1-.41,4.51,23.13,23.13,0,0,1-.91,3.53c-.19.57-.41,1.13-.64,1.68a25.05,25.05,0,0,1-6.73,9.22l-.13.11h0a25.15,25.15,0,0,1-5.56,3.58,25.08,25.08,0,0,1-19.17.84,24.56,24.56,0,0,1-6.9-3.85l-.09-.07a25.88,25.88,0,0,1-3.3-3.15,25.19,25.19,0,0,1-4.17-6.68q-.34-.82-.63-1.68a23.16,23.16,0,0,1-.92-3.53,24.89,24.89,0,0,1-.41-4.51c0-.79,0-1.57.11-2.34a24.84,24.84,0,0,1,.65-3.81l.14-.53a25.19,25.19,0,0,1,4.25-8.51,25,25,0,0,1,36.35-3.56,25.06,25.06,0,0,1,5.68,7.26,25,25,0,0,1,1.89,4.81l.14.53A24.84,24.84,0,0,1,381,348,22.64,22.64,0,0,1,381.15,350.31Z"/><path class="cls-1" d="M379.19,360a25,25,0,0,1-4.14,6.64c-1.22,0-2.57,0-4,0-3.2,1.41-6.88.66-10.72,0-3.85-1.25-7.85,1.42-11.69,0-3.84-1.6-7.52.24-10.72,0h-.59a25.19,25.19,0,0,1-4.17-6.68h4.76c3.2,1.16,6.88.91,10.72,0,3.84.33,7.84,1.77,11.69,0,3.34-.24,6.56.05,9.45,0,.43,0,.86,0,1.27,0l.13.11c3.15,2.6,5.82-.11,7.71-.11Z"/><path class="cls-1" d="M352.17,363.72c1-.15-.71,4.54-7.33,4.31-4.26-.14-8.09-5.13-7.34-4.31,0,0,3.29-4.32,7.34-4.32S352.17,363.72,352.17,363.72Z"/><path class="cls-1" d="M351,363.72c0,2-2.76,2.85-6.17,2.85s-5.39-1.84-5.39-2.85c0,0,2-4.24,5.39-3.64S351,362.44,351,363.72Z"/><path class="cls-1" d="M378.36,338.82h-5.93c-3.3,2.69-7.1-1-11.07,0-4,.72-8.09-2.76-12.05,0-4-.36-7.77-.7-11.07,0-1.53-.05-3-.06-4.24,0a24.4,24.4,0,0,1,2.33-3.66,8.07,8.07,0,0,1,1.91.5c3.3-.18,7.1,1.93,11.07,0,4,1.13,8.09-.5,12.05,0a70.39,70.39,0,0,0,11.07,0h3.95A24.37,24.37,0,0,1,378.36,338.82Z"/><path class="cls-1" d="M372.68,331.56h-.31c-2.74.34-6.51-.71-10.62,0-4.12-2.71-8.57,1.47-12.68,0-3.78.39-7.26,1.91-9.93.46a25,25,0,0,1,33.54-.46Z"/><path class="cls-1" d="M381.15,350.31h-7.73a33.54,33.54,0,0,1-5.23-.95c-1.84-1.24-3.76-.95-5.73.95s-4,3.48-6,1.16-4-1.05-6-1.16c-2,.73-3.88-1.49-5.72.11a10.83,10.83,0,0,1-5.23-.11h-8.4c0-.79,0-1.57.11-2.34h.28c2,0,4.74,2,8,0a15,15,0,0,1,5.23-.61c1.84.07,3.76.34,5.72.61s4,.18,6,.39,4,1,6-.39c2-.06,3.89.52,5.73.56,1.83-.19,3.59-.56,5.23-.56H381A22.64,22.64,0,0,1,381.15,350.31Z"/><path class="cls-1" d="M380.74,354.82a23.13,23.13,0,0,1-.91,3.53h-3.35a13.38,13.38,0,0,1-5.32,1.79,6.66,6.66,0,0,1-1.4-.08,7.21,7.21,0,0,1-3.47-1.71c-3.73,2.09-7.7-2.43-11.68,0a28.37,28.37,0,0,0-11.68,0c-3.73.78-7.21,0-10.19,0h-.23a23.16,23.16,0,0,1-.92-3.53h6c1.71,0,3.51.76,5.38,0,1.86.7,3.79-.14,5.74.48,2-.24,3.95,1.54,5.94-.48,2-1.25,4-1.93,5.93-.12,2-1.59,3.89-.29,5.75.12,3.73.85,7.21,0,10.19,0Z"/><path class="cls-1" d="M366.77,372.94a25.08,25.08,0,0,1-19.17.84,8.48,8.48,0,0,0,3-.53c3.39-.3,7.06-1.89,10.45,0A44.89,44.89,0,0,1,366.77,372.94Z"/><path class="cls-1" d="M376.29,418.78c-.31.24-.61.48-.89.73l-.58-.38A10.89,10.89,0,0,1,376.29,418.78Z"/><path class="cls-1" d="M369.17,434.36a14.3,14.3,0,0,0,3.45-1.49l-.43-.45A5,5,0,0,0,369.17,434.36Z"/><path class="cls-1" d="M375,408.22a71.4,71.4,0,0,0,13.91-5.33,21.09,21.09,0,0,0-5-3.07,39.91,39.91,0,0,0-9.4,5.7c-6.3,3.09-12.41,7.77-19.08,10.15l-.69.28a20.55,20.55,0,0,0-.07,5.65,15.3,15.3,0,0,0,1.92-1.47C362.15,415.73,369.71,413.26,375,408.22Z"/><path class="cls-1" d="M365.39,432.5c4.74-6,12.81-7,19.08-10.14,3.33-4.4,7.68-6.23,11.59-7.36a21.28,21.28,0,0,0-1.56-4.79c-5.05.08-11,1.2-14.22,8.51a107,107,0,0,1-19.08,10.15c-1.11.56-2.17,1.18-3.19,1.82a20.83,20.83,0,0,0,2.58,3.15,7,7,0,0,1,.57.56A31.11,31.11,0,0,1,365.39,432.5Z"/><path class="cls-1" d="M379.69,431.82c-4.31,1.17-8.9,1.91-11.45,6-.21.23-.42.44-.64.64a21.34,21.34,0,0,0,4,1.17C375,438.42,377,434.49,379.69,431.82Z"/><path class="cls-1" d="M396,423.39a34.19,34.19,0,0,1-8.1,3.16c-.2.37-.39.75-.57,1.16a10.18,10.18,0,0,1-1.63,1.53,9.51,9.51,0,0,1,2.8.67,43.21,43.21,0,0,0,6-2.05A21.34,21.34,0,0,0,396,423.39Z"/><path class="cls-1" d="M378.49,414.12c4.71.1,5.79-5,8.25-7.77-3,.94-6.36,1.77-9.15,4.12a6.13,6.13,0,0,1-3,1.3c-6.78,1.11-10.9,6.15-17.23,9.92a15.36,15.36,0,0,0-2.63.7,20.87,20.87,0,0,0,.83,3.36,27.41,27.41,0,0,1,2.78-2.23C366.71,424.29,375.07,422.62,378.49,414.12Z"/><path class="cls-1" d="M385.32,437.57c.42-.23.82-.47,1.23-.72a44.16,44.16,0,0,0-8.52,3A20.9,20.9,0,0,0,385.32,437.57Z"/><path class="cls-1" d="M383.8,429.36a6.82,6.82,0,0,1,1.89-.12,10.18,10.18,0,0,0,1.63-1.53c.18-.41.37-.79.57-1.16-.64.17-1.3.33-2,.47A9.37,9.37,0,0,1,383.8,429.36Z"/><path class="cls-1" d="M396.06,415q.12.62.21,1.26c-3.68,1.8-7,5.88-12,7.65-4.76,6-12.22,8.12-19.08,10.15a14.18,14.18,0,0,0-2.86-.31,16.72,16.72,0,0,1,3.07-1.25c4.74-6,12.81-7,19.08-10.15C387.8,418,392.14,416.13,396.06,415Z"/><path class="cls-1" d="M380.27,431.28c-.2.18-.39.35-.58.54-4.31,1.17-8.9,1.91-11.46,6a7.49,7.49,0,0,1-.63.63,19.51,19.51,0,0,1-1.81-.83l1-.49C370,433.13,375.63,433,380.27,431.28Z"/><path class="cls-1" d="M396.39,420.54a21,21,0,0,1-.4,2.85,33.77,33.77,0,0,1-8.1,3.16C390,422.7,393.22,421.28,396.39,420.54Z"/><path class="cls-1" d="M396.27,416.26a21.15,21.15,0,0,1,.12,4.28c-3.17.74-6.37,2.16-8.5,6-.65.17-1.3.33-2,.47a9.05,9.05,0,0,1-2.12,2.34,7.72,7.72,0,0,0-3.52,1.92c-4.64,1.73-10.24,1.85-13.44,5.89l-1,.49a21.31,21.31,0,0,1-4.63-3.26c.38-.23.77-.45,1.16-.65a14.18,14.18,0,0,1,2.86.31c6.86-2,14.32-4.16,19.08-10.15C389.23,422.14,392.59,418.06,396.27,416.26Z"/><path class="cls-1" d="M390.72,404.63c0,.68-.91.91-4,1.71-3,1-6.36,1.78-9.16,4.13a6.06,6.06,0,0,1-3,1.3c-6.79,1.11-10.91,6.15-17.23,9.92a15.23,15.23,0,0,0-2.64.7c0-.26-.08-.53-.11-.79a16.32,16.32,0,0,0,1.92-1.47c5.59-4.4,13.15-6.87,18.4-11.92a70.55,70.55,0,0,0,13.91-5.32C389.34,403.28,390.28,404.2,390.72,404.63Z"/><path class="cls-1" d="M394,409.19c.18.33.35.68.51,1-5.05.08-6.45,5.21-14.22,8.51a107.69,107.69,0,0,1-19.08,10.15c-1.11.56-2.17,1.18-3.19,1.82-.38-.58-.74-1.18-1.07-1.8a20.49,20.49,0,0,1-1.35-3.14,27.55,27.55,0,0,1,2.77-2.23c8.35.77,13.19-3.72,20.13-9.4,4.71.11,5.79-5,8.25-7.78a15.87,15.87,0,0,0,4-1.71A20.75,20.75,0,0,1,394,409.19Z"/><path class="cls-1" d="M383.88,399.82a39.63,39.63,0,0,0-9.4,5.71c-6.3,3.08-12.41,7.76-19.08,10.14l-.69.28a21.47,21.47,0,0,1,1.2-4.53c6.18-1.41,11.2-5.66,15.87-9.67a16.13,16.13,0,0,0,8.16-3.21A21.59,21.59,0,0,1,383.88,399.82Z"/><path class="cls-1" d="M375.17,398.06c-1.15.71-2.32,1.42-3.54,2.12-4.3,4.35-8.94,9-15.18,10a21,21,0,0,1,18.72-12.1Z"/><path class="cls-1" d="M379.94,398.54a16.13,16.13,0,0,1-8.16,3.21c-4.67,4-9.69,8.26-15.87,9.67.17-.42.34-.85.54-1.26,6.24-1,10.88-5.63,15.18-10,1.22-.7,2.39-1.41,3.54-2.12A21.16,21.16,0,0,1,379.94,398.54Z"/><path class="cls-1" d="M394.5,427.86a20.87,20.87,0,0,1-8,9,43.41,43.41,0,0,0-8.51,3,21,21,0,0,1-6.43-.2c3.35-1.24,5.4-5.17,8.09-7.84a17.45,17.45,0,0,0,6-2.58,9.54,9.54,0,0,1,2.8.66A41.93,41.93,0,0,0,394.5,427.86Z"/><path class="cls-1" d="M380.27,431.28c-.2.17-.39.35-.58.54a17.64,17.64,0,0,0,6-2.58,6.82,6.82,0,0,0-1.89.12A12.73,12.73,0,0,1,380.27,431.28Z"/><path class="cls-1" d="M383.8,429.36a7.85,7.85,0,0,0-3.53,1.92A12.73,12.73,0,0,0,383.8,429.36Z"/><path class="cls-1" d="M385,400.5a19.63,19.63,0,0,1,2.42,1.42c11.69-5,20.76-6.57,22.71-3.29s-3.71,10.51-13.68,18.42a152.42,152.42,0,0,1-32.62,19.48c-11.7,5-20.76,6.57-22.71,3.29s3.7-10.51,13.67-18.42a20.36,20.36,0,0,1-.1-2.81c-14.67,10.8-23.46,21.16-20.83,25.56s15.92,1.59,32.39-6.19c5-2.35,10.23-5.15,15.58-8.34s10.3-6.49,14.73-9.76c14.67-10.8,23.46-21.15,20.82-25.56S401.42,392.71,385,400.5Z"/><path class="cls-1" d="M379.3,425.47a96.12,96.12,0,0,1-18.31,8.7c-6,2-10.4,2.27-11.55.35s1.18-5.63,5.79-10a20.91,20.91,0,0,1-.51-2.45c-8.48,7-13.18,13.22-11.45,16.13s9.48,1.73,19.63-2.43a140.06,140.06,0,0,0,33.26-19.85c8.48-7,13.18-13.22,11.45-16.13s-9.48-1.73-19.63,2.42a21,21,0,0,1,1.91,1.62c6-2,10.41-2.27,11.55-.35s-1.18,5.63-5.79,10"/><path class="cls-1" d="M495.73,385.84c-.25.25-.5.49-.77.72l-.54-.12a12.06,12.06,0,0,0-1.76-.74,7,7,0,0,0,1.76-.6A6.57,6.57,0,0,0,495.73,385.84Z"/><path class="cls-1" d="M507.46,383.4l0,.13a14.42,14.42,0,0,1,.18,1.58c0,.39,0,.77,0,1.15s-.06.88-.12,1.31-.1.67-.16,1a13.83,13.83,0,0,1-.9,2.75,13.37,13.37,0,0,1-1.35,2.35c-.15.21-.3.41-.46.61a13.86,13.86,0,0,1-1.9,1.93A13.57,13.57,0,0,1,488.25,398c-.33-.17-.65-.34-1-.53a12.08,12.08,0,0,1-1.46-1,13.94,13.94,0,0,1-1.6-1.47,13.32,13.32,0,0,1-1.76-2.38c-.21-.36-.4-.74-.58-1.13l-.27-.61q-.27-.71-.48-1.44c-.12-.44-.22-.88-.3-1.34l0-.2a12.94,12.94,0,0,1-.13-3,12.7,12.7,0,0,1,.18-1.51,12.06,12.06,0,0,1,.32-1.35c.09-.31.19-.61.3-.91a13.66,13.66,0,0,1,.9-1.94,13.81,13.81,0,0,1,1-1.58,13.51,13.51,0,0,1,19.07-2.47c.26.2.49.4.73.61a13.2,13.2,0,0,1,1.54,1.63,10.13,10.13,0,0,1,.72,1,11.37,11.37,0,0,1,.63,1.06,13.71,13.71,0,0,1,.65,1.4A13.35,13.35,0,0,1,507.46,383.4Z"/><path class="cls-1" d="M481.58,390.77a6.77,6.77,0,0,1,.56.4c2.32.28,5.19-1.18,8.55-1.46,3.6,1.14,6.74-2.08,10.21-1.74,2.27-1.73,4.75-1.29,6.75-1.26a12.7,12.7,0,0,1-.18,1.51,16.37,16.37,0,0,1-6.4.7c-3.37.26-6.82,1.7-10.21,1.75-3.25.95-6.36,1-8.56,1.46l-.08,0A13.48,13.48,0,0,1,481.58,390.77Z"/><path class="cls-1" d="M480.64,385.36c0-.44.06-.88.11-1.31l.09,0c2.21-.09,5.06-1.36,8.38-1.43,3-1.67,6.78-1,10-1.7,2.76.07,5.31.09,7.22-.76.1.21.19.41.27.62-2,.38-4.42,1.59-7.28,1.33a26.74,26.74,0,0,0-3.49.9,18.19,18.19,0,0,1-4.56,1,8.11,8.11,0,0,1-1.95-.16c-3.23.6-6.28.67-8.37,1.43Z"/><path class="cls-1" d="M480.92,383a13.21,13.21,0,0,1,.9-2.75c1.95-.24,4.17-1.42,6.75-1.51,3.63,1.74,6.57-2.23,10-1.7,1.89-.75,3.86-.4,5.53-.44a13.32,13.32,0,0,1,1.76,2.38,14.92,14.92,0,0,1-6.8.92c-3.31.15-6.75,1.15-10,1.71A68.65,68.65,0,0,1,480.92,383Z"/><path class="cls-1" d="M493.3,376.75c-.77.08-1.55.12-2.32.15a13,13,0,0,0,2.16-1.11c2.85-.27,5.54-1.52,7.89-1.62a14.63,14.63,0,0,1,1.47,1l-.09,0C500.06,376.37,496.42,375.06,493.3,376.75Z"/><path class="cls-1" d="M502.94,394a17.48,17.48,0,0,1-5.61.75A10.85,10.85,0,0,1,502.94,394Z"/><path class="cls-1" d="M485.53,375.4a13.51,13.51,0,0,1,14.54-1.75,11.08,11.08,0,0,1-1.94.35c-2.51,2.17-5.83,1-8.62,1.47C488.11,375.48,486.75,375.34,485.53,375.4Z"/><path class="cls-1" d="M484.76,395.52a10.85,10.85,0,0,0,7.2-1.23c3.05-.83,6.68.7,9.59-1.28a11.68,11.68,0,0,0,4.16-.15,13.69,13.69,0,0,1-1.09,1.53c-.92.08-1.88.16-2.85.3-3.21-.31-6.33,2-9.59,1.27-2.35,1.08-4.87-.29-6.71.2C485.22,396,485,395.74,484.76,395.52Z"/><path class="cls-1" d="M482.86,393.23l.65-.08c2.05-1.46,5.28-1,8.66-1.48,3.35-.61,6.81-2.27,10.35-1.77a23.22,23.22,0,0,1,4.63-.33c-.09.31-.19.61-.3.91a8,8,0,0,0-4.15.5c-3.12,1.93-6.88,1.82-10.34,1.76-3,2.91-6.35,1.57-8.67,1.48h-.11A11.47,11.47,0,0,1,482.86,393.23Z"/><path class="cls-1" d="M480.86,388.22l0-.14a14.12,14.12,0,0,1-.17-1.58,6.89,6.89,0,0,1,1.06.08c2-1.08,5.08-.75,8.26-1.41a6.25,6.25,0,0,1,1.39-1.22,7.36,7.36,0,0,1,4.56-1c1.3.08,2.63.34,3.9.5a38.1,38.1,0,0,1,7.36-1.29,11.64,11.64,0,0,1,.29,1.33,1.77,1.77,0,0,1,0,.2c-2,.65-4.71.34-7.47,1.07-3.78-2.87-6.66,1.1-9.85,1.68-3.47-1-6.41-.63-8.26,1.41A9.93,9.93,0,0,1,480.86,388.22Z"/><path class="cls-1" d="M494.76,389.52c-11.44,2-23.84,2.83-24.26.43-.31-1.78,6.32-4.17,10.18-5.24l0,.65c-6.87,1.92-9.86,3.7-9.71,4.51.26,1.54,10.08,1.59,23.74-.79s22.87-5.75,22.61-7.29c-.14-.78-3.28-1.47-10.56-1l-.19-.46c4.09-.29,10.89-.38,11.19,1.33C518.16,384.11,506.21,387.52,494.76,389.52Z"/><path class="cls-1" d="M426.87,426.45l.16.06a17.12,17.12,0,0,1,1.76.73q.61.31,1.2.66a15.22,15.22,0,0,1,1.32.89c.33.24.64.49.95.76a15.86,15.86,0,0,1,2.37,2.55,16.1,16.1,0,0,1,1.67,2.79c.13.28.25.56.37.84a16.78,16.78,0,0,1,.91,3.13,16.23,16.23,0,0,1-6.68,16.26c-.36.25-.73.49-1.11.71a16.83,16.83,0,0,1-1.9.95,15.3,15.3,0,0,1-2.48.81,15.86,15.86,0,0,1-3.52.45,12.94,12.94,0,0,1-1.52-.05c-.27,0-.53,0-.8-.07a17.12,17.12,0,0,1-3.37-.81L416,457a15.69,15.69,0,0,1-3.2-1.6,14.37,14.37,0,0,1-1.48-1.08,16.33,16.33,0,0,1-1.23-1.12c-.27-.28-.53-.56-.78-.85a16.22,16.22,0,0,1-1.51-2.08,16.48,16.48,0,0,1-1-2,16.23,16.23,0,0,1,8.57-21.45c.35-.15.7-.28,1.06-.4a16.63,16.63,0,0,1,2.61-.66,14.37,14.37,0,0,1,1.47-.17,14.75,14.75,0,0,1,1.49,0,16.11,16.11,0,0,1,4.93.87Z"/><path class="cls-1" d="M423.78,425.72a6.62,6.62,0,0,1-.75.35c-1.66,2.27-1.81,6.14-3.48,9.82-3.29,3.11-1.76,8.29-4.15,11.73.49,3.39-1.42,5.72-2.62,7.81a14.37,14.37,0,0,1-1.48-1.08,19.46,19.46,0,0,1,3-7.12c1.7-3.68,2.2-8.14,4.14-11.73.9-4,2.63-7.27,3.48-9.82a.31.31,0,0,1,0-.1A16.45,16.45,0,0,1,423.78,425.72Z"/><path class="cls-1" d="M430,427.9a15.22,15.22,0,0,1,1.32.89l0,.1c-1.19,2.37-1.53,6.09-3.4,9.62,0,4.17-2.9,7.7-4.06,11.47-1.69,2.85-3.21,5.52-3.44,8-.27,0-.53,0-.8-.07.79-2.34.92-5.58,2.87-8.42a32.12,32.12,0,0,0,1.09-4.19A21.82,21.82,0,0,1,425.2,440a9.47,9.47,0,0,1,1.3-2c1.27-3.74,3-7,3.4-9.62Z"/><path class="cls-1" d="M432.26,429.55a15.86,15.86,0,0,1,2.37,2.55c-.9,2.19-1,5.2-2.38,8-3.94,2.79-1.5,8.19-4.06,11.48-.31,2.41-1.83,4.27-2.78,6a15.86,15.86,0,0,1-3.52.45,17.89,17.89,0,0,1,3-7.67c1.78-3.55,2.74-7.75,4.06-11.48A83.13,83.13,0,0,1,432.26,429.55Z"/><path class="cls-1" d="M431.61,446.22c.37-.86.78-1.7,1.2-2.53a16.43,16.43,0,0,0-.1,2.91c-1.38,3.15-1.64,6.7-2.92,9.23a16.83,16.83,0,0,1-1.9.95.36.36,0,0,0,0-.11C428.06,453.52,431.56,450.47,431.61,446.22Z"/><path class="cls-1" d="M435.3,437.37c-.27,2.05-1.39,4.14-2.49,6.32A13,13,0,0,1,435.3,437.37Z"/><path class="cls-1" d="M437.58,438.86a16.23,16.23,0,0,1-6.68,16.26,14.21,14.21,0,0,1,.78-2.24c-.81-3.9,2.39-6.68,3.5-9.9C436,441.51,436.93,440.17,437.58,438.86Z"/><path class="cls-1" d="M416.93,426.27a13,13,0,0,0-2.91,8.27c-.93,3.69-4.66,6.6-4.28,10.8a14.31,14.31,0,0,0-2.28,4.46,18.31,18.31,0,0,1-1-2.05c.46-1,.94-2.05,1.36-3.16,2.21-3.18,1.61-7.8,4.27-10.8.26-3.09,3.16-4.93,3.73-7.15C416.21,426.5,416.56,426.39,416.93,426.27Z"/><path class="cls-1" d="M420.45,425.62c-.09.23-.19.48-.3.73.33,3-2,6.15-3.52,9.95-1.32,3.87-1.6,8.46-4.2,11.88a27.65,27.65,0,0,1-2.36,5.05c-.27-.28-.53-.56-.78-.85a9.62,9.62,0,0,0,1.91-4.64c-.2-4.41,2.11-8.28,4.2-11.88-1.32-4.8,2.07-7.57,3.52-9.95l.06-.12A14.37,14.37,0,0,1,420.45,425.62Z"/><path class="cls-1" d="M426.87,426.45l.16.06a17.12,17.12,0,0,1,1.76.73,8.47,8.47,0,0,1-.7,1.07c0,2.74-2.19,5.77-3.36,9.49a7.85,7.85,0,0,1,.47,2.17,8.78,8.78,0,0,1-1.67,5.34c-.85,1.32-1.89,2.56-2.8,3.8a45.7,45.7,0,0,1-3,8.47,15.76,15.76,0,0,1-1.58-.47L416,457c.47-2.46,2.4-5.13,3.24-8.45,5.22-2.29,2.75-7.63,4-11.32,3.11-3,4.42-6.35,3.36-9.48A13.31,13.31,0,0,1,426.87,426.45Z"/><ellipse class="cls-1" cx="421.18" cy="453.64" rx="3.93" ry="1.65" transform="translate(-146.94 699.46) rotate(-70.52)"/><ellipse class="cls-1" cx="420.94" cy="453.14" rx="3.93" ry="1.65" transform="translate(-146.63 698.9) rotate(-70.52)"/><path class="cls-1" d="M414,464a.42.42,0,0,1-.16,0c-.27-.09-1-.3.82-7.51l.38.17c-1.66,6.57-1.08,6.94-1.06,7s.71.16,3.47-5.82c1.86-4,4-9.45,6.09-15.32s3.82-11.46,4.9-15.74c1.61-6.4,1-6.71,1-6.71s-.71-.22-3.61,6.11l-.4-.1c3.08-6.73,3.86-6.5,4.14-6.4s1,.37-.7,7.2c-1.08,4.29-2.82,9.9-4.9,15.78s-4.25,11.33-6.11,15.35C415.28,463.41,414.37,464,414,464Z"/><circle class="cls-1" cx="513.99" cy="420.8" r="2.82"/><path class="cls-1" d="M516.82,420.8a2.84,2.84,0,0,1-.43,1.51,3.22,3.22,0,0,1-.32.41l0,0a.79.79,0,0,0-.32.28l-.05,0c-.09-.05-.16.07-.27.17s0-.11,0-.09l-.12,0c-.1-.13-.1,0,0-.27,0,.09.18-.21.33-.46a1.64,1.64,0,0,0,.24-.19c.08,0,.16-.24.25-.24s.16-.05.23-.21.13-.19.18-.21.12-.15.13-.28,0-.13-.08-.3-.18-.17-.35-.31a.26.26,0,0,0-.28.12c-.06.12-.12,0-.17.15-.06,0-.12.2-.18.15s-.2.19-.24.08-.09-.18-.14-.18c-.05-.26-.1,0-.14-.16s-.1-.22-.15-.13c-.05-.07-.1-.05-.14,0-.1-.12-.2,0-.29-.06-.09.12-.18,0-.27.06a.37.37,0,0,0-.24.1,1,1,0,0,0-.2.2,1.92,1.92,0,0,0-.24.48.22.22,0,0,0,0,.12s0,.06,0,.1h0c0,.26,0,.19.08.26s.08.17.12.29,0,.16,0,.15,0,0,0,.07c0-.17,0,0,.06.1,0,0,0,0,0,.21a.86.86,0,0,1,0,.3.52.52,0,0,1-.15.24c-.1,0-.22.19-.33.19h0a.08.08,0,0,1-.08,0h0l-.06-.05,0,0h0a.33.33,0,0,1-.21-.07s0,0-.06,0h0l-.06,0c-.14-.06-.28-.2-.41-.25a2.57,2.57,0,0,1-.4-.34,2.83,2.83,0,0,1-.75-1.43,3.19,3.19,0,0,1-.05-.54,2.83,2.83,0,0,1,5.65,0Z"/><path class="cls-1" d="M511.76,420.06c0,.37,0,.23.09.41s.19.24.33.13a.66.66,0,0,1,.5-.05c.19.13.4-.09.61-.14s.36-.27.57-.29.5.26.7.08c.19.08.37-.06.53.1.2-.05.3.11.35,0,0,0,.56-.29.54-.38a3.57,3.57,0,0,0-.28-.94c0-.12-.44-.46-.57-.23-.12-.15-.26,0-.46-.09s-.41-.16-.62-.21-.42.05-.59-.07-.28,0-.43.13c-.15,0-.3.23-.45.33s-.12.42-.24.55-.38.28-.46.34C511.81,420,511.76,419.82,511.76,420.06Z"/><path class="cls-1" d="M513.6,422.86c0,.32-.1.27-.16.2s-.13-.14-.2.15c-.1,0-.21.11-.33.16h-.13c-.14-.07-.28-.17-.41-.25a2.57,2.57,0,0,1-.4-.34,2.83,2.83,0,0,1-.75-1.43h0a.27.27,0,0,1,.11,0,.81.81,0,0,1,.66-.09c.23,0,.46.17.66.09a.71.71,0,0,0,.13.12.77.77,0,0,0,.41.11l.06-.07s0,0,.07,0,0,.06,0,.06,0,.08,0,.13.08.18.11.28.06.29.09.43,0,.13,0,.15A.27.27,0,0,1,513.6,422.86Z"/><path class="cls-1" d="M516.12,422.67a2.83,2.83,0,0,1-.74.59c0-.18-.17,0-.24-.08S515,423,515,423s-.06-.06-.06-.06,0-.27.07-.14c0-.15.09.05.16-.09.07,0,.15-.18.24-.07l.29,0A.51.51,0,0,1,516.12,422.67Z"/><path class="cls-1" d="M249.71,346.83c-8.15-4-18.28-6.64-29.3-7.75-.13.27-.26.53-.38.81,26.22,2.58,46,13.87,46,27.36,0,13-18.4,24-43.22,27,.12.27.25.54.38.8a85,85,0,0,0,26.5-7.44c11.07-5.42,17.18-12.67,17.18-20.4S260.78,352.26,249.71,346.83Z"/><path class="cls-1" d="M260.15,341.72c-9.91-4.85-22.17-8.14-35.51-9.6-.2.26-.4.52-.59.79,32.43,3.45,56.77,17.54,56.77,34.34,0,16.39-23.19,30.2-54.43,34.06.13.27.27.53.41.8,12.51-1.57,24-4.75,33.35-9.34,13.87-6.79,21.51-15.86,21.51-25.52S274,348.51,260.15,341.72Z"/><path class="cls-1" d="M274.81,334.54c-11.33-5.55-25.05-9.5-40-11.62-.37.23-.74.46-1.1.7,39.1,5.35,67.86,22.88,67.86,43.63,0,21.1-29.78,38.89-69.93,43.89l.44.79c16-2,30.74-6.1,42.75-12,17.78-8.71,27.58-20.33,27.58-32.7S292.59,343.25,274.81,334.54Z"/><path class="cls-1" d="M286.13,329a147.22,147.22,0,0,0-34.26-11.4c-.94.07-1.86.18-2.77.31,40.08,7.85,68.46,27,68.46,49.34,0,24.71-34.77,45.53-81.69,51.44.15.27.3.54.46.81,18.67-2.37,35.79-7.15,49.8-14,20.8-10.19,32.26-23.77,32.26-38.24S306.93,339.19,286.13,329Z"/><path class="cls-1" d="M332.83,322.37l-.93.44c18.85,12.43,30,27.81,30,44.44,0,34.38-47.73,63.43-112.53,72.16l.6.79c25.28-3.43,48.45-10,67.51-19.35,29.18-14.29,45.26-33.33,45.26-53.6C362.75,350.86,352.25,335.29,332.83,322.37Z"/><path class="cls-1" d="M392.62,329c-7.5-8.69-17.41-16.71-29.56-24l-1,.45c28.39,16.81,45.46,38.34,45.46,61.79,0,43.06-57.62,79.68-137.16,92.41l1.17.7c29.14-4.73,55.86-12.76,78.2-23.7,18.36-9,32.78-19.47,42.86-31.14,10.46-12.12,15.76-25,15.76-38.27S403.08,341.08,392.62,329Z"/><path class="cls-1" d="M445.56,318a133.33,133.33,0,0,0-18.41-17.42q-1.22-.45-2.46-.84a133.24,133.24,0,0,1,20.23,18.8C458.25,334,465,350.37,465,367.25s-6.76,33.25-20.09,48.68C432,430.86,413.56,444.27,390,455.8q-10.33,5.07-21.62,9.47l1.35.37q10.74-4.25,20.64-9.09c23.64-11.57,42.2-25.06,55.17-40.07,13.46-15.59,20.28-32.15,20.28-49.23S459,333.6,445.56,318Z"/><path class="cls-1" d="M497.19,357.56l-.88-.24a70.12,70.12,0,0,1,.7,9.93c0,19-7.6,37.42-22.6,54.78-14.5,16.8-35.28,31.89-61.76,44.85q-10.14,5-21.12,9.39l.78.59q10.76-4.35,20.71-9.22c26.58-13,47.45-28.18,62-45.07,15.13-17.51,22.8-36.13,22.8-55.32A71.27,71.27,0,0,0,497.19,357.56Z"/><path class="cls-1" d="M531.58,374.7c-1.76,18.67-10.14,36.79-25,54C490.32,447.52,467,464.44,437.35,479q-11.39,5.56-23.7,10.53c.45.13.89.25,1.34.36q11.79-4.78,22.73-10.14c29.78-14.58,53.17-31.58,69.51-50.5,14.78-17.11,23.2-35.16,25.12-53.77C532.1,375.2,531.84,375,531.58,374.7Z"/><text class="cls-2" transform="translate(277.86 203.65)">W<tspan class="cls-3" x="44.2" y="0">A</tspan><tspan class="cls-4" x="84.39" y="0">IMEA</tspan><tspan class="cls-5"><tspan x="-232.08" y="58.14">S</tspan><tspan class="cls-6" x="-195.03" y="58.14">O</tspan><tspan class="cls-7" x="-146.42" y="58.14">L</tspan><tspan class="cls-8" x="-106.08" y="58.14">A</tspan><tspan class="cls-9" x="-59.93" y="58.14">R SY</tspan><tspan class="cls-10" x="88.1" y="58.14">S</tspan><tspan class="cls-9" x="127.76" y="58.14">TEM </tspan><tspan class="cls-11" x="284.47" y="58.14">W</tspan><tspan class="cls-12" x="334.49" y="58.14">A</tspan><tspan class="cls-13" x="378.55" y="58.14">LK</tspan></tspan></text></svg>