<svg xmlns="http://www.w3.org/2000/svg" viewBox="0 0 612 608.33"><defs><style>.cls-1{isolation:isolate;}.cls-2{fill:#175dab;}.cls-3,.cls-8{fill:#3076ba;}.cls-4{fill:#1869a9;}.cls-5{fill:#5987c6;}.cls-6{fill:#64acdf;}.cls-7{fill:#68a3d8;}.cls-8{mix-blend-mode:multiply;}.cls-9{fill:#6fb6d1;}</style></defs><g class="cls-1"><g id="neptune"><path class="cls-2" d="M325.61,304.38c-3.05,3-6.16,5.93-9.37,8.76q-3.18-.66-6.53-1.47a145.93,145.93,0,0,0-21.34-8.93,88.49,88.49,0,0,0,21.34-7.29A80.47,80.47,0,0,0,325.61,304.38Z"/><path class="cls-3" d="M467.87,274.74l.29,1.67a173.06,173.06,0,0,1,2.15,19.16c.23,4.64.26,9.28.17,13.86q-.3,8.08-1.36,16c-.5,4.12-1.21,8.16-2,12.19a163.89,163.89,0,0,1-27.25,61.91c-1.81,2.51-3.67,5-5.62,7.4a164,164,0,0,1-199.45,44.62c-4-2-7.86-4.06-11.69-6.33a168.67,168.67,0,0,1-17.79-12.09A164.26,164.26,0,0,1,186,415.22a162.19,162.19,0,0,1-21.33-28.81,152,152,0,0,1-7.06-13.68c-1.17-2.44-2.24-4.94-3.27-7.48a170.15,170.15,0,0,1-5.86-17.45,163.31,163.31,0,0,1-3.61-16.19c-.14-.82-.28-1.63-.37-2.42a162.8,162.8,0,0,1-1.64-36.09,154.64,154.64,0,0,1,2.24-18.31,167.48,167.48,0,0,1,3.87-16.43c1.09-3.7,2.3-7.39,3.64-11a158.4,158.4,0,0,1,10.87-23.54A169.46,169.46,0,0,1,176,204.69a164,164,0,0,1,231.41-30c3,2.36,5.95,4.82,8.82,7.37a165.37,165.37,0,0,1,18.63,19.79A137.54,137.54,0,0,1,443.62,214c2.75,4.13,5.33,8.45,7.69,12.89a172.76,172.76,0,0,1,7.81,17A166.22,166.22,0,0,1,467.87,274.74Z"/><path class="cls-4" d="M153.87,364.16a62.06,62.06,0,0,1,6.8,4.92c28.15,3.4,63-14.32,103.77-17.72,43.68,13.75,81.8-25.24,123.88-21.14,27.51-21,57.55-15.63,81.86-15.3a158.94,158.94,0,0,1-2.24,18.31c-22,6.64-48.32,11.61-77.64,8.57-40.85,3.1-82.64,20.59-123.88,21.15-39.35,11.6-77.08,12.6-103.77,17.72-.33.17-.63.3-1,.44A169.42,169.42,0,0,1,153.87,364.16Z"/><path class="cls-4" d="M142.51,298.59q.3-8.08,1.36-15.95l1.09-.19c26.77-1.13,61.29-16.47,101.59-17.34,37-20.25,82.25-12.36,121.28-20.71,33.41.94,64.41,1.13,87.59-9.11,1.18,2.44,2.25,4.94,3.28,7.48-24.51,4.55-53.72,19.34-88.41,16.1-14,2.27-28.11,6.68-42.34,11-18.14,5.53-36.54,10.92-55.31,11.6A95.69,95.69,0,0,1,249,279.57c-39.23,7.18-76.2,8.13-101.59,17.34C145.73,297.52,144.1,298.08,142.51,298.59Z"/><path class="cls-5" d="M145.91,270.44A163.44,163.44,0,0,1,156.77,237c23.71-2.89,50.65-17.13,81.88-18.22,44.09,21,79.72-27.1,121.27-20.71,22.85-9.1,46.75-4.86,67.12-5.29a162.19,162.19,0,0,1,21.33,28.81c-22.82,7.46-50.6,15.6-82.52,11.21-40.15,1.77-81.93,13.94-121.27,20.7C207.24,263.13,172,266.83,145.91,270.44Z"/><path class="cls-4" d="M296.13,194.1c-9.34,1-18.83,1.49-28.16,1.89a164.31,164.31,0,0,0,26.19-13.48c34.56-3.34,67.15-18.46,95.75-19.67a167.64,167.64,0,0,1,17.79,12.09l-1.06.3C378.07,189.55,334,173.59,296.13,194.1Z"/><path class="cls-2" d="M413,402.86c-19.44,7.76-43.35,8.12-68,9.18C368.26,402.63,391.73,399.7,413,402.86Z"/><path class="cls-6" d="M201.82,177.71a164.14,164.14,0,0,1,176.41-21.2,134.6,134.6,0,0,1-23.61,4.23c-30.4,26.28-70.69,11.79-104.55,17.85C233.11,178.65,216.58,177,201.82,177.71Z"/><path class="cls-4" d="M192.51,421.87c25,4.16,56,2.55,87.29-15,37.07-10,81.12,8.56,116.33-15.46,18.2,2.87,35.09,1.19,50.52-1.86a167.93,167.93,0,0,1-13.24,18.63c-11.14.89-22.75,1.91-34.58,3.6-38.9-3.82-76.76,24.21-116.32,15.46-28.55,13-59-3.58-81.46,2.35C198.1,427.09,195.29,424.52,192.51,421.87Z"/><path class="cls-7" d="M169.36,394c2.51-.35,5.18-.65,7.92-1,24.91-17.73,64.14-12.71,105.14-17.94,40.64-7.34,82.53-27.54,125.47-21.43,19.26-4.36,38.6-3.58,56.17-4-1.08,3.7-2.3,7.39-3.64,11-16.28-1.18-33.72-1.84-50.31,6-37.88,23.47-83.45,22.13-125.47,21.42-35.87,35.29-77,19-105.13,17.95-.47,0-.92,0-1.35.07A141.09,141.09,0,0,1,169.36,394Z"/><path class="cls-7" d="M145.11,333.28l-.28-1.67a170.43,170.43,0,0,1-2.15-19.16,75.85,75.85,0,0,1,12.88.92c24.37-13.12,61.63-9.08,100.2-17.1a79.44,79.44,0,0,1,16.88-14.81c17-10.86,36-12.79,55.31-11.6,15.86,1,31.91,4.07,47.33,6,32.83-10.44,64.54-12.66,89.28-15.64a163.29,163.29,0,0,1,3.6,16.19c.14.82.28,1.63.38,2.42-24,7.9-57.09,4.06-90.54,13-45.84-34.79-80.84,13.28-119.52,20.41-42.07-12.47-77.83-7.72-100.2,17.1C153.6,331,149.18,332.27,145.11,333.28Z"/><path class="cls-8" d="M468.16,276.41A164,164,0,0,1,217.63,441.86,164,164,0,0,0,324,140.88,164.06,164.06,0,0,1,468.16,276.41Z"/><path class="cls-9" d="M313.85,349C175,373.26,24.59,383.33,19.52,354.27,15.76,332.72,96.19,303.71,143,290.63l-.25,8c-83.3,23.28-119.58,44.83-117.85,54.75,3.24,18.62,122.34,19.23,288-9.67s277.55-69.79,274.3-88.42c-1.66-9.5-39.72-17.81-128.07-11.55l-2.3-5.52c49.6-3.51,132.1-4.69,135.73,16.14C597.64,283.38,452.75,324.8,313.85,349Z"/></g></g></svg>