<svg xmlns="http://www.w3.org/2000/svg" viewBox="0 0 612 608.33"><defs><style>.cls-1{isolation:isolate;}.cls-2,.cls-4{fill:#4083c5;}.cls-3{fill:#67bd45;}.cls-4{mix-blend-mode:multiply;}</style></defs><g class="cls-1"><g id="earth"><path class="cls-2" d="M590.52,304c0,157.11-127.36,284.47-284.47,284.47A284.56,284.56,0,0,1,51.69,176.53v-.06C94.32,91.74,178,31.16,276.66,21.05h.06a276.38,276.38,0,0,1,29.33-1.51,282.66,282.66,0,0,1,71.48,9.09C482.79,55.85,564.38,141.78,585.28,249.45v.06A285.16,285.16,0,0,1,590.52,304Z"/><path class="cls-3" d="M578.59,333.76c-17.46,10.17-29.62-110.93-44-95.81-4.39,4.64-11.68,4.4-19.69,1.75-.36-.55-.78-1.15-1.26-1.75-28.54-37-38.54-21.86-38.54-21.86s21.74,17.76,39.8,23.61c25.11,36.25-41.61,66.9-41.61,52,0-15.11-43.66-65.57-43.66-65.57-8.49,3.19,34.27,80.51,64,85.87,3.43.6,4.93,3.91,4.63,7.4-2.23,28.61-40.89,55-37.51,76.48.42,2.77,2.89,25.11-7.59,40.35-4.82,7-19,1.68-23.49,20.17-7.76,32.1-42.27,49-47.09,48.84-52.63-1.81-14-97.32-40.28-151.93-15.84-32.76-54.38,2.22-80.45-13.73-22.88-14-27.22-55.46-20.42-78.17,7.35-24.44,26.32-27.7,37-55.34,15.9-41.24,72.08-20.53,68.89.06-1.75,11.33,35.47,4.16,43.72,4,71.71-.9,42.09-5.18,39.5-10.06-1.45-2.71-29.27-15.59-31.13-18.48-4.7-7.47,29.56-12.83,23.24-21.08-26.56-34.38-44.2,27.76-57.69,16.38-17.4-14.81,17.58-38.24-61.3-1.21-63.59,29.87-31.13-21.85-5.9-21.85,11.44,0-.12-22.35,6.74-30.23,19.09-21.92,53.78,8.91,59.62-13,2.77-10.18-52.09-3.79-35.29-16.38s-45.34-32,25.23-58c8.07-3,15.9-5.54,23.49-7.65C482.79,55.85,564.38,141.78,585.28,249.45,569.8,234.88,592.5,325.69,578.59,333.76Z"/><path class="cls-3" d="M484,424.47s-35.85,19-30.81,44.25S499.12,430.07,484,424.47Z"/><path class="cls-3" d="M207.83,93.43c5.42-17.29,34.69-38.18,36.86-39.75-2.83.79-48.36,13.61-57.57,37.52C177.6,115.83,75.05,148.29,64.45,200.13c-9.15,44.5-12.1-7.95-12.76-23.6v-.06C94.32,91.74,178,31.16,276.66,21.05h.06A227.26,227.26,0,0,1,300.27,38C304.9,41.7,202.23,111.31,207.83,93.43Z"/><path class="cls-3" d="M168.51,400.36s-25.11,54.91-6.62,70.57c17,14.45-30.53,40.77,6.44,82A284.7,284.7,0,0,1,27.54,362.24C36,356.7,43.2,343.63,41.45,314.67c-3.91-65,25.77-9.52,39.81,0s29.68,21,20.17,50S182.48,348.27,168.51,400.36Z"/><path class="cls-4" d="M590.52,304c0,157.11-127.36,284.47-284.53,284.47a283.2,283.2,0,0,1-199-81.24,284.56,284.56,0,0,0,90,14.52c157.11,0,284.47-127.36,284.47-284.47A283.43,283.43,0,0,0,396,34.05C509,71.69,590.52,178.33,590.52,304Z"/></g></g></svg>