<svg xmlns="http://www.w3.org/2000/svg" viewBox="0 0 612 608.33"><defs><style>.cls-1{isolation:isolate;}.cls-2{fill:#cba766;}.cls-3,.cls-9{fill:#edcc92;}.cls-4{fill:#f9dcab;}.cls-5{fill:#c6955a;}.cls-6{fill:#c49664;}.cls-7{fill:#e3cc86;}.cls-8{fill:#fff1cb;}.cls-9{mix-blend-mode:multiply;}.cls-10{fill:#ddc27a;}.cls-11{fill:#fff;}</style></defs><g class="cls-1"><g id="saturn"><path class="cls-2" d="M310.88,301c-2.08,1.56-4.1,3.21-6,4.9-1.28-.84-2.62-1.69-3.88-2.6A74.69,74.69,0,0,1,310.88,301Z"/><path class="cls-3" d="M262.86,406c8.69-2.76,16.69-5.73,23.3-10-1-1-1.92-2-2.91-3C275.27,394,268.89,399.14,262.86,406Z"/><path class="cls-4" d="M301.94,229.81c37.32-9.66,68.45-23.32,93.69-35.87A140.74,140.74,0,0,0,362,173.25c-20.57,9.28-42.73,21.08-63.33,38.42-42.45,20.78-83.62,52.35-128.59,68.39l-4.65,1.86A141.28,141.28,0,0,0,165,320a108.17,108.17,0,0,0,12.92-9.9C215.58,280.42,266.54,263.84,301.94,229.81Z"/><path class="cls-4" d="M237.44,393.49C269.38,353,323.74,346.2,366,325.11c22.43-29.61,51.72-42,78.06-49.59a140.89,140.89,0,0,0-10.49-32.24c-34,.53-74.25,8-95.81,57.33C298.56,327.46,253,350.78,209.19,369c-7.48,3.79-14.62,7.95-21.51,12.25a141.79,141.79,0,0,0,17.39,21.27,46.35,46.35,0,0,1,3.87,3.72C215.4,402.87,230,395.57,237.44,393.49Z"/><path class="cls-5" d="M333.8,388.88c-29.06,7.89-60,12.88-77.19,40.66-1.38,1.54-2.82,2.94-4.29,4.29a142.68,142.68,0,0,0,27,7.88C301.85,433.34,315.68,406.87,333.8,388.88Z"/><path class="cls-4" d="M443.61,332.09c-15.71,8.81-34.1,16-54.53,21.28-1.36,2.46-2.67,5-3.88,7.79a63.79,63.79,0,0,1-11,10.34A63.4,63.4,0,0,1,393.08,376a287.61,287.61,0,0,0,40.51-13.78A141.87,141.87,0,0,0,443.61,332.09Z"/><path class="cls-4" d="M325.68,269.61c31.79.69,39-33.64,55.6-52.4-19.95,6.33-42.86,11.93-61.67,27.81a41,41,0,0,1-20,8.75c-45.75,7.47-73.49,41.45-116.11,66.86a98.27,98.27,0,0,0-17.75,4.71A140.49,140.49,0,0,0,171.34,348,180,180,0,0,1,190,333C246.29,338.16,302.64,326.89,325.68,269.61Z"/><path class="cls-4" d="M371.7,427.6c2.84-1.52,5.59-3.14,8.29-4.82-19.55,5.61-39.66,10.89-57.36,20.31A141.18,141.18,0,0,0,371.7,427.6Z"/><path class="cls-3" d="M361.46,372.33a45.2,45.2,0,0,1,12.73-.83,63.79,63.79,0,0,0,11-10.34c1.21-2.77,2.52-5.33,3.88-7.79-4.38,1.13-8.81,2.21-13.36,3.17A63.15,63.15,0,0,1,361.46,372.33Z"/><path class="cls-3" d="M444.07,275.53c.55,2.8,1,5.62,1.44,8.49-24.78,12.11-47.45,39.64-81,51.55-32,40.37-82.33,54.73-128.57,68.37a98.76,98.76,0,0,0-19.22-2.05,109,109,0,0,1,20.65-8.4c32-40.54,86.35-47.3,128.62-68.4C388.43,295.5,417.72,283.13,444.07,275.53Z"/><path class="cls-3" d="M337.67,385.23c-1.32,1.2-2.58,2.38-3.87,3.63-29.08,7.91-60,12.89-77.22,40.69a52.26,52.26,0,0,1-4.27,4.28,126.86,126.86,0,0,1-12.17-5.61c2.34-1.05,4.65-2.15,7-3.28C268.71,397.68,306.44,396.93,337.67,385.23Z"/><path class="cls-2" d="M446.3,312.86a136.45,136.45,0,0,1-2.67,19.23c-15.76,8.82-34.1,16-54.57,21.28C403.4,327.43,425,317.84,446.3,312.86Z"/><path class="cls-6" d="M445.51,284a140,140,0,0,1,.79,28.84c-21.32,5-42.9,14.57-57.24,40.51-4.37,1.13-8.77,2.21-13.34,3.19a63.47,63.47,0,0,1-14.27,15.77c-9.1,1.95-16.81,6.74-23.78,12.9-31.23,11.7-69,12.45-90.52,39.71-2.36,1.13-4.67,2.23-7,3.28a141.42,141.42,0,0,1-31.2-22c2.53-1.53,5.15-3,7.82-4.35A98.76,98.76,0,0,1,236,403.94c46.24-13.64,96.56-28,128.57-68.37C398.06,323.66,420.73,296.13,445.51,284Z"/><path class="cls-6" d="M408.12,205.67c.16,4.53-6.1,6.14-26.86,11.51-19.94,6.4-42.84,12-61.66,27.83a40.51,40.51,0,0,1-20,8.75c-45.75,7.46-73.48,41.47-116.11,66.85a101.7,101.7,0,0,0-17.75,4.72c-.3-1.74-.56-3.54-.76-5.33a112.06,112.06,0,0,0,12.93-9.89c37.7-29.68,88.66-46.27,124-80.32,37.34-9.66,68.47-23.32,93.7-35.86C398.79,196.54,405.19,202.76,408.12,205.67Z"/><path class="cls-7" d="M430.17,236.36c1.2,2.26,2.32,4.62,3.43,6.92-34,.54-43.48,35.09-95.82,57.32C298.56,327.43,253,350.77,209.2,369c-7.48,3.8-14.64,8-21.54,12.28-2.56-3.87-5-7.93-7.19-12.1a140.75,140.75,0,0,1-9.1-21.15A184,184,0,0,1,190,332.92c56.28,5.25,88.87-25.05,135.65-63.31,31.78.71,39-33.62,55.58-52.43,10-3.13,19.23-6.57,26.86-11.51A141.36,141.36,0,0,1,430.17,236.36Z"/><path class="cls-8" d="M362,173.25c-20.54,9.29-42.72,21.08-63.31,38.45-42.45,20.75-83.61,52.34-128.57,68.38-1.58.59-3.13,1.22-4.68,1.86a141.09,141.09,0,0,1,8.13-30.51c41.65-9.49,75.47-38.18,106.91-65.22,22.3-1.73,39.87-10.94,55-21.59A143.65,143.65,0,0,1,362,173.25Z"/><path class="cls-5" d="M303.31,161.35c-7.71,4.8-15.59,9.62-23.8,14.3C250.49,205,219.23,236,177.2,242.89a141.52,141.52,0,0,1,126.11-81.54Z"/><path class="cls-7" d="M335.5,164.62c-15.16,10.65-32.73,19.86-55,21.59-31.44,27-65.26,55.73-106.91,65.22,1.12-2.86,2.29-5.75,3.64-8.54,42-6.87,73.29-37.91,102.31-67.24,8.21-4.68,16.09-9.5,23.8-14.3A145,145,0,0,1,335.5,164.62Z"/><path class="cls-3" d="M433.6,362.22A140.63,140.63,0,0,1,380,422.77c-19.55,5.61-39.65,10.89-57.36,20.31a141.35,141.35,0,0,1-43.33-1.37c22.56-8.35,36.41-34.85,54.52-52.85,14.6-3.92,28.69-8.65,40.4-17.4a66.2,66.2,0,0,1,18.88,4.5A292.5,292.5,0,0,0,433.6,362.22Z"/><path class="cls-3" d="M337.67,385.25c-1.31,1.17-2.6,2.37-3.87,3.63,14.6-4,28.71-8.69,40.39-17.38a45.2,45.2,0,0,0-12.73.83A86.67,86.67,0,0,1,337.67,385.25Z"/><path class="cls-3" d="M361.46,372.33c-9.1,2-16.81,6.72-23.79,12.92A86.67,86.67,0,0,0,361.46,372.33Z"/><path class="cls-9" d="M302.67,164.54a130.73,130.73,0,0,1,12.17,5.61,141.23,141.23,0,0,1,31.2,22c1.27,1.21,2.62,2.44,3.87,3.73a139,139,0,0,1,17.41,21.26c2.56,3.86,5,7.93,7.19,12.1a141.29,141.29,0,0,1,9.11,21.14A182.91,182.91,0,0,1,365,265.43a179,179,0,0,0,18.68-15,138.12,138.12,0,0,1,5.57,22.65c.29,1.73.56,3.54.75,5.32l.05,0a141.31,141.31,0,0,1-8.64,68.59c-1.12,2.86-2.29,5.75-3.64,8.54a141.38,141.38,0,0,1-117.63,81.15,138.75,138.75,0,0,0,14.92,4.23,145,145,0,0,0,32.19,3.27,141.49,141.49,0,0,0,126.11-81.54c1.35-2.79,2.52-5.68,3.64-8.54a141.33,141.33,0,0,0,8.64-68.6l0,0c-.19-1.78-.46-3.59-.76-5.32a139.48,139.48,0,0,0-5.56-22.66,178,178,0,0,1-18.69,15,181.82,181.82,0,0,0,18.61-15.06,140.75,140.75,0,0,0-9.1-21.15c-2.22-4.17-4.63-8.23-7.19-12.1A140.12,140.12,0,0,0,405.5,203c-1.25-1.28-2.6-2.52-3.87-3.73a141.42,141.42,0,0,0-31.2-22,129.35,129.35,0,0,0-12.17-5.61,140.49,140.49,0,0,0-63.44-9.82C297.45,162.71,300.11,163.5,302.67,164.54Z"/><path class="cls-10" d="M369.23,177.79a139.46,139.46,0,0,1,16.32,9.6c78.8-33.82,139.87-44.27,153.05-22.2s-25,70.87-92.17,124.19c-30.11,23.92-66.07,48.76-105.84,72.5s-78.7,43.6-114,58.75c-78.81,33.82-139.88,44.26-153,22.19s25-70.86,92.17-124.18a137.6,137.6,0,0,1-.71-18.92C66.09,372.5,6.89,442.29,24.63,472s107.25,10.72,218.24-41.77c33.51-15.82,68.94-34.68,105-56.2s69.46-43.74,99.28-65.73C546,235.51,605.2,165.73,587.47,136S480.21,125.3,369.23,177.79Z"/><path class="cls-11" d="M389.65,189.44a135.38,135.38,0,0,1,12.89,10.88c40.61-13.43,70.11-15.29,77.81-2.38s-7.92,38-39,67.36c-26.88,25.39-65.28,54-110.15,80.81s-88.3,47-123.4,58.61C167.16,418.15,137.67,420,130,407.1s7.92-38,39-67.36a136.13,136.13,0,0,1-3.46-16.51c-57.13,46.92-88.83,89.1-77.14,108.68s63.87,11.7,132.28-16.32c35.62-14.59,75.67-34.66,116.68-59.14S415,306.24,444.79,281.81c57.12-46.92,88.83-89.11,77.14-108.69S458.06,161.43,389.65,189.44Z"/></g></g></svg>