<svg id="Layer_1" data-name="Layer 1" xmlns="http://www.w3.org/2000/svg" viewBox="0 0 792 612"><defs><style>.cls-1{font-size:28.48px;font-family:Montserrat-Regular, Montserrat;letter-spacing:0.8em;}.cls-2{letter-spacing:0.92em;}.cls-3{letter-spacing:0.9em;}.cls-4{font-size:48.02px;font-family:Montserrat-Bold, Montserrat;font-weight:700;letter-spacing:0.16em;}.cls-5{letter-spacing:0.14em;}.cls-6{letter-spacing:0.26em;}.cls-7{letter-spacing:0.22em;}.cls-8{letter-spacing:0.2em;}.cls-9{letter-spacing:0.18em;}.cls-10{letter-spacing:0.21em;}.cls-11{letter-spacing:0.2em;}.cls-12{letter-spacing:0.06em;}.cls-13{letter-spacing:0.18em;}.cls-14{fill:#fff;}.cls-15,.cls-16{fill:none;stroke:#fff;stroke-miterlimit:10;}.cls-15{stroke-width:1.17px;}.cls-16{stroke-width:1.12px;}</style></defs><text class="cls-1" transform="translate(264.52 436.56)">W<tspan class="cls-2" x="54.54" y="0">A</tspan><tspan class="cls-3" x="101.17" y="0">IMEA</tspan><tspan class="cls-4"><tspan x="-224.38" y="53.35">S</tspan><tspan class="cls-5" x="-186.06" y="53.35">O</tspan><tspan class="cls-6" x="-138.81" y="53.35">L</tspan><tspan class="cls-7" x="-97.33" y="53.35">A</tspan><tspan class="cls-8" x="-49.98" y="53.35">R </tspan><tspan class="cls-9" x="18.11" y="53.35">SY</tspan><tspan class="cls-10" x="98.97" y="53.35">S</tspan><tspan class="cls-11" x="139.69" y="53.35">TEM </tspan><tspan class="cls-12" x="299.44" y="53.35">W</tspan><tspan class="cls-13" x="358.17" y="53.35">A</tspan><tspan class="cls-8" x="403.59" y="53.35">LK</tspan></tspan></text><path d="M396,115.72h0A117.23,117.23,0,0,1,513.23,232.95V365.78a0,0,0,0,1,0,0H278.77a0,0,0,0,1,0,0V232.95A117.23,117.23,0,0,1,396,115.72Z"/><path class="cls-14" d="M327.61,366.15c-.06-34.44,64-48.39,68.43-60.55s-4-16.42-6.34-20.7h13c4,0,10.32,5.28,12.28,7,10.63,9.54,8.94,21,6.34,31.61-10,40.86,43.14,42.72,43.14,42.72Z"/><circle class="cls-14" cx="382.32" cy="135.52" r="3.41"/><circle class="cls-14" cx="328.7" cy="174.99" r="9.7"/><circle class="cls-14" cx="317.83" cy="210.74" r="6.84"/><circle class="cls-14" cx="362.97" cy="166.95" r="8.04"/><circle class="cls-14" cx="492.62" cy="229.7" r="3.57"/><circle class="cls-14" cx="427.58" cy="227.65" r="13.88"/><ellipse class="cls-15" cx="427.58" cy="228.46" rx="20.51" ry="5.9" transform="translate(-42.75 110.96) rotate(-14.09)"/><circle class="cls-14" cx="474.47" cy="200.4" r="12.14"/><ellipse class="cls-16" cx="474.47" cy="200.4" rx="18.88" ry="5.9" transform="translate(226.43 651.8) rotate(-84.11)"/><path class="cls-14" d="M417.23,169.48c-.28.21-.54.42-.8.65l-.51-.35A10.06,10.06,0,0,1,417.23,169.48Z"/><path class="cls-14" d="M410.87,183.38a13,13,0,0,0,3.09-1.33l-.39-.4A4.44,4.44,0,0,0,410.87,183.38Z"/><path class="cls-14" d="M416.05,160.05a63.19,63.19,0,0,0,12.4-4.75,18.63,18.63,0,0,0-4.45-2.75,35.73,35.73,0,0,0-8.39,5.09c-5.62,2.76-11.07,6.94-17,9.06L398,167a18.89,18.89,0,0,0-.07,5,13,13,0,0,0,1.72-1.31C404.61,166.75,411.36,164.55,416.05,160.05Z"/><path class="cls-14" d="M407.5,181.72c4.23-5.36,11.43-6.26,17-9.05,3-3.92,6.85-5.56,10.34-6.57a18.21,18.21,0,0,0-1.39-4.27c-4.51.07-9.83,1.06-12.69,7.59a95.53,95.53,0,0,1-17,9.06c-1,.5-1.93,1.05-2.85,1.62a18.67,18.67,0,0,0,2.31,2.82,6.23,6.23,0,0,1,.51.49A28.6,28.6,0,0,1,407.5,181.72Z"/><path class="cls-14" d="M420.27,181.11c-3.85,1-7.95,1.71-10.23,5.39a7.66,7.66,0,0,1-.57.57,19.44,19.44,0,0,0,3.57,1C416,187,417.87,183.5,420.27,181.11Z"/><path class="cls-14" d="M434.81,173.59a30.27,30.27,0,0,1-7.22,2.82c-.18.33-.36.66-.52,1a8.19,8.19,0,0,1-1.46,1.37,8.34,8.34,0,0,1,2.51.6,39.16,39.16,0,0,0,5.36-1.83A18.71,18.71,0,0,0,434.81,173.59Z"/><path class="cls-14" d="M419.19,165.32c4.21.09,5.17-4.46,7.36-6.94-2.64.84-5.67,1.58-8.16,3.68a5.51,5.51,0,0,1-2.66,1.16c-6.06,1-9.73,5.49-15.37,8.85a13.16,13.16,0,0,0-2.36.63,18.81,18.81,0,0,0,.75,3,23.62,23.62,0,0,1,2.47-2C408.68,174.4,416.14,172.9,419.19,165.32Z"/><path class="cls-14" d="M425.28,186.24c.38-.2.74-.42,1.1-.64a39.73,39.73,0,0,0-7.59,2.69A18.53,18.53,0,0,0,425.28,186.24Z"/><path class="cls-14" d="M423.93,178.92a6.12,6.12,0,0,1,1.68-.11,8.19,8.19,0,0,0,1.46-1.37c.16-.37.34-.7.52-1q-.87.22-1.77.42A8.31,8.31,0,0,1,423.93,178.92Z"/><path class="cls-14" d="M434.87,166.1c.07.37.14.74.19,1.13-3.28,1.6-6.28,5.25-10.72,6.82-4.24,5.35-10.91,7.25-17,9.06a12.35,12.35,0,0,0-2.54-.27,14.08,14.08,0,0,1,2.73-1.12c4.24-5.37,11.44-6.26,17-9.06C427.5,168.75,431.38,167.11,434.87,166.1Z"/><path class="cls-14" d="M420.78,180.63l-.51.48c-3.86,1-7.95,1.71-10.23,5.39a7.66,7.66,0,0,1-.57.57c-.54-.22-1.08-.47-1.61-.75l.93-.43C411.64,182.28,416.64,182.18,420.78,180.63Z"/><path class="cls-14" d="M435.16,171a18.18,18.18,0,0,1-.35,2.55,30.18,30.18,0,0,1-7.23,2.82A10.75,10.75,0,0,1,435.16,171Z"/><path class="cls-14" d="M435.06,167.23a18,18,0,0,1,.1,3.81,10.75,10.75,0,0,0-7.58,5.37c-.58.15-1.16.29-1.76.42a8.31,8.31,0,0,1-1.89,2.09,6.91,6.91,0,0,0-3.15,1.71c-4.14,1.55-9.14,1.65-12,5.26l-.93.43a18.6,18.6,0,0,1-4.13-2.91c.33-.2.68-.39,1-.57a12.35,12.35,0,0,1,2.54.27c6.12-1.81,12.79-3.71,17-9.06C428.78,172.48,431.78,168.83,435.06,167.23Z"/><path class="cls-14" d="M430.11,156.85c0,.6-.81.81-3.56,1.52s-5.67,1.59-8.17,3.69a5.34,5.34,0,0,1-2.65,1.16c-6.05,1-9.73,5.49-15.37,8.85a13.05,13.05,0,0,0-2.35.63c0-.23-.08-.47-.1-.71a16.91,16.91,0,0,0,1.71-1.31c5-3.93,11.74-6.13,16.43-10.64a63.55,63.55,0,0,0,12.41-4.75C428.87,155.64,429.72,156.46,430.11,156.85Z"/><path class="cls-14" d="M433,160.91c.16.3.31.61.45.92-4.5.07-5.76,4.65-12.69,7.59a95.83,95.83,0,0,1-17,9.06c-1,.5-1.93,1.05-2.85,1.62a18.21,18.21,0,0,1-1-1.6,18.5,18.5,0,0,1-1.21-2.8,25.09,25.09,0,0,1,2.47-2c7.46.7,11.77-3.32,18-8.38,4.21.09,5.17-4.46,7.36-6.95a14.46,14.46,0,0,0,3.56-1.52A18.84,18.84,0,0,1,433,160.91Z"/><path class="cls-14" d="M424,152.56a35.4,35.4,0,0,0-8.39,5.09c-5.62,2.75-11.07,6.93-17,9L398,167a18.66,18.66,0,0,1,1.07-4c5.52-1.26,10-5.06,14.16-8.64a14.39,14.39,0,0,0,7.29-2.86A18.72,18.72,0,0,1,424,152.56Z"/><path class="cls-14" d="M416.23,151c-1,.63-2.07,1.27-3.16,1.89-3.84,3.89-8,8-13.54,8.91a18.71,18.71,0,0,1,16.7-10.8Z"/><path class="cls-14" d="M420.49,151.41a14.39,14.39,0,0,1-7.29,2.86c-4.16,3.58-8.64,7.38-14.16,8.64.15-.38.31-.76.49-1.13,5.56-.91,9.7-5,13.54-8.91,1.09-.62,2.14-1.26,3.16-1.89A19,19,0,0,1,420.49,151.41Z"/><path class="cls-14" d="M433.48,177.58a18.64,18.64,0,0,1-7.1,8,38.73,38.73,0,0,0-7.6,2.69,18.64,18.64,0,0,1-5.73-.18c3-1.11,4.82-4.62,7.22-7a15.64,15.64,0,0,0,5.35-2.3,9,9,0,0,1,2.5.59A37.85,37.85,0,0,0,433.48,177.58Z"/><path class="cls-14" d="M420.78,180.63l-.51.48a15.51,15.51,0,0,0,5.34-2.3,6.12,6.12,0,0,0-1.68.11A11.46,11.46,0,0,1,420.78,180.63Z"/><path class="cls-14" d="M423.93,178.92a6.91,6.91,0,0,0-3.15,1.71A11.46,11.46,0,0,0,423.93,178.92Z"/><path class="cls-14" d="M425,153.16a17.44,17.44,0,0,1,2.16,1.27c10.44-4.48,18.52-5.86,20.27-2.94s-3.31,9.38-12.21,16.44a135.88,135.88,0,0,1-29.12,17.39c-10.44,4.48-18.52,5.86-20.27,2.94s3.31-9.39,12.21-16.45a17.5,17.5,0,0,1-.09-2.51c-13.1,9.64-20.94,18.89-18.59,22.82s14.2,1.42,28.9-5.53c4.44-2.1,9.13-4.59,13.91-7.44s9.2-5.8,13.14-8.71c13.1-9.64,20.94-18.88,18.59-22.82S439.66,146.21,425,153.16Z"/><path class="cls-14" d="M380.35,227.65a19.68,19.68,0,0,1-.33,3.63,18.06,18.06,0,0,1-.74,2.85q-.22.69-.51,1.35a20,20,0,0,1-3.34,5.35,20.42,20.42,0,0,1-2.08,2.08l-.1.09h0a20.1,20.1,0,0,1-19.91,3.56,20.25,20.25,0,0,1-5.57-3.1l-.07-.06a19.28,19.28,0,0,1-2.65-2.54,19.8,19.8,0,0,1-3.36-5.38q-.29-.66-.51-1.35a18.06,18.06,0,0,1-.74-2.85,19.68,19.68,0,0,1-.33-3.63c0-.63,0-1.26.09-1.88a20.49,20.49,0,0,1,.52-3.07l.12-.43a19.07,19.07,0,0,1,1.54-3.9,19.9,19.9,0,0,1,1.87-3,20.73,20.73,0,0,1,2.27-2.5,20.14,20.14,0,0,1,30,2.9,21.27,21.27,0,0,1,1.59,2.58,19.34,19.34,0,0,1,1.52,3.87l.12.43a20.49,20.49,0,0,1,.52,3.07C380.32,226.39,380.35,227,380.35,227.65Z"/><path class="cls-14" d="M378.77,235.48a20,20,0,0,1-3.34,5.35c-1,0-2.06,0-3.23,0-2.58,1.14-5.55.53-8.64,0-3.1-1-6.32,1.15-9.41,0s-6.06.2-8.64,0H345a19.8,19.8,0,0,1-3.36-5.38h3.83c2.58.94,5.54.74,8.64,0,3.09.27,6.31,1.43,9.41,0,2.7-.19,5.29,0,7.62,0,.34,0,.69,0,1,0l.11.09c2.53,2.1,4.68-.09,6.21-.09Z"/><path class="cls-14" d="M357,238.45c.77-.12-.57,3.66-5.91,3.48-3.43-.12-6.51-4.14-5.91-3.48,0,0,2.65-3.47,5.91-3.47S357,238.45,357,238.45Z"/><path d="M356.07,238.45c0,1.62-2.22,2.3-5,2.3s-4.34-1.48-4.34-2.3c0,0,1.64-3.41,4.34-2.92S356.07,237.42,356.07,238.45Z"/><path class="cls-14" d="M378.1,218.4h-4.78c-2.66,2.17-5.72-.81-8.91,0-3.19.58-6.52-2.23-9.71,0-3.2-.29-6.25-.57-8.92,0-1.23,0-2.38-.05-3.41,0a19.9,19.9,0,0,1,1.87-3,6.49,6.49,0,0,1,1.54.4c2.67-.14,5.72,1.56,8.92,0,3.19.91,6.52-.4,9.71,0a56.28,56.28,0,0,0,8.91,0h3.19A21.27,21.27,0,0,1,378.1,218.4Z"/><path class="cls-14" d="M373.53,212.55h-.25c-2.21.28-5.24-.57-8.56,0-3.31-2.18-6.9,1.19-10.22,0-3,.31-5.84,1.54-8,.37a20.14,20.14,0,0,1,27-.37Z"/><path class="cls-14" d="M380.35,227.65h-6.23a28,28,0,0,1-4.21-.76c-1.48-1-3-.77-4.61.76s-3.2,2.81-4.81.94-3.22-.85-4.81-.94c-1.57.59-3.12-1.2-4.6.09a8.69,8.69,0,0,1-4.22-.09H340.1c0-.63,0-1.26.09-1.88h.22c1.58,0,3.82,1.6,6.45,0a12.24,12.24,0,0,1,4.22-.49,44.74,44.74,0,0,1,4.6.49c1.59.27,3.2.15,4.81.31s3.23.84,4.81-.31c1.58-.05,3.13.42,4.61.45,1.48-.15,2.89-.45,4.21-.45h6.14C380.32,226.39,380.35,227,380.35,227.65Z"/><path class="cls-14" d="M380,231.28a18.06,18.06,0,0,1-.74,2.85h-2.69a10.87,10.87,0,0,1-4.28,1.44,5.36,5.36,0,0,1-1.13-.06,5.91,5.91,0,0,1-2.8-1.38c-3,1.68-6.21-2-9.41,0a22.94,22.94,0,0,0-9.41,0c-3,.63-5.8,0-8.21,0h-.18a18.06,18.06,0,0,1-.74-2.85h4.8c1.38,0,2.83.62,4.33,0,1.5.57,3.05-.11,4.63.39,1.58-.19,3.18,1.25,4.78-.39,1.6-1,3.2-1.55,4.78-.09,1.57-1.28,3.13-.23,4.63.09,3,.69,5.8,0,8.21,0Z"/><path class="cls-14" d="M368.76,245.88a20.11,20.11,0,0,1-15.43.68,6.93,6.93,0,0,0,2.43-.43c2.73-.24,5.68-1.52,8.41,0A36.08,36.08,0,0,1,368.76,245.88Z"/></svg>