<svg xmlns="http://www.w3.org/2000/svg" viewBox="0 0 612 608.33"><defs><style>.cls-1{isolation:isolate;}.cls-2,.cls-7{fill:#e1b286;}.cls-3{fill:#974b22;}.cls-4{fill:#eeac5d;}.cls-5{fill:#c09267;}.cls-6{fill:#efcab1;}.cls-7{mix-blend-mode:multiply;}</style></defs><g class="cls-1"><g id="jupier"><path class="cls-2" d="M590.27,304a286.86,286.86,0,0,1-4.62,51.29,276.56,276.56,0,0,1-10.44,40.24c-2.17,6.44-4.62,12.79-7.24,19a283.64,283.64,0,0,1-47.11,75.58,295.79,295.79,0,0,1-29.4,29.31c-.49.45-1,.85-1.51,1.29h-.05a283.95,283.95,0,0,1-359.85,6.44c-.31-.22-.66-.49-1-.76a285.36,285.36,0,0,1-85-111.86c-2.62-6.26-5.06-12.61-7.24-19A275.27,275.27,0,0,1,26.45,355.3,286.86,286.86,0,0,1,21.83,304q0-13.45,1.24-26.6a284,284,0,0,1,7.42-43.35l1.6-6a284.72,284.72,0,0,1,48.27-96.86,286.75,286.75,0,0,1,32-35.21A284.26,284.26,0,0,1,536,137a284.85,284.85,0,0,1,44,91.08l1.6,6A282.73,282.73,0,0,1,589,277.41C589.87,286.16,590.27,295,590.27,304Z"/><path class="cls-3" d="M568,414.59a283.64,283.64,0,0,1-47.11,75.58c-13.9-.09-29.23,0-45.7.4-36.42,16.08-78.3,7.51-122,0-43.75-14.17-89.27,16.21-133,0-43.69-18.21-85.57,2.75-122,0H91.6a284,284,0,0,1-47.48-76H98.21c36.42,13.28,78.3,10.43,122,0,43.7,3.73,89.22,20.16,133,0,38.05-2.76,74.69.62,107.56.35,4.88,0,9.72-.13,14.43-.35a18.3,18.3,0,0,0,1.51,1.24c35.75,29.67,66.17-1.24,87.71-1.24Z"/><path class="cls-3" d="M147.24,229.05c-29.09,6.3-56.75,22.78-81.93,5H30.49l1.6-6H65.31C90.49,208.08,118.2,222.16,147.24,229.05Z"/><path class="cls-3" d="M260.64,456.55c10.85-1.68-8.1,51.64-83.44,49.09-48.42-1.64-92-58.39-83.45-49.09,0,0,37.36-49.09,83.45-49.09S260.64,456.55,260.64,456.55Z"/><path class="cls-4" d="M247.42,456.55C247.42,479.37,216,489,177.2,489s-61.35-20.86-61.35-32.43c0,0,23.17-48.15,61.35-41.31C216.34,422.25,247.42,442,247.42,456.55Z"/><path class="cls-3" d="M186.28,230.51c-13.19,3.24-26.25,1.6-39-1.46C160,226.34,173,225.54,186.28,230.51Z"/><path class="cls-3" d="M194,228.07a118.87,118.87,0,0,0,12.22,2.75c-4.09,1.07-8.18,2.18-12.22,3.24a54.13,54.13,0,0,0-7.72-3.55A57.35,57.35,0,0,0,194,228.07Z"/><path class="cls-3" d="M320.7,227c-37.83-1.33-76.69,10.31-114.48,3.82C244,220.65,282.87,210.53,320.7,227Z"/><path class="cls-3" d="M581.61,234.06H462.9c-38.41.4-82.6-29.75-128.7,0A107.08,107.08,0,0,0,320.7,227c4.53.14,9,.49,13.5,1.07,46.1-27.45,90.29-9.68,128.7,0H580Z"/><path class="cls-5" d="M558.47,173.31H491.06c-37.57,30.64-80.78-11.37-125.9,0-45.08,8.17-92.06-31.4-137.14,0-45.12-4.08-88.33-8-125.9,0-17.41-.58-33.62-.62-48.27-.44a281.79,281.79,0,0,1,26.51-41.66A91.17,91.17,0,0,1,102.12,137c37.57-2.05,80.78,21.93,125.9,0,45.08,12.79,92.06-5.78,137.14,0,45.12,2.08,88.33,4.39,125.9,0h45A280.16,280.16,0,0,1,558.47,173.31Z"/><path class="cls-3" d="M493.9,90.71h-3.46c-31.18,4-74.08-8.08-120.89,0-46.8-30.82-97.48,16.79-144.28,0-43,4.44-82.56,21.72-112.89,5.29A284.22,284.22,0,0,1,493.9,90.71Z"/><path class="cls-6" d="M590.27,304h-88c-18.61,0-38.59-7.15-59.51-10.75C421.87,279.14,400,282.38,377.68,304c-22.29,20.16-45.08,39.66-67.86,13.19-22.78-25-45.56-11.9-67.9-13.19-22.29,8.3-44.14-17-65.06,1.24-20.92,3-40.9,5.51-59.51-1.24H21.83q0-13.45,1.24-26.6h3.16c22.29,0,53.91,22.65,91.12,0,18.61-6.09,38.59-7.64,59.51-6.89s42.77,3.78,65.06,6.89c22.34,3.91,45.12,2.08,67.9,4.44,22.78,3.6,45.57,11.77,67.86-4.44,22.34-.67,44.19,5.9,65.1,6.35,20.92-2.13,40.9-6.35,59.51-6.35H589C589.87,286.16,590.27,295,590.27,304Z"/><path class="cls-5" d="M585.65,355.3a276.56,276.56,0,0,1-10.44,40.24h-38.1c-18.61,9.5-38.9,19.27-60.44,20.29a68.7,68.7,0,0,1-15.94-.89c-12.84-2.17-26-8.08-39.53-19.4-42.41,23.75-87.62-27.72-132.87,0-45.25-9.06-90.46-9.42-132.87,0-42.41,8.88-82,0-115.91,0H36.88A275.27,275.27,0,0,1,26.45,355.3H94.3c19.46,0,39.93,8.75,61.16,0,21.18,8,43.12-1.55,65.37,5.51,22.25-2.76,44.89,17.54,67.5-5.51,22.6-14.17,45.25-21.94,67.5-1.33,22.25-18.12,44.19-3.24,65.37,1.33,42.41,9.73,82,0,115.91,0Z"/><path class="cls-4" d="M491.46,514.81l3.9.13c-1.68.27-3.5.67-5.41,1.16h-.05c-7.24,1.86-16,5.15-26,9.46-30.11-11.19-71.54.58-116.75,0-45.17-17.19-94.15-6.18-139.32,0-28,8.44-54.49.53-77.76-3-2-.31-3.9-.58-5.77-.85,1.6,0,3.2.09,4.8.09,23.49.09,50.36-4.08,78.73-6.13,45.17-26.11,94.15-23.71,139.32,0,45.21,13.11,86.64-18.87,116.75,0A239.57,239.57,0,0,1,491.46,514.81Z"/><path class="cls-5" d="M426.66,561.45a285.23,285.23,0,0,1-218,9.64A98.51,98.51,0,0,0,242.94,565c38.55-3.38,80.29-21.41,118.84,0C385.05,562.47,407.17,561,426.66,561.45Z"/><path class="cls-7" d="M590.27,304C590.27,461,463,588.23,306.05,588.23a283.17,283.17,0,0,1-186.52-69.77,282.5,282.5,0,0,0,75.81,10.26c156.94,0,284.21-127.28,284.21-284.22a283.5,283.5,0,0,0-97.7-214.45C502,63.18,590.27,173.27,590.27,304Z"/></g></g></svg>