<?xml version="1.0" encoding="utf-8"?>
<!-- Generator: Adobe Illustrator 25.0.1, SVG Export Plug-In . SVG Version: 6.00 Build 0)  -->
<svg version="1.1" id="Layer_1" xmlns="http://www.w3.org/2000/svg" xmlns:xlink="http://www.w3.org/1999/xlink" x="0px" y="0px"
	 viewBox="0 0 612 608.3" style="enable-background:new 0 0 612 608.3;" xml:space="preserve">
<style type="text/css">
	.st0{fill:#3DA4C0;}
	.st1{fill:#1884AA;}
	.st2{fill:#53BBD4;}
	.st3{fill:#175DAB;}
	.st4{fill:#64ACDF;}
	.st5{fill:#66BBDD;}
	.st6{fill:#267C9E;}
	.st7{fill:#6ECAC9;}
</style>
<path class="st0" d="M373.6,106.7l2,0.7c7.7,2.7,15.3,5.9,22.6,9.5c5.3,2.6,10.5,5.5,15.5,8.4c5.9,3.6,11.5,7.4,16.9,11.4
	c4.3,3.1,8.3,6.4,12.3,9.8c21.9,19,39.5,42.4,51.9,68.6c1.7,3.6,3.3,7.2,4.7,10.8c5.2,12.9,9.2,26.4,11.7,40.1
	c14.8,80.5-18.7,162.2-85.8,209c-4.6,3.2-9.4,6.2-14.3,9.1c-7.9,4.6-16,8.7-24.5,12.3c-10.3,4.3-21,7.8-31.8,10.4
	c-14.8,3.6-30,5.6-45.2,5.8c-6.5,0.1-13.1-0.1-19.6-0.7c-3.4-0.2-6.9-0.6-10.3-1c-7.7-1-15.4-2.5-23-4.3c-6.8-1.7-13.6-3.7-20.2-6
	c-1-0.4-2-0.7-2.9-1.1c-14.4-5.3-28.2-12.2-41.1-20.5c-6.6-4.2-12.9-8.9-18.9-13.8c-5.5-4.6-10.8-9.4-15.8-14.5
	c-3.4-3.5-6.8-7.1-10-10.9c-7.2-8.3-13.7-17.3-19.4-26.7c-5.1-8.3-9.5-16.9-13.4-25.8c-46-105.6,2.3-228.5,107.9-274.6
	c0.8-0.3,1.5-0.7,2.3-1c4.5-1.9,9.1-3.6,13.7-5.2c10.9-3.7,22.1-6.5,33.5-8.4c6.3-1.1,12.6-1.8,18.9-2.2c6.3-0.5,12.7-0.7,19.1-0.5
	c7.9,0.2,15.8,0.8,23.7,1.8C347.4,99.1,360.7,102.3,373.6,106.7z"/>
<path class="st1" d="M333.8,97.3c-3.1,1.7-6.4,3.2-9.7,4.5c-21.2,29.2-23.2,78.9-44.6,126.2c-42.4,40-22.7,106.5-53.3,150.7
	c6.3,43.5-18.3,73.6-33.8,100.4c-6.6-4.2-12.9-8.9-18.9-13.8c6.3-28.5,17.1-60.9,38.6-91.5c21.9-47.3,28.4-104.5,53.3-150.7
	c11.5-50.9,33.8-93.4,44.6-126.2c0-0.5,0-0.9,0.1-1.3C318.1,95.6,326,96.2,333.8,97.3z"/>
<path class="st1" d="M413.7,125.3c5.9,3.6,11.5,7.4,16.9,11.4l-0.5,1.3c-15.3,30.4-19.7,78.3-43.7,123.6
	c-0.5,53.7-37.2,99-52.2,147.5C312.4,445.6,293,479.9,290,512c-3.4-0.2-6.9-0.6-10.3-1c10.1-30,11.8-71.6,36.9-108.2
	c6.2-17,10-35.4,14-53.8c5.1-23.6,10.5-47.4,21.4-68.6c4.5-9,10.1-17.4,16.7-25.1c16.3-48,38.2-89.7,43.7-123.6
	C412.9,129.6,413.3,127.4,413.7,125.3z"/>
<path class="st2" d="M442.9,146.5c11.3,9.8,21.5,20.8,30.4,32.8c-11.5,28.1-12.4,66.9-30.5,102.2c-50.8,36-19.4,105.4-52.2,147.5
	c-4.1,31-23.6,54.9-35.7,77.8c-14.8,3.6-30,5.6-45.2,5.8c5.9-30,14-65.9,38.7-98.6c22.9-45.7,35.3-99.6,52.2-147.5
	C413,219.2,430.7,177.7,442.9,146.5z"/>
<path class="st1" d="M434.5,360.7c4.6-11,10-21.8,15.4-32.5c-1.5,12.4-2,24.9-1.3,37.4c-17.7,40.5-21.1,86-37.5,118.5
	c-7.9,4.6-16,8.7-24.5,12.3c0.1-0.4,0.2-0.9,0.3-1.4C388.8,454.5,433.9,415.4,434.5,360.7z"/>
<path class="st3" d="M481.9,247c-3.4,26.4-17.9,53.2-32,81.2C453.9,296.6,465.1,268.7,481.9,247z"/>
<path class="st4" d="M511.2,266.1c14.8,80.5-18.7,162.2-85.8,209c2.4-9.9,5.8-19.5,9.9-28.8c-10.3-50,30.7-85.8,45-127.1
	C490.8,300.3,502.9,283,511.2,266.1z"/>
<path class="st1" d="M245.8,104.4c-20.1,25.2-37.5,60.6-37.4,106.3c-11.9,47.3-59.8,84.8-54.9,138.8c-14.5,18.4-23.1,38.2-29.3,57.3
	c-4.7-8.5-8.9-17.2-12.5-26.2c5.9-12.9,12-26.4,17.4-40.6c28.4-40.8,20.7-100.2,54.9-138.8c3.2-39.8,40.6-63.4,47.9-91.9
	C236.5,107.4,241.1,105.9,245.8,104.4z"/>
<path class="st5" d="M291.1,96c-1.2,3-2.5,6.1-3.9,9.4c4.3,38.6-25.6,79.1-45.2,127.9C225,283,221.4,342,188,385.9
	c-7.1,24.1-19.9,45.1-30.3,64.9c-3.4-3.5-6.8-7.1-10-10.9c11.4-17.4,23-36.3,24.5-59.6c-2.6-56.6,27.1-106.4,54-152.6
	c-17-61.7,26.6-97.3,45.2-127.9c0.2-0.6,0.5-1,0.8-1.5C278.4,97.1,284.7,96.4,291.1,96z"/>
<path class="st5" d="M373.6,106.7l2,0.7c7.7,2.7,15.3,5.9,22.6,9.5c-2.6,4.8-5.6,9.4-9,13.7c-0.5,35.2-28.1,74.1-43.1,121.9
	c3.3,9,5.3,18.4,6,27.9c1.5,25.6-8.1,47.9-21.4,68.6c-10.9,17-24.3,32.9-36,48.8c-8.8,42.9-25.9,79.5-38,108.9
	c-6.8-1.7-13.6-3.7-20.2-6c-1-0.4-2-0.7-2.9-1.1c6.1-31.6,30.9-65.9,41.7-108.6c67.1-29.3,35.4-98,51.4-145.4
	c39.9-39,56.8-81.6,43.1-121.9C370.9,117.6,372.2,111.8,373.6,106.7z"/>
<ellipse transform="matrix(0.3335 -0.9428 0.9428 0.3335 -229.7208 587.2452)" class="st4" cx="300.5" cy="456.1" rx="50.5" ry="21.2"/>
<ellipse transform="matrix(0.3335 -0.9428 0.9428 0.3335 -225.7747 580.1141)" class="st6" cx="297.4" cy="449.7" rx="50.5" ry="21.2"/>
<path class="st0" d="M375.6,107.4C484.2,145.8,541.1,265,502.7,373.6c-17.3,49.2-52.5,90.1-98.6,114.6c11.1-15.7,20-32.9,26.4-51
	c38.4-108.6-18.5-227.8-127-266.2c-55.2-19.6-116.1-15-167.7,12.6C189.7,107.4,287.6,76.3,375.6,107.4z"/>
<path class="st7" d="M208,589.4c-0.7,0-1.4-0.2-2-0.4c-3.5-1.2-12.9-3.9,10.5-96.6l4.9,2.2c-21.3,84.5-13.9,89.2-13.6,89.4
	c0,0,9,2.1,44.6-74.8c23.8-51.5,51.6-121.5,78.3-196.8s49-147.2,62.9-202.3c20.7-82.2,12.3-86.1,12.2-86.2s-9.1-2.8-46.3,78.5
	l-5.1-1.2C394,14.7,403.9,17.6,407.6,19s13.1,4.6-9,92.4c-13.9,55.2-36.3,127.2-63,202.8S281,459.8,257.1,511.5
	C224.6,581.6,212.9,589.4,208,589.4z"/>
</svg>
