<svg xmlns="http://www.w3.org/2000/svg" viewBox="0 0 612 608.33"><defs><style>.cls-1{isolation:isolate;}.cls-2,.cls-9{fill:#3da4c0;}.cls-3{fill:#1884aa;}.cls-4{fill:#53bbd4;}.cls-5{fill:#175dab;}.cls-6{fill:#64acdf;}.cls-7{fill:#6bd;}.cls-8{fill:#267c9e;}.cls-9{mix-blend-mode:multiply;}.cls-10{fill:#6ecac9;}</style></defs><g class="cls-1"><g id="uranus"><path class="cls-2" d="M373.56,106.7l2,.72a217.34,217.34,0,0,1,22.61,9.49c5.3,2.62,10.47,5.46,15.5,8.4q8.79,5.35,16.88,11.4c4.27,3.11,8.32,6.4,12.27,9.82a208.51,208.51,0,0,1,51.87,68.63c1.67,3.57,3.27,7.17,4.74,10.83a210,210,0,0,1,11.73,40.12,208.76,208.76,0,0,1-85.81,209c-4.64,3.2-9.38,6.21-14.27,9.06a212.23,212.23,0,0,1-24.45,12.26,208.68,208.68,0,0,1-31.82,10.4,206.58,206.58,0,0,1-45.22,5.83,191.83,191.83,0,0,1-19.57-.65c-3.43-.2-6.87-.56-10.34-1a222.38,222.38,0,0,1-23-4.31,210.85,210.85,0,0,1-20.22-6c-1-.35-2-.7-2.92-1.09a206.85,206.85,0,0,1-41.1-20.54,202,202,0,0,1-18.94-13.84,211.05,211.05,0,0,1-15.84-14.48c-3.44-3.51-6.79-7.14-10-10.88a202.08,202.08,0,0,1-19.41-26.66,216.68,216.68,0,0,1-13.45-25.77A208.6,208.6,0,0,1,225,111.88c4.51-1.92,9.05-3.61,13.66-5.22a208.68,208.68,0,0,1,33.52-8.42A173.22,173.22,0,0,1,291.09,96c6.29-.49,12.69-.68,19.08-.54a215.4,215.4,0,0,1,23.67,1.82A211.62,211.62,0,0,1,373.56,106.7Z"/><path class="cls-3" d="M333.84,97.28a77.46,77.46,0,0,1-9.68,4.51C302.94,130.94,301,180.65,279.52,228c-42.35,40-22.66,106.49-53.3,150.68,6.26,43.55-18.31,73.6-33.75,100.39a202,202,0,0,1-18.94-13.84c6.26-28.54,17.05-60.85,38.6-91.54C234,326.43,240.48,269.18,265.42,223c11.51-50.89,33.79-93.41,44.65-126.23,0-.47.05-.89.1-1.34A215.4,215.4,0,0,1,333.84,97.28Z"/><path class="cls-3" d="M413.7,125.31q8.79,5.35,16.88,11.4l-.47,1.32c-15.34,30.44-19.71,78.28-43.71,123.58-.47,53.69-37.25,99-52.17,147.51-21.75,36.53-41.18,70.84-44.18,102.93-3.43-.2-6.87-.56-10.34-1,10.15-30,11.83-71.65,36.92-108.16,6.17-17,10-35.36,14-53.83,5.1-23.58,10.53-47.36,21.4-68.63a122,122,0,0,1,16.74-25.05c16.34-48,38.2-89.66,43.7-123.58C412.89,129.55,413.28,127.4,413.7,125.31Z"/><path class="cls-4" d="M442.85,146.53a207.46,207.46,0,0,1,30.39,32.78c-11.49,28.13-12.37,66.87-30.51,102.23C392,317.45,423.4,386.87,390.56,429.05c-4.06,31-23.58,54.93-35.72,77.82a206.58,206.58,0,0,1-45.22,5.83c5.86-30,14-65.86,38.7-98.59,22.92-45.69,35.29-99.63,52.17-147.51C413,219.18,430.7,177.73,442.85,146.53Z"/><path class="cls-3" d="M434.53,360.69c4.64-11,10-21.84,15.36-32.46a208.21,208.21,0,0,0-1.27,37.44c-17.71,40.45-21.11,86-37.51,118.54a212.23,212.23,0,0,1-24.45,12.26c.11-.44.21-.88.33-1.37C388.79,454.5,433.85,415.41,434.53,360.69Z"/><path class="cls-5" d="M481.86,247c-3.43,26.4-17.85,53.18-32,81.22C453.85,296.59,465.14,268.71,481.86,247Z"/><path class="cls-6" d="M511.19,266.11a208.76,208.76,0,0,1-85.81,209,171,171,0,0,1,9.94-28.83C425,396.26,466,360.5,480.3,319.14,490.75,300.28,502.88,283,511.19,266.11Z"/><path class="cls-3" d="M245.8,104.43C225.7,129.6,208.28,165,208.38,210.69,196.49,258,148.6,295.46,153.45,349.45c-14.48,18.44-23.07,38.24-29.26,57.26a215.07,215.07,0,0,1-12.48-26.25c5.93-12.92,12-26.44,17.44-40.63,28.36-40.84,20.69-100.25,54.93-138.76,3.23-39.78,40.57-63.36,47.88-91.92C236.54,107.4,241.13,105.87,245.8,104.43Z"/><path class="cls-7" d="M291.09,96c-1.16,3-2.49,6.14-3.85,9.38C291.5,144,261.6,184.49,242,233.27,225,283,221.43,342,188,385.89,180.94,410,168.09,431,157.69,450.77c-3.44-3.51-6.79-7.14-10-10.88,11.41-17.36,23-36.31,24.49-59.61-2.59-56.62,27.15-106.39,54-152.62-17-61.71,26.65-97.31,45.23-127.88.24-.55.52-1,.75-1.54A173.22,173.22,0,0,1,291.09,96Z"/><path class="cls-7" d="M373.56,106.7l2,.72a217.34,217.34,0,0,1,22.61,9.49,96.08,96.08,0,0,1-9,13.73c-.53,35.2-28.12,74.08-43.11,121.88a101.36,101.36,0,0,1,6,27.92c1.53,25.61-8.11,47.9-21.4,68.63-10.91,17-24.3,32.91-36,48.83-8.75,42.94-25.94,79.53-38,108.85a210.85,210.85,0,0,1-20.22-6c-1-.35-2-.7-2.92-1.09,6.12-31.57,30.87-65.91,41.71-108.59,67.05-29.33,35.36-98,51.42-145.38,39.91-39,56.81-81.64,43.11-121.88C370.89,117.57,372.16,111.85,373.56,106.7Z"/><ellipse class="cls-6" cx="300.46" cy="456.12" rx="50.55" ry="21.18" transform="translate(-229.75 587.3) rotate(-70.52)"/><ellipse class="cls-8" cx="297.4" cy="449.72" rx="50.55" ry="21.18" transform="translate(-225.75 580.15) rotate(-70.52)"/><path class="cls-9" d="M375.6,107.41C484.18,145.82,541.12,265,502.69,373.62A208,208,0,0,1,404.06,488.2a208.76,208.76,0,0,0,26.41-51.05C468.88,328.56,412,209.37,303.42,171a208.09,208.09,0,0,0-167.69,12.58A208.66,208.66,0,0,1,375.6,107.41Z"/><path class="cls-10" d="M208,589.44a5.76,5.76,0,0,1-2-.42c-3.48-1.23-12.86-3.89,10.52-96.58l4.85,2.22c-21.31,84.48-13.87,89.21-13.56,89.44,0,0,9,2.08,44.56-74.83,23.81-51.54,51.61-121.45,78.28-196.84s49-147.24,62.88-202.28C414.19,27.94,405.87,24,405.78,23.93s-9.12-2.82-46.31,78.49l-5.13-1.19c39.56-86.51,49.5-83.56,53.2-82.25s13.15,4.65-9,92.45c-13.92,55.2-36.31,127.2-63,202.75s-54.58,145.61-78.46,197.29C224.65,581.6,212.94,589.44,208,589.44Z"/></g></g></svg>