<svg id="Layer_1" data-name="Layer 1" xmlns="http://www.w3.org/2000/svg" viewBox="0 0 792 612"><defs><style>.cls-1{font-size:28.48px;font-family:Montserrat-Regular, Montserrat;letter-spacing:0.8em;}.cls-1,.cls-15{fill:#03036d;}.cls-2{letter-spacing:0.92em;}.cls-3{letter-spacing:0.9em;}.cls-4{font-size:48.02px;font-family:Montserrat-Bold, Montserrat;font-weight:700;letter-spacing:0.16em;}.cls-5{letter-spacing:0.14em;}.cls-6{letter-spacing:0.26em;}.cls-7{letter-spacing:0.22em;}.cls-8{letter-spacing:0.2em;}.cls-9{letter-spacing:0.18em;}.cls-10{letter-spacing:0.21em;}.cls-11{letter-spacing:0.2em;}.cls-12{letter-spacing:0.06em;}.cls-13{letter-spacing:0.18em;}.cls-14{fill:#fff;}.cls-16{fill:#aaa;}.cls-17{fill:#67bd45;}.cls-18{fill:#d17028;}.cls-19{fill:#edcc92;}.cls-20{fill:#b99573;}.cls-21{fill:#68a3d8;}.cls-22,.cls-24{fill:none;stroke-miterlimit:10;stroke-width:1.15px;}.cls-22{stroke:#68a3d8;}.cls-23{fill:#3da4c0;}.cls-24{stroke:#3da4c0;}.cls-25{fill:#e1b286;}.cls-26{fill:#e3cc86;}</style></defs><text class="cls-1" transform="translate(264.52 436.56)">W<tspan class="cls-2" x="54.54" y="0">A</tspan><tspan class="cls-3" x="101.17" y="0">IMEA</tspan><tspan class="cls-4"><tspan x="-224.38" y="53.35">S</tspan><tspan class="cls-5" x="-186.06" y="53.35">O</tspan><tspan class="cls-6" x="-138.81" y="53.35">L</tspan><tspan class="cls-7" x="-97.33" y="53.35">A</tspan><tspan class="cls-8" x="-49.98" y="53.35">R </tspan><tspan class="cls-9" x="18.11" y="53.35">SY</tspan><tspan class="cls-10" x="98.97" y="53.35">S</tspan><tspan class="cls-11" x="139.69" y="53.35">TEM </tspan><tspan class="cls-12" x="299.44" y="53.35">W</tspan><tspan class="cls-13" x="358.17" y="53.35">A</tspan><tspan class="cls-8" x="403.59" y="53.35">LK</tspan></tspan></text><circle class="cls-14" cx="381.66" cy="135.52" r="3.41"/><circle class="cls-14" cx="369.28" cy="210.74" r="6.84"/><path class="cls-15" d="M396,115.72h0A117.23,117.23,0,0,1,513.23,232.95V365.78a0,0,0,0,1,0,0H278.77a0,0,0,0,1,0,0V232.95A117.23,117.23,0,0,1,396,115.72Z"/><path class="cls-14" d="M327.61,366.15c-.06-34.44,64-48.39,68.43-60.55s-4-16.42-6.34-20.7h13c4,0,10.32,5.28,12.28,7,10.63,9.54,8.94,21,6.34,31.61-10,40.86,43.14,42.72,43.14,42.72Z"/><circle class="cls-16" cx="382.32" cy="135.52" r="3.41"/><circle class="cls-17" cx="328.7" cy="174.99" r="9.7"/><circle class="cls-18" cx="317.83" cy="210.74" r="6.84"/><circle class="cls-19" cx="362.97" cy="166.95" r="8.04"/><circle class="cls-20" cx="492.62" cy="229.7" r="3.57"/><circle class="cls-21" cx="427.58" cy="227.65" r="13.88"/><ellipse class="cls-22" cx="427.58" cy="228.46" rx="20.51" ry="5.9" transform="translate(-42.75 110.96) rotate(-14.09)"/><circle class="cls-23" cx="474.47" cy="200.4" r="12.14"/><ellipse class="cls-24" cx="474.47" cy="200.4" rx="18.88" ry="5.9" transform="translate(226.42 651.8) rotate(-84.11)"/><path class="cls-25" d="M377,226.63a19.42,19.42,0,0,0-.52-3.08l-.12-.43a19.4,19.4,0,0,0-1.53-3.9,19,19,0,0,0-1.6-2.59,20.47,20.47,0,0,0-3-3.3,20.25,20.25,0,0,0-32.9,9.79l-.12.43a20.63,20.63,0,0,0-.53,3.08c-.05.63-.08,1.26-.08,1.89a20,20,0,0,0,.33,3.66,18.59,18.59,0,0,0,.74,2.87c.16.45.33.91.52,1.35a20,20,0,0,0,3.38,5.42,20.2,20.2,0,0,0,2.67,2.56l.07.05a20.25,20.25,0,0,0,12.53,4.35,20.25,20.25,0,0,0,8.6-1.91A20.6,20.6,0,0,0,370,244h0l.1-.09a19.73,19.73,0,0,0,2.1-2.09,20.36,20.36,0,0,0,3.36-5.39c.18-.44.36-.9.51-1.35a18.59,18.59,0,0,0,.74-2.87,20,20,0,0,0,.34-3.66A17.09,17.09,0,0,0,377,226.63Zm-27.14,14.9h0a12.36,12.36,0,0,1-2.18.17,6.86,6.86,0,0,1-1.85-.24h0c-1.62-.46-2.52-1.45-2.52-2.07a6.79,6.79,0,0,1,2-2.37,3.11,3.11,0,0,1,2.38-.57,10.88,10.88,0,0,1,1.31.31h0c2.14.64,3.69,1.77,3.69,2.63C352.68,240.56,351.53,241.24,349.87,241.53Z"/><path class="cls-26" d="M397.13,169.81l-.11.08a17.51,17.51,0,0,1-.12-2.51l.14-.1A17.84,17.84,0,0,0,397.13,169.81Z"/><path class="cls-26" d="M412,160.62c.52-.35,1-.72,1.51-1.1C413,159.91,412.52,160.27,412,160.62Z"/><path class="cls-26" d="M426.69,152.19l-.13.05a17.75,17.75,0,0,0-2.18-1.28l.15-.07h0A17.56,17.56,0,0,1,426.69,152.19Z"/><path class="cls-26" d="M427.91,153.12h0c-.26-.21-.51-.42-.78-.61h0A9.1,9.1,0,0,1,427.91,153.12Z"/><path class="cls-26" d="M397.57,172.64h0a19.27,19.27,0,0,1-.43-1.94h0A16.37,16.37,0,0,0,397.57,172.64Z"/><path class="cls-26" d="M397.15,170.7h0c0-.09,0-.18-.05-.27h0A2.7,2.7,0,0,0,397.15,170.7Z"/><path class="cls-26" d="M412,160.62c.52-.35,1-.72,1.51-1.1C413,159.91,412.52,160.27,412,160.62Z"/><path class="cls-26" d="M428.71,153.85c-.27-.25-.54-.49-.82-.72h0C428.12,153.28,428.41,153.56,428.71,153.85Z"/><path class="cls-26" d="M434.72,168.49a5.21,5.21,0,0,1,0,.55,17.08,17.08,0,0,1-.35,2.57,19.1,19.1,0,0,1-1.35,4,18.74,18.74,0,0,1-7.18,8.11c-.36.22-.72.44-1.1.64a18.65,18.65,0,0,1-6.57,2.08h0a18.72,18.72,0,0,1-5.79-.19,19,19,0,0,1-3.62-1.05c-.39-.15-.78-.33-1.17-.52h0l-.44-.23a18.61,18.61,0,0,1-1.77-1c-.3-.2-.6-.41-.89-.63-.52-.39-1-.82-1.52-1.27a1.84,1.84,0,0,0-.19-.2,4.13,4.13,0,0,0-.33-.3,19,19,0,0,1-2.33-2.85,18.65,18.65,0,0,1-1-1.62,20,20,0,0,1-1.22-2.83h0c-.12-.36-.22-.73-.32-1.09h0a16.37,16.37,0,0,1-.42-1.94l.36-.13-.36.13a2.7,2.7,0,0,1,0-.28h0c0-.14,0-.29,0-.44h0a.34.34,0,0,1,0-.1l.11-.08a17.84,17.84,0,0,1-.09-2.53l-.14.1a17.16,17.16,0,0,1,.2-2.48h0a19.29,19.29,0,0,1,1.09-4.09c.15-.38.31-.77.49-1.14a18.9,18.9,0,0,1,21.19-10.47,18.3,18.3,0,0,1,3.54,1.15h0a11.53,11.53,0,0,1,1.12.54l-.15.07a17.75,17.75,0,0,1,2.18,1.28l.13-.05c.14.1.29.2.44.32h0c.27.19.52.4.78.61s.55.47.82.72l.13.12h0l.73.72a18.38,18.38,0,0,1,2.95,4.11c.16.3.32.62.46.92a18.94,18.94,0,0,1,1.08,2.91c.12.47.24.94.33,1.41h0c.05.27.1.53.14.8,0,.11,0,.22.05.33,0,.26.07.51.09.76A18.27,18.27,0,0,1,434.72,168.49Z"/><path class="cls-26" d="M407.1,184.48a18.61,18.61,0,0,1-1.77-1l-.05,0c-10.55,4.53-18.73,5.93-20.49,3s3.3-9.43,12.23-16.54l.11-.08a17.84,17.84,0,0,1-.09-2.53l-.14.1c-13.16,9.71-21,19-18.65,23s14.36,1.43,29.21-5.59l.08,0Zm46.49-39.11c-2.37-4-14.27-1.46-29,5.52h0l-.15.07a17.75,17.75,0,0,1,2.18,1.28l.13-.05c10.49-4.49,18.6-5.86,20.36-2.92s-3.35,9.49-12.34,16.63l0,0a18.27,18.27,0,0,1,.05,2.56l.09-.07C448,158.68,456,149.34,453.59,145.37Z"/></svg>