<svg xmlns="http://www.w3.org/2000/svg" viewBox="0 0 612 608.33"><defs><style>.cls-1{isolation:isolate;}.cls-2,.cls-6,.cls-9{fill:#828282;}.cls-3,.cls-6,.cls-9{mix-blend-mode:multiply;}.cls-4{fill:#848484;}.cls-4,.cls-5{mix-blend-mode:screen;}.cls-5{fill:#ce6363;}.cls-7{opacity:0.51;}.cls-8,.cls-9{opacity:0.6;}</style></defs><g class="cls-1"><g id="asteroid"><path class="cls-2" d="M357,376.4a5.87,5.87,0,0,1-.87,3.14.64.64,0,0,1-.24.25c-.58.41-1.38,2.34-2.31,2.32a1.11,1.11,0,0,0-.26,0c-1,.23-2,.64-3.19.83a.82.82,0,0,1-.57-.13,4.76,4.76,0,0,0-3.11-.75.77.77,0,0,0-.39.14c-1,.79-1.81-.5-2.4-2.37a1.24,1.24,0,0,0-.1-.2,6.33,6.33,0,0,1-.92-3.24c0-1.89.36-1.85,1-3.32A4.66,4.66,0,0,1,346,370.8a.87.87,0,0,1,.39-.07c.88,0,1.86-.64,2.91-.85a.79.79,0,0,1,.77.3c1.17,1.45,2.26.53,3.22.53a.67.67,0,0,1,.28.06,3.74,3.74,0,0,1,2.44,2.31C356.67,374.6,357,374.18,357,376.4Z"/><path class="cls-2" d="M313.19,484.92a10.18,10.18,0,0,1-1.66,5.63c-1.06.32-2.56,4.41-4.36,4a57.42,57.42,0,0,1-6.14,1.52,8.19,8.19,0,0,0-6.13-1.52c-1.8,1.76-3.31-.6-4.36-4a10.55,10.55,0,0,1-1.66-5.63c0-3.2.6-3.14,1.66-5.63a8.07,8.07,0,0,1,4.36-4c1.8.26,3.9-1.43,6.13-1.52,2.24,3.48,4.34,1.33,6.14,1.52,1.8.73,3.3,1.38,4.36,4S313.19,481.16,313.19,484.92Z"/><path class="cls-2" d="M273.88,518.62h0a4,4,0,0,1-3.91-.41h0a3.93,3.93,0,0,1-1.59-3.59h0a3.93,3.93,0,0,1,2.31-3.17h0a3.93,3.93,0,0,1,3.9.41h0a3.93,3.93,0,0,1,1.59,3.59h0A3.9,3.9,0,0,1,273.88,518.62Z"/><path class="cls-2" d="M313.39,461.23c0,2.71-1.26,1-2.53,1.64-1.26-1.49-2.52-.62-2.52,1.64-1.5.61-3.2.41-4.93,1.59-1.72-4-3.47.23-5.07-1.08,0-2.48-1.34-2.26-2.68-1.37-1.34-2.36-2.68-1-2.68-1.37a20,20,0,0,0-3.84-3.47c-.94-.05-1.51-4.31-1.6-4.92,0-1.33-.08,1.95-.15-3a27.68,27.68,0,0,1-.16-3c-.09-1.38.3-4.09,1.08-5.07.79-2.4,2-4.91,3.47-3.85,0-2.53,1.27-1.69,2.53-1.63,1.26-3,2.52-1.19,2.52-1.64,1.5-3.23,3.21-5.2,4.93-1.6,1.73-1.86,3.48-1.28,5.07,1.08,0,2.49,1.34.13,2.68,1.37,1.34,1.92,2.68.14,2.68,1.37,1.59,3,2.9,4.87,3.84,3.47.94,1.61,1.51,1.52,1.6,4.93a24.66,24.66,0,0,0,.16,3,30,30,0,0,0,.15,3c.09,1-.3,5.62-1.08,5.07C316.07,459,314.89,458.54,313.39,461.23Z"/><path class="cls-2" d="M344.59,502.82h0c-1.12.4-2.24-.38-3.27-.32-1,.51-1.95-1.37-2.68-1.91h0c-.72-.87-1.18.14-1.36-3-.18-3.43-.08.19.32-3.27h0c.4-1.48,1.06-.66,1.91-2.68.85,4.78,1.87-2.45,3-1.36h0c1.12-5.07,2.25,2,3.27.32,1,.4,2,5.54,2.68,1.91h0c.72,2.65,1.18-.36,1.36,3,.18,2.12.08,3.12-.31,3.27h0c-.4,1.89-1.07,1.09-1.91,2.68C346.74,499.27,345.71,501.64,344.59,502.82Z"/><path class="cls-2" d="M269.38,483.91c0-.15-1.32-1.19-2.64.76-1.32-.21-2.64,1.55-2.64.77-.9-1-1.83.81-2.71.05-.88-.39-1.7,0-2.37-1.3,0-1.87-1-4.58-2-1.91-1,.63-2-1.68-2-1.9-.67-3.87-1.15-1.67-1.4-2.32-.25-1.22-.28-6.11-.06-2.7,0,.48.33-3.37.66-2.68a16.6,16.6,0,0,0,.66-2.67c.22-3,.68-1.77,1.3-2.37.63-2,1.42.8,2.32-1.4,0-1.34,1.32-2.41,2.64-.77a2.52,2.52,0,0,1,2.65-.76,5.21,5.21,0,0,1,5.07,1.25l4,3.81a5.21,5.21,0,0,1,1.46,5l-.66,2.67c-.33,1.34-.66,4.46-.66,2.67a9.47,9.47,0,0,0-1.3,2.38C271.07,481.63,270.28,483.29,269.38,483.91Z"/><path class="cls-2" d="M304.53,536h0a3.57,3.57,0,0,1-3-1.82h0c-.61.92-.59-2.34.06-3.55h0a22.93,22.93,0,0,0,3.1-1.73h0c1.26.54,2.43-1.86,3,1.82h0c.62,2.41.6,2.46-.05,3.55h0A3.56,3.56,0,0,1,304.53,536Z"/><path class="cls-2" d="M313.91,515.49c0,1.27-2.21,3.3-2.21.51-1.23.9-2.53-1.59-3.39-1,0-.27-1.54-3.84-1.54-1.66-.86-.31-1.16-3-.79-3.46,0,.27.66-2.57.66-2.16.38-2.47,1.37-1.85,2.61-2.42,0-3.35,2.2,1.45,2.2-.5,1.24-.38,2.53-2.58,3.4,1.05,0,1.44,1.54,0,1.54,1.65.86.93,1.16,3.8.79,3.46,0,2.9-.67,1.28-.67,2.17C316.14,515.57,315.15,514.57,313.91,515.49Z"/><path class="cls-2" d="M343.39,454.18s-1.56.88-3.13,1.58c-1.56-.38-3.13,2.2-3.13,1.58-.92,3-2,2.5-2.88-.16,0,2.31-1.46-1.84-2.93-1.92-1.47-1.06-2.94-2.93-2.94-1.92-.86-.51-1.36-3.31-1.3-2.57a21.88,21.88,0,0,0,.2-3.5c.09-4,.19.93.19-3.5.06.37.66-.65,1.58-2.42,0,1,1.56-.53,3.13-1.58,1.56-4.6,3.13-4.4,3.13-1.58a1.81,1.81,0,0,1,2.88.16,8.64,8.64,0,0,0,2.93,1.92c1.47.27,2.94.85,2.94,1.92a2.71,2.71,0,0,1,1.3,2.57c0-.94-.1.4-.19,3.5-.1-.74-.2.58-.2,3.5C344.91,454.41,344.31,453,343.39,454.18Z"/><path class="cls-2" d="M337.61,481.35c0-1.74-2.83,1-2.83,1.35a4.21,4.21,0,0,0-2.88-.23c0-1.56-2.58-4.05-2.58-1.77-.85.83-1.32-1.29-1.24-2.61a21.49,21.49,0,0,0,.25-3.12c.08,1.63.7-.53,1.63-2.38,0,.39,2.83.27,2.83-1.35.93-.52,2,2.6,2.87.23,0-2.56,2.59,4.31,2.59,1.77.85.48,1.32.53,1.24,2.61,0,1.57-.25,2.44-.25,3.12C339.16,480.6,338.54,479.08,337.61,481.35Z"/><path class="cls-2" d="M252.39,503.09c0,1.29-3.59-1-3.59.23,0,.35-2-2.75-2-3,0,1.24,1.59-4.88,1.59-3.23,0-1.45,3.6-2.32,3.6-.23,0-.33,2,4.41,2,3C254,500.79,252.39,500.73,252.39,503.09Z"/><path class="cls-2" d="M258.73,538.16l-4.83,1.09a6.35,6.35,0,0,1-3.27-.12c-1-1.74-2,.87-2.77-1.75,0,3.76-3.37-5.55-3.37-3.63a4.61,4.61,0,0,1-1.52-2.9c-.24-1.26-.21-3.78.12-3.26,0-1.55,1.47-8.7,1.47-4.74.33.82.94-2.1,1.74-2.77.8-1.14,1.8,1.55,2.9-1.52a46.64,46.64,0,0,1,4.83-1.1,6.32,6.32,0,0,1,6,1.87l3.37,3.63a6.36,6.36,0,0,1,1.4,6.17l-1.47,4.73A6.33,6.33,0,0,1,258.73,538.16Z"/><path class="cls-2" d="M225.33,547.34c0,1.24-4-.39-4-.39s-1.66-3.41-1.66-3.66c0-1.34,2.34-2.2,2.34-3.28,0-4.68,4,2.34,4,.39,0,.19,1.67-.85,1.67,3.67C227.67,545.69,225.33,544.53,225.33,547.34Z"/><path class="cls-2" d="M376.39,390.38s-3.48-1.27-3.48.49a1.8,1.8,0,0,1-2.59-1c0-.82-2.29-3.61-2.29-2.67-.69-1-.88-.63-.51-2.89,0-3,1.1-3,1.1-2.92a2.91,2.91,0,0,1,2.3-1.84l5.05-.71L380.4,384l-1.71,4.52A2.87,2.87,0,0,1,376.39,390.38Z"/><path class="cls-2" d="M209.27,514c0-.66-3.24-.57-3.24.57-1.15,2.27-2.32-1.09-3.39-.29s-2-1.07-2.78-1.95c0-3.36-2.12-2.89-2.12-2.52-.75-1.69-1.24,0-1.44-3.08-.19-5.32-.1-2.54.3-3.39,0-3.54,1.12-2.66,1.12-3.08.4,1,1.08-3.6,1.95-2.79.87,1.35,1.93.18,3.08-1.44,0-.49,3.24-2,3.24-.57,1.15-.8,2.32,2.37,3.39.29,1.06-1,2,.76,2.78,2,0,0,2.12,2,2.12,2.52.75,1.16,1.24,1.48,1.44,3.08s.1,3-.3,3.39c0,3.19-1.12,1-1.12,3.08-.4,1.78-1.08-.21-2,2.79C211.48,511.49,210.42,516.8,209.27,514Z"/><path class="cls-2" d="M242.31,488.39c0,1.65-1.84,3.93-1.84,1-.81,1.26-1.72.5-2.61.62a13.92,13.92,0,0,0-2.57-.77c0-3.46-1.78,1.51-1.78-1.09,0,2.77.14-3.48.14-5.08,0-1.19,4.47-3.46,4.47-2.42,0,.43,4.33,2.76,4.33,2.66C242.45,481.37,242.31,490.14,242.31,488.39Z"/><path class="cls-2" d="M235.12,522.79c0-1.75-1.34.85-2.67,2.3-1.34,4.23-2.68,2.41-2.68,2.3,0,.28-1.66,1.69-3.33-1.16-1.66-2.57-3.33-3-3.33-1.17,0,.1-2.22.3-2.54-3.33-.27-1.26-1.16-4,0-4.09a7.87,7.87,0,0,0,1.93-.26,3.26,3.26,0,0,0,.82-.34c.54-.32.8-2,1.43-2,1.1,0,2.4-4.31,2.4-1.51,0-4.64,1.66.05,3.33,1.16,1.66.86,3.28.93,3.33,1.17.81,3.89,1.88.64,2.21,3.89C236.34,517.63,235.12,523.1,235.12,522.79Z"/><path class="cls-2" d="M334.93,425.17l-3.22,2.62a2.86,2.86,0,0,1-2.85.46L325,426.77a2.87,2.87,0,0,1-1.82-2.23l-.66-4.1a2.9,2.9,0,0,1,1-2.7l3.22-2.62a2.87,2.87,0,0,1,2.84-.46l3.89,1.48a2.91,2.91,0,0,1,1.82,2.24l.66,4.1A2.89,2.89,0,0,1,334.93,425.17Z"/><path class="cls-2" d="M353.89,417.23c0-.62-2,.36-2,1.23-.87,3.79-2,.09-2.88.1,0-2.73-2.06-2-2.06-1.1-.91-.75-1.49-.78-1.52-2.45a22.77,22.77,0,0,0-.08-2.33c0-1.13.48-.65,1.35-2.54,0-.05,2-1.46,2-1.24.88-3.15,2-.72,2.89-.09,0,.15,2.05-1.63,2.05,1.09.91,2.58,1.49,2.14,1.53,2.45a16.85,16.85,0,0,1,.08,2.33C355.28,414.6,354.76,414.78,353.89,417.23Z"/><path class="cls-2" d="M374.62,441.21a22.29,22.29,0,0,1-1.9,3.29c-.64,1.52-1.54.83-2.6,2.6-1.06-.94-2.28.25-3.54.95,0-.53-3.81-2.56-3.81,0-1.26,1.65-2.48,1.72-3.54-.95-1.06,1.55-2-3.48-2.59-2.6,0,2.83-1.91,1.12-1.91-3.29-.63-1.68-1-4.54-1-3.55a11.76,11.76,0,0,1,1-3.54c0-1.47,1.91-3,1.91-3.3.63-.57,1.53-2.51,2.59-2.59,1.06-1.56,2.28.83,3.54-1,0,1,3.81-.27,3.81,0,1.26-.69,2.48,1.33,3.54,1,1.06-.84,2,2,2.6,2.59,0,1.81,1.9-.3,1.9,3.3a28.68,28.68,0,0,0,.95,3.54C375.57,443.27,375.25,442.05,374.62,441.21Z"/><path class="cls-2" d="M362.32,470.87h0c-.52-.47-1.47,3.4-2.5,1.44h0c-1,1.15-2-3.15-2.5-1.44h0c-.52-1.61-.52-5.14,0-2.89h0c.51-.12,1.47-3.25,2.5-1.44h0c1-.48,2,.55,2.5,1.44h0C362.83,468.87,362.83,470.49,362.32,470.87Z"/><path class="cls-2" d="M347,399.26c0,1-1.61,2.74-1.61,1.27-.81.17-1.9,1.2-2.85.41,0,.16-1.91-2.2-1.91-.76-.95.74-1.63-.65-1.78-2.27,0,2.53-.29-1.8-.29-2-.15-.15.26-4.09,1.07-2.67,0-1.35,1.61.24,1.61-1.27.81,1.05,1.9.21,2.85-.41,0-.26,1.91-.71,1.91.76.95,1.58,1.63,2.81,1.78,2.27,0,3,.29,4.19.29,2C348.26,397.77,347.85,398.18,347,399.26Z"/><path class="cls-2" d="M369.78,407.91c0-2.33-.72-2.87-.72.44-.88,2.41-2-1.26-2.88.07,0,.08-.74,1.48-.74-.4-.9-.14-1.48-3.22-1.5-2.46,0-3.89,0-.78,0-.85,0-2.06.5-1.7,1.38-2.53,0-1.24.72.15.72-.44.88-2.19,2-.81,2.88-.07,0,1.43.74-.14.74.41.91,2.95,1.48,1.46,1.5,2.46,0,1.95,0,2.77,0,.84C371.19,408.53,370.66,406.81,369.78,407.91Z"/><path class="cls-2" d="M362.5,364.41c0,2.43-1.53-.56-1.53.66-1,2.4-2,0-2.86-.35,0-.91-1.33-1.14-1.33-1-.83-1.38-1.26-.39-1.14-2.65,0-.58.2,1,.2-1.65.13-.61.79.38,1.73-2.31,0,.46,1.53-.92,1.53-.65.95-2,2,.56,2.87.34,0-3.05,1.33,3,1.33,1,.82,2.06,1.26-.33,1.13,2.65,0-1.86-.2,2.84-.2,1.65C364.11,365,363.45,363.85,362.5,364.41Z"/><path class="cls-2" d="M295.84,521.71c0,.37-4.82-.41-4.82,1.7-1.2-1-2.53-.13-3.49-.65,0,.63-3.88-8.14-3.88-3.33-1,.39-1.42-2.69-1.18-3.35,0,.74.94-4.09.94-5,.23-3.93,1.11-2,2.31-2.7,0,2.41,4.82-1.31,4.82-1.7,1.19-3,2.52.52,3.49.66,0-.75,3.88,4.73,3.88,3.32,1,2.07,1.41,2.15,1.18,3.35,0-2.65-.94,3.35-.94,5C297.91,520.28,297,523.79,295.84,521.71Z"/><path class="cls-2" d="M268.51,562.05c0,1.75-3.68,1.6-3.68,1.17-1,.69-2-1.88-2.91.13-.95-1.58-1.85-.75-2.6-1.34,0,1.76-2.84-.62-2.84-2.6a5.64,5.64,0,0,1-1.71-5.38l.83-3.77a5.56,5.56,0,0,1,1.34-2.59c.66-.72,1.5-2.37,2.46-1.58,0-2.49,3.68-1.41,3.68-1.16,1-1.73,2,1.85,2.92-.14.95.09,1.84,3,2.59,1.35,0,2.34,2.85,2.61,2.85,2.6.74-.27,1.28-1.68,1.57,2.46.29,3.4.35,4.34.13,2.92,0,1.85-.83,1.06-.83,3.76-.21,1.39-.68,4.87-1.34,2.6C270.31,564,269.47,556.6,268.51,562.05Z"/><path class="cls-2" d="M239.72,584.78c0,.71-1.68,2.89-3.36,1.06-1.67-1-3.35,2.92-3.35,1.07-1.35.74-2.76,2.33-4.09.18-1.34.93-2.6,1-3.64-1.88,0,2.13-1.3-2.78-2.6-2.38-1.3,2.06-2.6.52-2.6-2.37-1.05-2.11-1.8-1.54-2.21-3.45-.41-3-.49-3.66-.19-4.09,0,2.22.38.56.76-3.44.38-2.05.76-1.43.76-3.44.3-2.06,1-1.07,1.88-3.64.92-2.38,2.11-.48,3.45-2.21,0,.61,1.68-3.13,3.36-1.06,1.68-2.65,3.35-1.62,3.35-1.06,1.35-3,2.76-2.59,4.1-.19,1.33-.54,2.59-.17,3.63,1.88,0,2.17,1.3,3.53,2.6,2.38,1.3,2.09,2.6,2.78,2.6,2.37,1.05.6,1.8,3.24,2.21,3.45.41-.1.49,2.82.19,4.1,0-2.42-.38,1.33-.76,3.43-.38-.78-.75,5.81-.75,3.44-.31,2.84-1,3-1.89,3.64A16.61,16.61,0,0,0,239.72,584.78Z"/><path class="cls-2" d="M194.29,553.64c0-.71-1.54.48-3.07,1-1.53-.81-3.06,2.14-3.06,1-1.12-.29-2.28.68-3.39.15-1.11-2.27-2.15-1.14-3-1.56,0-2.72-1.19-.16-2.38-2.17-1.18-.72-2.37-1.82-2.37-2.16-.86,0-1.49-2.06-1.83-2.86-.34-2.56-.4-1.28-.15-3.4,0,.21.34.38.69-3.13.34-2.05.69-3.67.69-3.14.25-.52.8-2.67,1.56-3,.76,0,1.74-2.24,2.86-1.83,0-.42,1.53-2.36,3.06-1,1.53,2,3.06,1.72,3.06-1,1.12.65,2.29-.61,3.39-.15a4.25,4.25,0,0,0,3,1.56c0,1.22,1.18,3.72,2.37,2.17,1.19-.9,2.37,2.42,2.37,2.16.87,1.31,1.49,4.79,1.83,2.86a6,6,0,0,1,.16,3.39c0-.66-.35,2.73-.69,3.14-.35,1.79-.69,4.66-.69,3.14-.25,1.93-.8.07-1.56,3C196.38,550.9,195.4,552.58,194.29,553.64Z"/><path class="cls-2" d="M192,587.8c0,.72-2.75,0-2.75.88-1.29,1.21-2.64-1.42-3.91.17-1.27,2.94-2.48-2.46-3.47-1.8,0,2.58-2.14-2-2.14-1.94-1,.42-1.71-5.4-2.1-3.3-.4.33-.47-2.17-.18-3.91,0,1.35.62-6.89.62-2.82.29-.1.92-2.9,1.8-3.47a3.47,3.47,0,0,0,3.29-2.11c0,2,2.76-3.47,2.76-.87,1.28-.18,2.63,1.45,3.9-.18,1.28-.68,2.48.58,3.48,1.8,0,1.16,2.13,3.2,2.13,2,1,1.41,1.71-.38,2.11,3.3.39-.41.46,4.24.17,3.9,0-3.21-.62,1.93-.62,2.82-.28,1.45-.92.9-1.8,3.48C194.38,587.24,193.25,585.84,192,587.8Z"/><g class="cls-3"><path class="cls-2" d="M357,376.4a6,6,0,0,1-.86,3.14.72.72,0,0,1-.24.25c-.59.41-1.38,2.34-2.32,2.32a1.11,1.11,0,0,0-.26,0c-1,.23-2,.64-3.19.83a.88.88,0,0,1-.57-.13,4.76,4.76,0,0,0-3.11-.75.77.77,0,0,0-.39.14c-.63.51-1.2.16-1.68-.66a.8.8,0,0,1,1.08-1.11l.16.1a.82.82,0,0,0,.57.13c1.15-.19,2.24-.59,3.19-.82a1.1,1.1,0,0,1,.26,0c.93,0,1.73-1.9,2.31-2.31a.82.82,0,0,0,.24-.25,6,6,0,0,0,.87-3.14,3.61,3.61,0,0,0-.42-2.23.78.78,0,0,1,.63-1.19h0a.67.67,0,0,1,.28.06,3.7,3.7,0,0,1,2.44,2.31C356.68,374.6,357,374.18,357,376.4Z"/><path class="cls-2" d="M313.19,484.92a10.1,10.1,0,0,1-1.66,5.63c-1,.32-2.56,4.4-4.36,4a55,55,0,0,1-6.14,1.53,8.2,8.2,0,0,0-6.13-1.53c-1.48,1.45-2.76.12-3.75-2.29a8.15,8.15,0,0,1,5.94,1.54,57.42,57.42,0,0,0,6.14-1.52c1.8.4,3.3-3.69,4.36-4a10.23,10.23,0,0,0,1.66-5.63c0-3.76-.61-3.06-1.66-5.63a7.9,7.9,0,0,0-.94-1.73,2.26,2.26,0,0,1,.52,0c1.8.73,3.31,1.38,4.36,4S313.19,481.16,313.19,484.92Z"/><path class="cls-2" d="M276.2,515a3,3,0,0,1,0,.42,4,4,0,0,1-2.3,3.17,3.93,3.93,0,0,1-3.9-.41,3.85,3.85,0,0,1-1.26-1.55,3.68,3.68,0,0,0,1.21-.32,3.89,3.89,0,0,0,1.58-1.28,3.81,3.81,0,0,0,.73-1.89c0-.14,0-.27,0-.41a4,4,0,0,0-.35-1.63l.37,0a4,4,0,0,1,2.31.75A3.91,3.91,0,0,1,276.2,515Z"/><path class="cls-2" d="M294.39,462.34c-.8-.33-1.4.2-1.4,0l-1-1.06C293.13,460.51,294.26,460.42,294.39,462.34Z"/><path class="cls-2" d="M302.89,433.22c1.36-.65,2.69.11,3.94,1.95v0a2,2,0,0,1-1.26-.92C304.29,433.08,303,435.17,302.89,433.22Z"/><path class="cls-2" d="M316.86,457.39c-.79,1.64-2,1.15-3.47,3.84,0,2.71-1.26,1-2.52,1.64-1.27-1.49-2.53-.62-2.53,1.63-1.5.62-3.2.42-4.93,1.6-1.72-4-3.47.24-5.06-1.08,0-2.48-1.35-2.26-2.69-1.37a3.86,3.86,0,0,0-.44-.65c1.36-.12,2.82-2.46,4.25.83,1.73-1.19,3.43-1,4.93-1.6,0-2.26,1.26-3.13,2.52-1.64,1.27-.62,2.53,1.07,2.53-1.63,1.5-2.7,2.68-2.21,3.47-3.85.79.56,1.17-4.05,1.08-5.07,0-.54-.08.12-.16-3a27.9,27.9,0,0,1-.15-3c-.09-3.41-.66-3.32-1.6-4.93-.88,1.32-2.09-.28-3.56-3a1.36,1.36,0,0,1,1,.39c1.34,1.92,2.68.14,2.68,1.37,1.59,3,2.91,4.87,3.85,3.47.94,1.61,1.5,1.52,1.59,4.93a24.66,24.66,0,0,0,.16,3,30,30,0,0,0,.15,3C318,453.34,317.65,457.94,316.86,457.39Z"/><path class="cls-2" d="M349.5,498.78c-.4,1.89-1.07,1.09-1.91,2.68-.85-2.19-1.88.18-3,1.36-1.12.4-2.24-.38-3.27-.32-1,.51-1.95-1.37-2.68-1.91a1.25,1.25,0,0,0-.23-.23,3.74,3.74,0,0,0,2.24.18c1.12-1.18,2.15-3.55,3-1.36.85-1.59,1.52-.79,1.91-2.68.4-.15.5-1.15.32-3.27-.18-3.35-.64-.34-1.36-3-.51,2.58-1.13.73-1.82-.71,1.06-3.53,2.12,2.7,3.09,1.08,1,.4,2,5.54,2.67,1.91.72,2.65,1.18-.36,1.36,3C350,497.63,349.9,498.63,349.5,498.78Z"/><path class="cls-2" d="M274.32,474.79l-.66,2.67c-.33,1.34-.66,4.47-.66,2.68a9.11,9.11,0,0,0-1.3,2.37c-.63-.88-1.42.78-2.32,1.4,0-.15-1.32-1.19-2.64.76-1.32-.21-2.64,1.55-2.64.77-.9-1-1.83.81-2.71.05-.88-.38-1.7,0-2.37-1.3a6.48,6.48,0,0,0-.11-1.15.91.91,0,0,1,1.25.12c0,.78,1.32-1,2.64-.76,1.32-2,2.64-.92,2.64-.77.9-.62,1.69-2.27,2.32-1.4a9.11,9.11,0,0,1,1.3-2.37c0,1.79.33-1.34.66-2.67l.66-2.68a5.21,5.21,0,0,0-1.46-5l-3.08-3a5.14,5.14,0,0,1,3.05,1.43l4,3.81A5.21,5.21,0,0,1,274.32,474.79Z"/><path class="cls-2" d="M307.63,534.26a3.56,3.56,0,0,1-3.05,1.73h0a3.59,3.59,0,0,1-3.06-1.82c-.24.36-.38.07-.43-.49a3.51,3.51,0,0,0,2.64-1.7c.56-.94.65-1.1.27-2.68l.67-.41c1.27.54,2.44-1.86,3.06,1.81C308.3,533.12,308.29,533.17,307.63,534.26Z"/><path class="cls-2" d="M317.18,510.91c0,2.9-.67,1.28-.67,2.17-.37,2.49-1.36,1.49-2.6,2.41,0,1.27-2.21,3.3-2.21.51-1,.71-2-.68-2.78-1a2.43,2.43,0,0,0,1.05-1.74c1.23-.93,2.22.08,2.6-2.42,0-.89.67.73.67-2.16.37.33.07-2.53-.8-3.47,0-.45-.11-.67-.28-.78,1-.64,2-1.53,2.69,1.4,0,1.45,1.54,0,1.54,1.67C317.25,508.38,317.55,511.25,317.18,510.91Z"/><path class="cls-2" d="M335.14,436.85a6.28,6.28,0,0,1-.81-.65C334.69,436.09,335,436.33,335.14,436.85Z"/><path class="cls-2" d="M337.18,438a8.76,8.76,0,0,1-.82-.39,1.69,1.69,0,0,1,1.7.6C337.77,438.12,337.48,438.05,337.18,438Z"/><path class="cls-2" d="M345.36,444.76a1.08,1.08,0,0,0,0-.18Z"/><path class="cls-2" d="M345.36,444.58a24.78,24.78,0,0,0-.19,3.68c-.1-.74-.2.58-.2,3.51-.05,2.64-.66,1.19-1.58,2.41,0,0-1.58.89-3.13,1.58-1.56-.38-3.13,2.2-3.13,1.58-.92,3-2,2.51-2.87-.15,0,1.54-.67.18-1.55-.91a6.33,6.33,0,0,0,.48-1.21c0,.61,1.57-2,3.13-1.58,1.55-.7,3.1-1.59,3.13-1.59.92-1.22,1.52.23,1.58-2.41,0-2.93.1-4.24.2-3.51a22.34,22.34,0,0,1,.19-3.67,2.71,2.71,0,0,0-1.3-2.4c0-.05,0-.1,0-.15a8.82,8.82,0,0,0,1,.51c1.46.27,2.93.85,2.93,1.92A2.7,2.7,0,0,1,345.36,444.58Z"/><path class="cls-2" d="M329.43,480.06a1.47,1.47,0,0,0-.11.64c-.45.43-.79.06-1-.59A3.72,3.72,0,0,1,329.43,480.06Z"/><path class="cls-2" d="M339.49,475.85c0,1.57-.25,2.44-.25,3.12-.08,1.63-.7.11-1.63,2.38,0-1.74-2.83,1-2.83,1.35a4.18,4.18,0,0,0-2.87-.23,3.43,3.43,0,0,0-1.06-2.1c.22-.51,2.82-3,2.82-1.3.93-2.27,1.55-.75,1.63-2.37,0-.69.25-1.56.25-3.13a4.42,4.42,0,0,0-.13-1.58h0a2.11,2.11,0,0,0,.24-.52c0-2.56,2.59,4.31,2.59,1.78C339.1,473.72,339.57,473.77,339.49,475.85Z"/><path class="cls-2" d="M246.8,500.32a.37.37,0,0,0,.06.15S246.8,500.47,246.8,500.32Z"/><path class="cls-2" d="M254,500.09c-.24.71-1.56.86-1.56,3,0,1.29-3.59-1-3.59.23,0,.25-1-1.25-1.6-2.22.68.17,1.25.22,1.25-.29,0-2.14,1.32-2.29,1.56-3-.14.23-.65-.69-1.11-1.61,1-.8,3.09-.94,3.09.66C252,496.56,253.67,500.53,254,500.09Z"/><path class="cls-2" d="M264.83,529.13l-1.46,4.73a6.33,6.33,0,0,1-4.64,4.3l-4.83,1.09a6.35,6.35,0,0,1-3.27-.12c-1-1.74-2,.87-2.77-1.74,0,1.85-.82.52-1.65-1.07a1.49,1.49,0,0,1,.48.53A6.35,6.35,0,0,0,250,537l4.83-1.1a6.34,6.34,0,0,0,4.64-4.29l1.46-4.74a6.3,6.3,0,0,0-1.4-6.16l-3.06-3.31a6.29,6.29,0,0,1,3.64,2l3.37,3.64A6.29,6.29,0,0,1,264.83,529.13Z"/><path class="cls-2" d="M227.67,544.07c0,1.62-2.34.46-2.34,3.27,0,1.24-4-.39-4-.39l-.68-1.42c.44,0,.74-.13.74-.47,0-2.81,2.34-1.65,2.34-3.27,0-2-.33-2.93-.7-3.33,1.19.53,3,3.25,3,1.94C226,540.59,227.67,539.55,227.67,544.07Z"/><path class="cls-2" d="M379.79,385.63l-1.1,2.92a2.88,2.88,0,0,1-2.3,1.83s-3.48-1.27-3.48.49a1.8,1.8,0,0,1-2.59-1,4.67,4.67,0,0,0-1.1-1.94c.8-.73,3.23.16,3.23.16a2.89,2.89,0,0,0,2.3-1.84l1.1-2.92a2.87,2.87,0,0,0-.51-2.89l-1.15-1.34.21,0a2.87,2.87,0,0,1,2.59,1l2.29,2.68A2.85,2.85,0,0,1,379.79,385.63Z"/><path class="cls-2" d="M215.42,506.72c0,3.19-1.12,1-1.12,3.09-.4,1.77-1.08-.22-2,2.78-.87-1.1-1.93,4.21-3.08,1.44,0-.66-3.24-.58-3.24.57-1.15,2.27-2.32-1.09-3.39-.29s-2-1.07-2.78-1.95v-.06c.73.6,1.48,1.5,2.23,0,0-1.15,3.24-1.24,3.24-.57,1.15,2.76,2.21-2.55,3.08-1.44.87-3,1.55-1,2-2.79,0-2.11,1.12.1,1.12-3.09.4-.37.49-1.86.3-3.39s-.69-1.92-1.44-3.08c0-.32-.71-1.09-1.3-1.7a1.88,1.88,0,0,0,.34-.49c1.06-1,2,.76,2.78,2,0,0,2.12,2,2.12,2.52.75,1.16,1.24,1.49,1.44,3.08S215.82,506.34,215.42,506.72Z"/><path class="cls-2" d="M233.51,488.15a2.83,2.83,0,0,0,0,.47C233.52,489,233.51,489,233.51,488.15Z"/><path class="cls-2" d="M238.48,481a11,11,0,0,1-1.17-.59c.48-.11.81-.08.81.21C238.12,480.72,238.26,480.86,238.48,481Z"/><path class="cls-2" d="M238.49,481a27.87,27.87,0,0,0,3.95,2.27c0,1.29-.13,6.46-.13,5.08,0,1.65-1.84,3.93-1.84,1-.81,1.26-1.71.5-2.61.62a13.92,13.92,0,0,0-2.57-.77c0-3.19-1.52.8-1.75-.62,0-.22,0-.6,0-1.05a2.72,2.72,0,0,1,.35.16c.89-.12,1.79.64,2.61-.62,0,2.93,1.84.65,1.84-1C238.37,487.49,238.46,482.33,238.49,481Z"/><path class="cls-2" d="M242.45,483.31h0C242.44,483,242.45,482.9,242.45,483.31Z"/><path class="cls-2" d="M222.5,524a5.77,5.77,0,0,0,.62.88c0,.08,0,.15,0,.23s-2.15.29-2.53-3.17A6.36,6.36,0,0,1,222.5,524Z"/><path class="cls-2" d="M227,512.65l-.12-.06A.1.1,0,0,1,227,512.65Z"/><path class="cls-2" d="M229.21,513.33a13.37,13.37,0,0,1-2-.63C227.32,510.41,228.17,511.92,229.21,513.33Z"/><path class="cls-2" d="M236,519.48c-.23.8-.86,3.53-.86,3.31,0-1.75-1.33.85-2.67,2.3-1.34,4.23-2.68,2.41-2.68,2.3,0,.28-1.66,1.69-3.33-1.16a8.68,8.68,0,0,0-.69-1,.33.33,0,0,0,.08-.16c0,.11,1.34,1.92,2.68-2.3,1.33-1.45,2.67-4.06,2.67-2.31,0,.22.62-2.51.86-3.31-.33-2.58-1.23-.26-2-2.86a2.6,2.6,0,0,0,.42.35c1.66.86,3.28.92,3.33,1.17C234.6,519.64,235.62,516.68,236,519.48Z"/><path class="cls-2" d="M236,519.75a2.19,2.19,0,0,0,0-.27C236.08,519.16,236.11,519.15,236,519.75Z"/><path class="cls-2" d="M334.93,425.17l-3.22,2.62a2.86,2.86,0,0,1-2.85.46L325,426.77a2.9,2.9,0,0,1-1.53-1.35l1.47.56a2.91,2.91,0,0,0,2.85-.46L331,422.9a2.88,2.88,0,0,0,1-2.7l-.65-4.1a3,3,0,0,0-.3-.88l2.42.92a2.89,2.89,0,0,1,1.82,2.24l.66,4.1A2.88,2.88,0,0,1,334.93,425.17Z"/><path class="cls-2" d="M355.25,414.67c0-.06-.51.19-1.36,2.56,0-.62-2,.36-2,1.23-.87,3.8-2,.09-2.88.09,0-1.49-.62-1.95-1.18-1.91,0-.14.08-.29.12-.46,0-.86,2-1.84,2-1.23.85-2.37,1.36-2.62,1.36-2.56a16.25,16.25,0,0,0-.08-2.31c0-.32-.62.12-1.53-2.45a2.81,2.81,0,0,0,0-.3c.64-.09,1.31,1.07,1.9,1.48,0,.15,2.05-1.63,2.05,1.09.91,2.59,1.49,2.14,1.53,2.45A16.55,16.55,0,0,1,355.25,414.67Z"/><path class="cls-2" d="M375.57,437.66c0,5.61-.32,4.39-.95,3.55a22.83,22.83,0,0,1-1.9,3.29c-.64,1.52-1.54.83-2.6,2.6-1.06-.94-2.27.25-3.54.94,0-.52-3.8-2.55-3.8,0-1.27,1.66-2.49,1.73-3.55-.94-.43.62-.82.18-1.19-.51a3.89,3.89,0,0,0,.79-.82c0-2.55,3.81-.53,3.81,0,1.26-.69,2.48-1.89,3.54-.95,1.06-1.77,2-1.08,2.59-2.59a23,23,0,0,0,1.91-3.3c.63.84.95,2.06.95-3.54a29.47,29.47,0,0,1-.95-3.55c0-3.6-1.91-1.49-1.91-3.29a5.88,5.88,0,0,1-.72-1.13c.73.39,1.43,1,2.07.81,1.06-.84,2,2,2.6,2.59,0,1.81,1.9-.3,1.9,3.3A28.68,28.68,0,0,0,375.57,437.66Z"/><path class="cls-2" d="M362.7,469.62a1.59,1.59,0,0,1-.38,1.24c-.52-.45-1.47,3.41-2.5,1.45-1,1.15-2-3.15-2.5-1.45a5.74,5.74,0,0,1-.18-.74c.51-.67.94-1.79,1.23-1.53a1.63,1.63,0,0,0,.39-1.25,3.89,3.89,0,0,0-.15-1.07h0c.37-.38.79-.48,1.21.27,1-.48,2,.55,2.5,1.44A3.45,3.45,0,0,1,362.7,469.62Z"/><path class="cls-2" d="M348.05,397.65a5.34,5.34,0,0,1-1,1.61c0,1-1.61,2.74-1.61,1.27-.81.18-1.9,1.2-2.85.41,0,.16-1.91-2.2-1.91-.76-.75.58-1.33-.15-1.62-1.28.85.27,1.74-.5,2.44-.65,0,1.47,1.61-.27,1.61-1.27a5.55,5.55,0,0,0,1-1.61c-.08.27-.23-1-.23-3.09-.07.25-.25.12-.53-.25.27-.16.53-.34.78-.5,0-.26,1.91-.71,1.91.76.95,1.58,1.64,2.81,1.78,2.27C347.82,396.68,348,397.92,348.05,397.65Z"/><path class="cls-2" d="M348.07,397.58a6.9,6.9,0,0,0,0-1A2.48,2.48,0,0,1,348.07,397.58Z"/><path class="cls-2" d="M371.16,406.08c0,.47,0,.5,0,.22-.09,1.86-.59.64-1.36,1.61,0-2.33-.72-2.87-.72.44-.88,2.4-2-1.26-2.89.07,0,.08-.74,1.48-.74-.4-.35,0-.66-.57-.9-1.13.2-.07.4-.3.58-.81,0-3.32.72-2.77.72-.45.78-1,1.28.26,1.37-1.61h0c0-.3,0-.92,0-1.75s-.36-.06-.93-1.05c.84-1.4,1.82-.2,2.63.47,0,1.41.74-.15.74.39.91,3,1.48,1.47,1.5,2.47,0,.82,0,1.44,0,1.74C371.15,406.22,371.16,406.15,371.16,406.08Z"/><path class="cls-2" d="M364.43,360.45c0-1.86-.2,2.85-.2,1.66-.12,2.87-.78,1.74-1.73,2.3,0,2.42-1.53-.56-1.53.65-.94,2.41-2,0-2.86-.34,0-.91-1.33-1.14-1.33-1a1.91,1.91,0,0,0-.14-.21,2.9,2.9,0,0,0,.39-.72c0-1.21,1.53,1.77,1.53-.66.95-.55,1.61.57,1.73-2.3,0,1.19.2-3.52.2-1.65.11-2.8-.25-.88-1-2.31.85-.74,1.75,1.12,2.46.93,0-3.05,1.33,3,1.33,1C364.13,359.86,364.56,357.46,364.43,360.45Z"/><path class="cls-2" d="M299.09,514c0-2.65-.94,3.35-.94,5-.23,1.26-1.12,4.77-2.31,2.69,0,.36-4.82-.41-4.82,1.7-1.2-1-2.53-.13-3.49-.65,0,.23-.55-.86-1.24-2.06a2.06,2.06,0,0,1,.79.43c0-2.11,4.82-1.33,4.82-1.69,1.19,2.07,2.07-1.44,2.31-2.7,0-1.68.94-7.67.94-5,.23-1.2-.22-1.28-1.18-3.34,0,.95-1.8-1.29-3-2.57,1.06-1.24,2.18,1.4,3,1.52,0-.76,3.88,4.73,3.88,3.32C298.87,512.7,299.32,512.79,299.09,514Z"/><path class="cls-2" d="M265.21,545.4c.27.06.53-.07.79-.6.56.05,1.11,1.11,1.62,1.6a.52.52,0,0,1-.13.06A3.75,3.75,0,0,1,265.21,545.4Z"/><path class="cls-2" d="M268.59,546.18s0,0,0,0v0Z"/><path class="cls-2" d="M273.14,554.12c0,1.85-.82,1.06-.82,3.76-.22,1.39-.69,4.87-1.35,2.6-.66,3.49-1.5-3.88-2.46,1.57,0,1.75-3.68,1.6-3.68,1.17-1,.69-2-1.88-2.91.13-.95-1.58-1.85-.75-2.6-1.34,0,1.58-2.29-.18-2.76-2a1.79,1.79,0,0,1,1.41,1c1-2,2,.56,2.92-.13,0,.44,3.68.58,3.68-1.17,1-5.44,1.8,1.92,2.46-1.57.66,2.28,1.13-1.2,1.34-2.59,0-2.71.83-1.92.83-3.77.22,1.42.16.49-.13-2.92-.05-.65-.1-1.17-.16-1.57a3.57,3.57,0,0,0,2.53,1.39c.74-.27,1.28-1.68,1.57,2.46C273.31,554.6,273.36,555.54,273.14,554.12Z"/><path class="cls-2" d="M221.33,582.93c.11.31.23.58.34.82-.69.18-1.26-.61-1.48-2C220.86,582.92,221.33,584.23,221.33,582.93Z"/><path class="cls-2" d="M225,584.82c.11.16.21.3.31.42,0,.88-.25.48-.62-.22Z"/><path class="cls-2" d="M235,557.49a5.39,5.39,0,0,0-.33-.59,7.58,7.58,0,0,1,.64,1c1.33-.54,2.59-.17,3.64,1.88a3.25,3.25,0,0,0,.91,2.52,6.48,6.48,0,0,1-2.26-2.42C236.33,561,235,559.66,235,557.49Z"/><path class="cls-2" d="M246.57,572.06c0-2.42-.38,1.33-.76,3.44-.37-.79-.75,5.81-.75,3.43-.31,2.84-1,3-1.89,3.64a16.61,16.61,0,0,0-3.45,2.21c0,.71-1.68,2.89-3.35,1.06-1.68-1-3.36,2.92-3.36,1.07-1.35.74-2.76,2.33-4.1.18-1.31.92-2.57,1-3.6-1.82,1.23,1.44,2.52,0,3.76-.64,0,1.86,1.68-2,3.35-1.06,1.68,1.82,3.36-.35,3.36-1.07a16.24,16.24,0,0,1,3.45-2.2c.92-.68,1.58-.81,1.89-3.64,0,2.37.37-4.22.75-3.44.38-2.1.76-5.86.76-3.44.3-1.28.22-4.2-.19-4.09-.36-.19-1-2.22-1.82-3.13a1.54,1.54,0,0,0,.95-.42c1.31,2.09,2.61,2.78,2.61,2.37,1,.6,1.79,3.24,2.2,3.46C246.8,567.86,246.87,570.78,246.57,572.06Z"/><path class="cls-2" d="M180.49,552.86c-.35,0-.72-.2-1.11-.84A1.73,1.73,0,0,1,180.49,552.86Z"/><path class="cls-2" d="M189.5,530.3a1.43,1.43,0,0,1,.84.08,3.83,3.83,0,0,0,1.84,1.3.64.64,0,0,0-.39.15C190.79,533.14,189.78,531.56,189.5,530.3Z"/><path class="cls-2" d="M192.6,531.79l.76.15a3,3,0,0,0,.13.84A3,3,0,0,0,192.6,531.79Z"/><path class="cls-2" d="M200.09,542.52c0-.66-.35,2.73-.69,3.14-.35,1.79-.69,4.66-.69,3.14-.25,1.93-.8.07-1.56,3-.76-.92-1.75.76-2.86,1.82,0-.71-1.53.48-3.07,1-1.52-.81-3.06,2.14-3.06,1-1.12-.29-2.28.68-3.39.15-1.11-2.27-2.15-1.14-3-1.56,0-.22,0-.41,0-.57.82-.05,1.66-.51,2.48-.3,0,1.17,1.53-1.79,3.06-1,1.53-.5,3.06-1.69,3.06-1,1.12-1.07,2.1-2.75,2.86-1.84.77-2.94,1.32-1.08,1.57-3,0,1.52.34-1.34.69-3.13.34-.42.68-3.8.68-3.14a5.93,5.93,0,0,0-.15-3.4c-.31,1.77-.86-1-1.62-2.5.4.35.88.39,1.36-.24,1.19-.9,2.37,2.42,2.37,2.16.87,1.31,1.49,4.79,1.84,2.86A6.07,6.07,0,0,1,200.09,542.52Z"/><path class="cls-2" d="M197.67,579.4c0-3.21-.62,1.93-.62,2.82-.28,1.45-.92.9-1.79,3.48-.88,1.54-2,.14-3.3,2.1,0,.72-2.75,0-2.75.88-1.29,1.21-2.63-1.43-3.91.18-1.28,2.94-2.47-2.47-3.47-1.81,0,1.16-.43.87-.9.22a2.5,2.5,0,0,0,.43-.69c1.27-1.6,2.62,1,3.91-.18,0-.87,2.75-.16,2.75-.87,1.28-2,2.42-.57,3.29-2.11.88-2.58,1.51-2,1.8-3.48,0-.89.62-6,.62-2.81.29.34.22-4.32-.17-3.91-.4-3.68-1.11-1.89-2.11-3.3,0,1-1.37-.11-1.91-1.19l.25-.28c1.27-.68,2.47.58,3.47,1.8,0,1.16,2.13,3.2,2.13,2,1,1.41,1.71-.39,2.11,3.29C197.89,575.09,198,579.74,197.67,579.4Z"/></g><path class="cls-4" d="M349.68,373.51a5.23,5.23,0,0,0-2.72,2.43l0,.05c-.7,1.58-2.66,5.19-3.28,3.29a5.81,5.81,0,0,1-1-3.17c0-1.81.36-1.78,1-3.18a4.61,4.61,0,0,1,2.4-2.17.83.83,0,0,1,.38-.07,18.07,18.07,0,0,0,2.89-.81.79.79,0,0,1,.83.39c1,1.7.78,3.19-.19,3.19A.66.66,0,0,0,349.68,373.51Z"/><path class="cls-4" d="M303.77,480.94c-.61,0-1.24-.38-1.9-1.67-1.46.08-2.83,1.48-4,1.27a6,6,0,0,0-2.85,3.32c-.69,2.06-1.08,2-1.08,4.66a11.58,11.58,0,0,0,.24,2.25,4.77,4.77,0,0,0-.76.07c-1.06,1.31-1.94-.45-2.56-3a9.46,9.46,0,0,1-1-4.19c0-2.39.36-2.34,1-4.19a5.39,5.39,0,0,1,2.56-3c1.06.2,2.29-1.06,3.6-1.13,1.31,2.59,2.55,1,3.6,1.13a4.26,4.26,0,0,1,2.56,3A14.8,14.8,0,0,0,303.77,480.94Z"/><path class="cls-4" d="M306.88,441.65c-1.61-3.16-3.2-1.43-4.6,1.39,0,.4-1.18-1.18-2.36,1.43-1.18-.05-2.36-.78-2.36,1.43-1.4-.92-6.57,9.16-7.36,8.8-.79,0-1.26-3.38-1.34-3.87,0-1-.07,1.54-.13-2.36a22.22,22.22,0,0,1-.13-2.36,7.17,7.17,0,0,1,.91-4c.66-1.88,1.65-3.85,2.91-3,0-2,1.06-1.33,2.12-1.28,1.06-2.35,2.11-.93,2.11-1.29,1.26-2.53,2.69-4.08,4.14-1.25,1.45-1.46,2.91-1,4.25.85,0,1.95,1.12.1,2.24,1.07,1.13,1.51,2.25.11,2.25,1.08C310.87,440.62,308.49,440,306.88,441.65Z"/><path class="cls-4" d="M344.51,494.23a2.25,2.25,0,0,0-.51,1.16c-.83-.71-1.59,4.06-2.22.91-.62,1.33-1.12.78-1.41,1.76-.28,2.15-.36.18-.26,1.79-.49-.19-.94-.89-1.3-1.13-.48-.51-.79.09-.91-1.77-.12-2,0,.11.21-1.94.27-.88.71-.39,1.28-1.59.56,2.83,1.24-1.45,2-.81.74-3,1.49,1.21,2.18.19C343.89,492.92,344.21,493.71,344.51,494.23Z"/><path class="cls-4" d="M267.76,469.94a4,4,0,0,0-1.13.16,1.84,1.84,0,0,0-2,.57c-1-1.24-2-.43-2,.58-.67,1.66-1.26-.48-1.73,1.06-.47.45-.81-.47-1,1.78a13.29,13.29,0,0,1-.49,2c-.25-.52-.49,2.38-.49,2-.17-2.57-.15,1.12,0,2,.15.4.42-.64.78.58a1.19,1.19,0,0,1-1-.75c0-1.26-.67-3.1-1.33-1.29-.67.43-1.33-1.13-1.33-1.29-.45-2.61-.77-1.13-.94-1.56-.17-.83-.18-4.15,0-1.84,0,.33.22-2.28.44-1.81a11.28,11.28,0,0,0,.44-1.81c.15-2,.45-1.2.87-1.6.42-1.38.95.54,1.55-1,0-.91.88-1.63,1.77-.52a1.67,1.67,0,0,1,1.77-.52,3.47,3.47,0,0,1,3.4.85Z"/><path class="cls-4" d="M293,512.57a1.93,1.93,0,0,1-1.38,0,28.73,28.73,0,0,1-4.1,2.21,5.75,5.75,0,0,0-.53,1.83,4.23,4.23,0,0,1-1.74-1.64c-.73,1.06-.71-2.68.06-4.08a25.26,25.26,0,0,0,3.69-2c1.5.63,2.88-2.14,3.62,2.09C292.81,511.68,292.93,512.17,293,512.57Z"/><path class="cls-4" d="M313.9,507.35a2.63,2.63,0,0,1-.69.38c0,1.57-1.72-2.29-1.72.4-1,.46-1.74,0-2,1.95,0-.33-.52,1.95-.52,1.73a2.58,2.58,0,0,0,0,1.52c-.21-.13-.41-.2-.58-.09,0-.2-1.08-2.77-1.08-1.2-.6-.22-.81-2.19-.55-2.49,0,.19.47-1.86.47-1.57.26-1.78,1-1.33,1.82-1.74,0-2.42,1.55,1.05,1.55-.36.86-.28,1.77-1.86,2.38.75C312.92,507.48,313.63,506.94,313.9,507.35Z"/><path class="cls-5" d="M330.62,450.31v.11A.19.19,0,0,1,330.62,450.31Z"/><path class="cls-5" d="M347.28,444.94c0-.05,0-.1,0-.15S347.28,444.88,347.28,444.94Z"/><path class="cls-4" d="M339.18,443.19a18.17,18.17,0,0,0-.1,2.4c0-.17,0-.17,0,0a4.32,4.32,0,0,1-1.3-1.22c-.47-.78-1.06-.73-1.56-.12,0-2.05-.85-2.19-1.69,1.16-.85.76-1.7,1.88-1.7,1.15-.49,1.28-.82,2-.85,1.76,0,.93,0,1.3,0,1.41l0,0,0,0c-.53-.63-.95-1.24-.95-.73-.38-.3-.61-1.81-.63-1.76a15.35,15.35,0,0,0,.09-2.21c.05-2.61.09.61.09-2.29,0,.24.32-.43.77-1.58,0,.65.76-.35,1.52-1,.76-3,1.52-2.88,1.52-1,.45-.55,1-.59,1.4.11a4.49,4.49,0,0,0,1.43,1.25c.71.18,1.42.56,1.42,1.26A2,2,0,0,1,339.18,443.19Z"/><path class="cls-4" d="M334.33,474.6a1,1,0,0,0,0,.27c-.5,1.69-1.14-.53-1.68-.16,0,1.16-1.65,1.24-1.65,1-.55,1.32-.91,2.86-1,1.69,0,.2,0,.83-.06,1.38-.33-.3-.64-.31-.64.39-.44.53-.69-.82-.65-1.66a16.87,16.87,0,0,0,.13-2c0,1,.37-.33.86-1.52,0,.26,1.48.18,1.48-.86.49-.33,1.06,1.66,1.51.15,0-1.63,1.35,2.75,1.35,1.13A3.66,3.66,0,0,1,334.33,474.6Z"/><path class="cls-5" d="M250.11,507a.42.42,0,0,0,.06.14S250.11,507.16,250.11,507Z"/><path class="cls-5" d="M256.66,506.68a.24.24,0,0,1,0,.14A.58.58,0,0,0,256.66,506.68Z"/><path class="cls-4" d="M257,521.14a20.87,20.87,0,0,0-2.88.66c-.88,2.36-1.67.3-2.31,1.17-.64.52-1.13,2.77-1.39,2.14,0-3.06-1.17,2.45-1.17,3.65-.27-.4-.29,1.54-.1,2.51a3.47,3.47,0,0,0,1.21,2.23c0-.56.4.14.88,1.06a4.76,4.76,0,0,1-1.46-.19c-.75-1.21-1.44.6-2-1.21,0,2.6-2.41-3.85-2.41-2.52a3.18,3.18,0,0,1-1.1-2c-.17-.88-.15-2.62.09-2.26,0-1.07,1-6,1-3.28.24.57.68-1.46,1.25-1.92.58-.78,1.29,1.07,2.08-1,0-.12,3.47-.76,3.47-.76a4.63,4.63,0,0,1,4.32,1.29Z"/><path class="cls-4" d="M377.55,380.76l-2.83.32a2.89,2.89,0,0,0-2.33,1.52c0-.07-1.12-.08-1.12,2.42-.38,1.87-.18,1.58.52,2.39,0-.39.57,0,1.15.55a1.8,1.8,0,0,1-2.35-.73c0-.61-2.09-2.69-2.09-2-.62-.73-.8-.47-.46-2.15,0-2.24,1-2.23,1-2.17a2.59,2.59,0,0,1,2.1-1.36l3.17-.37a3,3,0,0,1,2.36.73Z"/><path class="cls-4" d="M209.83,500.07l0,0c-.75,1.54-1.56-.81-2.37-.22,0-1.05-2.27.06-2.27.42-.8,1.21-1.54,2.08-2.15,1.07-.61-.6-1.08,2.82-1.37,2.08,0,.32-.78-.34-.78,2.3-.25.56-.33-1-.25,1.35-.37-.31-.81-.14-.81,0-.47-1.13-.78,0-.9-2.06-.13-3.56-.07-1.7.18-2.27,0-2.37.71-1.78.71-2.06.25.66.68-2.4,1.22-1.86.55.9,1.21.12,1.94-1,0-.32,2-1.32,2-.38.73-.53,1.46,1.58,2.13.2.67-.65,1.28.5,1.76,1.3C208.87,499,209.44,499.58,209.83,500.07Z"/><path class="cls-5" d="M236.92,493.45a2.26,2.26,0,0,0,0,.42C236.93,494.23,236.92,494.19,236.92,493.45Z"/><path class="cls-4" d="M238.27,483.79c0,.22,0,.63,0,1.07-.49-.38-.95-.78-.95-.91,0-.69-2.23.81-2.23,1.59,0,.29,0,.79,0,1.34-.11-1.08-.68.83-.78,0,0-.56.06-2.61.06-3.28s2-2.05,2-1.43A8.84,8.84,0,0,0,238.27,483.79Z"/><path class="cls-5" d="M245.07,489.05h0C245.07,488.74,245.07,488.67,245.07,489.05Z"/><path class="cls-4" d="M232,519.06a6,6,0,0,1-.71-.3c-1.17-.78-2.34-4.09-2.34-.83,0-2-.92,1.08-1.69,1.07-.45,0-.63,1.19-1,1.41a2,2,0,0,1-.58.24,5.64,5.64,0,0,1-1.36.18c-.48,0-.46.71-.33,1.45a.94.94,0,0,0-.1.49c0,.06-1.41.19-1.62-2.11-.16-.8-.73-2.55,0-2.59a5.06,5.06,0,0,0,1.23-.16,2.17,2.17,0,0,0,.52-.22c.34-.2.5-1.28.9-1.27.7,0,1.52-2.73,1.52-.95,0-2.94,1.06,0,2.11.73,1.06.55,2.08.59,2.11.74C231.16,519.25,231.78,517.59,232,519.06Z"/><path class="cls-5" d="M236.41,524.77l0-.26C236.46,524.22,236.49,524.22,236.41,524.77Z"/><path class="cls-4" d="M331.13,420.52l-1.6-.82a1.44,1.44,0,0,0-1.76.38l-2,2.15a2.83,2.83,0,0,0-.63,2.21l0,.27h0a2.07,2.07,0,0,1-1-1.64l-.37-3a2.52,2.52,0,0,1,.57-2l1.78-1.94a1.31,1.31,0,0,1,1.58-.33l2.14,1.09a2.07,2.07,0,0,1,1,1.64Z"/><path class="cls-4" d="M350.48,411.13c-.23,0-.44.23-.65.9,0-.13-1.21.67-1.21.7-.53,1.08-.85.81-.83,1.45a6.43,6.43,0,0,1,0,1.07h0c0-1.4-1.13-1-1.13-.56-.5-.39-.82-.4-.84-1.25a7.83,7.83,0,0,0-.05-1.19c0-.58.27-.34.75-1.31,0,0,1.09-.74,1.09-.63.48-1.61,1.08-.37,1.58-.05,0,.08,1.13-.83,1.13.56Z"/><path class="cls-5" d="M355,438.38v0Z"/><path class="cls-4" d="M370.6,433.87a1,1,0,0,0-.46.11c0-.21-3.22.81-3.22,0-1.07,1.39-2.1-.47-3,.75-.9.06-1.66,1.57-2.19,2,0,.21-1.61,1.42-1.61,2.57a9.28,9.28,0,0,0-.8,2.62c.05-.15.27,1.45.69,2.61a2.46,2.46,0,0,1-1.1-1.41c-.8,1.09-1.49-2.43-2-1.82,0,2-1.44.79-1.44-2.31-.43-1-.67-2.74-.71-2.62a7.83,7.83,0,0,1,.71-2.35c0-1,1.44-2.12,1.44-2.31.48-.4,1.17-1.75,2-1.81.81-1.1,1.73.58,2.69-.67,0,.42,1,.29,1.77.14.6-.1,1.12-.22,1.12-.14a1.34,1.34,0,0,1,1.29.19c.5.27,1,.62,1.41.48.8-.59,1.48,1.41,2,1.81C369.16,433,370.54,431.59,370.6,433.87Z"/><path class="cls-5" d="M360.4,445.6a.25.25,0,0,1,0-.1A.38.38,0,0,0,360.4,445.6Z"/><path class="cls-4" d="M343.39,393.16c.19.34.37.64.52.9-.56.37-1.14.66-1.6.05,0,1.07-1.1-.06-1.1.9-.56-1-.84,1.79-.74,1.9s0,.62.08,1.13c-.25-.18-.47-.24-.47.16-.59.47-1-.41-1.1-1.45,0,1.62-.18-1.15-.18-1.29s.16-2.62.66-1.71c0-.86,1,.15,1-.81.5.67,1.17.13,1.76-.26C342.22,392.51,343.39,392.22,343.39,393.16Z"/><path class="cls-4" d="M367.55,402.77a5.3,5.3,0,0,0,.24.48c-.4-.16-.81-.12-1.17.52,0,.3-.51-.4-.51.22-.54.37-.9.28-1,.95v.76c0-.11,0-.06.11.08-.14.15-.38.31-.38-.31-.57-.06-.94-1.46-.95-1.12,0-.31,0-.53,0-.67v0c.06-.62.38-.53.87-.86,0-.57.46.07.46-.2.56-1,1.26-.37,1.83,0C367.08,403.23,367.55,402.52,367.55,402.77Z"/><path class="cls-4" d="M356.13,361.22c0-.55.19.92.19-1.56.11-.57.73.37,1.62-2.16,0,.43,1.44-.86,1.44-.61C361.84,356.77,356.65,364,356.13,361.22Z"/><path class="cls-4" d="M266.16,547.9a1.12,1.12,0,0,0-1,.91c-.61-.81-1.62.27-2.3.68a4.41,4.41,0,0,0-1.6,1.69l-1.42,2.7a4.23,4.23,0,0,0-.48,2.25,4.57,4.57,0,0,0,.78,2.21,2.1,2.1,0,0,0-.06.51c-.19,0-.4.08-.67.39-.4-1.27-1.2-.87-1.63-1.42-.32,1.21-1.95-1-1.6-2.32a4,4,0,0,1-.69-2,3.68,3.68,0,0,1,.43-2l1.27-2.43a4,4,0,0,1,1.44-1.52c.61-.36,1.51-1.33,2.06-.61.45-1.71,2.92-.27,2.88-.1,1-1,1.08,1.65,2.13.47A1.11,1.11,0,0,1,266.16,547.9Z"/><path class="cls-4" d="M236.67,561.11a3.74,3.74,0,0,0-1.1,1.34c0-.41-1.5-1.16-3,.79-1.5-1.53-3,1.22-3,.78-1.21,1.26-2.27-.13-3.09,1.62s-1.42,1.16-1.69,2.67c0,1.47-.34,1-.68,2.52-.33,2.94-.67,4.16-.67,2.53-.27.31-.21.73.13,2.79h0c-1,1.36-2.09.34-2.09-1.57-.84-1.39-1.44-1-1.78-2.27-.33-2-.39-2.42-.15-2.7,0,1.46.31.37.61-2.27.3-1.36.61-1,.61-2.27.24-1.36.78-.71,1.52-2.4s1.69-.32,2.77-1.46c0,.41,1.36-2.06,2.71-.7,1.35-1.75,2.7-1.07,2.7-.7,1.08-2,2.21-1.7,3.29-.12a2.31,2.31,0,0,1,2.93,1.24Z"/><path class="cls-4" d="M191.6,535.17c-.34,1.12-1.41,1-2.47-.18a1.71,1.71,0,0,0-2.58.73c-.94-.31-1.77,1.36-2.42,1.37-.64.25-1.1,1.87-1.31,2.26,0-.4-.3.81-.59,2.34-.29,2.64-.58,2.51-.58,2.35-.21,1.59-.16.63.13,2.54a6.79,6.79,0,0,0,1.06,1.92,2,2,0,0,1-.88,0c0-1.83-.9-.1-1.8-1.46-.9-.48-1.8-1.22-1.8-1.45-.66,0-1.13-1.38-1.39-1.93-.26-1.71-.31-.85-.12-2.28,0,.14.26.26.52-2.11.27-1.38.53-2.47.53-2.11.19-.34.61-1.8,1.18-2,.58,0,1.33-1.5,2.17-1.23a1.55,1.55,0,0,1,2.33-.65c1.16,1.33,2.32,1.16,2.32-.65.85.43,1.73-.42,2.57-.11a3.34,3.34,0,0,0,2.29,1A2.31,2.31,0,0,0,191.6,535.17Z"/><path class="cls-4" d="M193.64,573.31a1.5,1.5,0,0,0-1.45-.08c-1.07,1.26-2.21,0-3.29.13,0-2-2.32,2.26-2.32.68a3,3,0,0,1-2.78,1.63c-.74.44-1.27,2.61-1.52,2.69,0-3.15-.52,3.22-.52,2.18a9.44,9.44,0,0,0-.09,2.66,10.22,10.22,0,0,1-1.18-1.77c-.75.29-1.3-3.76-1.6-2.29-.29.23-.35-1.51-.13-2.72,0,.94.47-4.79.47-2,.22-.07.7-2,1.36-2.41a2.72,2.72,0,0,0,2.5-1.47c0,1.42,2.08-2.41,2.08-.6,1-.13,2,1,3-.13,1-.47,1.88.4,2.63,1.25,0,.81,1.61,2.23,1.61,1.36C192.9,573.14,193.33,572.74,193.64,573.31Z"/><path class="cls-5" d="M415.26,366.58a.4.4,0,0,0,.05.15S415.26,366.71,415.26,366.58Z"/><path class="cls-5" d="M421.81,366.24a.39.39,0,0,1,0,.14A.74.74,0,0,0,421.81,366.24Z"/><path class="cls-5" d="M402.07,353a2.56,2.56,0,0,0,0,.42C402.08,353.78,402.07,353.75,402.07,353Z"/><path class="cls-5" d="M410.21,348.61h0C410.21,348.29,410.21,348.23,410.21,348.61Z"/><path class="cls-5" d="M401.55,384.32l0-.25C401.61,383.78,401.63,383.78,401.55,384.32Z"/><path class="cls-2" d="M393.6,391.52h0a3.93,3.93,0,0,1-3.9-.41h0a4,4,0,0,1-1.6-3.59h0a3.93,3.93,0,0,1,2.31-3.17h0a3.93,3.93,0,0,1,3.9.41h0a3.92,3.92,0,0,1,1.6,3.58h0A3.94,3.94,0,0,1,393.6,391.52Z"/><path class="cls-6" d="M395.93,387.92c0,.15,0,.28,0,.42a3.93,3.93,0,0,1-2.31,3.18,3.91,3.91,0,0,1-3.9-.42,4,4,0,0,1-1.26-1.54,3.92,3.92,0,0,0,2.8-1.6,3.84,3.84,0,0,0,.72-1.89,2.88,2.88,0,0,0,0-.41,4,4,0,0,0-.35-1.63l.38,0a4,4,0,0,1,2.3.75A3.89,3.89,0,0,1,395.93,387.92Z"/><path class="cls-2" d="M399,327.06h0c-1.12.4-2.25-.38-3.27-.31-1,.51-2-1.38-2.68-1.91h0c-.72-.88-1.18.13-1.36-3-.18-3.42-.08.19.32-3.27h0c.39-1.48,1.06-.66,1.91-2.68.84,4.78,1.87-2.44,3-1.36h0c1.12-5.07,2.24,2,3.27.32,1,.4,2,5.54,2.68,1.91h0c.72,2.65,1.18-.36,1.36,3,.18,2.12.08,3.12-.32,3.27h0c-.4,1.89-1.06,1.09-1.91,2.68C401.17,323.51,400.15,325.88,399,327.06Z"/><path class="cls-4" d="M399,318.48a2.16,2.16,0,0,0-.51,1.16c-.83-.72-1.59,4.05-2.22.9-.63,1.33-1.12.79-1.42,1.76-.27,2.15-.36.18-.25,1.8-.5-.19-.94-.89-1.3-1.13-.49-.52-.79.08-.91-1.78-.12-2,0,.12.21-1.94.26-.88.71-.39,1.27-1.58.57,2.83,1.25-1.46,2-.81.74-3,1.49,1.21,2.18.18C398.33,317.16,398.65,318,399,318.48Z"/><path class="cls-6" d="M403.93,323c-.4,1.89-1.06,1.09-1.91,2.68-.84-2.19-1.87.18-3,1.36-1.12.4-2.24-.38-3.27-.32-1,.52-1.95-1.37-2.68-1.91a1.15,1.15,0,0,0-.23-.22,3.81,3.81,0,0,0,2.24.17c1.12-1.17,2.15-3.55,3-1.36.85-1.59,1.51-.78,1.91-2.67.4-.15.5-1.15.32-3.28-.18-3.35-.64-.34-1.36-3-.52,2.59-1.13.73-1.82-.7,1.06-3.53,2.11,2.69,3.08,1.07,1,.4,2,5.55,2.68,1.91.72,2.65,1.18-.36,1.36,3C404.43,321.87,404.33,322.87,403.93,323Z"/><path class="cls-2" d="M382.18,343.46c0-.15-1.32-1.18-2.64.77-1.32-.21-2.64,1.55-2.64.77-.9-1-1.83.8-2.71.05-.88-.39-1.7,0-2.37-1.3,0-1.87-1-4.58-2-1.91-1,.62-2-1.68-2-1.91-.67-3.86-1.15-1.67-1.4-2.31-.25-1.22-.28-6.12-.06-2.71,0,.48.33-3.36.66-2.67a16.85,16.85,0,0,0,.66-2.67c.22-3,.68-1.78,1.3-2.37.63-2,1.42.8,2.32-1.4,0-1.34,1.32-2.41,2.64-.77a2.53,2.53,0,0,1,2.65-.77,5.22,5.22,0,0,1,5.07,1.25l4,3.82a5.21,5.21,0,0,1,1.46,5l-.66,2.67c-.33,1.34-.66,4.46-.66,2.67a9.53,9.53,0,0,0-1.3,2.37C383.87,341.19,383.08,342.85,382.18,343.46Z"/><path class="cls-4" d="M380.56,329.5a3.62,3.62,0,0,0-1.13.15,1.86,1.86,0,0,0-2,.58c-1-1.24-2-.43-2,.58-.67,1.65-1.26-.48-1.73,1.06-.47.44-.81-.47-1,1.78a13.58,13.58,0,0,1-.49,2c-.25-.53-.49,2.37-.49,2-.17-2.57-.15,1.12,0,2,.15.4.42-.64.78.57a1.16,1.16,0,0,1-1-.74c0-1.26-.66-3.1-1.33-1.29-.67.42-1.33-1.14-1.33-1.29-.45-2.62-.77-1.13-.94-1.57-.17-.83-.18-4.14,0-1.83,0,.32.22-2.28.44-1.81a11.54,11.54,0,0,0,.44-1.81c.15-2,.45-1.2.87-1.61.42-1.38,1,.54,1.55-.94,0-.91.88-1.64,1.77-.52a1.67,1.67,0,0,1,1.77-.52,3.47,3.47,0,0,1,3.4.85Z"/><path class="cls-6" d="M387.12,334.35l-.66,2.67c-.33,1.34-.66,4.46-.66,2.67a9.32,9.32,0,0,0-1.3,2.37c-.62-.87-1.42.79-2.31,1.4,0-.15-1.33-1.18-2.65.77-1.32-.21-2.64,1.55-2.64.77-.9-1-1.83.8-2.71.05-.88-.39-1.7,0-2.37-1.3a6.69,6.69,0,0,0-.11-1.16.92.92,0,0,1,1.25.13c0,.78,1.32-1,2.64-.77,1.32-1.95,2.64-.91,2.64-.76.9-.62,1.69-2.28,2.32-1.41a9.53,9.53,0,0,1,1.3-2.37c0,1.79.33-1.33.66-2.67l.66-2.67a5.21,5.21,0,0,0-1.46-5l-3.08-3a5.18,5.18,0,0,1,3.05,1.42l4,3.82A5.23,5.23,0,0,1,387.12,334.35Z"/><path class="cls-2" d="M404.37,370.3c0,1.29-3.6-1-3.6.23,0,.35-2-2.75-2-3,0,1.24,1.59-4.88,1.59-3.23,0-1.45,3.6-2.32,3.6-.23,0-.33,2,4.41,2,3C406,368,404.37,368,404.37,370.3Z"/><path class="cls-6" d="M398.78,367.53a.64.64,0,0,0,.05.16S398.78,367.68,398.78,367.53Z"/><path class="cls-6" d="M405.93,367.3c-.24.71-1.56.86-1.56,3,0,1.29-3.6-1-3.6.23,0,.25-1-1.24-1.59-2.22.68.17,1.25.22,1.25-.29,0-2.14,1.32-2.29,1.56-3-.15.23-.65-.69-1.11-1.61,1-.8,3.09-.94,3.09.66C404,363.77,405.65,367.75,405.93,367.3Z"/><path class="cls-2" d="M387,414.8l-3.12.71a4.07,4.07,0,0,1-2.11-.09c-.68-1.12-1.29.57-1.79-1.12,0,2.43-2.18-3.59-2.18-2.35a3,3,0,0,1-1-1.87c-.16-.82-.14-2.45.08-2.11,0-1,.95-5.62.95-3.06.21.53.61-1.36,1.12-1.79.52-.74,1.16,1,1.87-1a32,32,0,0,1,3.13-.71,4.09,4.09,0,0,1,3.9,1.21l2.17,2.35a4.09,4.09,0,0,1,.91,4L390,412A4.08,4.08,0,0,1,387,414.8Z"/><path class="cls-4" d="M385.92,403.8a12.56,12.56,0,0,0-1.86.43c-.57,1.53-1.08.19-1.5.76-.41.33-.72,1.79-.9,1.38,0-2-.75,1.58-.75,2.35-.17-.26-.19,1-.07,1.63a2.26,2.26,0,0,0,.79,1.44c0-.36.25.09.57.68a3,3,0,0,1-.95-.12c-.48-.78-.93.39-1.28-.78,0,1.68-1.56-2.49-1.56-1.63a2,2,0,0,1-.71-1.29c-.11-.57-.1-1.7.06-1.46,0-.7.68-3.89.68-2.12.15.37.44-.94.8-1.24.38-.51.84.69,1.35-.68a22.44,22.44,0,0,1,2.24-.49,3,3,0,0,1,2.79.83Z"/><path class="cls-6" d="M391,409,390,412a4.08,4.08,0,0,1-3,2.78l-3.12.71a4.18,4.18,0,0,1-2.11-.08c-.67-1.13-1.29.56-1.79-1.13,0,1.2-.53.34-1.07-.69a.87.87,0,0,1,.31.34,4,4,0,0,0,2.11.08l3.13-.71a4.05,4.05,0,0,0,3-2.77l.95-3.06a4.09,4.09,0,0,0-.9-4l-2-2.14a4.13,4.13,0,0,1,2.35,1.26l2.17,2.35A4.09,4.09,0,0,1,391,409Z"/><path class="cls-2" d="M411.86,327.54c0,1.24-4-.39-4-.39s-1.67-3.41-1.67-3.67c0-1.33,2.34-2.19,2.34-3.27,0-4.69,4,2.34,4,.39,0,.19,1.66-.85,1.66,3.66C414.2,325.89,411.86,324.72,411.86,327.54Z"/><path class="cls-6" d="M414.2,324.26c0,1.63-2.34.47-2.34,3.28,0,1.24-4-.39-4-.39l-.68-1.42c.44,0,.74-.13.74-.47,0-2.81,2.34-1.65,2.34-3.27,0-2-.33-2.93-.7-3.33,1.18.53,3,3.24,3,1.94C412.54,320.79,414.2,319.75,414.2,324.26Z"/><path class="cls-2" d="M403,342.74c0,1.65-1.84,3.93-1.84,1-.81,1.26-1.71.51-2.61.63a12.53,12.53,0,0,0-2.57-.77c0-3.46-1.78,1.51-1.78-1.1,0,2.77.14-3.47.14-5.08,0-1.19,4.48-3.45,4.48-2.42,0,.44,4.33,2.77,4.33,2.67C403.13,335.71,403,344.48,403,342.74Z"/><path class="cls-4" d="M398.94,338.14c0,.21,0,.62,0,1.07-.5-.38-1-.78-1-.92,0-.68-2.23.81-2.23,1.6,0,.29,0,.79,0,1.34-.11-1.08-.68.83-.77,0,0-.56.05-2.61.05-3.28s2-2.05,2-1.44C397,336.8,398.8,338.09,398.94,338.14Z"/><path class="cls-6" d="M394.18,342.49c0,.2,0,.36,0,.48C394.2,343.34,394.18,343.29,394.18,342.49Z"/><path class="cls-6" d="M399.15,335.38a11,11,0,0,1-1.17-.59c.49-.12.82-.08.82.2C398.8,335.07,398.93,335.21,399.15,335.38Z"/><path class="cls-6" d="M399.17,335.38a28.17,28.17,0,0,0,3.94,2.28c0,1.28-.13,6.46-.13,5.08,0,1.65-1.84,3.93-1.84,1-.81,1.27-1.71.5-2.61.63a12.64,12.64,0,0,0-2.56-.77c0-3.2-1.52.79-1.76-.62,0-.23,0-.6,0-1.06l.34.17c.9-.12,1.8.64,2.61-.62,0,2.93,1.84.65,1.84-1C399,341.84,399.13,336.68,399.17,335.38Z"/><path class="cls-6" d="M403.13,337.66h0C403.12,337.31,403.13,337.25,403.13,337.66Z"/><g class="cls-7"><path class="cls-2" d="M260.43,53.22h0c-.89.31-1.78-.31-2.6-.26-.81.41-1.55-1.09-2.12-1.51h0c-.57-.69-.94.11-1.08-2.38-.15-2.72-.07.15.25-2.6h0c.31-1.17.84-.52,1.52-2.12.67,3.79,1.48-2,2.37-1.09h0c.89-4,1.79,1.62,2.6.26.82.31,1.55,4.4,2.13,1.51h0c.57,2.11.93-.28,1.08,2.38.14,1.68.06,2.48-.25,2.6h0c-.32,1.5-.85.86-1.52,2.12C262.14,50.39,261.32,52.28,260.43,53.22Z"/><path class="cls-4" d="M260.37,46.4c-.14.1-.27.37-.41.92-.65-.57-1.26,3.22-1.76.72-.5,1.05-.89.62-1.12,1.4-.22,1.7-.29.14-.21,1.42-.39-.15-.74-.71-1-.9-.38-.41-.63.07-.72-1.41s0,.09.17-1.54c.21-.69.56-.31,1-1.26.45,2.25,1-1.15,1.58-.64.59-2.39,1.19,1,1.73.15C259.88,45.35,260.13,46,260.37,46.4Z"/><path class="cls-6" d="M264.33,50c-.32,1.5-.85.86-1.52,2.12-.67-1.74-1.49.15-2.38,1.08-.89.33-1.78-.3-2.6-.25-.81.41-1.55-1.09-2.12-1.51l-.19-.19a3,3,0,0,0,1.78.15c.89-.94,1.71-2.82,2.38-1.08.67-1.27,1.2-.63,1.52-2.13.31-.12.39-.91.25-2.6-.14-2.66-.51-.27-1.08-2.38-.41,2.06-.9.58-1.44-.55.83-2.81,1.67,2.13,2.44.85.82.32,1.56,4.4,2.13,1.51.57,2.11.94-.28,1.08,2.38C264.72,49.1,264.64,49.89,264.33,50Z"/></g><g class="cls-7"><path class="cls-2" d="M220.67,45.17c0,1-3.18-.31-3.18-.31s-1.32-2.71-1.32-2.91c0-1.06,1.85-1.74,1.85-2.6,0-3.72,3.19,1.86,3.19.31,0,.15,1.32-.68,1.32,2.91C222.53,43.86,220.67,42.93,220.67,45.17Z"/><path class="cls-6" d="M222.53,42.57c0,1.29-1.86.37-1.86,2.6,0,1-3.18-.31-3.18-.31L217,43.73c.35,0,.59-.1.59-.37,0-2.23,1.86-1.31,1.86-2.6,0-1.61-.27-2.33-.56-2.64.94.42,2.37,2.57,2.37,1.54C221.21,39.81,222.53,39,222.53,42.57Z"/></g><g class="cls-7"><path class="cls-2" d="M241.23,44c0,1.3-1.46,3.11-1.46.79-.64,1-1.36.39-2.07.49a11,11,0,0,0-2-.61c0-2.75-1.42,1.2-1.42-.87,0,2.2.12-2.76.12-4,0-.94,3.55-2.74,3.55-1.92,0,.35,3.44,2.2,3.44,2.12C241.35,38.43,241.23,45.4,241.23,44Z"/><path class="cls-4" d="M238,40.36c0,.17,0,.5,0,.85-.39-.3-.76-.62-.76-.73,0-.54-1.77.65-1.77,1.27,0,.23,0,.63,0,1.07-.08-.86-.54.65-.61,0,0-.45,0-2.08,0-2.61s1.59-1.63,1.59-1.14C236.49,39.3,237.91,40.32,238,40.36Z"/><path class="cls-6" d="M234.25,43.82a3.63,3.63,0,0,0,0,.38C234.26,44.49,234.25,44.46,234.25,43.82Z"/><path class="cls-6" d="M238.19,38.17a9.69,9.69,0,0,1-.93-.47c.39-.09.65-.06.65.16C237.91,37.92,238,38,238.19,38.17Z"/><path class="cls-6" d="M238.2,38.17A22,22,0,0,0,241.33,40c0,1-.1,5.13-.1,4,0,1.3-1.46,3.11-1.46.79-.64,1-1.36.39-2.07.49a10.8,10.8,0,0,0-2-.61c0-2.54-1.21.63-1.39-.49,0-.18,0-.48,0-.84a1.75,1.75,0,0,1,.28.13c.71-.1,1.42.51,2.07-.49,0,2.32,1.46.51,1.46-.79C238.1,43.3,238.17,39.2,238.2,38.17Z"/><path class="cls-6" d="M241.35,40h0C241.34,39.7,241.35,39.65,241.35,40Z"/></g><g class="cls-7"><path class="cls-2" d="M329.5,100.29c0-1.21-1.34.58-2.67,1.58-1.34,2.89-2.68,1.65-2.68,1.57,0,.19-1.66,1.16-3.33-.8-1.66-1.75-3.33-2.06-3.33-.8A2.31,2.31,0,0,1,315,99.56c-.27-.87-1.16-2.77,0-2.81a11.27,11.27,0,0,0,1.93-.18,4,4,0,0,0,.82-.23c.54-.22.8-1.38,1.43-1.37,1.1,0,2.4-3,2.4-1,0-3.18,1.66,0,3.33.8,1.67.59,3.28.63,3.33.8.81,2.67,1.88.44,2.21,2.67C330.72,96.74,329.5,100.49,329.5,100.29Z"/><path class="cls-4" d="M326.4,97.73l-.71-.21c-1.17-.54-2.34-2.8-2.34-.57,0-1.35-.92.75-1.69.74-.45,0-.63.81-1,1a3.44,3.44,0,0,1-.58.16,7.64,7.64,0,0,1-1.36.12c-.48,0-.46.49-.33,1a.51.51,0,0,0-.1.34,1.48,1.48,0,0,1-1.62-1.45c-.16-.54-.73-1.75,0-1.77a7.12,7.12,0,0,0,1.23-.12,2.55,2.55,0,0,0,.52-.14c.34-.14.51-.88.9-.87.7,0,1.52-1.88,1.52-.66,0-2,1.06,0,2.11.51s2.08.4,2.11.5C325.54,97.86,326.16,96.72,326.4,97.73Z"/><path class="cls-6" d="M321.41,93.33l-.12,0A.11.11,0,0,1,321.41,93.33Z"/><path class="cls-6" d="M323.59,93.79a18.63,18.63,0,0,1-2-.42C321.7,91.79,322.55,92.83,323.59,93.79Z"/><path class="cls-6" d="M330.36,98c-.23.55-.86,2.42-.86,2.28,0-1.21-1.33.58-2.67,1.58-1.34,2.89-2.68,1.65-2.68,1.58,0,.18-1.66,1.15-3.33-.8a7,7,0,0,0-.69-.66c.05,0,.08-.08.08-.11s1.34,1.32,2.68-1.58c1.33-1,2.67-2.78,2.67-1.58,0,.15.62-1.72.86-2.27-.33-1.77-1.23-.18-2-2a3,3,0,0,0,.42.24c1.67.59,3.28.63,3.33.8C329,98.12,330,96.1,330.36,98Z"/></g><path class="cls-6" d="M401.16,379.31l0-.28C401.22,378.71,401.26,378.71,401.16,379.31Z"/><path class="cls-2" d="M397.21,300.42a23,23,0,0,1-1.9,3.3c-.63,1.52-1.53.82-2.59,2.59-1.06-.93-2.28.26-3.55.95,0-.53-3.8-2.55-3.8,0-1.27,1.66-2.49,1.73-3.55-.95-1.05,1.56-2-3.47-2.59-2.59,0,2.83-1.9,1.12-1.9-3.3-.63-1.67-.95-4.53-.95-3.54a11.62,11.62,0,0,1,.95-3.54c0-1.48,1.9-3,1.9-3.3.63-.58,1.54-2.51,2.59-2.59,1.06-1.56,2.28.82,3.55-.95,0,1,3.8-.27,3.8,0,1.27-.7,2.49,1.33,3.55.95,1.06-.84,2,2,2.59,2.59,0,1.81,1.9-.3,1.9,3.3a32.57,32.57,0,0,0,1,3.54C398.16,302.48,397.85,301.27,397.21,300.42Z"/><path class="cls-5" d="M377.55,297.6s0-.07,0-.08S377.55,297.57,377.55,297.6Z"/><path class="cls-4" d="M393.2,293.09a1,1,0,0,0-.46.11c0-.21-3.22.81-3.22,0-1.07,1.38-2.1-.47-3,.74-.89.07-1.65,1.58-2.19,2,0,.21-1.61,1.42-1.61,2.57a9.15,9.15,0,0,0-.79,2.61c0-.14.27,1.45.68,2.62a2.49,2.49,0,0,1-1.09-1.41c-.81,1.09-1.49-2.44-2-1.82,0,2-1.45.78-1.45-2.31-.43-1.05-.66-2.75-.71-2.62a8.14,8.14,0,0,1,.71-2.35c0-1,1.45-2.12,1.45-2.31.48-.4,1.16-1.76,2-1.82.8-1.09,1.73.58,2.69-.66,0,.41,1,.29,1.77.14.6-.11,1.12-.22,1.12-.14a1.32,1.32,0,0,1,1.29.18c.49.27,1,.63,1.4.48.8-.59,1.49,1.42,2,1.82C391.76,292.19,393.14,290.8,393.2,293.09Z"/><path class="cls-6" d="M392.72,306.31c-1.06-.93-2.28.26-3.54.95,0-.53-3.81-2.55-3.81,0-1.27,1.66-2.48,1.72-3.55-.95-.42.63-.82.19-1.19-.5a4.25,4.25,0,0,0,.8-.83c0-2.55,3.8-.53,3.8,0,1.27-.69,2.48-1.88,3.55-1,1.05-1.76,2-1.07,2.59-2.59a22.45,22.45,0,0,0,1.9-3.3c.63.85,1,2.06,1-3.54a29.51,29.51,0,0,1-1-3.54c0-3.6-1.9-1.49-1.9-3.3a4.93,4.93,0,0,1-.72-1.13c.73.4,1.43,1,2.07.82,1.06-.85,2,2,2.59,2.59,0,1.81,1.9-.3,1.9,3.3a32.57,32.57,0,0,0,1,3.54c0,5.6-.31,4.39-1,3.55"/><path class="cls-2" d="M390,373.05c0-.71-1.54.47-3.07,1-1.53-.82-3.06,2.14-3.06,1-1.12-.28-2.28.68-3.39.15-1.11-2.27-2.15-1.14-3-1.56,0-2.71-1.19-.15-2.38-2.16-1.18-.73-2.37-1.83-2.37-2.17-.86,0-1.49-2.05-1.83-2.86-.34-2.55-.4-1.27-.15-3.39,0,.21.34.38.69-3.14.34-2.05.69-3.67.69-3.14.25-.51.8-2.67,1.56-3,.76,0,1.74-2.24,2.86-1.83,0-.42,1.53-2.35,3.06-1,1.53,2,3.06,1.72,3.06-1,1.12.64,2.29-.62,3.39-.16a4.21,4.21,0,0,0,3,1.56c0,1.23,1.18,3.73,2.37,2.17,1.19-.89,2.37,2.42,2.37,2.17.87,1.3,1.49,4.78,1.83,2.86a6,6,0,0,1,.16,3.39c0-.67-.35,2.72-.69,3.14-.35,1.79-.69,4.65-.69,3.13-.25,1.93-.8.07-1.56,3C392.11,370.31,391.13,372,390,373.05Z"/><path class="cls-4" d="M387.33,354.57c-.34,1.13-1.41,1-2.47-.17a1.7,1.7,0,0,0-2.58.72c-.94-.3-1.77,1.36-2.42,1.37-.64.26-1.1,1.87-1.31,2.26,0-.4-.3.81-.59,2.35-.29,2.63-.58,2.51-.58,2.35-.21,1.58-.16.62.13,2.54a6.93,6.93,0,0,0,1.06,1.92,2.32,2.32,0,0,1-.88-.05c0-1.83-.9-.11-1.8-1.46-.9-.49-1.8-1.23-1.8-1.46-.66,0-1.13-1.38-1.39-1.92-.26-1.72-.31-.86-.12-2.28,0,.14.26.25.52-2.11.27-1.38.53-2.47.53-2.11.19-.35.61-1.8,1.18-2,.58,0,1.33-1.51,2.17-1.23a1.53,1.53,0,0,1,2.32-.66c1.17,1.33,2.33,1.16,2.33-.65.85.43,1.73-.42,2.57-.1a3.44,3.44,0,0,0,2.29,1A2.29,2.29,0,0,0,387.33,354.57Z"/><path class="cls-6" d="M385.23,349.71a1.42,1.42,0,0,1,.84.07,3.83,3.83,0,0,0,1.84,1.3.71.71,0,0,0-.39.15C386.52,352.55,385.51,351,385.23,349.71Z"/><path class="cls-6" d="M388.33,351.2l.76.15a3.08,3.08,0,0,0,.13.84A2.8,2.8,0,0,0,388.33,351.2Z"/><path class="cls-6" d="M395.82,361.93c0-.66-.35,2.72-.69,3.14-.35,1.79-.69,4.65-.69,3.14-.25,1.92-.8.06-1.56,3-.77-.91-1.75.77-2.86,1.83,0-.71-1.54.47-3.07,1-1.52-.82-3.06,2.14-3.06,1-1.12-.28-2.28.68-3.39.15-1.11-2.26-2.15-1.14-3-1.56,0-.22,0-.4,0-.56.82-.06,1.66-.51,2.48-.31,0,1.17,1.53-1.79,3.06-1,1.53-.5,3.06-1.68,3.06-1,1.12-1.06,2.1-2.74,2.86-1.83.77-2.94,1.32-1.08,1.57-3,0,1.52.34-1.35.69-3.14.34-.42.68-3.8.68-3.14a6,6,0,0,0-.15-3.39c-.31,1.77-.86-1-1.62-2.5.4.35.88.38,1.36-.25,1.19-.89,2.37,2.42,2.37,2.17.87,1.31,1.49,4.78,1.84,2.86A6.07,6.07,0,0,1,395.82,361.93Z"/><path class="cls-5" d="M437.12,286.57v0Z"/><g class="cls-8"><path class="cls-2" d="M407.13,220.05a7,7,0,0,1,1.67,3,1,1,0,0,1,0,.35c-.11.69.73,2.71.07,3.29a.91.91,0,0,0-.17.17c-.49.79-.94,1.79-1.6,2.67a.68.68,0,0,1-.49.26,4.06,4.06,0,0,0-2.69,1.39.6.6,0,0,0-.16.35c-.11,1.25-1.61.76-3.37-.33a.72.72,0,0,0-.22-.1,7.57,7.57,0,0,1-3-2c-1.37-1.49-1.1-1.69-1.73-3.24a4.69,4.69,0,0,1,0-3.31.71.71,0,0,1,.21-.3c.61-.55.82-1.69,1.39-2.52a.72.72,0,0,1,.75-.25c1.86.41,1.94-1,2.6-1.63a.8.8,0,0,1,.24-.13,3.76,3.76,0,0,1,3.36.27C405.58,218.86,405.52,218.3,407.13,220.05Z"/><path class="cls-4" d="M400,222.43a5.11,5.11,0,0,0-.13,3.64s0,0,0,.06c.66,1.69,1.92,5.77.12,4.67a6.79,6.79,0,0,1-3-1.88c-1.31-1.42-1-1.62-1.63-3.12a4.55,4.55,0,0,1,.09-3.23.78.78,0,0,1,.21-.3c.61-.54.84-1.64,1.41-2.46a.71.71,0,0,1,.85-.22c1.89.73,2.85,2,2.18,2.63A.62.62,0,0,0,400,222.43Z"/><path class="cls-6" d="M407.13,220.05a7,7,0,0,1,1.67,3,1,1,0,0,1,0,.34c-.11.7.74,2.72.07,3.3a.91.91,0,0,0-.17.17c-.49.79-.94,1.79-1.6,2.67a.68.68,0,0,1-.49.26,4.06,4.06,0,0,0-2.69,1.39.6.6,0,0,0-.16.36c-.07.8-.72.88-1.64.54s-.85-1.44-.05-1.56l.18,0a.68.68,0,0,0,.48-.26c.66-.88,1.12-1.88,1.61-2.67a.55.55,0,0,1,.17-.17c.66-.58-.19-2.6-.08-3.29a.69.69,0,0,0,0-.35,7,7,0,0,0-1.67-3c-1-1.13-1.38-1.3-1.9-1.49a.86.86,0,0,1-.43-1.34l0,0a.58.58,0,0,1,.23-.13,3.76,3.76,0,0,1,3.36.27C405.58,218.85,405.52,218.3,407.13,220.05Z"/></g><g class="cls-8"><path class="cls-2" d="M375.73,168.43c0-.06-.6-.54-1.21.35-.6-.09-1.2.71-1.2.36-.42-.46-.84.37-1.24,0-.4-.18-.78,0-1.09-.6,0-.85-.45-2.09-.91-.87-.45.29-.91-.77-.91-.87-.3-1.77-.52-.77-.64-1.06-.11-.56-.12-2.8,0-1.24,0,.22.15-1.54.3-1.22a7.83,7.83,0,0,0,.3-1.23c.1-1.36.31-.81.6-1.08.28-.93.65.36,1.06-.64,0-.62.6-1.1,1.21-.35a1.15,1.15,0,0,1,1.21-.35,2.39,2.39,0,0,1,2.32.57l1.82,1.74a2.39,2.39,0,0,1,.66,2.3l-.3,1.22c-.15.62-.3,2.05-.3,1.23a4.45,4.45,0,0,0-.6,1.08C376.51,167.39,376.14,168.15,375.73,168.43Z"/><path class="cls-4" d="M375,162a1.86,1.86,0,0,0-.52.07.84.84,0,0,0-.9.27c-.45-.57-.9-.2-.9.26-.31.76-.58-.22-.79.49-.21.2-.37-.22-.45.81a5.59,5.59,0,0,1-.22.92c-.11-.23-.22,1.09-.22.93-.08-1.18-.07.51,0,.93.07.18.2-.29.36.26a.54.54,0,0,1-.47-.34c0-.58-.31-1.42-.61-.59-.31.2-.61-.52-.61-.59-.21-1.2-.35-.52-.43-.72-.08-.37-.09-1.89,0-.83,0,.14.1-1,.2-.83a4.64,4.64,0,0,0,.21-.83c.06-.93.2-.55.4-.74.19-.63.43.25.71-.43,0-.42.4-.75.8-.24a.78.78,0,0,1,.82-.24,1.58,1.58,0,0,1,1.55.39Z"/><path class="cls-6" d="M378,164.26l-.3,1.22c-.15.62-.3,2.05-.3,1.23a4.23,4.23,0,0,0-.59,1.08c-.29-.4-.65.36-1.06.64,0-.06-.61-.54-1.21.35-.61-.09-1.21.71-1.21.36-.42-.46-.84.36-1.24,0-.4-.18-.78,0-1.09-.6a3.15,3.15,0,0,0-.05-.52.41.41,0,0,1,.57.05c0,.36.61-.44,1.21-.35.61-.89,1.21-.42,1.21-.35.41-.28.77-1,1.06-.64a4.23,4.23,0,0,1,.6-1.08c0,.81.15-.62.3-1.23l.3-1.22a2.4,2.4,0,0,0-.67-2.3l-1.41-1.35a2.31,2.31,0,0,1,1.4.65l1.82,1.74A2.4,2.4,0,0,1,378,164.26Z"/></g><g class="cls-7"><path class="cls-2" d="M352.3,127.36c0-.06-.52-.47-1,.3-.52-.09-1,.6-1,.3-.36-.4-.72.31-1.07,0s-.66,0-.93-.51c0-.74-.39-1.8-.78-.75-.39.24-.78-.66-.78-.75-.26-1.52-.45-.66-.55-.91-.09-.48-.11-2.4,0-1.06,0,.19.13-1.32.26-1a6.59,6.59,0,0,0,.26-1c.09-1.17.27-.7.51-.93.25-.8.56.31.91-.55,0-.53.52-1,1-.3a1,1,0,0,1,1-.3,2,2,0,0,1,2,.49l1.56,1.5a2,2,0,0,1,.57,2l-.26,1c-.13.52-.26,1.75-.26,1a3.81,3.81,0,0,0-.51.94C353,126.46,352.65,127.11,352.3,127.36Z"/><path class="cls-4" d="M351.66,121.87a1.61,1.61,0,0,0-.44.06.72.72,0,0,0-.77.23c-.39-.49-.78-.17-.78.23-.26.65-.49-.19-.68.41-.18.18-.31-.18-.38.7a4.38,4.38,0,0,1-.19.79c-.1-.2-.19.94-.19.8-.07-1-.06.43,0,.8.06.15.17-.25.31.22a.46.46,0,0,1-.41-.29c0-.5-.26-1.22-.52-.51-.26.17-.52-.44-.52-.5-.18-1-.3-.45-.37-.62s-.07-1.63,0-.72c0,.13.08-.89.17-.71a4.13,4.13,0,0,0,.17-.71c.06-.79.18-.47.34-.63.17-.54.38.21.61-.37,0-.36.35-.64.7-.21a.64.64,0,0,1,.69-.2,1.38,1.38,0,0,1,1.34.33Z"/><path class="cls-6" d="M354.24,123.78l-.26,1c-.13.52-.26,1.75-.26,1a3.79,3.79,0,0,0-.51.93c-.24-.35-.56.3-.91.55,0-.06-.52-.47-1,.3-.52-.09-1,.6-1,.3-.36-.4-.72.31-1.07,0s-.66,0-.93-.51a2.45,2.45,0,0,0,0-.46.36.36,0,0,1,.49,0c0,.31.52-.38,1-.3.51-.76,1-.36,1-.3.36-.24.67-.89.91-.55a4.3,4.3,0,0,1,.51-.93c0,.7.13-.52.26-1l.26-1.05a2,2,0,0,0-.57-2l-1.21-1.16a2.06,2.06,0,0,1,1.2.56l1.56,1.5A2,2,0,0,1,354.24,123.78Z"/></g><path class="cls-6" d="M411.86,277.83a4.92,4.92,0,0,1-.81-.66C411.4,277.07,411.69,277.3,411.86,277.83Z"/><path class="cls-6" d="M413.9,279c-.28-.12-.56-.26-.82-.4a1.72,1.72,0,0,1,1.7.6A8.63,8.63,0,0,0,413.9,279Z"/><path class="cls-2" d="M420.11,295.15s-1.56.89-3.13,1.59c-1.56-.38-3.13,2.2-3.13,1.58-.92,2.95-2,2.5-2.88-.16,0,2.31-1.47-1.84-2.93-1.92-1.47-1.07-2.94-2.94-2.94-1.92-.86-.51-1.36-3.31-1.3-2.57a21.76,21.76,0,0,0,.19-3.5c.1-4,.2.93.2-3.51.05.38.66-.65,1.58-2.41,0,1,1.56-.53,3.13-1.58,1.56-4.6,3.13-4.41,3.13-1.59a1.81,1.81,0,0,1,2.88.16,8.37,8.37,0,0,0,2.93,1.92c1.47.28,2.94.86,2.94,1.92a2.73,2.73,0,0,1,1.3,2.58c0-.95-.1.4-.2,3.5-.09-.74-.19.58-.19,3.5C421.63,295.38,421,293.93,420.11,295.15Z"/><path class="cls-5" d="M407.34,291.29v.1A.16.16,0,0,1,407.34,291.29Z"/><path class="cls-5" d="M424,285.92a.86.86,0,0,0,0-.16Z"/><path class="cls-4" d="M415.89,284.17a21.82,21.82,0,0,0-.09,2.39c0-.16,0-.17,0,0a4.34,4.34,0,0,1-1.3-1.21c-.47-.78-1.06-.73-1.56-.12,0-2.05-.85-2.2-1.69,1.15-.85.77-1.7,1.88-1.7,1.16-.49,1.28-.82,2-.85,1.75,0,.94,0,1.3,0,1.42l0,0,0,0c-.53-.63-1-1.25-1-.73-.38-.3-.61-1.82-.64-1.76a12.67,12.67,0,0,0,.1-2.21c0-2.61.09.61.09-2.29,0,.24.32-.43.77-1.58,0,.65.76-.35,1.52-1,.76-3,1.52-2.88,1.52-1,.45-.55,1-.6,1.4.1a4.35,4.35,0,0,0,1.43,1.26c.71.18,1.42.55,1.42,1.25A2,2,0,0,1,415.89,284.17Z"/><path class="cls-6" d="M422.08,285.74v0Z"/><path class="cls-6" d="M422.08,285.56c0-.54-.11.82-.19,3.68-.1-.74-.2.58-.2,3.5-.05,2.64-.66,1.19-1.58,2.42,0,0-1.58.89-3.13,1.58-1.56-.38-3.13,2.2-3.13,1.58-.92,3-2,2.5-2.88-.16,0,1.55-.66.19-1.54-.9a7.75,7.75,0,0,0,.48-1.22c0,.62,1.56-2,3.13-1.58,1.55-.69,3.1-1.58,3.13-1.58.92-1.22,1.52.22,1.58-2.41,0-2.93.1-4.25.19-3.51.09-2.86.18-4.22.2-3.68a2.73,2.73,0,0,0-1.3-2.39c0-.05,0-.1,0-.15a7.9,7.9,0,0,0,1,.5c1.47.28,2.94.86,2.94,1.92A2.73,2.73,0,0,1,422.08,285.56Z"/><g class="cls-8"><path class="cls-2" d="M398.51,185.45c-1.18-1.28-1.4,2.66-1.17,2.91a4.19,4.19,0,0,0-2.27,1.78c-1.06-1.15-4.65-1.23-3.11.44-.06,1.19-1.84-.05-2.67-1.07a21.56,21.56,0,0,0-1.94-2.47c1.17,1.15.17-.86-.4-2.86.26.29,2.27-1.71,1.17-2.91.33-1,3.25.55,2.27-1.78-1.73-1.88,4.82,1.43,3.1-.44.95-.22,1.33-.51,2.68,1.08,1.06,1.15,1.47,2,1.93,2.47C399.14,183.85,397.65,183.15,398.51,185.45Z"/><path class="cls-4" d="M391.52,182.7a1.91,1.91,0,0,0,.17.22c.78,1.58-1.19.38-1.34,1,.78.85-.38,2-.57,1.82.5,1.34,1.27,2.72.44,1.89.14.15.54.63.89,1.06-.44,0-.68.21-.2.72,0,.69-1.07-.14-1.61-.78a17,17,0,0,0-1.26-1.56c.74.74,0-.5-.39-1.7.17.19,1.21-.87.51-1.64.13-.57,1.9.51,1.21-.91-1.11-1.2,2.86,1.11,1.76-.08Z"/><path class="cls-6" d="M391.61,190a1.61,1.61,0,0,0,.35.54c0,.63-.54.58-1.13.24A4.11,4.11,0,0,1,391.61,190Z"/><path class="cls-6" d="M396.17,180.13c1.06,1.16,1.47,2,1.93,2.47,1,1.25-.44.55.41,2.85-1.18-1.28-1.4,2.66-1.17,2.91a4.19,4.19,0,0,0-2.27,1.78,3.47,3.47,0,0,0-2.2-.84c-.18-.52.07-4.09,1.2-2.86-.86-2.3.63-1.6-.41-2.85-.46-.51-.87-1.31-1.93-2.47a4.63,4.63,0,0,0-1.16-1.07h0a2.7,2.7,0,0,0-.17-.54c-1.73-1.89,4.82,1.42,3.1-.45C394.44,178.83,394.82,178.54,396.17,180.13Z"/></g><g class="cls-8"><path class="cls-2" d="M430.6,218.76s-3.33,1.21-2.05,2.6a1.62,1.62,0,0,1-2.5.87c-.6-.65-4.2-1.39-3.51-.65-1.19-.34-1.07.06-2.45-2-2.18-2.37-1.41-3.06-1.34-3a2.8,2.8,0,0,1,.25-2.9l3-3.76,6.8,1.26,2.08,4.63A2.8,2.8,0,0,1,430.6,218.76Z"/><path class="cls-4" d="M424.44,210.45l-1.72,2.06a2.71,2.71,0,0,0-.51,2.67c0-.06-.83.64,1,2.61,1.09,1.71,1,1.36,2.09,1.55-.28-.3.39-.37,1.19-.3a1.58,1.58,0,0,1-2.15.92c-.44-.48-3.38-.79-2.88-.24-1-.18-.89.14-1.87-1.4-1.62-1.76-.92-2.39-.88-2.34a2.44,2.44,0,0,1,.46-2.4l1.93-2.3a2.56,2.56,0,0,1,2.16-.92Z"/><path class="cls-6" d="M429.5,212.87l1.35,3a2.8,2.8,0,0,1-.25,2.9s-3.33,1.21-2.05,2.6a1.62,1.62,0,0,1-2.5.87,5.34,5.34,0,0,0-2.16-.83c0-1.09,2.34-1.93,2.34-1.93a2.82,2.82,0,0,0,.26-2.9l-1.35-3a3.43,3.43,0,0,0-2.45-2l-1.76-.33.13-.15a2.52,2.52,0,0,1,2.49-.88l3.51.65A3.43,3.43,0,0,1,429.5,212.87Z"/></g><g class="cls-7"><path class="cls-2" d="M245.37,55.36s-1.93.7-1.19,1.51a.94.94,0,0,1-1.45.5c-.34-.37-2.43-.81-2-.37-.68-.2-.62,0-1.42-1.14-1.26-1.38-.82-1.78-.78-1.74a1.62,1.62,0,0,1,.15-1.68l1.73-2.19,3.94.73,1.21,2.7A1.6,1.6,0,0,1,245.37,55.36Z"/><path class="cls-4" d="M241.8,50.54l-1,1.19a1.58,1.58,0,0,0-.3,1.55s-.48.37.57,1.51c.63,1,.59.79,1.21.91-.16-.18.22-.22.69-.18a.92.92,0,0,1-1.25.54c-.25-.28-2-.46-1.67-.14-.55-.11-.52.08-1.09-.81-.94-1-.53-1.39-.5-1.36a1.39,1.39,0,0,1,.26-1.4L239.84,51a1.46,1.46,0,0,1,1.25-.54Z"/><path class="cls-6" d="M244.74,51.94l.78,1.74a1.6,1.6,0,0,1-.15,1.68s-1.93.7-1.19,1.51a.94.94,0,0,1-1.45.5,3,3,0,0,0-1.25-.48c0-.63,1.36-1.12,1.36-1.12a1.65,1.65,0,0,0,.15-1.68l-.79-1.74a2,2,0,0,0-1.42-1.14l-1-.19.07-.09a1.5,1.5,0,0,1,1.45-.51l2,.38A2,2,0,0,1,244.74,51.94Z"/></g><g class="cls-7"><path class="cls-2" d="M291.74,59.59s-1.93.7-1.19,1.5a.94.94,0,0,1-1.45.51c-.34-.38-2.43-.81-2-.38-.69-.19-.62,0-1.42-1.13-1.26-1.38-.82-1.78-.78-1.74a1.64,1.64,0,0,1,.15-1.69l1.72-2.18,3.95.73,1.21,2.69A1.62,1.62,0,0,1,291.74,59.59Z"/><path class="cls-4" d="M288.16,54.76l-1,1.19a1.58,1.58,0,0,0-.3,1.56s-.48.37.57,1.51c.63,1,.59.79,1.21.9-.16-.17.22-.21.69-.17a.92.92,0,0,1-1.25.53c-.26-.28-2-.46-1.67-.14-.56-.1-.52.08-1.09-.81-.94-1-.53-1.39-.51-1.36a1.4,1.4,0,0,1,.27-1.39l1.12-1.34a1.52,1.52,0,0,1,1.25-.54Z"/><path class="cls-6" d="M291.11,56.16l.78,1.74a1.6,1.6,0,0,1-.15,1.68s-1.93.7-1.19,1.51a.94.94,0,0,1-1.45.51,3.06,3.06,0,0,0-1.25-.48c0-.63,1.36-1.12,1.36-1.12a1.66,1.66,0,0,0,.15-1.69l-.79-1.74a2,2,0,0,0-1.42-1.13l-1-.19.07-.09a1.47,1.47,0,0,1,1.45-.51l2,.38A2,2,0,0,1,291.11,56.16Z"/></g><path class="cls-2" d="M400,274.2l-2.25,3.34a2.9,2.9,0,0,1-2.91,1.23l-3.59-.65a2.89,2.89,0,0,1-2.17-1.79l-1.76-4.52a2.92,2.92,0,0,1,.29-2.66l2.25-3.34a2.9,2.9,0,0,1,2.91-1.23l3.58.65a2.89,2.89,0,0,1,2.18,1.79l1.76,4.52A2.92,2.92,0,0,1,400,274.2Z"/><path class="cls-4" d="M395.34,270.29l-1.66-.5a1.23,1.23,0,0,0-1.51.76l-1.28,2.66a3.34,3.34,0,0,0,0,2.44l.1.27h0a2.29,2.29,0,0,1-1.32-1.5l-1.07-3.06a2.94,2.94,0,0,1,0-2.19l1.15-2.39a1.1,1.1,0,0,1,1.35-.69l2.23.67a2.31,2.31,0,0,1,1.32,1.5Z"/><path class="cls-6" d="M400,274.32l-2.3,3.41a2.44,2.44,0,0,1-2.49,1.09l-3.9-.71a2.88,2.88,0,0,1-1.73-1.08l1.48.27a2.43,2.43,0,0,0,2.48-1.09l2.3-3.42a3.31,3.31,0,0,0,.28-3l-1.6-4.12a3.37,3.37,0,0,0-.49-.85l2.43.43a3,3,0,0,1,2.21,1.94l1.61,4.12A3.35,3.35,0,0,1,400,274.32Z"/><g class="cls-8"><path class="cls-2" d="M415.3,262c-.15-.63-1.71.81-1.5,1.71.13,4.13-1.78.52-2.61.72-.67-2.84-2.37-1.65-2.14-.7-1-.59-1.55-.49-2-2.22a23.14,23.14,0,0,0-.65-2.41c-.3-1.16.29-.78.62-2.94,0-.05,1.45-1.93,1.5-1.7,0-3.47,1.63-1.18,2.61-.72,0,.16,1.48-2.13,2.15.7,1.46,2.49,1.88,1.9,2,2.22a23.24,23.24,0,0,1,.64,2.4C415.93,259,415.5,259.25,415.3,262Z"/><path class="cls-4" d="M410.7,256.37c-.21.05-.35.33-.37,1.07,0-.13-.94,1-.93,1-.23,1.23-.58,1-.4,1.68,0,0,.12.35.3,1.11h0c-.34-1.45-1.28-.82-1.17-.34-.55-.3-.84-.24-1.07-1.13s-.33-1.22-.33-1.22c-.16-.6.16-.41.36-1.52,0,0,.81-1,.84-.89,0-1.78.9-.62,1.43-.39,0,.08.83-1.11,1.17.34C410.58,256.19,410.64,256.29,410.7,256.37Z"/><path class="cls-6" d="M415.92,259c0-.06-.42.31-.62,3-.15-.63-1.71.81-1.5,1.71.13,4.14-1.78.52-2.61.72-.36-1.56-1-1.91-1.54-1.74,0-.15,0-.32,0-.5-.21-.9,1.36-2.35,1.51-1.71.2-2.65.6-3,.61-2.95a16.5,16.5,0,0,0-.64-2.39c-.11-.33-.53.26-2-2.22,0-.12-.05-.22-.08-.31.56-.23,1.46.83,2.09,1.13,0,.16,1.48-2.14,2.14.7,1.47,2.49,1.89,1.9,2,2.22A22.07,22.07,0,0,1,415.92,259Z"/></g><g class="cls-7"><path class="cls-2" d="M315.36,84.84c-.08-.36-1,.46-.85,1,.07,2.34-1,.3-1.48.41-.38-1.61-1.34-.94-1.21-.4-.58-.33-.88-.28-1.13-1.26s-.37-1.38-.36-1.36c-.18-.66.15-.44.34-1.67,0,0,.83-1.1.86-1,0-2,.92-.67,1.47-.41,0,.09.84-1.21,1.22.39.83,1.42,1.07,1.08,1.13,1.26-.15-.62.24.85.36,1.37C315.72,83.12,315.48,83.3,315.36,84.84Z"/><path class="cls-4" d="M312.75,81.66c-.11,0-.19.19-.2.61,0-.07-.54.55-.53.56-.13.7-.33.58-.23,1a5.87,5.87,0,0,1,.17.62,0,0,0,0,0,0,0c-.19-.83-.73-.47-.66-.2-.32-.16-.48-.13-.61-.63a5.78,5.78,0,0,0-.19-.7c-.09-.34.09-.23.21-.86,0,0,.46-.57.47-.51,0-1,.51-.35.81-.22,0,0,.47-.63.67.2Z"/><path class="cls-6" d="M315.71,83.17s-.24.17-.35,1.67c-.08-.36-1,.46-.85,1,.07,2.34-1,.3-1.48.41-.2-.89-.59-1.08-.87-1V85c-.12-.51.76-1.33.85-1,.11-1.5.34-1.71.35-1.67A8.42,8.42,0,0,0,313,81c-.06-.18-.3.15-1.12-1.26a1.54,1.54,0,0,1-.05-.17c.32-.13.82.47,1.18.64,0,.09.84-1.21,1.22.4.83,1.41,1.07,1.07,1.13,1.25A13.12,13.12,0,0,1,315.71,83.17Z"/></g><g class="cls-7"><path class="cls-2" d="M297.35,85.49c-.15-.63-1.72.81-1.5,1.71.13,4.14-1.78.52-2.61.72-.67-2.84-2.37-1.64-2.15-.7-1-.59-1.55-.49-2-2.22s-.65-2.44-.64-2.41c-.31-1.16.28-.78.62-2.93,0,0,1.45-1.94,1.5-1.71,0-3.46,1.63-1.17,2.61-.72,0,.16,1.48-2.13,2.14.7,1.46,2.49,1.89,1.9,2,2.22a18.4,18.4,0,0,1,.65,2.41C298,82.46,297.55,82.77,297.35,85.49Z"/><path class="cls-4" d="M292.75,79.88c-.21.05-.35.34-.37,1.08,0-.13-.94,1-.93,1-.23,1.24-.58,1-.41,1.68a10.59,10.59,0,0,1,.31,1.11h0c-.35-1.45-1.29-.82-1.17-.34-.55-.29-.85-.24-1.07-1.12s-.33-1.23-.33-1.23c-.16-.6.16-.41.36-1.52,0,0,.81-1,.84-.89,0-1.78.9-.62,1.43-.39,0,.08.83-1.11,1.17.34C292.63,79.7,292.69,79.8,292.75,79.88Z"/><path class="cls-6" d="M298,82.54c0-.06-.42.31-.62,2.95-.15-.63-1.72.81-1.5,1.71.13,4.14-1.78.52-2.61.72-.37-1.56-1-1.9-1.54-1.74,0-.15,0-.32,0-.5-.21-.9,1.36-2.34,1.51-1.71.19-2.64.6-3,.61-3a18.88,18.88,0,0,0-.64-2.39c-.11-.32-.53.26-2-2.22,0-.11-.06-.22-.08-.31.56-.23,1.45.84,2.09,1.13,0,.16,1.48-2.13,2.14.7,1.47,2.49,1.88,1.9,2,2.22A22.07,22.07,0,0,1,298,82.54Z"/></g><g class="cls-8"><path class="cls-2" d="M418.9,193.29a17.77,17.77,0,0,1,.64,2.88c.44,1.2-.44,1.28-.12,2.84-1.09,0-1.16,1.34-1.52,2.41-.28-.31-3.52.53-2.17,2,.14,1.61-.52,2.29-2.53,1.32.21,1.44-2.94-.95-2.84-.12,1.49,1.62-.5,1.64-2.81-.88-1.24-.63-2.93-2.09-2.41-1.53a9,9,0,0,1-1.31-2.52c-.78-.84-.5-2.72-.65-2.88.06-.66-.44-2.24.12-2.84-.21-1.45,1.74-.72,1.53-2.4.54.59,2-2.15,2.17-2,.36-1.06,2.11-.54,2.52-1.32.16-1,2.18.13,2.84.12.95,1,.93-1.17,2.82.89a23.7,23.7,0,0,0,2.4,1.52C420.52,194,419.7,193.44,418.9,193.29Z"/><path class="cls-5" d="M406.19,202s0,0,0-.05Z"/><path class="cls-4" d="M412.76,191.21a.77.77,0,0,0-.21.31c-.11-.12-1.41,2.15-1.83,1.69.11,1.35-1.45.83-1.33,2-.47.51-.11,1.77-.18,2.31.11.12-.18,1.65.43,2.31a6.92,6.92,0,0,0,.92,1.91c-.05-.11.91.69,1.76,1.14a1.94,1.94,0,0,1-1.37-.24c.12,1.05-2.12-.61-2.08,0,1.05,1.13-.41,1.2-2-.56-.8-.37-1.82-1.22-1.78-1.12a6.24,6.24,0,0,1-.83-1.72c-.54-.59-.29-2-.39-2.07.06-.49-.26-1.62.17-2.08-.11-1,1.29-.57,1.19-1.79.22.24.7-.34,1.08-.85s.53-.71.57-.67a1,1,0,0,1,.83-.57c.43-.1.88-.15,1.05-.46.15-.76,1.6,0,2.08,0C411.46,191.45,411.52,189.94,412.76,191.21Z"/><path class="cls-6" d="M419.42,199c-1.09,0-1.16,1.34-1.52,2.4-.28-.3-3.51.54-2.17,2,.14,1.61-.52,2.29-2.53,1.32.09.58-.37.54-.94.34a3.22,3.22,0,0,0,0-.89c-1.34-1.46,1.9-2.3,2.17-2,.36-1.06.43-2.38,1.53-2.4-.33-1.56.55-1.64.12-2.84a16.88,16.88,0,0,0-.65-2.88c.81.15,1.63.68-1.32-2.52a24.8,24.8,0,0,1-2.4-1.53c-1.89-2-1.86.15-2.81-.88a4.39,4.39,0,0,1-1-.26c.63-.16,1.37-.16,1.61-.63.17-1,2.18.13,2.84.12.95,1,.93-1.17,2.82.89a23.7,23.7,0,0,0,2.4,1.52c2.94,3.2,2.12,2.67,1.32,2.52"/></g><g class="cls-7"><path class="cls-2" d="M379.7,138.69a11.91,11.91,0,0,1,.3,1.69c.21.7-.2.75-.05,1.66-.51,0-.54.79-.71,1.41-.13-.18-1.64.31-1,1.17.06.94-.24,1.34-1.18.77.1.84-1.37-.56-1.32-.07.69,1-.23,1-1.31-.52-.58-.36-1.36-1.22-1.12-.89a5.85,5.85,0,0,1-.61-1.48c-.36-.49-.24-1.59-.3-1.68,0-.39-.21-1.31.05-1.67-.1-.84.81-.42.71-1.4.26.34,1-1.26,1-1.17.17-.62,1-.32,1.18-.77.07-.61,1,.07,1.32.07.44.6.43-.69,1.31.51a10.66,10.66,0,0,0,1.12.9C380.46,139.09,380.08,138.78,379.7,138.69Z"/><path class="cls-5" d="M373.79,143.79s0,0,0,0Z"/><path class="cls-4" d="M376.84,137.47a.51.51,0,0,0-.09.18c-.05-.07-.66,1.26-.86,1,.06.79-.67.49-.61,1.17-.22.3-.06,1-.09,1.35.05.07-.08,1,.2,1.35a4.5,4.5,0,0,0,.43,1.12c0-.06.43.4.82.67a.76.76,0,0,1-.63-.14c.05.61-1-.35-1,0,.48.66-.2.7-1-.33-.37-.22-.85-.71-.83-.66a4,4,0,0,1-.39-1c-.25-.35-.13-1.15-.18-1.22,0-.28-.12-.94.08-1.21,0-.61.6-.34.56-1.05.1.14.32-.2.5-.49s.24-.42.26-.4a.5.5,0,0,1,.39-.33c.2-.06.41-.09.49-.27.07-.44.74,0,1,0C376.24,137.62,376.27,136.73,376.84,137.47Z"/><path class="cls-6" d="M380,142c-.51,0-.54.79-.71,1.41-.13-.18-1.64.31-1,1.17.06.94-.24,1.34-1.18.77,0,.34-.17.31-.44.2a2.2,2.2,0,0,0,0-.52c-.62-.86.88-1.35,1-1.17.17-.62.2-1.4.71-1.41-.15-.91.26-1,.06-1.66a13.23,13.23,0,0,0-.3-1.69c.37.09.76.4-.61-1.47a9.37,9.37,0,0,1-1.12-.9c-.88-1.2-.87.09-1.31-.51a1.62,1.62,0,0,1-.47-.16c.29-.09.63-.09.75-.36.07-.61,1,.07,1.32.07.44.6.43-.69,1.31.51a10.66,10.66,0,0,0,1.12.9c1.37,1.87,1,1.56.61,1.47"/></g><g class="cls-8"><path class="cls-2" d="M404.66,244.77c.24,1-.8,3.19-1.16,1.66-.7.36-1.44,1.66-2.5,1,0,.17-2.28-1.88-1.93-.38-.69,1-1.65-.32-2.18-2,.62,2.63-.71-1.81-.76-2s-.77-4.32.32-3c-.33-1.4,1.53-.09,1.16-1.66,1,.92,1.78-.19,2.5-1a1.06,1.06,0,0,1,1.93.38c1.26,1.44,2.18,2.57,2.18,2,.73,3.1,1.29,4.3.76,2.05C405.41,243,405.13,243.47,404.66,244.77Z"/><path class="cls-4" d="M399.84,239.21l.69.81c-.42.51-.88.94-1.45.4.27,1.12-1,.18-.78,1.17-.76-.92-.33,2-.21,2.14s.18.64.34,1.16c-.27-.14-.47-.15-.38.27-.42.61-1-.22-1.35-1.27.39,1.67-.45-1.16-.49-1.31s-.49-2.76.19-1.92c-.21-.89.94,0,.71-1.06.61.59,1.1-.11,1.54-.65A.65.65,0,0,1,399.84,239.21Z"/><path class="cls-6" d="M405.19,242.87a6.14,6.14,0,0,1-.53,1.9c.25,1-.8,3.19-1.16,1.66-.7.36-1.44,1.66-2.5,1,0,.17-2.28-1.88-1.93-.38-.54.76-1.25.13-1.79-1,.84.1,1.47-.9,2.07-1.2.36,1.52,1.4-.63,1.16-1.67a6.38,6.38,0,0,0,.53-1.89c0,.3-.45-.95-1-3.17,0,.28-.21.18-.55-.14.21-.22.4-.47.59-.69a1.06,1.06,0,0,1,1.93.38c1.26,1.44,2.18,2.57,2.18,2C404.74,241.92,405.18,243.17,405.19,242.87Z"/></g><path class="cls-9" d="M405.19,242.8a10,10,0,0,0-.21-1.05A3,3,0,0,1,405.19,242.8Z"/><g class="cls-8"><path class="cls-2" d="M427.53,248.88c-.57-2.42-1.36-2.83-.55.62-.22,2.68-2.12-.9-2.62.69,0,.08-.31,1.69-.77-.26-.86,0-2.14-3-2-2.24-.95-4-.21-.81-.23-.87-.52-2.14,0-1.88.64-2.93-.3-1.29.7,0,.55-.61.27-2.47,1.61-1.27,2.62-.7.34,1.48.64-.31.77.27,1.55,2.87,1.71,1.2,2,2.23.48,2,.7,2.88.23.88C429,249.22,428.06,247.55,427.53,248.88Z"/><path class="cls-4" d="M424.23,244a3.45,3.45,0,0,0,.34.45c-.41-.07-.77,0-.94.8.07.3-.57-.32-.41.34-.41.5-.76.47-.65,1.19l.19.79c0-.12,0-.07.12.06-.09.18-.27.4-.42-.24-.54.06-1.22-1.33-1.15-1-.08-.33-.13-.55-.16-.7a.22.22,0,0,0,0,.08c-.05-.23-.12-.51,0-.08-.09-.65.22-.63.59-1.08-.14-.59.43,0,.36-.31.27-1.15,1.06-.65,1.67-.42C423.91,244.6,424.17,243.76,424.23,244Z"/><path class="cls-6" d="M428.33,246.68c.12.49.12.53.05.23.37,2-.38.8-.85,2-.57-2.42-1.36-2.83-.55.62-.21,2.68-2.11-.9-2.62.69,0,.08-.31,1.69-.77-.26-.34,0-.74-.45-1.1-1,.17-.11.29-.39.34-1-.82-3.44,0-3,.54-.61.47-1.17,1.23,0,.86-2v0c-.07-.31-.23-1-.43-1.81s-.35,0-1.11-.89c.43-1.63,1.61-.61,2.52-.08.35,1.47.64-.31.77.25,1.55,2.88,1.7,1.21,2,2.24.2.86.36,1.51.44,1.82C428.36,246.83,428.35,246.75,428.33,246.68Z"/></g><g class="cls-7"><path class="cls-2" d="M346.11,106.4c-.57-2.42-1.36-2.84-.55.61-.22,2.69-2.12-.89-2.62.69,0,.08-.31,1.69-.77-.26-.86,0-2.13-3-2-2.24-.95-4-.21-.8-.23-.87-.52-2.14,0-1.88.64-2.93-.3-1.29.7,0,.55-.61.27-2.47,1.61-1.27,2.62-.69.35,1.48.64-.31.77.26,1.55,2.87,1.71,1.2,2,2.24.48,2,.7,2.87.23.87C347.54,106.74,346.64,105.07,346.11,106.4Z"/><path class="cls-4" d="M342.81,101.53a4,4,0,0,0,.34.44c-.41-.07-.77.06-.94.8.07.31-.57-.31-.41.34-.41.5-.75.48-.65,1.19l.19.79c0-.12,0-.07.12.06-.09.18-.27.4-.42-.24-.54.06-1.22-1.32-1.15-1-.07-.33-.13-.55-.16-.69a.2.2,0,0,0,0,.07c-.05-.23-.12-.51,0-.08-.1-.65.21-.63.58-1.08-.14-.59.43,0,.36-.31.27-1.15,1.06-.65,1.67-.42C342.5,102.11,342.75,101.27,342.81,101.53Z"/><path class="cls-6" d="M346.91,104.19c.12.5.12.53,0,.24.37,2-.38.79-.85,2-.57-2.42-1.36-2.84-.55.61-.21,2.69-2.11-.89-2.61.69,0,.08-.32,1.69-.78-.26-.34,0-.74-.45-1.1-1,.17-.12.29-.4.34-1-.81-3.45,0-3,.55-.62.46-1.17,1.22,0,.85-2h0c-.07-.31-.23-1-.43-1.81s-.35,0-1.1-.9c.42-1.63,1.6-.6,2.51-.08.35,1.48.64-.31.77.26,1.55,2.87,1.71,1.2,2,2.24.2.85.36,1.5.44,1.81C346.94,104.34,346.93,104.27,346.91,104.19Z"/></g><g class="cls-7"><path class="cls-2" d="M190.87,30.09c0-.86-1,.41-1.89,1.11-.95,2.06-1.9,1.18-1.9,1.12,0,.14-1.18.82-2.36-.56s-2.36-1.47-2.36-.57a1.65,1.65,0,0,1-1.8-1.62c-.19-.61-.82-2,0-2a7.76,7.76,0,0,0,1.37-.12,3.58,3.58,0,0,0,.58-.17c.38-.16.57-1,1-1,.78,0,1.7-2.1,1.7-.74,0-2.25,1.18,0,2.36.57s2.32.45,2.36.57c.58,1.89,1.33.31,1.56,1.89C191.74,27.58,190.87,30.23,190.87,30.09Z"/><path class="cls-4" d="M188.68,28.27a3.28,3.28,0,0,1-.51-.15c-.83-.37-1.66-2-1.66-.39,0-1-.65.52-1.2.51-.31,0-.44.58-.71.69a2,2,0,0,1-.41.12,6.14,6.14,0,0,1-1,.08c-.34,0-.32.35-.23.71a.33.33,0,0,0-.07.24,1.05,1.05,0,0,1-1.14-1c-.12-.39-.52-1.24,0-1.26a5.12,5.12,0,0,0,.87-.08,2.22,2.22,0,0,0,.36-.1c.24-.1.36-.62.64-.62.5,0,1.08-1.33,1.08-.46,0-1.43.75,0,1.49.35s1.47.29,1.5.36C188.06,28.37,188.5,27.56,188.68,28.27Z"/><path class="cls-6" d="M185.14,25.16l-.09,0A.08.08,0,0,1,185.14,25.16Z"/><path class="cls-6" d="M186.68,25.49a11.28,11.28,0,0,1-1.44-.31C185.34,24.07,186,24.8,186.68,25.49Z"/><path class="cls-6" d="M191.48,28.48c-.17.38-.61,1.71-.61,1.61,0-.86-1,.41-1.89,1.11-.95,2.06-1.9,1.18-1.9,1.12,0,.14-1.18.82-2.36-.56a5.32,5.32,0,0,0-.49-.47s.06-.05.06-.07.94.93,1.89-1.12c.95-.71,1.9-2,1.9-1.12,0,.1.44-1.22.61-1.61-.24-1.25-.87-.13-1.41-1.39a2.28,2.28,0,0,0,.3.17c1.18.42,2.33.45,2.36.57C190.5,28.55,191.23,27.12,191.48,28.48Z"/></g><g class="cls-7"><path class="cls-2" d="M207.8,33.62s-.37-.33-.74.21c-.36-.06-.73.43-.73.21-.25-.27-.51.23-.75,0s-.48,0-.66-.36c0-.52-.28-1.28-.56-.53-.27.17-.55-.47-.55-.53-.18-1.08-.32-.47-.39-.65-.07-.34-.07-1.7,0-.75,0,.13.09-.94.18-.74a4.65,4.65,0,0,0,.18-.75c.07-.83.19-.49.37-.66.17-.56.39.23.64-.38,0-.38.37-.67.74-.22a.7.7,0,0,1,.73-.21,1.44,1.44,0,0,1,1.41.35l1.11,1.06a1.44,1.44,0,0,1,.4,1.39l-.18.75c-.09.37-.18,1.24-.18.74a2.4,2.4,0,0,0-.37.66C208.27,33,208.05,33.45,207.8,33.62Z"/><path class="cls-4" d="M207.35,29.73a1.19,1.19,0,0,0-.32.05.51.51,0,0,0-.55.16c-.27-.35-.54-.12-.54.16-.19.46-.35-.13-.48.29-.13.13-.23-.13-.27.5a3.37,3.37,0,0,1-.14.56c-.07-.15-.14.66-.14.56,0-.71,0,.31,0,.57s.12-.18.22.16a.35.35,0,0,1-.29-.21c0-.35-.18-.86-.37-.36-.18.12-.37-.32-.37-.36-.12-.73-.21-.31-.26-.43s0-1.16,0-.51c0,.09.06-.64.13-.51a3.27,3.27,0,0,0,.12-.5c0-.56.12-.33.24-.45.12-.38.26.15.43-.26,0-.25.25-.45.49-.14a.48.48,0,0,1,.5-.15.94.94,0,0,1,.94.24Z"/><path class="cls-6" d="M209.17,31.08l-.18.75c-.09.37-.18,1.24-.18.74a2.4,2.4,0,0,0-.37.66c-.17-.24-.39.22-.64.39,0,0-.37-.33-.74.21-.36-.06-.73.43-.73.21-.25-.27-.51.23-.75,0s-.48,0-.66-.36a1.73,1.73,0,0,0,0-.32c.11-.06.23-.1.34,0s.37-.27.74-.21c.37-.55.73-.26.73-.22.25-.17.47-.63.65-.39a2.56,2.56,0,0,1,.36-.65c0,.49.09-.38.18-.75l.19-.74a1.46,1.46,0,0,0-.41-1.4l-.86-.82a1.38,1.38,0,0,1,.85.4l1.11,1.06A1.44,1.44,0,0,1,209.17,31.08Z"/></g><g class="cls-7"><path class="cls-2" d="M196,40.06c-.4-1.71-1-2-.39.43-.15,1.91-1.49-.63-1.85.49,0,.06-.22,1.2-.55-.18-.6,0-1.51-2.15-1.39-1.59-.68-2.86-.15-.57-.16-.61-.38-1.52,0-1.33.45-2.08-.21-.91.49,0,.39-.43.19-1.75,1.14-.9,1.85-.49.25,1,.45-.22.55.18,1.1,2,1.21.86,1.4,1.59.34,1.44.49,2,.16.62C197,40.3,196.33,39.12,196,40.06Z"/><path class="cls-4" d="M193.62,36.61a2.64,2.64,0,0,0,.24.32c-.29,0-.55,0-.67.56.05.22-.4-.22-.29.24-.29.36-.53.34-.46.85,0,.11.07.29.13.56,0-.09,0,0,.09,0s-.19.28-.3-.17c-.38,0-.86-.94-.81-.68-.05-.23-.09-.39-.12-.49a.43.43,0,0,1,0,0c0-.16-.08-.36,0-.06-.07-.46.15-.44.41-.76-.09-.42.31,0,.26-.22.19-.82.75-.46,1.18-.3C193.39,37,193.57,36.43,193.62,36.61Z"/><path class="cls-6" d="M196.52,38.5c.09.35.09.37,0,.17.26,1.38-.27.56-.61,1.39-.4-1.71-1-2-.38.43-.16,1.91-1.5-.63-1.86.5,0,0-.22,1.19-.54-.19-.24,0-.53-.32-.79-.7.12-.08.21-.28.24-.68-.57-2.45,0-2.15.39-.44.33-.83.87,0,.61-1.39v0c-.05-.22-.16-.67-.31-1.28s-.24,0-.78-.63c.3-1.16,1.14-.43,1.78-.06.25,1,.46-.22.55.18,1.1,2,1.21.86,1.4,1.59s.25,1.06.3,1.28Z"/></g><g class="cls-8"><path class="cls-2" d="M402.23,207.14c1.75,1.91-1.46.54-.58,1.49,1.08,2.49-1.43,1.27-2.23,1.55-.65-.72-1.74-.06-1.64,0-1.57-.56-1.15.49-2.7-1.36-.42-.46.85.65-1.06-1.43-.35-.56.82-.19-.47-2.91.33.36.39-1.69.58-1.49-.78-2.17,1.82-.85,2.23-1.54-2.2-2.4,3.08,1.5,1.64-.06,2.06,1.1.63-1.06,2.7,1.37-1.35-1.47,1.92,2.36,1.06,1.42C403.75,206.57,402.48,206.1,402.23,207.14Z"/><path class="cls-4" d="M395.52,208.67c-.39-.43.8.61-1-1.34-.33-.52.77-.17-.44-2.73.31.34.37-1.58.54-1.39C396.25,201.55,397.93,210.56,395.52,208.67Z"/><path class="cls-6" d="M400.7,202.8c-1.35-1.46,1.92,2.37,1.06,1.43,2,2.34.72,1.87.47,2.91,1.75,1.91-1.46.54-.58,1.49,1.08,2.49-1.43,1.27-2.23,1.54-.65-.71-1.74,0-1.64.06l-.25-.08a3,3,0,0,0-.25-.81c-.88-1,2.34.42.58-1.49.26-1,1.52-.57-.47-2.91.86.94-2.4-2.89-1.05-1.43-1.95-2.27-.81-.52-2.35-1.19.05-1.12,2-.23,2.37-.82-2.2-2.4,3.08,1.5,1.64-.06C400.06,202.53,398.62,200.38,400.7,202.8Z"/></g><g class="cls-7"><path class="cls-2" d="M273.38,64.57c1.75,1.9-1.46.53-.59,1.48,1.09,2.49-1.42,1.27-2.22,1.55-.66-.72-1.75,0-1.64.06-1.57-.57-1.15.49-2.7-1.37-.43-.46.85.65-1.06-1.43-.36-.55.82-.19-.48-2.91.34.36.4-1.69.59-1.48-.79-2.17,1.81-.86,2.22-1.55-2.2-2.4,3.08,1.51,1.64-.06,2.06,1.1.63-1.06,2.7,1.37-1.34-1.47,1.92,2.36,1.06,1.42C274.89,64,273.63,63.53,273.38,64.57Z"/><path class="cls-4" d="M266.67,66.1c-.4-.43.8.61-1-1.34-.33-.52.77-.18-.44-2.74.31.34.37-1.58.55-1.39C267.39,59,269.07,68,266.67,66.1Z"/><path class="cls-6" d="M271.85,60.23c-1.35-1.47,1.91,2.36,1,1.42,2,2.34.73,1.88.48,2.92,1.75,1.9-1.46.53-.59,1.48,1.09,2.49-1.42,1.27-2.22,1.55a1.14,1.14,0,0,0-1.64.05l-.25-.08a3.68,3.68,0,0,0-.25-.81c-.88-1,2.33.42.58-1.48.25-1,1.52-.58-.47-2.92.86.94-2.41-2.89-1.06-1.42-2-2.27-.81-.53-2.35-1.2.05-1.11,2-.22,2.38-.82-2.21-2.4,3.08,1.51,1.64-.06C271.21,60,269.77,57.8,271.85,60.23Z"/></g></g></g></svg>