<svg xmlns="http://www.w3.org/2000/svg" viewBox="0 0 612 608.33"><defs><style>.cls-1{isolation:isolate;}.cls-2{fill:#f9dcab;}.cls-3,.cls-6{fill:#edcc92;}.cls-4{fill:#cba766;}.cls-5{fill:#fff1cb;}.cls-6{mix-blend-mode:multiply;}</style></defs><g class="cls-1"><g id="venus"><path class="cls-2" d="M369.38,170.38C445.3,188.58,514,193.75,571,195.32a285.78,285.78,0,0,0-40.44-69c-45.61-3-96.46-2.94-149.79,8.48-95.67-3.21-199.31,14.1-295,0-3.37-.35-6.72-.72-10.07-1.08a285.88,285.88,0,0,0-37.12,67.68A222.88,222.88,0,0,0,71.16,196C166.82,178.75,273.71,197.55,369.38,170.38Z"/><path class="cls-2" d="M98.37,401.71c95.67-42.08,199.31-2.48,295,0,68.25-31.62,132.38-25.85,186.73-14.43A285.48,285.48,0,0,0,592,319.64c-61.36-31.41-140.42-56.23-225.85,11.42-95.67,10.7-199.31,9.09-295,0-17-.34-33.71.32-50.11,1.45a285.45,285.45,0,0,0,10.87,54.57,172.93,172.93,0,0,1,21.51,10A217.59,217.59,0,0,1,98.37,401.71Z"/><path class="cls-2" d="M275.08,485.11c-59.48-13.52-119.52-34-176.71-.7-3.93,1.43-7.84,2.58-11.74,3.6a288.35,288.35,0,0,0,40.71,39.71C175.66,534.23,225.56,500.06,275.08,485.11Z"/><path class="cls-2" d="M525.44,488c-36.48.82-76.18-3.86-117.75-13.81-4.76,3.11-9.54,6.45-14.34,10.24a128.75,128.75,0,0,1-29.51,8,129.5,129.5,0,0,1,29.51,26,582,582,0,0,0,85.53,13.88A287.77,287.77,0,0,0,525.44,488Z"/><path class="cls-2" d="M366.13,248.36c56.2,31.47,109.63-7.28,157.09-25.08-41.69-7.64-88-19.43-136.72-8.91-14.67,3.17-29.92,1.41-44.14-3.4-88.9-30.14-170.82,4.24-271.2,9.13a199.32,199.32,0,0,0-36.22-8.45,283.59,283.59,0,0,0-11.49,45.86,365.56,365.56,0,0,1,47.71-9.15C166.82,311.19,270.46,328.89,366.13,248.36Z"/><path class="cls-2" d="M306,590.38c6.52,0,13-.29,19.39-.72-40.28-8.56-81.26-18.24-121.88-18.24A285.5,285.5,0,0,0,306,590.38Z"/><path class="cls-3" d="M340.26,481.82a91.41,91.41,0,0,1,23.58,10.62,128.75,128.75,0,0,0,29.51-8c4.8-3.79,9.58-7.13,14.34-10.24-8.9-2.13-17.85-4.42-26.9-7A127.82,127.82,0,0,1,340.26,481.82Z"/><path class="cls-3" d="M580.05,387.29c-1.68,5.51-3.48,11-5.51,16.54C518.73,401.92,452,429.6,380.77,419c-95.65,41.75-199.29,19.58-294.94,0a198.81,198.81,0,0,0-32.41-21.94,220.49,220.49,0,0,1,44.9,4.61c95.76-42.08,199.4-2.47,295.05,0C461.56,370.07,525.7,375.81,580.05,387.29Z"/><path class="cls-3" d="M285.46,482.26c-3.49.9-6.87,1.8-10.36,2.82-59.53-13.51-119.5-34-176.78-.68a108.1,108.1,0,0,1-11.7,3.6,257.81,257.81,0,0,1-16.43-21.6c5.17.33,10.35.56,15.64.78C150.31,438.94,218.5,473.49,285.46,482.26Z"/><path class="cls-4" d="M548.55,456.16A279.62,279.62,0,0,1,525.48,488c-36.57.79-76.18-3.82-117.82-13.84C458,441.42,505.67,444.79,548.55,456.16Z"/><path class="cls-4" d="M53.42,397.08c-6.08-.11-12.15,0-18.12.34-1.12-3.38-2.36-6.87-3.37-10.36A175.56,175.56,0,0,1,53.42,397.08Z"/><path class="cls-4" d="M574.54,403.83a283.22,283.22,0,0,1-26,52.33c-42.88-11.37-90.59-14.74-140.89,18-8.89-2.14-17.78-4.39-26.89-7a128.5,128.5,0,0,1-40.51,14.63c-18.12-5.17-36.46-3.93-54.8.45-67-8.77-135.15-43.32-199.63-15.08-5.29-.22-10.47-.45-15.64-.78a286.32,286.32,0,0,1-34.89-69c6-.34,12-.45,18.12-.34A198.81,198.81,0,0,1,85.83,419c95.65,19.58,199.29,41.75,294.94,0C452,429.6,518.73,401.92,574.54,403.83Z"/><path class="cls-4" d="M579.49,218.72c-17.55-6.64-36.34-2.92-56.26,4.5-41.75-7.54-88-19.35-136.72-8.89-14.63,3.27-29.94,1.47-44.12-3.37-88.89-30.16-170.81,4.27-271.19,9.11A208,208,0,0,0,35,211.63c1.12-3.37,2.36-6.86,3.71-10.24A225,225,0,0,0,71.2,196c95.65-17.22,202.55,1.58,298.2-25.66,76,18.23,144.6,23.41,201.65,25C574.2,203,577,210.73,579.49,218.72Z"/><path class="cls-3" d="M592.43,304c0,5.17-.22,10.46-.45,15.64C530.65,288.26,451.55,263.4,366.14,331c-95.65,10.69-199.29,9.11-294.94,0-17-.34-33.76.33-50.19,1.46-.9-9.34-1.35-18.91-1.35-28.47a286.29,286.29,0,0,1,3.83-46.48,373.34,373.34,0,0,1,47.71-9.22c95.65,62.9,199.29,80.57,294.94,0,56.15,31.5,109.6-7.21,157.09-25.1,20.93,3.94,40.62,6.53,59,4.95A285.68,285.68,0,0,1,592.43,304Z"/><path class="cls-3" d="M523.22,223.28c20.93,3.83,40.65,6.48,59,4.87-.86-3.15-1.71-6.31-2.67-9.41C562,212.11,543.12,215.81,523.22,223.28Z"/><path class="cls-5" d="M530.54,126.34c-45.57-2.93-96.43-2.93-149.77,8.55-95.65-3.27-199.29,14.06-294.94,0-3.38-.45-6.75-.79-10.13-1.13A286.65,286.65,0,0,1,119.25,87c83.5,22.62,171.27,3.49,253.19-15C414,90.1,454.14,90.33,491.38,85.71A289.73,289.73,0,0,1,530.54,126.34Z"/><path class="cls-3" d="M436.92,49.25c-18.34,1.24-37,2.37-56.15,2.93-79.79,24.87-165.2,50.64-246.89,23a286.54,286.54,0,0,1,303-25.89Z"/><path class="cls-3" d="M491.38,85.71C454.14,90.33,414,90.1,372.44,72c-81.92,18.46-169.69,37.59-253.19,15,4.73-4,9.57-8.1,14.63-11.81,81.69,27.68,167.1,1.91,246.89-23,19.13-.56,37.81-1.69,56.15-2.93A293.36,293.36,0,0,1,491.38,85.71Z"/><path class="cls-3" d="M478.89,532.34A284.83,284.83,0,0,1,325.4,589.62c-40.28-8.56-81.24-18.23-121.87-18.23a286.27,286.27,0,0,1-76.18-43.66c48.28,6.52,98.24-27.69,147.75-42.65,29.82,6.86,59.53,11.81,88.79,7.31a133.31,133.31,0,0,1,29.48,26A592.94,592.94,0,0,0,478.89,532.34Z"/><path class="cls-3" d="M285.44,482.3c-3.45.84-6.9,1.76-10.36,2.81,29.87,6.78,59.6,11.76,88.76,7.33a91.41,91.41,0,0,0-23.58-10.62C322.15,485.15,303.85,484.72,285.44,482.3Z"/><path class="cls-3" d="M340.26,481.82c-18.13-5.14-36.44-4-54.82.48C303.85,484.72,322.15,485.15,340.26,481.82Z"/><path class="cls-6" d="M432.84,54.44a261.82,261.82,0,0,1,16.43,21.61,285.93,285.93,0,0,1,34.88,69c1.13,3.37,2.36,6.86,3.38,10.35A282.56,282.56,0,0,1,498.44,210c.9,9.34,1.35,18.9,1.35,28.47A287.38,287.38,0,0,1,496,284.9a370,370,0,0,1-47.6,9.23A360.12,360.12,0,0,0,496.08,285a281.79,281.79,0,0,1-11.59,45.8c-1.13,3.38-2.36,6.87-3.71,10.24h.11A286.46,286.46,0,0,1,400.21,455.5c-4.73,4.05-9.57,8.1-14.63,11.81A286.49,286.49,0,0,1,98.06,500.56a285.44,285.44,0,0,0,22.65,21.74,293.28,293.28,0,0,0,54.47,36.46,286.56,286.56,0,0,0,303-25.88c5.06-3.71,9.9-7.76,14.62-11.81a286.34,286.34,0,0,0,80.69-114.45h-.11c1.35-3.37,2.58-6.86,3.71-10.24a281.94,281.94,0,0,0,11.59-45.79A361.71,361.71,0,0,1,541,359.7a370,370,0,0,0,47.6-9.23A287.29,287.29,0,0,0,592.43,304c0-9.57-.45-19.13-1.35-28.47A282.56,282.56,0,0,0,580.17,221c-1-3.49-2.25-7-3.38-10.35a285.93,285.93,0,0,0-34.88-69A261.82,261.82,0,0,0,525.48,120a289.85,289.85,0,0,0-40.74-39.72,286.67,286.67,0,0,0-63.35-38.17C425.25,46.2,429.25,50.15,432.84,54.44Z"/></g></g></svg>