<svg xmlns="http://www.w3.org/2000/svg" viewBox="0 0 612 608.33"><defs><style>.cls-1{isolation:isolate;}.cls-2,.cls-3{fill:#818083;}.cls-3{opacity:0.27;mix-blend-mode:multiply;}.cls-4{fill:#554f51;opacity:0.52;}</style></defs><g class="cls-1"><g id="mercury"><path class="cls-2" d="M592.7,304.06A286.78,286.78,0,0,1,341,588.48,269.6,269.6,0,0,1,306,590.66,286.72,286.72,0,0,1,41.37,193.87C84.44,90.22,186.7,17.36,306,17.36c6.53,0,13,.19,19.3.69a286.31,286.31,0,0,1,242.25,168.5s.1,0,0,.09a279.94,279.94,0,0,1,24.36,97.12C592.5,290.4,592.7,297.23,592.7,304.06Z"/><path class="cls-3" d="M592.7,304c0,158.3-128.4,286.7-286.7,286.7a284.88,284.88,0,0,1-185-67.81,286.14,286.14,0,0,0,70.59,8.81c158.39,0,286.7-128.31,286.7-286.7A285.67,285.67,0,0,0,376.58,26.07C500.73,57.45,592.7,169.91,592.7,304Z"/><path class="cls-4" d="M337.38,79.73c0,40.09-21.28,54.35-55.64,96.12-34.45,18.12-82-23.16-134.44,39.9-39.2-29.5-75.63-14.35-105.93-21.88C84.44,90.22,186.7,17.36,306,17.36c6.53,0,13,.19,19.3.69C333.12,40.32,337.38,66.36,337.38,79.73Z"/><path class="cls-4" d="M354.21,285.83c0,14.59,12.8-3.54,33.48,80.83,20.69,58.57,49.26,68.86,80.83,33.48,31.56,55.27,60.14-3.78,80.83-33.48,20.68-58.32,42.56-94.26,42.56-82.9,0-41-27.15-85.58-42.56-78.76-20.69-36.57-49.27,52.7-80.83-33.47-31.57,25.39-60.14-38-80.83,33.47C367,267,354.21,160.91,354.21,285.83Z"/><path class="cls-4" d="M523.5,490.67A285.5,285.5,0,0,1,341,588.48c-2.38-2.28-3.57-3.66-3.57-8.21,0-124.94,12.87-18.91,33.56-80.89,20.69-71.38,49.2-8,80.79-33.46C479,540.17,503.9,484.24,523.5,490.67Z"/><path class="cls-4" d="M306,508.69c0,27.92-18.61,24.95-48.81,76.72-14.85-19-32.57-20.89-52.27-13.16a286.93,286.93,0,0,1-164.73-161c27.72-16.23,62.07,12.87,99.19-11.18,46,51.48,87.72-2.48,117.81,31.87C287.39,505.82,306,444.24,306,508.69Z"/></g></g></svg>