<svg id="sun" xmlns="http://www.w3.org/2000/svg" viewBox="0 0 612 608.33"><defs><style>.cls-1{fill:#f1b627;}.cls-2{fill:#30160d;}.cls-3{fill:#f9f293;}</style></defs><path class="cls-1" d="M493.54,87.18A285.53,285.53,0,0,0,306,17.36a290.61,290.61,0,0,0-34.73,2.08h0a284.42,284.42,0,0,0-93.67,28.23,288,288,0,0,0-82.75,62.49v0a286.95,286.95,0,0,0-73.67,226s0,0,0,.06A283.85,283.85,0,0,0,45.67,424s0,0,0,0q4.23,9.24,9.14,18.09v0s0,0,0,0c1.55,2.79,3.14,5.57,4.76,8.31,0,0,0,0,0,0A286.81,286.81,0,0,0,440.91,557q8-4.28,15.77-9.08A287.3,287.3,0,0,0,579.55,390.1q3.68-11.69,6.35-23.8a287.21,287.21,0,0,0-49.38-232.76v0c-2.62-3.51-5.26-6.93-8-10.32a290,290,0,0,0-24.07-26.1Z"/><g id="_5BI7z2" data-name="5BI7z2"><path class="cls-2" d="M489,49.77l-.06.06.08,0Zm-.07-.44.07.44.17-.11ZM71.32,503.14c-.23.06-.61.1-.63.17a2.67,2.67,0,0,0,.17.77l.65-.19C71.44,503.64,71.38,503.39,71.32,503.14Z"/><path class="cls-1" d="M536.52,133.54c0,1.34-.09,2.66-.17,4q-.06,1.26-.15,2.49c-.08,1-.14,2-.21,2.93s-.19,2.12-.29,3.2c-.1.8-.17,1.62-.25,2.43-.11,1.09-.23,2.18-.36,3.25-.4,3.64-.84,7.28-1.27,10.94s-.17,7.79-4.92,8.9c-4.36,1-8.82.46-12.23-2.45-8.46-7.32-7.72-18.06,1.4-24.53a20.26,20.26,0,0,0,3.42-3.16,13.51,13.51,0,0,0,.88-1.09c.25-.33.5-.65.73-1s.44-.65.65-1c.46-.75.9-1.51,1.31-2.32.22-.42.42-.84.61-1.28a28.6,28.6,0,0,0,1.3-3.37c.15-.44.29-.88.4-1.32s.29-1.09.4-1.63a10.08,10.08,0,0,0,.25-1.24,26.15,26.15,0,0,0,.39-2.86c0-.36.07-.72.07-1.09a.44.44,0,0,0,0-.15,290,290,0,0,0-24.07-26.1c1.38,3,3.43,5.71,5.06,8.62.71,1.26,1.15,2.77-.17,3.9-1.61,1.4-3.3.81-4.48-.63-2.17-2.6-4.92-4.56-6.72-7.64-2.55-4.34-7-6.53-11.17-7.41-4.5-.13-7.14,2.4-10.18,3.85-3.6,1.71-6.95,2.68-10.11-.86-1.9-2.13-4.56-4.14-2.62-7.31s4.82-2.34,7.56-1c3.54,1.82,6.8,2.24,10.32-.54a8.09,8.09,0,0,1,5.21-1.66l1,0c.33,0,.65.06,1,.1l1,.13c1.13.16,2.28.37,3.43.46A285.53,285.53,0,0,0,306,17.36a290.61,290.61,0,0,0-34.73,2.08c.93.2,1.87.39,2.83.56s1.72.29,2.59.42,1.81.23,2.71.33l1.38.13c.65.06,1.3.1,2,.13,1.87.1,4.53.39,4.63,2.91s-2.36,2.95-4.23,3.58c-4.64,1.54-9.4,2.76-11.05,8.39-2,6.85.33,9.82,7.45,9.19,2-.17,5-2.53,5.38,1.13.23,2.45-2.15,4.48-5.25,4.65-1.66.1-3.79.08-4.86,1.06-1.76,1.59-4.62,3.19-3.7,6.2s3.49.4,5.13,1c6.55,2.27,13,5.22,17.81-3.22a3.69,3.69,0,0,1,6,0c1.53,2.09-.61,3.43-2.1,4.86C287.29,71,284,86.63,289.9,99.5c1.49,3.27,2.05,6.52.8,10l1,1-.9.57c-.14-.44-.27-.88-.4-1.3-12.18-13.19-25.12-3.77-37.66-1a9.86,9.86,0,0,0-2.34.86l113.35,96.58a1.54,1.54,0,0,1,.19-.17c8-7.26,14.63-6,19.6,3.35.85,1.59,1.84,3.83.48,4.74-.17.12-.32.23-.48.33l-.86.65q-.37.31-.69.63c-.11.1-.21.21-.3.31a3.75,3.75,0,0,0-1.27,3.16l.06.3a4.56,4.56,0,0,0,.15.48,4.15,4.15,0,0,0,.29.6c.12.17.23.36.36.55,0,0,0,0,0,0l42.91,36.55c.08-.29.15-.59.25-.88,1.44-4.5,5-4.65,8.25-4.42,6.3.46,10.92-1.36,14.67-6.68,2.83-4,7.35-4.64,12.31-3.93,7.37,1.07,11-2.28,8.79-8.92-1.4-4.2.67-4.83,2.89-5.11,2.79-.37,4.9-.35,7.2-2.93,2.08-2.36,4.69.51,6.09,2.68,3,4.57,1.66,9.24.11,14-2.62,8.1-5.72,15.87.12,24.53,3.75,5.57-1.71,14.93-8.45,17-4.69,1.4-7.77,6.59-8.4,12L537,353.82a29.84,29.84,0,0,0,.89-5c.79-8.42,8.54-15.64,16.39-15.57,2.32,0,3.07,1.61,3.32,3.24.78,5.25,4.09,10.26,1.26,15.83-1,2.09-.8,4.14,1.88,4.62,2.12.38,3-1.4,3.37-3.14.51-2.82.3-5.86,1.3-8.44,1.53-4,4.8-7.15,9.27-5.73,4.07,1.3,2.31,5.09,1.6,8.14-2.52,11.05-5,22.09-7.44,33.16l10.76,9.17a56.91,56.91,0,0,1,6.35-23.8,287.21,287.21,0,0,0-49.38-232.76ZM352.28,103.29c-5.17,7.83-11.55,13.95-21.16,15.87-3.92-1.13-7.77-2.15-11.58-3.35-1.46-.46-2.91-2.38-2.13-3.16,4.73-4.79.59-13.19,3.37-15.51,6.38-5.34,10.42-12.27,16.12-17.81,1.44-1.37,7.74-1.64,8.6,4.29A42.68,42.68,0,0,0,348,91.8C349.33,95.65,356.2,97.35,352.28,103.29Zm24.58,7.31c-4.13,6.53-9.88,1.57-15.24.8,4.79-1.68,2.45-12.15,10.59-8.52C374.35,103.86,379.33,106.71,376.86,110.6Zm11.55,42.18a5.41,5.41,0,0,1-.25.71,4,4,0,0,1-.81,1.26,3.79,3.79,0,0,1-3.19,1.07c-2.72-.21-3.93-1.95-3.64-4.61a3.63,3.63,0,0,1,3.92-3.54,5.61,5.61,0,0,1,.94.07,2.08,2.08,0,0,1,.63.16,1.59,1.59,0,0,1,.33.09,10.68,10.68,0,0,1,.67.33,2.32,2.32,0,0,1,.42.32s0,0,0,0a1.9,1.9,0,0,1,.19.21,2.19,2.19,0,0,1,.29.39,1.88,1.88,0,0,1,.32.63c0,.07.06.15.1.23a3.09,3.09,0,0,1,.11.48.2.2,0,0,1,0,.11.47.47,0,0,1,0,.23,1,1,0,0,1,0,.42,3.47,3.47,0,0,1,0,.44,6.55,6.55,0,0,1-.17.86A.15.15,0,0,1,388.41,152.78Zm30.08,57.27c-1.77,2.26-3.64,3-5.44.28-2-2.93-6.49-6.56-6.63-7.39-1.24-8.25-6.83-6.51-12.19-6.93-5.77-.44-7.28-4.09-4-9,2.93-4.33,5.73-8.44,4.47-14.17-.52-2.39-.5-5.8,3.35-5.45,3.23.28,6.58,2.06,5.63,6-1.8,7.43,2.1,9.76,8.11,12.39,6.36,2.77,8.62,9.09,8.24,16.83A8.66,8.66,0,0,1,418.49,210.05Zm53-76.44c-6.64-.32-8.25-6.39-9.09-11.87-1.06-6.95,5.66-2.43,7.39-5,5.66-.07,8.52,2.74,8.63,7.76C478.55,129.13,476.54,133.86,471.52,133.61ZM490.46,125c-3.26-2.68-2.11-8.14.69-10,5.53-3.71,8.92,2.34,14.09,5.33C499.92,123,496.57,130,490.46,125ZM56.37,355.73l0,0a.3.3,0,0,0,.11,0Zm22.82-15.49a2.44,2.44,0,0,0-2.85,2.36c0,2.16,1,3.94,3.43,3.9,1.57,0,2.35-1.28,2.37-2.89C82,341.76,81.28,340.36,79.19,340.24ZM364.84,441c-1.63,0-2.78.9-2.78,2.59,0,2.24,1.65,2.76,3.52,2.68a2.66,2.66,0,0,0,2.93-2.74A3.42,3.42,0,0,0,364.84,441ZM112.12,338.69c-2.64.46-5,1.57-5.32,4.67-.17,1.65.79,2.65,2.8,2.68a6.88,6.88,0,0,0,5.62-5.39C115.57,339,113.54,338.46,112.12,338.69Zm125.32,84.86c-1.21-.1-2.55.86-2.19,2,1.32,4.19,5.4,4.35,9.69,6.18C244.08,426.23,241.67,423.86,237.44,423.55ZM139.27,235.34c-2.51-.12-4.59.94-4.76,3.66-.22,3.25,2.31,4.11,5.07,4.73,2.49-.25,4.19-1.61,4.13-4.26S141.84,235.44,139.27,235.34ZM301,514.15c-2.73-.5-3.33,1.67-3.79,3.6-.57,2.3.23,4.1,2.84,4.06s4.11-1.61,4.92-4.23C304.85,515.2,303,514.51,301,514.15ZM164.2,365c-.52-2.81-1.65-5.8-4.84-6.16-2.57-.31-4.1,1.87-3.87,4.44.31,3.43,3,4.42,6,4.92C163.82,368.33,164.55,366.82,164.2,365Zm8,4.42c-3.79-.07-3.81,3.74-4.11,6.42-.29,2.47,1.59,5.11,3.65,5.07,3.37-.07,3-3.48,3.18-5.91C174.64,372.7,175.13,369.42,172.22,369.38Zm199-112.77c-2.18-.84-4-1.19-4,2.15.08,3.71,2.09,6,5.57,6.49,3,.4,5-1.46,5.11-4.48C378.11,255.73,374.09,256.94,371.21,256.61ZM130.89,461.29c7.75,9.51,1.51,15.77-1,22.9C142.55,477.14,143.71,468.06,130.89,461.29Zm44.88-153.48a9.72,9.72,0,0,0-12.45-2.59c-3.45,1.73-4.38,5.5-3.39,9,1.53,5.48,6.53,3.18,10.25,3.89,3.5-.57,8.27,1.38,10.1-2.66C181.66,312.35,177.6,310.07,175.77,307.81Zm26,123.28c-3.33-3.44-7.52-3.83-11.77-1.59-3.5,1.84-7,3.78-10.34,5.9-1.76,1.13-5.11,1.44-4.44,4.33s3.64,1.76,6,1.74c3-1.44,5.11.79,7.49,2.34,4.8,3.12,8.23.49,10.81-3.2C201.5,437.89,205.63,435.06,201.8,431.09Zm188.2-182c-8.12-.18-9.94-8.91-16.2-11.38-8.83-3.48-13.23-9.38-10.92-18.84,9.64-2,13.27,6,18.67,11,1.44,1.36,2.85,3.54,5,1.88,2.6-2.07.44-4-.84-5.9a31.33,31.33,0,0,0-3.35-3.52,8,8,0,0,1-.56-.6c-.17-.19-.32-.38-.48-.59,0,0,0,0,0,0l-17.53-14.93c-3.53,3.21-6.51,7-11.93,7.08-2.59.06-2.76,1.86-2.74,4.25,0,6.59,5.46,11.62,4.77,18.46-.19,1.72,2.35,3,4.59,3.06,2.55.06,5,1.42,5.48,3.53,2.87,12,14.68,8.67,22,13a3.84,3.84,0,0,0,5.11-2C391.76,251.88,391.41,249.11,390,249.09ZM154.78,388.63c2.49-.77,7-.41,6.51-3.93s-4.88-3.22-7.93-3.46c-5-.43-8.61-3.85-6.35-7.78,5-8.69-2.68-17.29,1.3-23.84-.38-4.26,2.26-7.71-1.88-9.09a7.33,7.33,0,0,0-9.05,3c-3.47,5.11-9.1,5.38-14.32,6.53-3.93.86-10.15-.46-9.35,5.85.58,4.64-2.22,13.58,8.5,11.74,1.86-.32,3.18,1.51,3.85,3,2.74,6.09,8,9.15,13.48,12.25,4.69,2.66,8.85,5.42,5.29,12.66-2.26,4.57,2.94,7.45,6.66,9.61,2.08,1.22,5.11,1.45,6.26-.65,2.41-4.44-1.71-6.51-4.37-8.87C149.71,392.42,149.57,390.2,154.78,388.63ZM257.12,247.27c-9.75-7.07-20.85-11.66-33.32-11.47-3,0-4,1.82-5.13,4.59-2.79,6.72.67,14.88-4.59,20.64-5.06,5.54-5.11,11.78-4.39,18.42.31,2.84,1.31,6.82-2.05,7.53-10.35,2.22-8.25,9.9-8.25,19.14.14,1.69.48,5.69.84,9.67.18,1.94-.26,4.48,2.34,4.92,3.6.62,5.78-2.16,7.89-4.4,2.47-2.64-.8-3-1.93-4.31-4.93-5.7-.2-9.46,3.12-13.17,3.79-4.25,5.17-.65,7.52,2.22s5.8,4.52,9,6.4c4.19,2.48,6.34,1,6.74-3.82.73-9.2-1.24-11.87-10-12.23-3.14-.13-5.69-1.47-5.38-4.19.65-5.79,2.72,0,4.13-.21s1.5-1.52,1.61-2.61c.52-5.51,4.44-8.33,8.62-11,6.62-4.23,7.94,3,11.52,5.29,2.34,1.51,4.64,4.53,7.57,2.73,2.75-1.7.65-4.86,0-7.1-1.61-5.78-1-12.79,3.56-14.72C267,255.1,259.53,249,257.12,247.27Zm45.66,231.82c-11.16-8.44-35.26-6-44.26,4.64-1.9,2.24-4.25,2.75-6.9,2.75-5.15,0-10.3-.05-15.47-.11-3.31,0-6.81-.79-7.83-4.14-2.16-7.1-7.16-8.77-13.74-9.17-2.67-.15-6.32-1.32-7.66-3.29-5.13-7.6-12.79-9.25-20.89-11.43-8.45-2.3-11.11,3.85-13.67,8.5-2.76,5,1.41,8.29,6.24,9.8,5.36,1.67,6.41,4.6,3.85,9.65-3.53,6.93,1.64,13.18,6.32,13.4,12,.56,11,7.84,9.82,15.21-.67,4.19.88,5.11,4.08,5.66,6.35,1.13,11.35.43,12.59-7.5.83-5.25,3.76-11.24,8.87-11.32,6.16-.09,8.19,6.95,10.45,12,.88,1.93.27,4.21,3.07,5.4,8.69,3.69,17.31,7.48,25,6.62,4.6.71,6.57-.15,7.78-2.47,2.62-5,9.68-7.81,7.85-15.18,7.4-1.26,12.86-6.11,19.08-9.67,2.36-1.36,6-.21,6.57-4.5C304.68,488.9,308.89,483.69,302.78,479.09Zm97.92-6.39c0,.06.06.11.08.17s.05,0,.07,0,0-.1,0-.15Zm-.38-.81a3.44,3.44,0,0,0-.9-1.09,2.51,2.51,0,0,0-.54-.28,2.62,2.62,0,0,0-1.09-.2,7,7,0,0,0-2.34.48l1.63.58c1.23.44,2.18.8,3.08,1.13l.54.19A6,6,0,0,0,400.32,471.89Zm169.35-86.23c-1.92-1.34-1.25-3.05-.92-4.6,0,0,0-.09,0-.13L537,353.82c-1.35,4.86-4.16,8.79-9.39,10.39-4.19,1.29-5.13,3.49-6.1,6.88-4.18,14.45-11.72,26.44-25,34.44-3.14,1.92-5.4,2.59-8.41.19s-1.66-4.61-1.09-7.58c2-10.2,4.69-20.45-3-30.08-3.63-4.59.87-22.63,5.67-23.07,14.28-1.3,2.43-5.32,1.27-8.29s-3.89-2.81-6.3-3.66c-7.89-2.77-9.48-8.31-3.58-13.9,4-3.79,3.33-5.4-1.36-6.85a20.32,20.32,0,0,1-8.47-5.78c-2.77-2.88-3.71-7.22-3.21-11.41l-43.83-37.34c-.9,3.71.25,6.51,2.87,9.19s5.4,5.19,7.49,8.21c1.4,2,2.16,6.19-1.95,5.44-9.85-1.82-20.76.37-29.24-7.16-1.3-1.15-2.6-3.39-5-1.55-.29,1.9,1.53,2.34,2.2,3.5,2.74,4.75,1.76,9.33-.94,13.71-1.82,3-3.71,5.75-8,5.29-14-1.52-25.66-7.85-36-17-6-5.35-7.71-16.32-19.43-14.27-2.05.37-1.9-3.14-2.87-4.78-1.57-2.63-2.93-6.19-7.07-3-3.29,2.51-7,3.62-9.95.13-3.11-3.67-2.67-8.09.15-11.92a72.94,72.94,0,0,1,6.3-7c2.22-2.28,4-5.25.76-7.2-8-4.79-11.29-12.14-13.4-20.6-.67-2.74-3.75-3.51-6.24-3.91-2.32-.36-2.39,1.95-2.78,3.56-2.6,11.15-5,22.35-7.88,33.41-1.15,4.45-.6,8,3.06,10.73,6,4.49,4.08,9-.48,12.63-5.51,4.42-11.51,8.24-17.44,12.1-1.4.92-3.89,1.29-3.24,3.26,4.6,14.19-4,7.22-9.28,6-2.76-.63-6.78-2.81-8.05,1.47-2,6.73,6.17,20.32,13,21.95,2.95.71,6.56-.77,9.26.3,5.08,2,7.59,1.78,9.06-4.25.86-3.54,4.37-6.81,8.54-3,6.11,5.49,13.46,9.55,18.51,16.33,2.23,3,3.78,4.65,1.08,8.73-3.2,4.83-2.17,13.12,2.47,14.23,10.58,2.52,10.47,8.4,9.07,16.5-.55,3.24,1.32,6.38,5,4,8.54-5.51,18-9.45,25.58-16.69,10-9.61,20.52-17.83,35-21.46,8.21-2.05,19.43-3.62,23.07-15.32,1.15-3.68,6.26-3.75,9.9-1.9A71.63,71.63,0,0,1,438.36,314c4.17,3.18,7.95,4.68,13.38,2.38,6.09-2.59,10.23.88,9.79,7.37-.37,5.3.32,9.23,7.14,8.62,3.79-.33,7,1.68,5.05,5.55-6.68,13.25-1.91,28.3-7.18,41.76-2.18,5.57.12,9.76,5.79,12.52,6.35,3.08,7.1,10,2.5,15.7-6,7.45-9.88,16.14-8.25,25.6,1.25,7.24,3.31,13.08-7.14,13.61a6,6,0,0,0-4.06,2.93c-5.9,11.07-12,22-17.14,33.43-3.29,7.28-9.78,8.5-16.56,4.65-7.64-4.34-12.58-12-20.83-15.16-.29,2.74,4.81,5.74.29,7.93-3.52,1.7-5.76-1.52-7.1-4.52-1.78-4-5.4-5.15-9-5.73-5.15-.78-9.34,2.59-13.61,4.62-6.28,3-11.13,2.73-16.28-2.38-4.33-4.29-9.46-7.29-13.48,1.15-1.89,4-5.95,5.38-10.22,4.94s-6.17-3.85-7.39-7.52c-.81-2.44-1.17-5-2-7.43-1.8-5.27-6-3.74-9.35-2.61-4.46,1.54-2.1,4.43-.42,6.76,1.42,2,2.36,4.12,1.84,6.44-1.65,7.48,2.49,9.09,8.62,8.9,13.61-.42,27.2-.81,40.16,4.57a9.88,9.88,0,0,0,3.41.31c7.16.27,10,4.65,6.53,11-1.42,2.62-2.62,4.85-2,8,1.05,5.2-2.53,9.34-4.37,13.59-1.6,3.73-6.22,0-9.45.46a13.94,13.94,0,0,0-4.16.94c-5.36,2.64-6.91-1.65-7.91-4.94-1.37-4.52,1.94-6,5.88-6.24a54.65,54.65,0,0,0,6.78-.5,3.37,3.37,0,0,0,2.2-2.18c.33-1.86-1.28-2.17-2.76-2.46-6.85-1.34-18.05,5.83-21.27,14.4-2.64,7,2.63,12.37,6.78,16.18,4.69,4.33,4.75,7.22,2.07,12.29-2.07,3.87-7.79,4.5-8.25,8.06-1.09,8.28-7.28,9.31-13.12,11.47a42.22,42.22,0,0,0-6.83,3.55c-2.47,1.47-5.25,3.12-4.1,6.66s4.21,3,7.18,2.83c4.86-.38,9.72-.67,14.59-.67,11.45,0,17.15-4.9,22.86-14.66,5.44-9.31,5.9-21.24,15.62-28.4,5-3.69,8.35-3.64,13.69-.4,7.2,4.36,7.32,11.87,10.49,18,.87,1.61,1.79,3.42,3.76,2.47A22.91,22.91,0,0,0,410,549.3c1.23-2-1.28-2.62-2.75-3.39-5.57-2.89-2.87-5.15.67-7.06,8.75-4.71,18.21-2.7,26,3.43,5.13,4.06,7,8.42,7.05,14.51V557l15.77-9.08a3.9,3.9,0,0,0,.18-.67c1.58-8.55,7.85-13.32,14.43-17.19,13-7.64,22-18.32,28.32-31.9,1.93-4.19-.15-9.76-1.05-9.78-9.4-.15-17.37-9.78-27.54-4.12-2.24,1.27-4.92.85-5.74-1.84-2.74-9,1.47-17,5.4-24.39,3.08-5.86,10.3-5.84,15.53-3.85,12.1,4.58,21-3,31-6.47,3.45-1.2,6.93-5.84,10.8-2,3.28,3.24.54,7.2-1.11,10.32-2,3.77-4.88,7-7.2,10.63-.9,1.38-1.91,3.25-.74,4.78,1.41,1.86,3.08.12,4.61-.34,7-2.2,12.23-7.28,17.9-11.62,9.08-6.91,9.42-16.43,8.81-26.71-.5-8.25,2.6-16,6.39-23.28,3-5.77,9.71-6.7,14-10.82C576.58,393,576.44,390.43,569.67,385.66Z"/><path class="cls-1" d="M251.51,168.67c-2.16,1.55-4,5.06-7.3,2.68-6-4.36-8-.3-10.12,4.16-4.39,9.21-9.37,18.09-11.51,28.31-1.34,6.44-6,6.69-12.18,3.57-6.51-3.26-14.09-3.7-21.31-3.37a6.92,6.92,0,0,0-6.53,7c.35,7.62-3.94,8.68-10.14,9.33-7.43.8-13.14-.5-19.8-4.87-5.94-3.86-14.84-3.52-22.5-4.34-5.86-.63-11.1-.56-16.81-4.31-4.94-3.24-12.71-.06-18.5,2.51-5.11,2.28-9,3.1-13-1.38-2.35-2.6-5.68-2.24-8.88-1.93a24.64,24.64,0,0,1-6.8.11c-10.09-1.93-14.47.88-16,11.45-1,7.07-2,14.17-1.67,21.41.31,5.82-1.07,10.85-7.93,12.42-5.15,1.19-5.13,6-5.41,9.69-.48,6.11-2.8,11.68-3.87,17.52-3.87,21.14-6.7,42.81,1.3,63.22a12.58,12.58,0,0,0,.71,1.53c.13.25.29.5.44.75a13.82,13.82,0,0,0,1.47,2c4.16,4.71,11.22,7.2,18,8.9q1.57.41,3.12.75c-2.13,2.16-4,4.31-4.79,6.49a4,4,0,0,0-.26.92c-.52,2.51.65,5.07,4.86,7.74,1.17.72,1.68,3,1.89,4.59.77,5.88,4.52,5.8,8.83,4.65,1.84-.49,4.77-2.41,5.23-1.91,8.23,9.15,22.88,10.17,28.54,22.32a9.23,9.23,0,0,1,.9,6.11,3.63,3.63,0,0,1-.15.54,8.11,8.11,0,0,1-1.36,2.56,14.54,14.54,0,0,1-1,1.11,23.51,23.51,0,0,1-4.68,3.41c0,.58.06,1.13.12,1.69a15.57,15.57,0,0,0,.31,2,18.05,18.05,0,0,0,1.81,5,15.72,15.72,0,0,0,1,1.66c.17.29.38.58.57.84l.86,1.08a28.48,28.48,0,0,0,5.25,4.65c3.91,2.72,6.63,5.19.75,8.71-2.26,1.36-2.43,3.26-1.57,5.92,2,6.09.84,10.87-6.74,11.66-3.75.36-5.84,2.1-5.48,6.11s3,5.11,6.42,5.76c13.84,2.62,13.9,2.64,16.4,17.29.46,2.64,1.67,4.59,4,4.94,7.18,1.07,11.39,7.31,17.84,9.7,5.65,2.11,4.63,8,5.51,12.51.27,1.34-1.57,2.79-3,2.28-4.23-1.5-9.35-.81-12.64-4.48-3-3.34-5.47-8.31-8.19.21-.69,2.16-2.89,1.76-4,.09-2.24-3.27-5.52-6.49-4.69-10.74,1.26-6.6-2.4-9.69-7.47-11.77-11.07-4.56-19.11-12.68-25.66-22.16-3.31-4.8-8-8.46-12.17-12.48l-1-1q-1.55-1.53-2.93-3.16s0,0,0,0A30.49,30.49,0,0,1,57,446.79a10,10,0,0,1-.57-1A22.46,22.46,0,0,1,55,442.5c0-.09-.08-.21-.11-.3s0,0,0,0v0c-.27-.8-.56-1.59-.86-2.37s-.62-1.61-.94-2.42-.58-1.41-.88-2.1a58.17,58.17,0,0,0-3-6c-.44-.78-.9-1.55-1.4-2.29a.33.33,0,0,0-.11-.18c-.23-.38-.5-.76-.77-1.15-.38-.55-.78-1.09-1.19-1.62,0,0,0,0,0,0L21.2,336.28s0,0,0-.06c-.6-15.26-.37-30.52.28-45.78.16-4.06.37-8.13.6-12.19.25-4.56.51-9.14.82-13.71,1.36-21,8.65-41.21,16.24-61.18S54.55,164,67.65,147.09c7.69-9.93,15.66-19.68,23.7-29.35a19.23,19.23,0,0,0,3.27-6.81c.08-.25.18-.5.25-.75v0a288,288,0,0,1,82.75-62.49l72.76,62c-2.72,1.34-5.23,3.58-8.44,4.16-1.23.21-3.32,1.91-3.16,2.47,1.64,6.62-2.07,9.55-7.37,11.77-.64.25-.67,1.94-1,3,8.17,1.72,3.52,11.33,9.73,15.2s5.43,13.62,12.12,18.08C254,165.42,253,167.54,251.51,168.67Z"/><path class="cls-3" d="M165.46,158.16c-5.26-3.68-7.25-9.38-10.09-14.63-1.3-2.41-3.86-2.05-6.16-2-2.47-.23-5.11,0-5,3.1.15,3.33-4.17,7.66-.67,9.42,5.94,3,10.26,8.31,16.6,10.4a4.51,4.51,0,0,0,5.4-1.53C166.65,161.4,166.79,159.08,165.46,158.16Zm20.43,22c-1.85.15-3.17,1.15-2.94,3.22a3,3,0,0,0,3.44,2.85c1.86-.11,3.12-1,3-3.18C188.88,181.23,187.9,180,185.89,180.12ZM56.37,355.73l0,0a.3.3,0,0,0,.11,0Zm37.1,57.4a8.47,8.47,0,0,1,.54.79c-.36-.33-.71-.67-1.09-1C93.11,413,93.36,413,93.47,413.13ZM21.2,336.28s0,0,0-.06c-.6-15.26-.37-30.52.28-45.78.16-4.06.37-8.13.6-12.19.25-4.56.51-9.14.82-13.71,1.36-21,8.65-41.21,16.24-61.18S54.55,164,67.65,147.09c7.69-9.93,15.66-19.68,23.7-29.35a19.23,19.23,0,0,0,3.27-6.81c.08-.25.18-.5.25-.75v0a288,288,0,0,1,82.75-62.49,284.42,284.42,0,0,1,93.67-28.23h0c.93.2,1.87.39,2.83.56s1.72.29,2.59.42,1.81.23,2.71.33l1.38.13c.65.06,1.3.1,2,.13,1.87.1,4.53.39,4.63,2.91s-2.36,2.95-4.23,3.58c-4.64,1.54-9.4,2.76-11.05,8.39-2,6.85.33,9.82,7.45,9.19,2-.17,5-2.53,5.38,1.13.23,2.45-2.15,4.48-5.25,4.65-1.66.1-3.79.08-4.86,1.06-1.76,1.59-4.62,3.19-3.7,6.2s3.49.4,5.13,1c6.55,2.27,13,5.22,17.81-3.22a3.69,3.69,0,0,1,6,0c1.53,2.09-.61,3.43-2.1,4.86C287.29,71,284,86.63,289.9,99.5c1.49,3.27,2.05,6.52.8,10l-.32.25c-12.18-13.19-25.12-3.77-37.66-1a9.86,9.86,0,0,0-2.34.86c-2.72,1.34-5.23,3.58-8.44,4.16-1.23.21-3.32,1.91-3.16,2.47,1.64,6.62-2.07,9.55-7.37,11.77-.64.25-.67,1.94-1,3,8.17,1.72,3.52,11.33,9.73,15.2s5.43,13.62,12.12,18.08c1.68,1.13.76,3.25-.77,4.38-2.16,1.55-4,5.06-7.3,2.68-6-4.36-8-.3-10.12,4.16-4.39,9.21-9.37,18.09-11.51,28.31-1.34,6.44-6,6.69-12.18,3.57-6.51-3.26-14.09-3.7-21.31-3.37a6.92,6.92,0,0,0-6.53,7c.35,7.62-3.94,8.68-10.14,9.33-7.43.8-13.14-.5-19.8-4.87-5.94-3.86-14.84-3.52-22.5-4.34-5.86-.63-11.1-.56-16.81-4.31-4.94-3.24-12.71-.06-18.5,2.51-5.11,2.28-9,3.1-13-1.38-2.35-2.6-5.68-2.24-8.88-1.93a24.64,24.64,0,0,1-6.8.11c-10.09-1.93-14.47.88-16,11.45-1,7.07-2,14.17-1.67,21.41.31,5.82-1.07,10.85-7.93,12.42-5.15,1.19-5.13,6-5.41,9.69-.48,6.11-2.8,11.68-3.87,17.52-3.87,21.14-6.7,42.81,1.3,63.22a12.58,12.58,0,0,0,.71,1.53c.13.25.29.5.44.75a17,17,0,0,0,1.47,2c4.16,4.71,11.22,7.2,18,8.9q1.57.41,3.12.75c-2.13,2.16-4,4.31-4.79,6.49a4,4,0,0,0-.26.92c-.52,2.51.65,5.07,4.86,7.74,1.17.72,1.68,3,1.89,4.59.77,5.88,4.52,5.8,8.83,4.65,1.84-.49,4.77-2.41,5.23-1.91,8.23,9.15,22.88,10.17,28.54,22.32a9.23,9.23,0,0,1,.9,6.11,3.63,3.63,0,0,1-.15.54,8.11,8.11,0,0,1-1.36,2.56,14.54,14.54,0,0,1-1,1.11,23.51,23.51,0,0,1-4.68,3.41c0,.58.06,1.13.12,1.69a15.57,15.57,0,0,0,.31,2,18.05,18.05,0,0,0,1.81,5,15.72,15.72,0,0,0,1,1.66c.17.29.38.58.57.84l.86,1.08a28.48,28.48,0,0,0,5.25,4.65c3.91,2.72,6.63,5.19.75,8.71-2.26,1.36-2.43,3.26-1.57,5.92,2,6.09.84,10.87-6.74,11.66-3.75.36-5.84,2.1-5.48,6.11s3,5.11,6.42,5.76c13.84,2.62,13.9,2.64,16.4,17.29.46,2.64,1.67,4.59,4,4.94,7.18,1.07,11.39,7.31,17.84,9.7,5.65,2.11,4.63,8,5.51,12.51.27,1.34-1.57,2.79-3,2.28-4.23-1.5-9.35-.81-12.64-4.48-3-3.34-5.47-8.31-8.19.21-.69,2.16-2.89,1.76-4,.09-2.24-3.27-5.52-6.49-4.69-10.74,1.26-6.6-2.4-9.69-7.47-11.77-11.07-4.56-19.11-12.68-25.66-22.16-3.31-4.8-8-8.46-12.17-12.48l-1-1q-1.55-1.53-2.93-3.16s0,0,0,0A30.49,30.49,0,0,1,57,446.79a10,10,0,0,1-.57-1A22.46,22.46,0,0,1,55,442.5c0-.09-.08-.21-.11-.3s0,0,0,0v0c-.27-.8-.56-1.59-.86-2.37s-.62-1.61-.94-2.42-.58-1.41-.88-2.1a58.17,58.17,0,0,0-3-6c-.44-.78-.9-1.55-1.4-2.29a.33.33,0,0,0-.11-.18c-.25-.38-.5-.76-.77-1.15-.38-.55-.78-1.09-1.19-1.62,0,0,0,0,0,0Z"/><path class="cls-1" d="M489.17,49.66l-.15.19-.08,0,.06-.06Z"/><path class="cls-1" d="M71.51,503.89l-.65.18a2.54,2.54,0,0,1-.17-.75c0-.08.41-.12.62-.18Z"/><path class="cls-1" d="M489,49.85l-.09-.52s.25.33.26.33S489,49.85,489,49.85Z"/><path class="cls-3" d="M568.79,380.93c2.41-11.07,4.92-22.11,7.44-33.16.71-3,2.47-6.84-1.6-8.14-4.47-1.42-7.74,1.7-9.27,5.73-1,2.58-.79,5.62-1.3,8.44-.33,1.74-1.25,3.52-3.37,3.14-2.68-.48-2.93-2.53-1.88-4.62,2.83-5.57-.48-10.58-1.26-15.83-.25-1.63-1-3.22-3.32-3.24-7.85-.07-15.6,7.15-16.39,15.57a29.84,29.84,0,0,1-.89,5c-1.35,4.86-4.16,8.79-9.39,10.39-4.19,1.29-5.13,3.49-6.1,6.88-4.18,14.45-11.72,26.44-25,34.44-3.14,1.92-5.4,2.59-8.41.19s-1.66-4.61-1.09-7.58c2-10.2,4.69-20.45-3-30.08-3.63-4.59.87-22.63,5.67-23.07,14.28-1.3,2.43-5.32,1.27-8.29s-3.89-2.81-6.3-3.66c-7.89-2.77-9.48-8.31-3.58-13.9,4-3.79,3.33-5.4-1.36-6.85a20.32,20.32,0,0,1-8.47-5.78c-2.77-2.88-3.71-7.22-3.21-11.41.63-5.44,3.71-10.63,8.4-12,6.74-2,12.2-11.39,8.45-17-5.84-8.66-2.74-16.43-.12-24.53,1.55-4.79,2.85-9.46-.11-14-1.4-2.17-4-5-6.09-2.68-2.3,2.58-4.41,2.56-7.2,2.93-2.22.28-4.29.91-2.89,5.11,2.22,6.64-1.42,10-8.79,8.92-5-.71-9.48-.11-12.31,3.93-3.75,5.32-8.37,7.14-14.67,6.68-3.25-.23-6.81-.08-8.25,4.42-.1.29-.17.59-.25.88v0c-.9,3.71.25,6.51,2.87,9.19s5.4,5.19,7.49,8.21c1.4,2,2.16,6.19-1.95,5.44-9.85-1.82-20.76.37-29.24-7.16-1.3-1.15-2.6-3.39-5-1.55-.29,1.9,1.53,2.34,2.2,3.5,2.74,4.75,1.76,9.33-.94,13.71-1.82,3-3.71,5.75-8,5.29-14-1.52-25.66-7.85-36-17-6-5.35-7.71-16.32-19.43-14.27-2.05.37-1.9-3.14-2.87-4.78-1.57-2.63-2.93-6.19-7.07-3-3.29,2.51-7,3.62-9.95.13-3.11-3.67-2.67-8.09.15-11.92a72.94,72.94,0,0,1,6.3-7c2.22-2.28,4-5.25.76-7.2-8-4.79-11.29-12.14-13.4-20.6-.67-2.74-3.75-3.51-6.24-3.91-2.32-.36-2.39,1.95-2.78,3.56-2.6,11.15-5,22.35-7.88,33.41-1.15,4.45-.6,8,3.06,10.73,6,4.49,4.08,9-.48,12.63-5.51,4.42-11.51,8.24-17.44,12.1-1.4.92-3.89,1.29-3.24,3.26,4.6,14.19-4,7.22-9.28,6-2.76-.63-6.78-2.81-8.05,1.47-2,6.73,6.17,20.32,13,21.95,2.95.71,6.56-.77,9.26.3,5.08,2,7.59,1.78,9.06-4.25.86-3.54,4.37-6.81,8.54-3,6.11,5.49,13.46,9.55,18.51,16.33,2.23,3,3.78,4.65,1.08,8.73-3.2,4.83-2.17,13.12,2.47,14.23,10.58,2.52,10.47,8.4,9.07,16.5-.55,3.24,1.32,6.38,5,4,8.54-5.51,18-9.45,25.58-16.69,10-9.61,20.52-17.83,35-21.46,8.21-2.05,19.43-3.62,23.07-15.32,1.15-3.68,6.26-3.75,9.9-1.9A71.63,71.63,0,0,1,438.36,314c4.17,3.18,7.95,4.68,13.38,2.38,6.09-2.59,10.23.88,9.79,7.37-.37,5.3.32,9.23,7.14,8.62,3.79-.33,7,1.68,5.05,5.55-6.68,13.25-1.91,28.3-7.18,41.76-2.18,5.57.12,9.76,5.79,12.52,6.35,3.08,7.1,10,2.5,15.7-6,7.45-9.88,16.14-8.25,25.6,1.25,7.24,3.31,13.08-7.14,13.61a6,6,0,0,0-4.06,2.93c-5.9,11.07-12,22-17.14,33.43-3.29,7.28-9.78,8.5-16.56,4.65-7.64-4.34-12.58-12-20.83-15.16-.29,2.74,4.81,5.74.29,7.93-3.52,1.7-5.76-1.52-7.1-4.52-1.78-4-5.4-5.15-9-5.73-5.15-.78-9.34,2.59-13.61,4.62-6.28,3-11.13,2.73-16.28-2.38-4.33-4.29-9.46-7.29-13.48,1.15-1.89,4-5.95,5.38-10.22,4.94s-6.17-3.85-7.39-7.52c-.81-2.44-1.17-5-2-7.43-1.8-5.27-6-3.74-9.35-2.61-4.46,1.54-2.1,4.43-.42,6.76,1.42,2,2.36,4.12,1.84,6.44-1.65,7.48,2.49,9.09,8.62,8.9,13.61-.42,27.2-.81,40.16,4.57a9.88,9.88,0,0,0,3.41.31c7.16.27,10,4.65,6.53,11-1.42,2.62-2.62,4.85-2,8,1.05,5.2-2.53,9.34-4.37,13.59-1.6,3.73-6.22,0-9.45.46a13.94,13.94,0,0,0-4.16.94c-5.36,2.64-6.91-1.65-7.91-4.94-1.37-4.52,1.94-6,5.88-6.24a54.65,54.65,0,0,0,6.78-.5,3.37,3.37,0,0,0,2.2-2.18c.33-1.86-1.28-2.17-2.76-2.46-6.85-1.34-18.05,5.83-21.27,14.4-2.64,7,2.63,12.37,6.78,16.18,4.69,4.33,4.75,7.22,2.07,12.29-2.07,3.87-7.79,4.5-8.25,8.06-1.09,8.28-7.28,9.31-13.12,11.47a42.22,42.22,0,0,0-6.83,3.55c-2.47,1.47-5.25,3.12-4.1,6.66s4.21,3,7.18,2.83c4.86-.38,9.72-.67,14.59-.67,11.45,0,17.15-4.9,22.86-14.66,5.44-9.31,5.9-21.24,15.62-28.4,5-3.69,8.35-3.64,13.69-.4,7.2,4.36,7.32,11.87,10.49,18,.87,1.61,1.79,3.42,3.76,2.47A22.91,22.91,0,0,0,410,549.3c1.23-2-1.28-2.62-2.75-3.39-5.57-2.89-2.87-5.15.67-7.06,8.75-4.71,18.21-2.7,26,3.43,5.13,4.06,7,8.42,7.05,14.51V557l15.77-9.08a3.9,3.9,0,0,0,.18-.67c1.58-8.55,7.85-13.32,14.43-17.19,13-7.64,22-18.32,28.32-31.9,1.93-4.19-.15-9.76-1.05-9.78-9.4-.15-17.37-9.78-27.54-4.12-2.24,1.27-4.92.85-5.74-1.84-2.74-9,1.47-17,5.4-24.39,3.08-5.86,10.3-5.84,15.53-3.85,12.1,4.58,21-3,31-6.47,3.45-1.2,6.93-5.84,10.8-2,3.28,3.24.54,7.2-1.11,10.32-2,3.77-4.88,7-7.2,10.63-.9,1.38-1.91,3.25-.74,4.78,1.41,1.86,3.08.12,4.61-.34,7-2.2,12.23-7.28,17.9-11.62,9.08-6.91,9.42-16.43,8.81-26.71-.5-8.25,2.6-16,6.39-23.28,3-5.77,9.71-6.7,14-10.82,5.9-5.69,5.76-8.23-1-13-1.92-1.34-1.25-3.05-.92-4.6C568.77,381,568.77,381,568.79,380.93ZM476.48,231.64l-.36,1c-.14-.36-.21-.59-.29-.81C476,231.78,476.27,231.72,476.48,231.64Zm43.08,166.41c0-6.19,2.11-9.54,6.13-11.63,1-.53,2.62.23,2.6,1.34C528.21,393.07,523.94,394.85,519.56,398.05ZM400.78,472.87s.05,0,.07,0,0-.1,0-.15Z"/><path class="cls-3" d="M262.67,525.77c-7.71.86-16.33-2.93-25-6.62-2.8-1.18-2.19-3.46-3.06-5.41-2.26-5-4.29-12.09-10.46-12-5.11.09-8,6.07-8.87,11.33-1.25,7.91-6.24,8.63-12.59,7.5-3.2-.56-4.76-1.47-4.09-5.67,1.18-7.37,2.22-14.66-9.81-15.21-4.68-.22-9.85-6.46-6.32-13.4,2.57-5.05,1.51-8-3.85-9.65-4.82-1.51-9-4.82-6.25-9.81,2.57-4.64,5.23-10.79,13.68-8.5,8.09,2.2,15.76,3.83,20.89,11.44,1.33,2,5,3.14,7.66,3.3,6.58.39,11.58,2.06,13.73,9.17,1,3.35,4.53,4.09,7.85,4.13,5.16.07,10.31.12,15.47.11,2.63,0,5-.52,6.89-2.76,9-10.64,33.1-13.06,44.27-4.63,6.09,4.6,1.88,9.8,1.17,14.86-.61,4.28-4.23,3.14-6.58,4.49-6.21,3.58-11.68,8.41-19.08,9.69,1.84,7.36-5.24,10.11-7.86,15.17C269.24,525.62,267.27,526.48,262.67,525.77Z"/><path class="cls-3" d="M199.38,306.13c0-9.26-2.09-16.92,8.27-19.15,3.35-.72,2.35-4.69,2-7.53-.73-6.65-.67-12.89,4.38-18.41,5.27-5.76,1.81-13.93,4.6-20.64,1.15-2.79,2.17-4.57,5.14-4.61,12.46-.17,23.57,4.42,33.3,11.48,2.42,1.76,9.85,7.82-.63,12.32-4.52,2-5.16,9-3.55,14.73.63,2.25,2.73,5.4,0,7.11-2.91,1.8-5.22-1.22-7.55-2.74-3.59-2.33-4.9-9.52-11.52-5.29-4.18,2.66-8.1,5.47-8.64,11-.1,1.08-.13,2.42-1.59,2.6s-3.5-5.58-4.14.2c-.31,2.74,2.25,4.07,5.37,4.2,8.82.36,10.8,3,10,12.23-.38,4.81-2.53,6.3-6.73,3.81-3.17-1.88-6.73-3.64-9-6.39s-3.73-6.48-7.53-2.22c-3.3,3.71-8,7.47-3.12,13.17,1.14,1.34,4.41,1.67,1.95,4.31-2.11,2.25-4.31,5-7.9,4.41-2.6-.44-2.16-3-2.34-4.93C199.87,311.8,199.53,307.81,199.38,306.13Z"/><path class="cls-3" d="M148.31,349.62c-4,6.56,3.68,15.14-1.3,23.84-2.26,3.93,1.35,7.36,6.35,7.78,3,.25,7.45,0,7.93,3.46s-4,3.16-6.51,3.92c-5.21,1.58-5.07,3.8-1.39,7,2.66,2.34,6.77,4.42,4.36,8.86-1.15,2.11-4.18,1.88-6.27.65-3.7-2.17-8.91-5.05-6.66-9.61,3.57-7.23-.59-10-5.29-12.66-5.48-3.11-10.73-6.17-13.47-12.26-.67-1.48-2-3.32-3.85-3-10.71,1.84-7.92-7.11-8.5-11.73-.8-6.32,5.42-5,9.35-5.86,5.23-1.15,10.86-1.42,14.31-6.54a7.37,7.37,0,0,1,9.06-3C150.57,341.92,147.92,345.35,148.31,349.62Z"/><path class="cls-3" d="M362.89,218.88c-2.33,9.45,2.07,15.35,10.92,18.83,6.24,2.47,8.06,11.21,16.19,11.37,1.42,0,1.76,2.81,1,4.5a3.83,3.83,0,0,1-5.1,2c-7.3-4.31-19.11-1-22-13-.5-2.11-2.93-3.47-5.47-3.52-2.25-.06-4.79-1.35-4.61-3.07.7-6.84-4.74-11.88-4.77-18.45,0-2.41.16-4.19,2.74-4.25,5.52-.13,8.53-4,12.14-7.27,8-7.25,14.61-6,19.59,3.35.85,1.59,1.85,3.84.48,4.76-7.93,5.31-.81,8.15,1.69,11.75,1.28,1.85,3.44,3.84.84,5.89-2.12,1.67-3.55-.52-5-1.87C376.15,224.82,372.51,216.85,362.89,218.88Z"/><path class="cls-3" d="M528.5,123.2a.44.44,0,0,1,0,.15c0,.37,0,.73-.07,1.09a26.15,26.15,0,0,1-.39,2.86,10.08,10.08,0,0,1-.25,1.24c-.11.54-.25,1.09-.4,1.63s-.25.88-.4,1.32a28.6,28.6,0,0,1-1.3,3.37c-.19.44-.39.86-.61,1.28-.41.81-.85,1.57-1.31,2.32-.21.32-.42.65-.65,1s-.48.67-.73,1a13.51,13.51,0,0,1-.88,1.09,20.26,20.26,0,0,1-3.42,3.16c-9.12,6.47-9.86,17.21-1.4,24.53,3.41,2.91,7.87,3.46,12.23,2.45,4.75-1.11,4.48-5.17,4.92-8.9s.87-7.3,1.27-10.94c.13-1.07.25-2.16.36-3.25.08-.81.15-1.63.25-2.43.1-1.08.19-2.13.29-3.2s.13-1.95.21-2.93q.09-1.23.15-2.49c.08-1.32.12-2.64.17-4v0Z"/><path class="cls-3" d="M331.12,119.15c-3.92-1.12-7.78-2.14-11.58-3.34-1.46-.46-2.92-2.37-2.13-3.17,4.73-4.78.6-13.18,3.36-15.5,6.38-5.35,10.43-12.27,16.14-17.8,1.42-1.38,7.73-1.65,8.59,4.29A43,43,0,0,0,348,91.8c1.37,3.85,8.26,5.55,4.34,11.49C347.11,111.12,340.73,117.24,331.12,119.15Z"/><path class="cls-3" d="M420,202.65a8.65,8.65,0,0,1-1.55,7.4c-1.75,2.26-3.64,3-5.43.29-2-2.93-6.5-6.58-6.62-7.39-1.25-8.26-6.85-6.51-12.19-6.93-5.78-.45-7.28-4.1-4-9,2.92-4.32,5.72-8.43,4.46-14.15-.53-2.4-.5-5.81,3.35-5.46,3.22.29,6.58,2.06,5.62,6-1.79,7.41,2.1,9.75,8.13,12.37C418.17,188.6,420.43,194.93,420,202.65Z"/><path class="cls-3" d="M504.43,97.1c1.38,3,3.43,5.71,5.06,8.62.71,1.26,1.15,2.77-.17,3.9-1.61,1.4-3.3.81-4.48-.63-2.17-2.6-4.92-4.56-6.72-7.64-2.55-4.34-7-6.53-11.17-7.41-4.5-.13-7.14,2.4-10.18,3.85-3.6,1.71-6.95,2.68-10.11-.86-1.9-2.13-4.56-4.14-2.62-7.31s4.82-2.34,7.56-1c3.54,1.82,6.8,2.24,10.32-.54a8.09,8.09,0,0,1,5.21-1.66l1,0c.33,0,.65.06,1,.1l1,.13c1.13.16,2.28.37,3.43.46Z"/><path class="cls-3" d="M181.27,441.47c-2.38,0-5.33,1.3-6-1.73s2.68-3.22,4.45-4.34c3.34-2.13,6.83-4,10.34-5.9,4.25-2.24,8.43-1.85,11.76,1.6,3.84,4-.3,6.78-2.21,9.51-2.59,3.7-6,6.33-10.82,3.19C186.4,442.25,184.29,440,181.27,441.47Z"/><path class="cls-3" d="M170.17,318.09c-3.7-.71-8.7,1.59-10.25-3.89-1-3.49,0-7.26,3.4-9a9.73,9.73,0,0,1,12.45,2.59c1.84,2.27,5.9,4.54,4.51,7.62C178.45,319.47,173.67,317.52,170.17,318.09Z"/><path class="cls-3" d="M469.82,116.78c5.66-.07,8.52,2.74,8.63,7.76.1,4.6-1.92,9.32-6.92,9.08-6.64-.32-8.27-6.39-9.1-11.87C461.37,114.8,468.09,119.31,469.82,116.78Z"/><path class="cls-3" d="M505.24,120.35c-5.33,2.64-8.68,9.69-14.77,4.68-3.27-2.7-2.11-8.16.67-10C496.68,111.31,500.06,117.36,505.24,120.35Z"/><path class="cls-3" d="M361.61,111.4c4.8-1.68,2.46-12.16,10.6-8.51,2.15,1,7.12,3.83,4.65,7.72C372.73,117.13,367,112.16,361.61,111.4Z"/><path class="cls-3" d="M129.9,484.19c2.51-7.12,8.74-13.39,1-22.9C143.71,468.07,142.55,477.14,129.9,484.19Z"/><path class="cls-3" d="M371.21,256.61c2.87.33,6.9-.88,6.71,4.16-.12,3-2.16,4.88-5.12,4.48-3.47-.48-5.48-2.78-5.56-6.5C367.17,255.42,369,255.77,371.21,256.61Z"/><path class="cls-3" d="M174.94,375c-.21,2.43.19,5.83-3.18,5.91-2.07,0-3.94-2.59-3.66-5.07.31-2.67.34-6.49,4.12-6.42C175.14,369.42,174.63,372.7,174.94,375Z"/><path class="cls-3" d="M161.46,368.16c-2.94-.51-5.66-1.49-6-4.92-.24-2.56,1.3-4.75,3.87-4.45,3.19.37,4.32,3.36,4.85,6.17C164.55,366.82,163.82,368.34,161.46,368.16Z"/><path class="cls-3" d="M304.94,517.58c-.8,2.63-2.39,4.21-4.91,4.23s-3.41-1.76-2.85-4.06c.47-1.93,1.06-4.09,3.8-3.59C303,514.52,304.85,515.2,304.94,517.58Z"/><path class="cls-3" d="M388.61,151.83c-.39,2.56-1.76,4.19-4.46,4s-3.92-1.95-3.63-4.61a3.63,3.63,0,0,1,3.93-3.54C387.1,147.68,388.59,149.07,388.61,151.83Z"/><path class="cls-3" d="M139.58,243.72c-2.75-.62-5.29-1.47-5.08-4.72.18-2.72,2.26-3.77,4.78-3.67s4.38,1.5,4.43,4.14S142.07,243.48,139.58,243.72Z"/><path class="cls-3" d="M245,431.75c-4.29-1.84-8.38-2-9.7-6.19-.36-1.16,1-2.11,2.18-2C241.67,423.86,244.08,426.22,245,431.75Z"/><path class="cls-3" d="M109.59,346.05c-2-.05-3-1-2.79-2.69.32-3.11,2.68-4.21,5.32-4.66,1.42-.25,3.44.27,3.1,1.95A6.89,6.89,0,0,1,109.59,346.05Z"/><path class="cls-3" d="M368.51,443.48a2.65,2.65,0,0,1-2.92,2.74c-1.88.08-3.51-.44-3.52-2.69,0-1.67,1.14-2.54,2.77-2.58A3.43,3.43,0,0,1,368.51,443.48Z"/><path class="cls-3" d="M82.13,343.61c0,1.61-.8,2.89-2.37,2.9-2.41,0-3.45-1.76-3.41-3.9a2.42,2.42,0,0,1,2.85-2.37C81.28,340.35,82,341.76,82.13,343.61Z"/><path class="cls-3" d="M400.87,472.76l-5.41-2c3.59-1.29,4.56.19,5.31,2.07Z"/><path class="cls-3" d="M290.69,109.48l1,1-.89.58c-.13-.44-.26-.88-.4-1.31Z"/><path class="cls-3" d="M56.44,355.82l-.08-.09Z"/><path class="cls-1" d="M149.21,141.55c2.29-.07,4.85-.43,6.16,2,2.84,5.24,4.83,11,10.09,14.62,1.32.92,1.2,3.24.09,4.77a4.49,4.49,0,0,1-5.39,1.54c-6.34-2.09-10.67-7.42-16.6-10.4-3.51-1.76.82-6.09.67-9.43C144.09,141.53,146.75,141.32,149.21,141.55Z"/><path class="cls-1" d="M189.37,183c.15,2.13-1.12,3-3,3.16a3,3,0,0,1-3.43-2.84c-.23-2.08,1.09-3.06,3-3.22S188.89,181.24,189.37,183Z"/><path class="cls-1" d="M94.38,414.26l-1.45-1.33c.18.06.44.08.54.21a14.33,14.33,0,0,1,.81,1.22Z"/><path class="cls-1" d="M519.56,398.05c0-6.19,2.11-9.55,6.12-11.63a1.84,1.84,0,0,1,2.61,1.35C528.22,393.06,523.94,394.85,519.56,398.05Z"/><path class="cls-1" d="M476.12,232.65l-.29-.8.65-.2Z"/></g></svg>