<svg id="Layer_1" data-name="Layer 1" xmlns="http://www.w3.org/2000/svg" viewBox="0 0 792 612"><defs><style>.cls-1{fill:#fff;}.cls-11,.cls-2,.cls-3{stroke:#000;stroke-miterlimit:10;}.cls-2,.cls-3{stroke-width:0.59px;}.cls-11,.cls-3{fill:none;}.cls-4{font-size:25.32px;font-family:Montserrat-Bold, Montserrat;font-weight:700;letter-spacing:0.46em;}.cls-5{letter-spacing:0.5em;}.cls-6{font-size:46.41px;font-family:MuseoSlab-900, Museo Slab;font-weight:900;letter-spacing:0.08em;}.cls-7{letter-spacing:0.02em;}.cls-8{letter-spacing:0.14em;}.cls-9{letter-spacing:0.08em;}.cls-10{letter-spacing:0.02em;}</style></defs><path d="M205.06,309.17a70.14,70.14,0,0,0-54.28-16.54h0a69.5,69.5,0,0,0-22.88,6.89,70.32,70.32,0,0,0-20.21,15.27h0a70.29,70.29,0,0,0-18,55.21v0a69.61,69.61,0,0,0,6,21.43h0c.68,1.51,1.43,3,2.23,4.42h0c.38.68.77,1.36,1.17,2h0a70.05,70.05,0,0,0,93.12,26c1.31-.7,2.6-1.44,3.85-2.22a70.12,70.12,0,0,0,30-38.55q.9-2.85,1.56-5.81a70.16,70.16,0,0,0-12.06-56.85h0c-.65-.85-1.29-1.69-2-2.52a72.36,72.36,0,0,0-5.88-6.37Z"/><g id="_5BI7z2" data-name="5BI7z2"><path d="M204,300h0Zm0-.11,0,.11,0,0Zm-102,110.84c-.06,0-.15,0-.16.05a.61.61,0,0,0,0,.18l.15,0C102,410.9,101.94,410.83,101.93,410.77Z"/><path d="M170.55,313.11a8,8,0,0,1-5.17,3.87c-.95-.27-1.89-.52-2.82-.81-.36-.12-.72-.58-.52-.78,1.15-1.16.14-3.22.82-3.78,1.56-1.31,2.54-3,3.94-4.35a1.38,1.38,0,0,1,2.1,1,10,10,0,0,0,.6,2C169.83,311.24,171.51,311.66,170.55,313.11Zm6,1.78c-1,1.6-2.42.39-3.73.2,1.17-.41.6-3,2.59-2.08C175.94,313.25,177.16,313.94,176.56,314.89Zm2.82,10.31-.06.17a1.1,1.1,0,0,1-.2.31.93.93,0,0,1-.78.26.9.9,0,0,1-.89-1.13.89.89,0,0,1,1-.86.86.86,0,0,1,.23,0l.15,0,.08,0,.1,0,.07,0,.1.08h0a.1.1,0,0,1,0,.05l.08.09a.51.51,0,0,1,.07.15l0,.06,0,.12v0a.07.07,0,0,1,0,.05.37.37,0,0,1,0,.11v.1a1.12,1.12,0,0,1,0,.21Zm7.34,14c-.43.56-.88.73-1.32.07s-1.59-1.6-1.62-1.8c-.31-2-1.67-1.59-3-1.69s-1.78-1-1-2.19,1.39-2.06,1.09-3.46c-.13-.59-.13-1.42.81-1.34s1.61.51,1.38,1.47c-.44,1.82.51,2.39,2,3s2.11,2.22,2,4.11A2.07,2.07,0,0,1,186.72,339.18Zm13-18.66c-1.62-.08-2-1.57-2.22-2.9-.26-1.7,1.38-.6,1.8-1.22,1.39,0,2.08.67,2.11,1.9S200.9,320.58,199.68,320.52Zm4.62-2.1a1.63,1.63,0,0,1,.17-2.45c1.35-.9,2.18.57,3.44,1.3C206.61,317.92,205.8,319.64,204.3,318.42Zm-106,56.35h0Zm5.57-3.78a.59.59,0,0,0-.7.57c0,.53.25,1,.84.95.38,0,.58-.31.58-.7S104.36,371,103.85,371Zm69.77,24.59a.61.61,0,0,0-.68.64c0,.54.4.67.86.65a.65.65,0,0,0,.72-.67A.84.84,0,0,0,173.62,395.58Zm-61.73-25c-.64.11-1.22.38-1.3,1.14,0,.4.2.64.69.65a1.67,1.67,0,0,0,1.37-1.32C112.74,370.68,112.24,370.55,111.89,370.61Zm30.61,20.72c-.29,0-.62.21-.53.49.32,1,1.32,1.07,2.37,1.51C144.13,392,143.54,391.41,142.5,391.33Zm-24-46c-.62,0-1.13.23-1.17.9s.57,1,1.24,1.15a1,1,0,0,0,1-1A1,1,0,0,0,118.53,345.36ZM158,413.46c-.66-.12-.81.41-.92.88s.05,1,.69,1a1.23,1.23,0,0,0,1.2-1C159,413.72,158.51,413.55,158,413.46ZM124.61,377c-.12-.68-.4-1.41-1.18-1.5s-1,.45-.94,1.08c.07.84.74,1.08,1.46,1.2C124.52,377.85,124.7,377.48,124.61,377Zm2,1.08c-.92,0-.93.91-1,1.57s.39,1.25.89,1.24c.82,0,.73-.85.78-1.45S127.28,378.11,126.57,378.1Zm48.61-27.54c-.54-.21-1-.29-1,.52a1.49,1.49,0,0,0,1.37,1.59,1,1,0,0,0,1.24-1.1C176.86,350.34,175.88,350.64,175.18,350.56Zm-58.7,50c1.89,2.32.37,3.85-.25,5.59C119.33,404.42,119.61,402.21,116.48,400.55Zm11-37.49a2.38,2.38,0,0,0-3-.63,1.79,1.79,0,0,0-.83,2.19c.38,1.34,1.6.78,2.5.95.86-.14,2,.34,2.47-.65C128.88,364.17,127.89,363.61,127.44,363.06Zm6.36,30.12a2.25,2.25,0,0,0-2.88-.39c-.85.45-1.7.92-2.52,1.44-.43.27-1.25.35-1.09,1s.89.43,1.48.43c.73-.35,1.24.19,1.82.57,1.18.76,2,.12,2.65-.78C133.72,394.84,134.73,394.14,133.8,393.18Zm46-44.46c-2,0-2.43-2.17-4-2.78-2.16-.85-3.23-2.29-2.67-4.6,2.36-.5,3.24,1.45,4.56,2.7.35.33.7.86,1.22.46s.11-1-.21-1.44a6.57,6.57,0,0,0-.82-.86l-.13-.15-.12-.14a0,0,0,0,0,0,0l-4.28-3.65c-.86.78-1.59,1.7-2.91,1.73-.64,0-.68.45-.67,1,0,1.61,1.33,2.84,1.16,4.51-.05.42.58.73,1.12.74a1.35,1.35,0,0,1,1.34.86c.7,2.94,3.59,2.12,5.37,3.18a1,1,0,0,0,1.25-.49C180.2,349.4,180.11,348.72,179.77,348.72ZM122.31,382.8c.61-.18,1.71-.1,1.59-1s-1.19-.78-1.93-.84c-1.23-.11-2.11-.94-1.56-1.9,1.22-2.12-.65-4.22.32-5.82-.09-1,.55-1.89-.46-2.22a1.79,1.79,0,0,0-2.21.72c-.84,1.25-2.22,1.32-3.5,1.6-1,.21-2.47-.11-2.28,1.43.14,1.13-.54,3.32,2.08,2.87.45-.08.77.37.94.73a6.79,6.79,0,0,0,3.29,3c1.15.65,2.16,1.33,1.29,3.1-.55,1.11.72,1.81,1.63,2.34.51.3,1.25.36,1.53-.16.59-1.08-.42-1.59-1.07-2.16C121.07,383.73,121,383.19,122.31,382.8Zm25-34.52a13.42,13.42,0,0,0-8.14-2.81c-.72,0-1,.45-1.25,1.13-.68,1.64.16,3.63-1.12,5s-1.25,2.87-1.07,4.5c.07.69.31,1.66-.5,1.83-2.53.55-2,2.42-2,4.68,0,.41.12,1.39.21,2.36,0,.48-.07,1.1.57,1.2.88.15,1.41-.52,1.92-1.07s-.19-.73-.47-1.05c-1.2-1.4-.05-2.31.76-3.22s1.27-.16,1.84.54a7.71,7.71,0,0,0,2.19,1.56c1,.61,1.55.25,1.65-.93.18-2.25-.3-2.9-2.45-3-.77,0-1.39-.37-1.32-1,.16-1.41.66,0,1,0s.37-.37.39-.64c.13-1.34,1.09-2,2.11-2.68,1.62-1,1.94.72,2.81,1.29.57.37,1.14,1.11,1.85.67s.16-1.19,0-1.74c-.4-1.41-.24-3.12.87-3.59C149.71,350.19,147.9,348.71,147.31,348.28Zm11.15,56.62c-2.72-2.06-8.61-1.47-10.81,1.13a2,2,0,0,1-1.68.67l-3.78,0c-.81,0-1.67-.19-1.91-1-.53-1.74-1.75-2.15-3.36-2.24a2.7,2.7,0,0,1-1.87-.81c-1.26-1.85-3.13-2.26-5.1-2.79s-2.72.94-3.34,2.08.34,2,1.52,2.39,1.57,1.12.94,2.36a2.19,2.19,0,0,0,1.54,3.27c2.94.14,2.69,1.91,2.4,3.72-.16,1,.22,1.24,1,1.38,1.55.28,2.77.1,3.08-1.83.2-1.29.91-2.75,2.16-2.77,1.51,0,2,1.7,2.56,2.93.21.48.06,1,.74,1.32,2.13.91,4.23,1.83,6.12,1.62,1.12.17,1.6,0,1.89-.6.65-1.24,2.37-1.91,1.92-3.71,1.81-.31,3.14-1.49,4.66-2.36.58-.33,1.46-.05,1.61-1.1C158.93,407.29,160,406,158.46,404.9Zm23.92-1.56a.08.08,0,0,0,0,0h0v0Zm-.09-.2a1.43,1.43,0,0,0-.14-.2.27.27,0,0,1-.08-.07l-.13-.07a.77.77,0,0,0-.27,0,1.71,1.71,0,0,0-.57.11l.4.15.75.27.13,0Zm41.36-21.06c-.47-.33-.3-.75-.22-1.12a.06.06,0,0,1,0,0l-7.78-6.62a3.39,3.39,0,0,1-2.29,2.54,2,2,0,0,0-1.5,1.68,13.68,13.68,0,0,1-6.1,8.41c-.76.47-1.32.63-2.05.05s-.41-1.13-.27-1.85c.5-2.5,1.15-5-.72-7.35-.89-1.12.21-5.53,1.39-5.64,3.49-.31.59-1.3.31-2s-1-.69-1.54-.89c-1.93-.68-2.32-2-.88-3.4,1-.92.82-1.32-.33-1.67a5,5,0,0,1-2.07-1.42,3.4,3.4,0,0,1-.78-2.78l-10.71-9.12a2.21,2.21,0,0,0,.7,2.24,15.75,15.75,0,0,1,1.83,2c.34.5.53,1.51-.47,1.33-2.41-.45-5.07.09-7.15-1.75-.31-.28-.63-.83-1.21-.38-.07.46.38.57.54.86a3.05,3.05,0,0,1-.23,3.34c-.44.73-.91,1.41-1.95,1.29a15.44,15.44,0,0,1-8.78-4.15c-1.47-1.31-1.89-4-4.75-3.49-.5.09-.46-.76-.7-1.17-.38-.64-.71-1.51-1.72-.74-.81.61-1.72.88-2.44,0a2.23,2.23,0,0,1,0-2.91,17.74,17.74,0,0,1,1.54-1.71c.54-.55,1-1.28.19-1.76a7.4,7.4,0,0,1-3.28-5c-.16-.67-.91-.85-1.52-1s-.59.48-.68.87c-.64,2.72-1.23,5.46-1.93,8.16a2.24,2.24,0,0,0,.75,2.62c1.47,1.1,1,2.19-.12,3.08a50.5,50.5,0,0,1-4.26,3c-.34.22-1,.31-.79.79,1.13,3.47-1,1.77-2.26,1.47-.68-.16-1.66-.69-2,.36-.49,1.64,1.51,5,3.16,5.36.72.17,1.61-.19,2.27.07,1.24.49,1.85.44,2.21-1,.21-.86,1.06-1.66,2.08-.74,1.5,1.34,3.29,2.33,4.53,4,.54.73.92,1.14.26,2.13-.78,1.18-.53,3.21.6,3.48,2.59.61,2.56,2.05,2.22,4-.14.79.32,1.56,1.23,1,2.08-1.35,4.4-2.31,6.25-4.08,2.44-2.35,5-4.36,8.55-5.24,2-.5,4.74-.89,5.63-3.75.28-.89,1.53-.91,2.42-.46a18.14,18.14,0,0,1,2.67,1.63,2.92,2.92,0,0,0,3.27.58c1.48-.63,2.49.22,2.39,1.8-.09,1.3.08,2.26,1.74,2.11.93-.08,1.71.41,1.24,1.36-1.64,3.23-.47,6.91-1.76,10.19-.53,1.37,0,2.39,1.41,3.06,1.56.76,1.74,2.44.62,3.84a7.85,7.85,0,0,0-2,6.25c.31,1.77.81,3.19-1.74,3.33a1.42,1.42,0,0,0-1,.71c-1.44,2.7-2.93,5.38-4.19,8.17-.8,1.77-2.39,2.07-4,1.13-1.87-1.06-3.08-2.92-5.09-3.7-.07.67,1.17,1.4.07,1.94-.86.41-1.41-.37-1.74-1.11a2.57,2.57,0,0,0-2.21-1.4c-1.25-.19-2.28.63-3.32,1.13a3.08,3.08,0,0,1-4-.58c-1.05-1.05-2.31-1.78-3.29.28a2.32,2.32,0,0,1-2.49,1.21c-1.05-.11-1.51-.94-1.81-1.84-.2-.59-.29-1.23-.49-1.81-.44-1.29-1.47-.92-2.28-.64-1.09.37-.51,1.08-.1,1.65a2,2,0,0,1,.45,1.57c-.4,1.83.61,2.22,2.1,2.18,3.33-.11,6.65-.2,9.81,1.11a2.34,2.34,0,0,0,.84.08c1.74.06,2.43,1.14,1.59,2.68a2.72,2.72,0,0,0-.49,2c.26,1.27-.61,2.28-1.06,3.32s-1.52,0-2.31.11a3.79,3.79,0,0,0-1,.23c-1.31.65-1.69-.4-1.93-1.21-.34-1.1.47-1.46,1.44-1.52a13,13,0,0,0,1.65-.12.83.83,0,0,0,.54-.54c.08-.45-.31-.52-.67-.59-1.68-.33-4.41,1.42-5.2,3.51-.64,1.72.64,3,1.66,3.95a2.06,2.06,0,0,1,.5,3c-.5.94-1.9,1.1-2,2-.27,2-1.78,2.27-3.21,2.8a10.15,10.15,0,0,0-1.67.86c-.6.36-1.28.76-1,1.63s1,.74,1.76.69c1.18-.09,2.37-.16,3.56-.16,2.8,0,4.19-1.2,5.58-3.58s1.44-5.19,3.82-6.94a2.52,2.52,0,0,1,3.34-.1c1.76,1.07,1.79,2.9,2.57,4.4.21.39.43.84.91.6a5.64,5.64,0,0,0,2.32-2.06c.3-.49-.32-.64-.68-.83-1.36-.71-.7-1.26.17-1.72a5.64,5.64,0,0,1,6.34.83,4.14,4.14,0,0,1,1.72,3.55v.05l3.85-2.22a1,1,0,0,0,0-.16c.38-2.09,1.91-3.26,3.52-4.2a16.94,16.94,0,0,0,6.92-7.79,2.38,2.38,0,0,0-.26-2.39c-2.29,0-4.24-2.39-6.72-1a.9.9,0,0,1-1.41-.45c-.66-2.2.36-4.14,1.32-5.95.76-1.44,2.52-1.43,3.8-.94,2.95,1.11,5.12-.73,7.58-1.59.84-.29,1.69-1.42,2.63-.49s.13,1.76-.27,2.52c-.48.93-1.19,1.72-1.76,2.6-.22.34-.46.8-.18,1.17s.75,0,1.13-.09c1.72-.53,3-1.77,4.37-2.83,2.22-1.69,2.3-4,2.15-6.53a11.07,11.07,0,0,1,1.56-5.68c.74-1.41,2.38-1.64,3.42-2.65C225.34,383.86,225.31,383.24,223.65,382.08Z"/><path d="M145.94,329.08c-.53.38-1,1.23-1.78.65-1.46-1.06-2-.07-2.48,1a31.51,31.51,0,0,0-2.81,6.91c-.32,1.58-1.45,1.64-3,.87a10.61,10.61,0,0,0-5.21-.82,1.69,1.69,0,0,0-1.59,1.71c.08,1.86-1,2.12-2.48,2.28a6.73,6.73,0,0,1-4.84-1.19c-1.44-.94-3.62-.86-5.49-1.06a8.1,8.1,0,0,1-4.11-1.05c-1.2-.79-3.1,0-4.51.61-1.25.56-2.19.76-3.18-.34a2.4,2.4,0,0,0-2.17-.47,6.18,6.18,0,0,1-1.66,0c-2.47-.47-3.54.22-3.91,2.8a27.62,27.62,0,0,0-.41,5.23c.08,1.42-.26,2.65-1.93,3-1.26.29-1.26,1.45-1.33,2.37a40.19,40.19,0,0,1-.94,4.28c-.94,5.16-1.64,10.45.32,15.44.05.13.11.25.17.37a1.74,1.74,0,0,0,.11.18,3,3,0,0,0,.36.49,8.69,8.69,0,0,0,4.4,2.18l.77.18a4.74,4.74,0,0,0-1.17,1.58,1,1,0,0,0-.07.23c-.12.61.16,1.24,1.19,1.89.28.17.41.72.46,1.12.19,1.44,1.11,1.42,2.16,1.14.45-.13,1.16-.59,1.28-.47,2,2.23,5.58,2.48,7,5.45a2.31,2.31,0,0,1,.22,1.49l0,.13a1.9,1.9,0,0,1-.33.63l-.24.27a5.58,5.58,0,0,1-1.14.83,3,3,0,0,0,0,.42,4,4,0,0,0,.07.48,4.08,4.08,0,0,0,.45,1.21,3.38,3.38,0,0,0,.24.41l.14.21.21.26a6.75,6.75,0,0,0,1.29,1.13c1,.67,1.61,1.27.18,2.13-.55.33-.6.8-.39,1.45.49,1.48.21,2.65-1.64,2.85-.92.08-1.43.51-1.34,1.49s.74,1.25,1.57,1.4c3.38.65,3.39.65,4,4.23.11.64.4,1.12,1,1.2,1.75.27,2.78,1.79,4.36,2.38,1.38.51,1.13,1.94,1.34,3.05.07.33-.38.68-.73.56-1-.37-2.28-.2-3.09-1.1s-1.34-2-2,.05c-.17.53-.71.43-1,0-.54-.8-1.34-1.59-1.14-2.63.31-1.61-.59-2.36-1.83-2.87A14.39,14.39,0,0,1,103,402a20.45,20.45,0,0,0-3-3.05l-.25-.25c-.25-.25-.49-.51-.71-.77h0a7.18,7.18,0,0,1-.65-.91,2,2,0,0,1-.14-.25,5.23,5.23,0,0,1-.35-.8l0-.07h0l-.21-.58c-.07-.2-.15-.39-.23-.59s-.14-.34-.22-.51a14,14,0,0,0-.73-1.45c-.11-.2-.22-.38-.34-.57a.05.05,0,0,0,0,0c0-.09-.12-.18-.18-.28s-.2-.26-.29-.4h0l-6-21.43v0c-.14-3.72-.08-7.45.07-11.18,0-1,.09-2,.15-3s.13-2.23.2-3.35c.33-5.13,2.11-10.06,4-14.94s3.76-9.61,7-13.74c1.88-2.43,3.83-4.81,5.79-7.17a4.77,4.77,0,0,0,.8-1.67l.06-.18h0a70.32,70.32,0,0,1,20.21-15.27l17.77,15.14a7.74,7.74,0,0,1-2.06,1c-.3.06-.81.47-.77.61.4,1.62-.51,2.33-1.8,2.87-.16.07-.16.48-.24.73,2,.42.86,2.77,2.38,3.71s1.32,3.33,3,4.42C146.54,328.28,146.31,328.8,145.94,329.08Z"/><path d="M124.92,326.51c-1.28-.9-1.77-2.29-2.46-3.57-.32-.59-.95-.5-1.51-.49s-1.25,0-1.21.76-1,1.87-.17,2.3c1.45.73,2.51,2,4.06,2.54a1.12,1.12,0,0,0,1.32-.37C125.21,327.3,125.25,326.74,124.92,326.51Zm5,5.36c-.45,0-.77.29-.72.79a.75.75,0,0,0,.84.7c.46,0,.77-.26.73-.78S130.4,331.83,129.91,331.87Zm-31.63,42.9h0Zm9.06,14a2.14,2.14,0,0,1,.13.19l-.27-.24S107.31,388.76,107.34,388.79ZM89.68,370v0c-.14-3.72-.08-7.45.07-11.18,0-1,.09-2,.15-3s.13-2.23.2-3.35c.33-5.13,2.11-10.06,4-14.94s3.76-9.61,7-13.74c1.88-2.43,3.83-4.81,5.79-7.17a4.77,4.77,0,0,0,.8-1.67l.06-.18h0a70.32,70.32,0,0,1,20.21-15.27,69.5,69.5,0,0,1,22.88-6.89h0l.69.13.63.11.66.08.34,0,.48,0c.45,0,1.1.1,1.13.71s-.58.72-1,.88c-1.13.37-2.29.67-2.69,2-.49,1.67.08,2.39,1.82,2.24.48,0,1.22-.62,1.31.28.06.6-.52,1.09-1.28,1.13a2.12,2.12,0,0,0-1.19.26c-.43.39-1.13.78-.9,1.52s.85.09,1.25.23c1.6.56,3.17,1.28,4.35-.78a.9.9,0,0,1,1.47,0c.37.51-.15.84-.52,1.19a8.4,8.4,0,0,0-2,9.47,3.1,3.1,0,0,1,.19,2.44l-.08.06c-3-3.22-6.13-.92-9.2-.23a2.63,2.63,0,0,0-.57.21,7.74,7.74,0,0,1-2.06,1c-.3.06-.81.47-.77.61.4,1.62-.51,2.33-1.8,2.87-.16.07-.16.48-.24.73,2,.42.86,2.77,2.38,3.71s1.32,3.33,3,4.42c.41.27.18.79-.19,1.07-.53.38-1,1.23-1.78.65-1.46-1.06-2-.07-2.48,1a31.51,31.51,0,0,0-2.81,6.91c-.32,1.58-1.45,1.64-3,.87a10.61,10.61,0,0,0-5.21-.82,1.69,1.69,0,0,0-1.59,1.71c.08,1.86-1,2.12-2.48,2.28a6.73,6.73,0,0,1-4.84-1.19c-1.44-.94-3.62-.86-5.49-1.06a8.1,8.1,0,0,1-4.11-1.05c-1.2-.79-3.1,0-4.51.61-1.25.56-2.19.76-3.18-.34a2.4,2.4,0,0,0-2.17-.47,6.18,6.18,0,0,1-1.66,0c-2.47-.47-3.54.22-3.91,2.8a27.62,27.62,0,0,0-.41,5.23c.08,1.42-.26,2.65-1.93,3-1.26.29-1.26,1.45-1.33,2.37a40.19,40.19,0,0,1-.94,4.28c-.94,5.16-1.64,10.45.32,15.44.05.13.11.25.17.37a1.74,1.74,0,0,0,.11.18,3.64,3.64,0,0,0,.36.49,8.69,8.69,0,0,0,4.4,2.18l.77.18a4.74,4.74,0,0,0-1.17,1.58,1,1,0,0,0-.07.23c-.12.61.16,1.24,1.19,1.89.28.17.41.72.46,1.12.19,1.44,1.11,1.42,2.16,1.14.45-.13,1.16-.59,1.28-.47,2,2.23,5.58,2.48,7,5.45a2.31,2.31,0,0,1,.22,1.49l0,.13a1.9,1.9,0,0,1-.33.63l-.24.27a5.58,5.58,0,0,1-1.14.83,3,3,0,0,0,0,.42,4,4,0,0,0,.07.48,4.08,4.08,0,0,0,.45,1.21,3.38,3.38,0,0,0,.24.41l.14.21.21.26a6.75,6.75,0,0,0,1.29,1.13c1,.67,1.61,1.27.18,2.13-.55.33-.6.8-.39,1.45.49,1.48.21,2.65-1.64,2.85-.92.08-1.43.51-1.34,1.49s.74,1.25,1.57,1.4c3.38.65,3.39.65,4,4.23.11.64.4,1.12,1,1.2,1.75.27,2.78,1.79,4.36,2.38,1.38.51,1.13,1.94,1.34,3.05.07.33-.38.68-.73.56-1-.37-2.28-.2-3.09-1.1s-1.34-2-2,.05c-.17.53-.71.43-1,0-.54-.8-1.34-1.59-1.14-2.63.31-1.61-.59-2.36-1.83-2.87A14.39,14.39,0,0,1,103,402a20.45,20.45,0,0,0-3-3.05l-.25-.25c-.25-.25-.49-.51-.71-.77h0a7.18,7.18,0,0,1-.65-.91,2,2,0,0,1-.14-.25,5.23,5.23,0,0,1-.35-.8l0-.07h0l-.21-.58c-.07-.2-.15-.39-.23-.59s-.14-.34-.22-.51a14,14,0,0,0-.73-1.45c-.11-.2-.22-.38-.34-.57a.05.05,0,0,0,0,0l-.18-.28c-.1-.13-.2-.26-.29-.4h0Z"/><path d="M204,300l0,.05h0Z"/><path d="M102,411l-.15,0a.61.61,0,0,1,0-.18s.1,0,.16-.05Z"/><polygon points="203.95 300.06 203.93 299.93 203.99 300.01 203.95 300.06"/><path d="M223.44,380.92c.58-2.7,1.2-5.4,1.81-8.1.18-.74.61-1.67-.39-2s-1.89.41-2.26,1.39a12.59,12.59,0,0,0-.32,2.07c-.08.42-.3.86-.82.76s-.72-.61-.46-1.12c.69-1.36-.12-2.59-.31-3.87-.06-.4-.24-.79-.81-.79a4.26,4.26,0,0,0-4,3.8,6.92,6.92,0,0,1-.22,1.22,3.39,3.39,0,0,1-2.29,2.54,2,2,0,0,0-1.5,1.68,13.68,13.68,0,0,1-6.1,8.41c-.76.47-1.32.63-2.05.05s-.41-1.13-.27-1.85c.5-2.5,1.15-5-.72-7.35-.89-1.12.21-5.53,1.39-5.64,3.49-.31.59-1.3.31-2s-1-.69-1.54-.89c-1.93-.68-2.32-2-.88-3.4,1-.92.82-1.32-.33-1.67a5,5,0,0,1-2.07-1.42,3.4,3.4,0,0,1-.78-2.78,3.34,3.34,0,0,1,2-2.94c1.65-.49,3-2.78,2.06-4.14-1.42-2.12-.67-4,0-6,.38-1.17.7-2.31,0-3.43-.34-.53-1-1.23-1.49-.66a2.27,2.27,0,0,1-1.76.72c-.54.07-1,.22-.71,1.25.55,1.62-.34,2.44-2.14,2.18a2.85,2.85,0,0,0-3,1,3.64,3.64,0,0,1-3.58,1.63c-.8-.06-1.67,0-2,1.08l-.06.21h0a2.21,2.21,0,0,0,.7,2.24,15.75,15.75,0,0,1,1.83,2c.34.5.53,1.51-.47,1.33-2.41-.45-5.07.09-7.15-1.75-.31-.28-.63-.83-1.21-.38-.07.46.38.57.54.86a3.05,3.05,0,0,1-.23,3.34c-.44.73-.91,1.41-1.95,1.29a15.44,15.44,0,0,1-8.78-4.15c-1.47-1.31-1.89-4-4.75-3.49-.5.09-.46-.76-.7-1.17-.38-.64-.71-1.51-1.72-.74-.81.61-1.72.88-2.44,0a2.23,2.23,0,0,1,0-2.91,17.74,17.74,0,0,1,1.54-1.71c.54-.55,1-1.28.19-1.76a7.4,7.4,0,0,1-3.28-5c-.16-.67-.91-.85-1.52-1s-.59.48-.68.87c-.64,2.72-1.23,5.46-1.93,8.16a2.24,2.24,0,0,0,.75,2.62c1.47,1.1,1,2.19-.12,3.08a50.5,50.5,0,0,1-4.26,3c-.34.22-1,.31-.79.79,1.13,3.47-1,1.77-2.26,1.47-.68-.16-1.66-.69-2,.36-.49,1.64,1.51,5,3.16,5.36.72.17,1.61-.19,2.27.07,1.24.49,1.85.44,2.21-1,.21-.86,1.06-1.66,2.08-.74,1.5,1.34,3.29,2.33,4.53,4,.54.73.92,1.14.26,2.13-.78,1.18-.53,3.21.6,3.48,2.59.61,2.56,2.05,2.22,4-.14.79.32,1.56,1.23,1,2.08-1.35,4.4-2.31,6.25-4.08,2.44-2.35,5-4.36,8.55-5.24,2-.5,4.74-.89,5.63-3.75.28-.89,1.53-.91,2.42-.46a18.14,18.14,0,0,1,2.67,1.63,2.92,2.92,0,0,0,3.27.58c1.48-.63,2.49.22,2.39,1.8-.09,1.3.08,2.26,1.74,2.11.93-.08,1.71.41,1.24,1.36-1.64,3.23-.47,6.91-1.76,10.19-.53,1.37,0,2.39,1.41,3.06,1.56.76,1.74,2.44.62,3.84a7.85,7.85,0,0,0-2,6.25c.31,1.77.81,3.19-1.74,3.33a1.42,1.42,0,0,0-1,.71c-1.44,2.7-2.93,5.38-4.19,8.17-.8,1.77-2.39,2.07-4,1.13-1.87-1.06-3.08-2.92-5.09-3.7-.07.67,1.17,1.4.07,1.94-.86.41-1.41-.37-1.74-1.11a2.57,2.57,0,0,0-2.21-1.4c-1.25-.19-2.28.63-3.32,1.13a3.08,3.08,0,0,1-4-.58c-1.05-1.05-2.31-1.78-3.29.28a2.32,2.32,0,0,1-2.49,1.21c-1.05-.11-1.51-.94-1.81-1.84-.2-.59-.29-1.23-.49-1.81-.44-1.29-1.47-.92-2.28-.64-1.09.37-.51,1.08-.1,1.65a2,2,0,0,1,.45,1.57c-.4,1.83.61,2.22,2.1,2.18,3.33-.11,6.65-.2,9.81,1.11a2.34,2.34,0,0,0,.84.08c1.74.06,2.43,1.14,1.59,2.68a2.72,2.72,0,0,0-.49,2c.26,1.27-.61,2.28-1.06,3.32s-1.52,0-2.31.11a3.79,3.79,0,0,0-1,.23c-1.31.65-1.69-.4-1.93-1.21-.34-1.1.47-1.46,1.44-1.52a13,13,0,0,0,1.65-.12.83.83,0,0,0,.54-.54c.08-.45-.31-.52-.67-.59-1.68-.33-4.41,1.42-5.2,3.51-.64,1.72.64,3,1.66,3.95a2.06,2.06,0,0,1,.5,3c-.5.94-1.9,1.1-2,2-.27,2-1.78,2.27-3.21,2.8a10.15,10.15,0,0,0-1.67.86c-.6.36-1.28.76-1,1.63s1,.74,1.76.69c1.18-.09,2.37-.16,3.56-.16,2.8,0,4.19-1.2,5.58-3.58s1.44-5.19,3.82-6.94a2.52,2.52,0,0,1,3.34-.1c1.76,1.07,1.79,2.9,2.57,4.4.21.39.43.84.91.6a5.64,5.64,0,0,0,2.32-2.06c.3-.49-.32-.64-.68-.83-1.36-.71-.7-1.26.17-1.72a5.64,5.64,0,0,1,6.34.83,4.14,4.14,0,0,1,1.72,3.55v.05l3.85-2.22a1,1,0,0,0,0-.16c.38-2.09,1.91-3.26,3.52-4.2a16.94,16.94,0,0,0,6.92-7.79,2.38,2.38,0,0,0-.26-2.39c-2.29,0-4.24-2.39-6.72-1a.9.9,0,0,1-1.41-.45c-.66-2.2.36-4.14,1.32-5.95.76-1.44,2.52-1.43,3.8-.94,2.95,1.11,5.12-.73,7.58-1.59.84-.29,1.69-1.42,2.63-.49s.13,1.76-.27,2.52c-.48.93-1.19,1.72-1.76,2.6-.22.34-.46.8-.18,1.17s.75,0,1.13-.09c1.72-.53,3-1.77,4.37-2.83,2.22-1.69,2.3-4,2.15-6.53a11.07,11.07,0,0,1,1.56-5.68c.74-1.41,2.38-1.64,3.42-2.65,1.44-1.39,1.41-2-.25-3.17-.47-.33-.3-.75-.22-1.12A.06.06,0,0,1,223.44,380.92Zm-22.55-36.46c0,.07,0,.14-.09.25l-.07-.2Zm10.52,40.64a2.77,2.77,0,0,1,1.5-2.83c.25-.14.64.05.63.32C213.53,383.89,212.48,384.32,211.41,385.1Zm-29,18.28h0v0Z"/><path d="M148.67,416.3c-1.89.21-4-.72-6.12-1.62-.68-.29-.53-.84-.74-1.32-.55-1.23-1.05-2.95-2.56-2.93-1.25,0-2,1.48-2.16,2.77-.31,1.93-1.53,2.11-3.08,1.83-.78-.14-1.16-.36-1-1.38.29-1.8.54-3.58-2.4-3.72a2.19,2.19,0,0,1-1.54-3.27c.63-1.24.37-2-.94-2.36s-2.2-1.18-1.52-2.4,1.27-2.63,3.34-2.07,3.85.93,5.1,2.79a2.68,2.68,0,0,0,1.87.81c1.61.09,2.83.5,3.35,2.24.25.82,1.11,1,1.92,1,1.26,0,2.52,0,3.78,0a2,2,0,0,0,1.68-.67c2.2-2.6,8.09-3.19,10.82-1.13,1.48,1.12.46,2.39.28,3.63-.15,1-1,.77-1.61,1.1-1.51.87-2.85,2.05-4.66,2.36.45,1.8-1.28,2.47-1.92,3.71C150.27,416.26,149.79,416.47,148.67,416.3Z"/><path d="M133.21,362.65c0-2.26-.51-4.13,2-4.67.82-.18.57-1.15.49-1.84-.17-1.63-.16-3.15,1.07-4.5s.45-3.4,1.13-5c.28-.68.53-1.12,1.25-1.13a13.42,13.42,0,0,1,8.14,2.81c.59.43,2.4,1.91-.16,3-1.1.47-1.26,2.18-.86,3.59.15.55.66,1.32,0,1.74s-1.28-.3-1.85-.67c-.87-.57-1.19-2.33-2.81-1.29-1,.65-2,1.34-2.11,2.68,0,.27,0,.6-.39.64s-.85-1.36-1,0c-.07.67.55,1,1.31,1,2.16.09,2.64.74,2.46,3-.1,1.18-.62,1.54-1.65.93a8.12,8.12,0,0,1-2.19-1.56c-.58-.7-.91-1.58-1.84-.54s-2,1.82-.76,3.22c.28.32,1.08.41.47,1.05s-1,1.23-1.92,1.08c-.64-.11-.53-.73-.57-1.21C133.33,364,133.24,363.06,133.21,362.65Z"/><path d="M120.73,373.27c-1,1.61.9,3.7-.32,5.83-.55,1,.33,1.8,1.56,1.9.74.06,1.81,0,1.93.84s-1,.78-1.59,1c-1.27.39-1.24.93-.34,1.72.65.57,1.66,1.08,1.07,2.16-.28.52-1,.46-1.53.16-.91-.53-2.18-1.23-1.63-2.34.87-1.77-.14-2.45-1.29-3.1a6.83,6.83,0,0,1-3.29-3c-.16-.36-.49-.81-.94-.73-2.62.45-1.94-1.74-2.08-2.87-.19-1.54,1.33-1.22,2.29-1.43,1.27-.28,2.65-.35,3.49-1.6a1.8,1.8,0,0,1,2.21-.73C121.28,371.39,120.64,372.23,120.73,373.27Z"/><path d="M173.14,341.34c-.56,2.31.51,3.75,2.67,4.6,1.53.6,2,2.74,4,2.78.34,0,.43.68.24,1.1a.93.93,0,0,1-1.25.48c-1.78-1.05-4.67-.23-5.37-3.16a1.34,1.34,0,0,0-1.33-.87c-.55,0-1.17-.32-1.13-.75.17-1.66-1.16-2.9-1.17-4.5,0-.59,0-1,.67-1,1.35,0,2.09-1,3-1.78,1.95-1.76,3.57-1.46,4.78.82.21.39.46.94.12,1.17-1.94,1.29-.2,2,.41,2.87.32.45.84.93.21,1.43s-.87-.12-1.22-.45C176.38,342.79,175.49,340.84,173.14,341.34Z"/><path d="M213.6,318a.08.08,0,0,1,0,0,2.45,2.45,0,0,1,0,.27,5.68,5.68,0,0,1-.09.69l-.06.31c0,.13-.06.26-.1.39s-.06.22-.1.33a6.32,6.32,0,0,1-.32.82,1.77,1.77,0,0,1-.15.31,5.18,5.18,0,0,1-.31.57c-.06.08-.11.16-.16.24l-.18.24-.22.27a5,5,0,0,1-.83.77,3.59,3.59,0,0,0-.34,6,3.31,3.31,0,0,0,3,.6c1.16-.27,1.1-1.27,1.21-2.18s.21-1.78.3-2.67c0-.26.07-.53.09-.79l.06-.6c0-.26.05-.52.07-.78l.06-.71,0-.61c0-.32,0-.65.05-1h0Z"/><path d="M165.38,317c-.95-.27-1.9-.52-2.82-.81-.36-.12-.72-.58-.52-.78,1.15-1.16.14-3.22.82-3.78,1.55-1.31,2.55-3,3.94-4.35a1.38,1.38,0,0,1,2.1,1.05,10.12,10.12,0,0,0,.6,2c.33.94,2,1.36,1.05,2.81A8,8,0,0,1,165.38,317Z"/><path d="M187.1,337.38a2.13,2.13,0,0,1-.38,1.81c-.43.55-.89.72-1.32.07s-1.59-1.61-1.62-1.81c-.31-2-1.67-1.59-3-1.69s-1.78-1-1-2.19,1.39-2.07,1.09-3.46c-.13-.59-.13-1.42.81-1.34s1.61.51,1.38,1.47c-.44,1.82.51,2.39,2,3S187.2,335.49,187.1,337.38Z"/><path d="M207.72,311.6c.33.73.83,1.39,1.23,2.1a.7.7,0,1,1-1.13.8,14,14,0,0,1-1.65-1.86,4,4,0,0,0-2.72-1.81,4.79,4.79,0,0,0-2.49.94c-.88.41-1.7.65-2.47-.22-.46-.51-1.11-1-.64-1.78s1.18-.57,1.85-.24a2.09,2.09,0,0,0,2.52-.13,2,2,0,0,1,1.27-.4h.24l.25,0,.24,0c.28,0,.56.09.84.11Z"/><path d="M128.78,395.71c-.58,0-1.3.32-1.47-.42s.66-.79,1.09-1.06c.82-.52,1.67-1,2.53-1.44a2.25,2.25,0,0,1,2.87.39c.93,1-.08,1.65-.54,2.32-.63.9-1.47,1.55-2.64.78C130,395.9,129.52,395.36,128.78,395.71Z"/><path d="M126.07,365.57c-.9-.17-2.12.39-2.5-.95a1.79,1.79,0,0,1,.83-2.19,2.38,2.38,0,0,1,3,.63c.45.56,1.44,1.11,1.1,1.87C128.1,365.91,126.93,365.44,126.07,365.57Z"/><path d="M199.26,316.4c1.38,0,2.08.67,2.11,1.9s-.47,2.27-1.69,2.22c-1.62-.08-2-1.57-2.22-2.9C197.2,315.92,198.84,317,199.26,316.4Z"/><path d="M207.91,317.28c-1.3.64-2.12,2.36-3.6,1.14a1.63,1.63,0,0,1,.16-2.45C205.82,315.07,206.65,316.54,207.91,317.28Z"/><path d="M172.83,315.09c1.17-.41.6-3,2.59-2.08.53.24,1.74.94,1.14,1.89C175.55,316.49,174.14,315.28,172.83,315.09Z"/><path d="M116.24,406.14c.61-1.73,2.13-3.27.24-5.59C119.61,402.21,119.33,404.42,116.24,406.14Z"/><path d="M175.18,350.56c.7.08,1.68-.22,1.64,1a1.06,1.06,0,0,1-1.25,1.1,1.49,1.49,0,0,1-1.36-1.59C174.19,350.27,174.64,350.35,175.18,350.56Z"/><path d="M127.24,379.46c0,.6,0,1.43-.78,1.45-.51,0-1-.64-.89-1.24s.08-1.58,1-1.57C127.29,378.11,127.16,378.91,127.24,379.46Z"/><path d="M123.94,377.8c-.71-.12-1.38-.36-1.45-1.2-.06-.62.32-1.16.94-1.09.78.09,1.06.82,1.19,1.51C124.7,377.48,124.52,377.85,123.94,377.8Z"/><path d="M159,414.3a1.24,1.24,0,0,1-1.2,1c-.64,0-.83-.43-.69-1s.25-1,.92-.88C158.51,413.55,159,413.72,159,414.3Z"/><path d="M179.43,325c-.1.62-.43,1-1.09,1a.91.91,0,0,1-.89-1.13.89.89,0,0,1,1-.86A.92.92,0,0,1,179.43,325Z"/><path d="M118.6,347.41c-.67-.15-1.29-.36-1.24-1.15s.55-.93,1.17-.9a1,1,0,0,1,1.08,1A1,1,0,0,1,118.6,347.41Z"/><path d="M144.34,393.34c-1.05-.45-2.05-.49-2.37-1.52-.09-.28.24-.51.53-.49C143.54,391.41,144.13,392,144.34,393.34Z"/><path d="M111.27,372.4c-.48,0-.72-.25-.68-.65.08-.76.66-1,1.3-1.14.35-.06.84.07.76.47A1.67,1.67,0,0,1,111.27,372.4Z"/><path d="M174.52,396.2a.65.65,0,0,1-.72.67c-.45,0-.85-.11-.86-.66a.61.61,0,0,1,.68-.63A.84.84,0,0,1,174.52,396.2Z"/><path d="M104.57,371.81c0,.39-.2.7-.58.71-.59,0-.84-.43-.83-1a.59.59,0,0,1,.69-.58C104.36,371,104.54,371.36,104.57,371.81Z"/><path d="M182.42,403.35l-1.32-.48c.88-.31,1.11.05,1.3.51Z"/><path d="M155.51,314.62l.24.24-.22.14c0-.11-.06-.21-.1-.32Z"/><path d="M98.29,374.79l0,0Z"/><path d="M121,322.45c.56,0,1.19-.1,1.51.49.69,1.28,1.18,2.67,2.46,3.57.32.22.29.79,0,1.16a1.08,1.08,0,0,1-1.31.38c-1.55-.51-2.61-1.81-4.06-2.54-.85-.43.2-1.49.17-2.3S120.35,322.4,121,322.45Z"/><path d="M130.76,332.58c0,.52-.27.75-.73.77a.74.74,0,0,1-.84-.69c-.05-.51.27-.75.72-.79S130.64,332.15,130.76,332.58Z"/><path d="M107.56,389.06l-.35-.32s.1,0,.13.05.13.2.2.3Z"/><path d="M211.41,385.1a2.79,2.79,0,0,1,1.5-2.84c.25-.13.64.06.63.33C213.53,383.89,212.48,384.32,211.41,385.1Z"/><path d="M200.8,344.71l-.07-.2.16-.05Z"/></g><path d="M255,362.14a4.28,4.28,0,0,1-3.74,4.22,4.36,4.36,0,0,1-2-.24,4.25,4.25,0,0,1-2.44-2.39,4.26,4.26,0,0,1,3.94-5.85H251a4.23,4.23,0,0,1,3.59,2.5h0a4.14,4.14,0,0,1,.37,1.44C255,361.93,255,362,255,362.14Z"/><path d="M251.22,358.81c0,.59-.32.8-.83,1.42-.51.27-1.21-.34-2,.59-.58-.43-1.12-.21-1.57-.32a4.23,4.23,0,0,1,3.92-2.62H251A3.13,3.13,0,0,1,251.22,358.81Z"/><path d="M251.47,361.86c0,.22.19-.05.5,1.2.3.87.73,1,1.19.5.47.82.9-.05,1.2-.5.31-.86.64-1.39.64-1.23,0-.6-.41-1.27-.64-1.16-.3-.55-.73.78-1.2-.5-.46.38-.89-.56-1.19.5C251.66,361.58,251.47,360,251.47,361.86Z"/><path d="M254,364.9a4.22,4.22,0,0,1-2.71,1.46.17.17,0,0,1-.05-.13c0-1.85.19-.28.5-1.2s.73-.11,1.2-.49C253.32,365.64,253.69,364.81,254,364.9Z"/><path d="M250.75,365.17c0,.42-.27.37-.72,1.14a.6.6,0,0,0-.78-.19,4.25,4.25,0,0,1-2.44-2.39c.41-.24.92.19,1.47-.17.68.76,1.3,0,1.75.47C250.48,365.13,250.75,364.22,250.75,365.17Z"/><path d="M277,357.8a32.17,32.17,0,0,0,6.55.81,9.08,9.08,0,0,0-1.31-2.24,17.45,17.45,0,0,0-4.87.27c-3.11-.1-6.47.46-9.58,0l-.33,0a9.12,9.12,0,0,0-1.2,2.19,6.67,6.67,0,0,0,1.06-.17C270.42,358.07,273.89,358.68,277,357.8Z"/><path d="M268.2,365.31c3.11-1.37,6.47-.08,9.58,0a9.27,9.27,0,0,1,6.06-.47,8.9,8.9,0,0,0,.39-2.2c-2-1-4.56-1.82-7.33.37a47.19,47.19,0,0,1-9.58,0c-.56,0-1.1,0-1.63.05a9.4,9.4,0,0,0,.35,1.77,5.52,5.52,0,0,1,.7.33A6.64,6.64,0,0,1,268.2,365.31Z"/><path d="M273.94,368c-1.93-.44-3.88-1.11-5.74,0a2.78,2.78,0,0,1-.38.12,10.06,10.06,0,0,0,1.32,1.29C270.71,369.61,272.33,368.5,273.94,368Z"/><path d="M282.07,368.11a15.11,15.11,0,0,1-3.83-.45c-.15.1-.31.21-.46.33a4.28,4.28,0,0,1-1,.26,4.31,4.31,0,0,1,1,.85,19.11,19.11,0,0,0,2.78.45A9.79,9.79,0,0,0,282.07,368.11Z"/><path d="M276.9,360.33c1.82,1,3.56-.24,5.1-.82a11,11,0,0,0-4.44-.29,2.62,2.62,0,0,1-1.44-.11c-2.88-1-5.54.14-8.8.3a6.46,6.46,0,0,0-1.18-.27,9.15,9.15,0,0,0-.37,1.48,12.86,12.86,0,0,1,1.55-.29C270.42,362.37,273.79,362.94,276.9,360.33Z"/><path d="M274.94,371.43l.63,0a19.15,19.15,0,0,0-3.95-.59A9.36,9.36,0,0,0,274.94,371.43Z"/><path d="M276.06,367.91a2.82,2.82,0,0,1,.76.34,4.28,4.28,0,0,0,1-.26c.15-.12.31-.23.46-.33-.28-.07-.58-.14-.87-.23A4,4,0,0,1,276.06,367.91Z"/><path d="M283.84,364.84q-.07.27-.18.54c-1.81-.07-4,.83-6.29.49-3.11,1.36-6.47.64-9.58,0a5.89,5.89,0,0,0-1.05-.71,6.71,6.71,0,0,1,1.46.15c3.11-1.37,6.47-.08,9.58,0A9.26,9.26,0,0,1,283.84,364.84Z"/><path d="M274.28,367.92l-.34.09c-1.93-.43-3.88-1.1-5.74,0a2.78,2.78,0,0,1-.38.12c-.19-.22-.37-.46-.54-.7l.51,0C269.89,366.52,272.1,367.64,274.28,367.92Z"/><path d="M282.82,367.08a10.83,10.83,0,0,1-.75,1,14.72,14.72,0,0,1-3.83-.45A5.36,5.36,0,0,1,282.82,367.08Z"/><path d="M266.74,365.16a5.81,5.81,0,0,0-.59,0c0-.11-.07-.22-.11-.34A5.52,5.52,0,0,1,266.74,365.16Z"/><path d="M283.66,365.38a9,9,0,0,1-.84,1.7,5.36,5.36,0,0,0-4.58.58c-.28-.07-.57-.14-.87-.23a4,4,0,0,1-1.32.48,3.43,3.43,0,0,0-1.77,0c-2.18-.28-4.39-1.4-6.49-.49l-.51,0a9.61,9.61,0,0,1-1.13-2.24,5.81,5.81,0,0,1,.59,0,5.89,5.89,0,0,1,1.05.71c3.11.64,6.47,1.36,9.58,0C279.68,366.21,281.85,365.31,283.66,365.38Z"/><path d="M283.82,359.37a2.53,2.53,0,0,0-1.82.14,11.23,11.23,0,0,0-4.44-.29,2.62,2.62,0,0,1-1.44-.11c-2.88-1-5.54.14-8.8.3a7.46,7.46,0,0,0-1.18-.28c0-.1.08-.22.12-.33a8,8,0,0,0,1.06-.17c3.1-.56,6.58.05,9.68-.84a30.81,30.81,0,0,0,6.55.81C283.65,358.85,283.74,359.11,283.82,359.37Z"/><path d="M284.24,362.13c0,.17,0,.34,0,.51-2-1-4.56-1.82-7.33.37a47.19,47.19,0,0,1-9.58,0c-.55,0-1.1,0-1.63.05,0-.3-.05-.61-.05-.93a9.29,9.29,0,0,1,.13-1.5,11.18,11.18,0,0,1,1.55-.3c3.1,2,6.47,2.61,9.58,0,1.82,1,3.55-.24,5.1-.82a7.15,7.15,0,0,0,1.91.16A9.13,9.13,0,0,1,284.24,362.13Z"/><path d="M282,359.51a7.15,7.15,0,0,0,1.91.16c0-.1-.05-.2-.09-.3A2.53,2.53,0,0,0,282,359.51Z"/><path d="M282.23,356.36a17.81,17.81,0,0,0-4.86.28c-3.11-.1-6.47.46-9.58,0l-.33,0a9.31,9.31,0,0,1,1.42-1.52c2.71.73,5.56.11,8.22-.49a7.13,7.13,0,0,0,3.86.45A9.25,9.25,0,0,1,282.23,356.36Z"/><path d="M279.19,353.86c-.59,0-1.2.08-1.82.1-2.59.8-5.36,1.64-8,.74a9.29,9.29,0,0,1,9.84-.84Z"/><path d="M281,355.05a7.13,7.13,0,0,1-3.86-.45c-2.66.6-5.51,1.22-8.22.49a5.71,5.71,0,0,1,.47-.39c2.66.9,5.43.06,8-.74.62,0,1.23-.06,1.82-.1A9.29,9.29,0,0,1,281,355.05Z"/><path d="M280.56,369.55a9.27,9.27,0,0,1-5,1.86,19.25,19.25,0,0,0-3.95-.59,9.51,9.51,0,0,1-2.48-1.42c1.57.21,3.19-.9,4.8-1.39a7.45,7.45,0,0,0,2.88.24,4.58,4.58,0,0,1,1,.85A19.33,19.33,0,0,0,280.56,369.55Z"/><path d="M274.27,367.92l-.33.1a7.64,7.64,0,0,0,2.88.23,2.82,2.82,0,0,0-.76-.34A5.66,5.66,0,0,1,274.27,367.92Z"/><path d="M276.06,367.91a3.5,3.5,0,0,0-1.79,0A5.66,5.66,0,0,0,276.06,367.91Z"/><path d="M319.81,362.13a13.06,13.06,0,1,1-24.72-5.85h0a13,13,0,0,1,10.32-7.13h0a12.08,12.08,0,0,1,1.35-.07,12.71,12.71,0,0,1,3.28.42,13.06,13.06,0,0,1,9.53,10.13h0A12.92,12.92,0,0,1,319.81,362.13Z"/><path d="M319.26,363.5c-.8.47-1.36-5.09-2-4.4a.83.83,0,0,1-.91.08l0-.08c-1.31-1.69-1.77-1-1.77-1a6.84,6.84,0,0,0,1.82,1.08c1.16,1.67-1.91,3.07-1.91,2.39s-2-3-2-3c-.39.15,1.57,3.7,2.94,3.94a.3.3,0,0,1,.21.34c-.1,1.31-1.88,2.52-1.72,3.51a2.94,2.94,0,0,1-.35,1.85c-.22.32-.87.08-1.08.93a3.41,3.41,0,0,1-2.16,2.24c-2.42-.08-.64-4.47-1.85-7-.73-1.51-2.49.1-3.69-.63s-1.25-2.55-.94-3.59,1.21-1.27,1.7-2.54c.73-1.89,3.31-.94,3.16,0-.08.52,1.63.2,2,.19,3.29,0,1.93-.24,1.81-.46s-1.34-.72-1.43-.85c-.21-.34,1.36-.59,1.07-1-1.22-1.58-2,1.28-2.65.75-.8-.68.81-1.75-2.81-.05-2.92,1.37-1.43-1-.27-1,.52,0,0-1,.31-1.39.87-1,2.46.41,2.73-.6.13-.47-2.39-.17-1.62-.75s-2.08-1.47,1.16-2.66c.37-.14.73-.25,1.08-.35a13.06,13.06,0,0,1,9.53,10.13C318.86,359,319.9,363.13,319.26,363.5Z"/><path d="M314.92,367.66s-1.64.88-1.41,2S315.62,367.92,314.92,367.66Z"/><path d="M302.25,352.47c.25-.79,1.59-1.75,1.69-1.82-.13,0-2.22.62-2.64,1.72s-5.14,2.62-5.63,5c-.42,2-.55-.37-.58-1.09h0a13,13,0,0,1,10.32-7.13h0a11.13,11.13,0,0,1,1.08.78C306.71,350.1,302,353.29,302.25,352.47Z"/><path d="M300.45,366.56s-1.16,2.52-.31,3.23-1.4,1.87.3,3.77a13,13,0,0,1-6.46-8.75c.39-.26.72-.86.64-2.19-.18-3,1.18-.43,1.82,0a1.78,1.78,0,0,1,.93,2.3C296.93,366.25,301.09,364.17,300.45,366.56Z"/><path d="M340.55,362.13a6.46,6.46,0,0,1-1.7,4.37,6.29,6.29,0,0,1-1.48,1.19,3.9,3.9,0,0,1-.35.19,6.36,6.36,0,0,1-2.92.7,6.45,6.45,0,0,1-1.17-.1,6.32,6.32,0,0,1-1.56-.5,6.5,6.5,0,0,1-3.54-4.32,7,7,0,0,1-.18-1.53,6.46,6.46,0,0,1,10.22-5.23,6,6,0,0,1,.61.5A6.44,6.44,0,0,1,340.55,362.13Z"/><path d="M338.85,366.3v.2a6.29,6.29,0,0,1-1.48,1.19,3.9,3.9,0,0,1-.35.19,6.36,6.36,0,0,1-2.92.7,6.45,6.45,0,0,1-1.17-.1,6.32,6.32,0,0,1-1.56-.5,6.5,6.5,0,0,1-3.54-4.32,18.59,18.59,0,0,0,2,1.7,2.27,2.27,0,0,0,1.76.12c1-1-1.17-1.67.21-2.45a.59.59,0,0,1,.39-.07c1.07.15,1-1.2,1.94-.24,1,1.33,0,.79.57,2.65C335.27,365.89,338.85,364.72,338.85,366.3Z"/><path d="M337,367.88a6.36,6.36,0,0,1-2.92.7,6.45,6.45,0,0,1-1.17-.1l.25-.11C334.62,367.19,335.94,367.09,337,367.88Z"/><path d="M338.48,357.4c-.2.11-.41.25-.64.4-1.08-.56-2.57.47-4.22.4-1.65,1.54-3.14.45-4.22-.4l0,0a6.46,6.46,0,0,1,8.51-.87A6,6,0,0,1,338.48,357.4Z"/><path d="M337.87,356.9c-1,.48-2.42-.28-3.92-.17a2.61,2.61,0,0,1-2.18-.61,6.5,6.5,0,0,1,6.1.78Z"/><path d="M439.26,362.13a35.29,35.29,0,0,1-.58,6.38,33.2,33.2,0,0,1-1.29,5c-.27.8-.58,1.59-.9,2.37a35.53,35.53,0,0,1-5.85,9.39A34.94,34.94,0,0,1,427,388.9l-.18.16h0a35.28,35.28,0,0,1-44.7.8l-.12-.09a36.37,36.37,0,0,1-4.66-4.46,35.26,35.26,0,0,1-5.89-9.44q-.5-1.17-.9-2.37a33.23,33.23,0,0,1-1.3-5,36.22,36.22,0,0,1-.57-6.38q0-1.67.15-3.3a35.14,35.14,0,0,1,.92-5.38l.2-.75a34.83,34.83,0,0,1,2.7-6.86,35.68,35.68,0,0,1,3.3-5.17,35.3,35.3,0,0,1,56.6.72,34.61,34.61,0,0,1,2.79,4.51,34.21,34.21,0,0,1,2.67,6.8l.2.75a35.14,35.14,0,0,1,.92,5.38A32.85,32.85,0,0,1,439.26,362.13Z"/><path d="M436.49,375.87a35.53,35.53,0,0,1-5.85,9.39c-1.73,0-3.63,0-5.68.05-4.52,2-9.73.93-15.15,0-5.44-1.76-11.09,2-16.52,0-5.43-2.26-10.63.34-15.16,0h-.82a35.26,35.26,0,0,1-5.89-9.44h6.71c4.53,1.65,9.73,1.3,15.16,0,5.43.46,11.08,2.51,16.52,0,4.72-.34,9.27.08,13.36,0,.6,0,1.2,0,1.79,0l.19.16c4.44,3.68,8.22-.16,10.89-.16Z"/><path d="M398.31,381.08c1.35-.21-1,6.42-10.36,6.1-6-.2-11.43-7.25-10.37-6.1,0,0,4.64-6.09,10.37-6.09S398.31,381.08,398.31,381.08Z"/><path class="cls-1" d="M388,384.82c-4.47,0-7.24-2.34-7.33-3.67.3-.58,2.7-5,6.41-5a5,5,0,0,1,.86.07c4.86.87,8.48,3.28,8.48,4.84C396.37,383.42,393.22,384.82,388,384.82Z"/><path d="M387,376.46h0a4.45,4.45,0,0,1,.81.08c5,.9,8.24,3.29,8.24,4.54,0,2.15-3,3.44-8.13,3.44-4.39,0-6.84-2.25-7-3.31.42-.79,2.69-4.75,6.1-4.75m0-.59c-4.19,0-6.7,5.21-6.7,5.21,0,1.44,2.8,4,7.62,4s8.72-1.19,8.72-4c0-1.8-3.86-4.26-8.72-5.13a5.92,5.92,0,0,0-.92-.08Z"/><path d="M435.31,345.9h-8.38c-4.66,3.81-10-1.41-15.64,0-5.59,1-11.43-3.9-17,0-5.6-.51-11-1-15.64,0-2.16-.07-4.18-.08-6-.06a35.68,35.68,0,0,1,3.3-5.17,11.07,11.07,0,0,1,2.7.72c4.67-.26,10,2.72,15.64,0,5.6,1.59,11.44-.72,17,0,5.61.26,11,.54,15.64,0h5.59A34.61,34.61,0,0,1,435.31,345.9Z"/><path d="M427.29,335.64h-.43c-3.88.49-9.2-1-15,0-5.81-3.83-12.11,2.08-17.92,0-5.34.55-10.26,2.7-14,.66a35.31,35.31,0,0,1,47.4-.66Z"/><path d="M439.26,362.13H428.33c-2.31,0-4.79-.88-7.39-1.33-2.6-1.75-5.31-1.35-8.09,1.33-2.77,2.51-5.6,4.93-8.43,1.64-2.83-3.1-5.66-1.48-8.43-1.64-2.77,1-5.49-2.1-8.09.16-2.59.37-5.08.68-7.39-.16H368.65q0-1.67.15-3.3h.39c2.77,0,6.7,2.81,11.32,0a21,21,0,0,1,7.39-.85,76,76,0,0,1,8.09.85c2.77.49,5.6.26,8.43.55,2.83.45,5.66,1.46,8.43-.55,2.78-.08,5.49.73,8.09.79,2.6-.27,5.08-.79,7.39-.79H439.1A32.85,32.85,0,0,1,439.26,362.13Z"/><path d="M438.68,368.51a33.2,33.2,0,0,1-1.29,5h-4.73c-2.32,1.18-4.84,2.4-7.51,2.53a8.82,8.82,0,0,1-2-.12,10.18,10.18,0,0,1-4.91-2.41c-5.27,3-10.89-3.44-16.51,0a40,40,0,0,0-16.5,0c-5.27,1.11-10.19,0-14.4,0h-.33a33.23,33.23,0,0,1-1.3-5h8.43c2.42,0,5,1.08,7.6,0,2.63,1,5.35-.2,8.12.68,2.76-.34,5.57,2.18,8.38-.68,2.81-1.76,5.62-2.73,8.39-.17,2.76-2.25,5.49-.4,8.12.17,5.27,1.2,10.18,0,14.4,0Z"/><path d="M418.94,394.11a35.42,35.42,0,0,1-27.09,1.2,12.19,12.19,0,0,0,4.26-.76c4.79-.42,10-2.66,14.77,0A64.89,64.89,0,0,1,418.94,394.11Z"/><path d="M500.42,361.51c-.43.33-.86.67-1.26,1-.27-.18-.55-.36-.81-.55A16.07,16.07,0,0,1,500.42,361.51Z"/><path d="M490.35,383.52a20.25,20.25,0,0,0,4.89-2.11l-.61-.63A7.14,7.14,0,0,0,490.35,383.52Z"/><path d="M498.55,346.58a100.4,100.4,0,0,0,19.65-7.53,30,30,0,0,0-7.05-4.34,56.43,56.43,0,0,0-13.29,8.06c-8.9,4.36-17.53,11-27,14.34l-1,.39a29.27,29.27,0,0,0-.11,8,22,22,0,0,0,2.72-2.07C480.44,357.19,491.13,353.71,498.55,346.58Z"/><path d="M485,380.9c6.7-8.5,18.1-9.92,27-14.34,4.7-6.21,10.84-8.8,16.37-10.4a29.67,29.67,0,0,0-2.2-6.76c-7.14.11-15.57,1.69-20.1,12a151.75,151.75,0,0,1-27,14.34c-1.57.8-3.07,1.67-4.51,2.57a28.84,28.84,0,0,0,3.65,4.46,10.51,10.51,0,0,1,.81.78A43.51,43.51,0,0,1,485,380.9Z"/><path d="M505.23,379.93c-6.09,1.66-12.58,2.7-16.19,8.53-.29.32-.59.61-.9.9A30.09,30.09,0,0,0,493.8,391C498.53,389.26,501.43,383.71,505.23,379.93Z"/><path d="M528.26,368a48,48,0,0,1-11.44,4.46c-.28.52-.56,1.06-.81,1.64a13.47,13.47,0,0,1-2.31,2.17,13.06,13.06,0,0,1,4,.94,62.28,62.28,0,0,0,8.5-2.89A30.45,30.45,0,0,0,528.26,368Z"/><path d="M503.53,354.92c6.66.15,8.18-7.05,11.66-11-4.19,1.33-9,2.5-12.94,5.84a8.57,8.57,0,0,1-4.2,1.83c-9.59,1.57-15.41,8.69-24.34,14a20.6,20.6,0,0,0-3.73,1,30,30,0,0,0,1.18,4.75,38.68,38.68,0,0,1,3.92-3.16C486.88,369.3,498.7,366.93,503.53,354.92Z"/><path d="M513.18,388.05c.59-.32,1.17-.66,1.74-1-4.1,1.18-8.32,2.29-12,4.26A29.46,29.46,0,0,0,513.18,388.05Z"/><path d="M511,376.46a9.32,9.32,0,0,1,2.67-.17,13.47,13.47,0,0,0,2.31-2.17c.25-.58.53-1.12.81-1.64-.92.24-1.85.47-2.8.67A13.3,13.3,0,0,1,511,376.46Z"/><path d="M528.35,356.16c.12.59.22,1.18.3,1.78-5.19,2.54-9.95,8.32-17,10.81-6.72,8.47-17.27,11.48-27,14.34a21.21,21.21,0,0,0-4-.43A22.43,22.43,0,0,1,485,380.9c6.7-8.5,18.1-9.92,27-14.34C516.69,360.35,522.83,357.76,528.35,356.16Z"/><path d="M506,379.17l-.81.76c-6.1,1.66-12.58,2.7-16.19,8.53-.28.32-.59.61-.9.9a25.48,25.48,0,0,1-2.55-1.18l1.47-.69C491.58,381.78,499.49,381.62,506,379.17Z"/><path d="M528.82,364a27.14,27.14,0,0,1-.56,4,48,48,0,0,1-11.44,4.47C519.82,367.05,524.35,365,528.82,364Z"/><path d="M528.65,357.94a29.2,29.2,0,0,1,.17,6.05c-4.47,1.05-9,3.06-12,8.5-.92.23-1.84.46-2.8.67a13.44,13.44,0,0,1-3,3.3,11,11,0,0,0-5,2.71c-6.55,2.45-14.46,2.61-19,8.32l-1.47.69a29.45,29.45,0,0,1-6.54-4.61c.53-.32,1.08-.62,1.64-.91a21.21,21.21,0,0,1,4,.43c9.69-2.86,20.24-5.87,27-14.34C518.7,366.26,523.46,360.48,528.65,357.94Z"/><path d="M520.81,341.51c0,.95-1.27,1.29-5.63,2.42-4.18,1.34-9,2.51-12.93,5.83a8.5,8.5,0,0,1-4.19,1.84c-9.6,1.56-15.41,8.69-24.35,14a22.27,22.27,0,0,0-3.72,1c-.07-.36-.12-.74-.16-1.11a22.48,22.48,0,0,0,2.71-2.08c7.9-6.22,18.59-9.7,26-16.84a99.56,99.56,0,0,0,19.65-7.52C518.86,339.6,520.2,340.9,520.81,341.51Z"/><path d="M525.44,348c.25.47.49,1,.72,1.45-7.14.11-9.12,7.36-20.1,12a151.75,151.75,0,0,1-27,14.34c-1.57.79-3.07,1.67-4.51,2.57a27.86,27.86,0,0,1-1.51-2.54,30.05,30.05,0,0,1-1.91-4.43,37.48,37.48,0,0,1,3.91-3.16c11.8,1.1,18.64-5.26,28.45-13.28,6.66.15,8.18-7.05,11.65-11a22.81,22.81,0,0,0,5.63-2.42A29.35,29.35,0,0,1,525.44,348Z"/><path d="M511.14,334.72a55.47,55.47,0,0,0-13.27,8.06c-8.91,4.35-17.54,11-27,14.34-.33.12-.65.25-1,.39a29.93,29.93,0,0,1,1.71-6.4c8.73-2,15.83-8,22.42-13.68a22.8,22.8,0,0,0,11.54-4.52A29.76,29.76,0,0,1,511.14,334.72Z"/><path d="M498.84,332.22c-1.62,1-3.27,2-5,3-6.09,6.15-12.64,12.66-21.46,14.1a29.68,29.68,0,0,1,26.45-17.1Z"/><path d="M505.59,332.91a22.8,22.8,0,0,1-11.54,4.52c-6.59,5.67-13.69,11.69-22.42,13.68.23-.6.48-1.21.76-1.79,8.82-1.44,15.37-7.95,21.46-14.1,1.72-1,3.37-2,5-3A29.93,29.93,0,0,1,505.59,332.91Z"/><path d="M526.16,374.34A29.5,29.5,0,0,1,514.91,387c-4.1,1.18-8.31,2.28-12,4.26a29.39,29.39,0,0,1-9.08-.29c4.73-1.75,7.63-7.31,11.43-11.08a24.47,24.47,0,0,0,8.47-3.65,13.76,13.76,0,0,1,4,.94A60.5,60.5,0,0,0,526.16,374.34Z"/><path d="M506,379.17l-.81.76a24.84,24.84,0,0,0,8.47-3.64,9.32,9.32,0,0,0-2.67.17A17.88,17.88,0,0,1,506,379.17Z"/><path d="M511,376.46a11,11,0,0,0-5,2.71A17.88,17.88,0,0,0,511,376.46Z"/><path d="M512.66,335.67a28.61,28.61,0,0,1,3.42,2c16.53-7.09,29.33-9.28,32.1-4.65s-5.25,14.86-19.33,26a206.73,206.73,0,0,1-22.2,15.2,204.39,204.39,0,0,1-23.91,12.32c-16.53,7.09-29.33,9.28-32.09,4.65s5.24-14.86,19.32-26a29.19,29.19,0,0,1-.14-4c-20.74,15.26-33.15,29.89-29.43,36.12s22.49,2.25,45.76-8.76c7-3.31,14.46-7.27,22-11.78S522.74,367.65,529,363c20.73-15.26,33.14-29.89,29.42-36.12S535.93,324.66,512.66,335.67Z"/><path d="M504.68,371a136.06,136.06,0,0,1-25.88,12.29c-8.51,2.82-14.7,3.21-16.31.5s1.66-8,8.18-14.12a27.8,27.8,0,0,1-.73-3.47c-12,9.84-18.62,18.69-16.17,22.8s13.39,2.45,27.74-3.43a198.49,198.49,0,0,0,47-28c12-9.84,18.63-18.69,16.18-22.79s-13.39-2.45-27.74,3.42a29.2,29.2,0,0,1,2.71,2.28c8.51-2.81,14.7-3.2,16.31-.5s-1.66,8-8.18,14.13"/><path d="M648.72,362.18c-.36.35-.72.69-1.1,1l-.76-.17a15.61,15.61,0,0,0-2.48-1,10.53,10.53,0,0,0,2.48-.85A9.83,9.83,0,0,0,648.72,362.18Z"/><path d="M665.29,358.73l0,.19a19,19,0,0,1,.25,2.23c0,.54,0,1.08,0,1.62s-.08,1.24-.16,1.85-.14,1-.24,1.42a18.7,18.7,0,0,1-1.26,3.9,18.91,18.91,0,0,1-1.91,3.32c-.21.29-.43.58-.65.86a19.27,19.27,0,0,1-2.69,2.73,19.12,19.12,0,0,1-20.55,2.47c-.46-.23-.91-.48-1.36-.74a18.81,18.81,0,0,1-4.32-3.49,18.75,18.75,0,0,1-2.49-3.36c-.29-.51-.57-1-.82-1.59-.14-.28-.26-.58-.38-.87a20.14,20.14,0,0,1-.68-2q-.26-.93-.42-1.89c0-.1,0-.19,0-.28a19.28,19.28,0,0,1-.19-4.21,21.36,21.36,0,0,1,.26-2.13,18.29,18.29,0,0,1,.46-1.91q.18-.65.42-1.29a18.47,18.47,0,0,1,2.73-5,19.09,19.09,0,0,1,27-3.5c.35.28.69.57,1,.86a19.77,19.77,0,0,1,2.17,2.31q.54.67,1,1.41c.32.48.62,1,.9,1.5s.64,1.3.91,2A19.92,19.92,0,0,1,665.29,358.73Z"/><path d="M628.71,369.14a7,7,0,0,1,.79.57c3.28.4,7.34-1.66,12.09-2.06,5.09,1.6,9.53-2.94,14.43-2.46,3.2-2.45,6.7-1.82,9.53-1.78a16.74,16.74,0,0,1-.26,2.13,23,23,0,0,1-9,1c-4.76.36-9.63,2.4-14.43,2.46-4.58,1.35-9,1.47-12.09,2.06l-.11.06A19.72,19.72,0,0,1,628.71,369.14Z"/><path d="M627.39,361.5a16.29,16.29,0,0,1,.16-1.85l.12,0c3.12-.13,7.14-1.91,11.84-2,4.31-2.36,9.58-1.44,14.12-2.41,3.89.11,7.51.13,10.21-1.06.13.28.26.58.38.87-2.86.53-6.26,2.25-10.3,1.88a36.92,36.92,0,0,0-4.93,1.28,25.76,25.76,0,0,1-6.44,1.35,11.78,11.78,0,0,1-2.76-.22c-4.56.83-8.87.94-11.83,2Z"/><path d="M627.78,358.22a19.45,19.45,0,0,1,1.27-3.89c2.76-.33,5.9-2,9.54-2.12,5.13,2.45,9.28-3.16,14.12-2.41,2.66-1.06,5.45-.57,7.82-.62a18.7,18.7,0,0,1,2.48,3.36,20.94,20.94,0,0,1-9.61,1.3c-4.67.21-9.54,1.63-14.12,2.41A96.1,96.1,0,0,1,627.78,358.22Z"/><path d="M645.28,349.33c-1.09.12-2.19.18-3.28.22a18,18,0,0,0,3-1.57c4-.39,7.82-2.15,11.16-2.29a19.35,19.35,0,0,1,2.07,1.41l-.13,0C654.83,348.8,649.69,346.94,645.28,349.33Z"/><path d="M658.9,373.65c-2.27.9-5,1-7.92,1.07A15.16,15.16,0,0,1,658.9,373.65Z"/><path d="M634.3,347.42A19.1,19.1,0,0,1,654.84,345a16,16,0,0,1-2.74.5c-3.55,3.06-8.24,1.37-12.18,2.08C637.94,347.53,636,347.33,634.3,347.42Z"/><path d="M633.21,375.86a15.27,15.27,0,0,0,10.17-1.75c4.32-1.16,9.45,1,13.55-1.8a16.56,16.56,0,0,0,5.88-.21,20.32,20.32,0,0,1-1.54,2.17c-1.3.1-2.65.22-4,.42-4.53-.45-8.94,2.82-13.54,1.8-3.33,1.51-6.88-.42-9.49.27C633.86,376.47,633.54,376.17,633.21,375.86Z"/><path d="M630.52,372.62l.92-.11c2.9-2.07,7.47-1.48,12.24-2.09,4.74-.86,9.62-3.21,14.62-2.5a32.3,32.3,0,0,1,6.54-.47c-.12.43-.27.86-.42,1.29a11.26,11.26,0,0,0-5.86.7c-4.41,2.73-9.72,2.58-14.62,2.49-4.17,4.11-9,2.22-12.24,2.09h-.16A14,14,0,0,1,630.52,372.62Z"/><path d="M627.69,365.54l0-.19a19,19,0,0,1-.25-2.23,8.15,8.15,0,0,1,1.5.11c2.84-1.53,7.18-1.06,11.67-2a9.18,9.18,0,0,1,2-1.72,10.31,10.31,0,0,1,6.44-1.35c1.85.11,3.72.47,5.51.7A53.38,53.38,0,0,1,664.9,357q.26.93.42,1.89c0,.1,0,.19,0,.28-2.79.92-6.65.47-10.54,1.51-5.34-4-9.42,1.55-13.92,2.38-4.9-1.45-9.07-.9-11.67,2A15.19,15.19,0,0,1,627.69,365.54Z"/><path class="cls-2" d="M647.35,367.38c-16.18,2.82-33.7,4-34.29.61-.44-2.51,8.93-5.89,14.38-7.41l0,.92c-9.71,2.71-13.93,5.23-13.73,6.38.38,2.17,14.25,2.24,33.55-1.13s32.32-8.12,32-10.29c-.2-1.11-4.63-2.08-14.92-1.35l-.27-.64c5.78-.41,15.39-.55,15.81,1.88C680.4,359.73,663.52,364.56,647.35,367.38Z"/><path d="M591.16,340.44l.22.08a22.88,22.88,0,0,1,2.49,1c.58.29,1.15.6,1.7.92a22.43,22.43,0,0,1,1.86,1.26q.71.51,1.35,1.08a22.29,22.29,0,0,1,3.34,3.6,23.14,23.14,0,0,1,2.37,3.94c.18.4.35.79.52,1.2A23.77,23.77,0,0,1,606.3,358a23,23,0,0,1-9.44,23c-.51.35-1,.68-1.57,1a21.8,21.8,0,0,1-2.69,1.35,23.3,23.3,0,0,1-8.47,1.78A19.38,19.38,0,0,1,582,385c-.38,0-.76-.06-1.14-.11a25,25,0,0,1-2.53-.47q-1.11-.27-2.22-.66l-.32-.12a23,23,0,0,1-4.52-2.26,24.24,24.24,0,0,1-2.09-1.52c-.6-.5-1.19-1-1.74-1.6-.38-.38-.74-.78-1.1-1.19a22.57,22.57,0,0,1-2.13-2.93,23.18,23.18,0,0,1-1.48-2.84A22.93,22.93,0,0,1,574.82,341c.5-.21,1-.4,1.5-.58a22.13,22.13,0,0,1,3.69-.92,18.16,18.16,0,0,1,2.08-.25c.69-.05,1.4-.07,2.1-.06a25.28,25.28,0,0,1,2.6.2A22.92,22.92,0,0,1,591.16,340.44Z"/><path d="M586.79,339.4a8.84,8.84,0,0,1-1.06.5c-2.33,3.2-2.55,8.67-4.91,13.88-4.66,4.4-2.49,11.71-5.86,16.57.69,4.79-2,8.09-3.71,11a24.24,24.24,0,0,1-2.09-1.52,27.49,27.49,0,0,1,4.25-10.07c2.41-5.2,3.12-11.5,5.86-16.57,1.27-5.6,3.71-10.27,4.91-13.88a.76.76,0,0,1,0-.15A25.28,25.28,0,0,1,586.79,339.4Z"/><path d="M595.57,342.48a22.43,22.43,0,0,1,1.86,1.26l0,.14c-1.69,3.35-2.17,8.61-4.81,13.59-.05,5.91-4.09,10.89-5.73,16.22-2.4,4-4.53,7.79-4.86,11.32-.38,0-.76-.06-1.14-.11,1.12-3.3,1.3-7.88,4.06-11.89a45.81,45.81,0,0,0,1.54-5.92,30.56,30.56,0,0,1,2.36-7.55,13,13,0,0,1,1.84-2.75c1.8-5.28,4.2-9.86,4.8-13.59C595.49,343,595.53,342.71,595.57,342.48Z"/><path d="M598.78,344.82a22.29,22.29,0,0,1,3.34,3.6c-1.26,3.1-1.36,7.36-3.35,11.24-5.58,3.95-2.13,11.59-5.74,16.22-.45,3.42-2.59,6.05-3.93,8.56a22.34,22.34,0,0,1-5,.64c.64-3.29,1.54-7.24,4.26-10.84,2.52-5,3.88-10.95,5.73-16.22A114.92,114.92,0,0,1,598.78,344.82Z"/><path d="M597.87,368.37c.51-1.21,1.1-2.4,1.68-3.57a23.31,23.31,0,0,0-.13,4.12c-1.95,4.44-2.33,9.46-4.13,13a21.8,21.8,0,0,1-2.69,1.35.83.83,0,0,1,0-.15C592.84,378.68,597.79,374.39,597.87,368.37Z"/><path d="M603.07,355.87c-.38,2.9-2,5.84-3.52,8.93A18.3,18.3,0,0,1,603.07,355.87Z"/><path d="M606.3,358a23,23,0,0,1-9.44,23,18.69,18.69,0,0,1,1.09-3.18c-1.13-5.5,3.38-9.43,4.95-14C604.05,361.72,605.38,359.82,606.3,358Z"/><path d="M577.11,340.19A18.4,18.4,0,0,0,573,351.87c-1.31,5.21-6.58,9.33-6,15.26a19.84,19.84,0,0,0-3.22,6.3,23.84,23.84,0,0,1-1.37-2.89c.65-1.42,1.31-2.91,1.91-4.47,3.12-4.49,2.28-11,6-15.26.36-4.37,4.47-7,5.27-10.1C576.09,340.51,576.6,340.35,577.11,340.19Z"/><path d="M582.09,339.26c-.13.33-.27.68-.42,1,.47,4.25-2.82,8.7-5,14.07-1.87,5.46-2.26,11.95-5.93,16.78a38.44,38.44,0,0,1-3.34,7.13c-.38-.38-.74-.78-1.1-1.19a13.59,13.59,0,0,0,2.7-6.56c-.29-6.22,3-11.7,5.93-16.78-1.86-6.79,2.93-10.7,5-14.06a.89.89,0,0,1,.08-.17A18.16,18.16,0,0,1,582.09,339.26Z"/><path d="M591.16,340.44l.22.08a22.88,22.88,0,0,1,2.49,1,10.49,10.49,0,0,1-1,1.51c-.06,3.87-3.09,8.15-4.74,13.4a11.38,11.38,0,0,1,.66,3.07,12.4,12.4,0,0,1-2.36,7.55c-1.19,1.87-2.67,3.62-4,5.37a64.73,64.73,0,0,1-4.18,12q-1.11-.27-2.22-.66l-.32-.12c.67-3.47,3.39-7.25,4.58-11.94,7.38-3.23,3.89-10.78,5.66-16,4.39-4.29,6.25-9,4.74-13.4C590.87,341.63,591,341,591.16,340.44Z"/><ellipse cx="583.12" cy="378.86" rx="5.56" ry="2.33" transform="translate(31.51 802.28) rotate(-70.52)"/><ellipse cx="582.79" cy="378.16" rx="5.56" ry="2.33" transform="translate(31.94 801.5) rotate(-70.52)"/><path class="cls-3" d="M573,393.52a.62.62,0,0,1-.22,0c-.39-.14-1.42-.43,1.15-10.62l.54.24c-2.35,9.29-1.53,9.81-1.5,9.84s1,.22,4.9-8.23c2.62-5.67,5.68-13.36,8.61-21.65s5.39-16.19,6.92-22.24c2.28-9,1.36-9.48,1.35-9.49s-1-.31-5.09,8.64l-.56-.13c4.35-9.52,5.44-9.19,5.85-9s1.44.51-1,10.17c-1.53,6.07-4,14-6.93,22.29s-6,16-8.63,21.7C574.79,392.66,573.5,393.52,573,393.52Z"/><circle cx="697.44" cy="362.13" r="3.99"/><path d="M701.44,362.14a4,4,0,0,1-.62,2.13,4.21,4.21,0,0,1-.44.58l0,0a1.22,1.22,0,0,0-.45.4.15.15,0,0,1-.07.05c-.13-.06-.23.11-.38.25s0-.16-.08-.13l-.16-.05c-.14-.18-.14-.05-.06-.38.08.13.25-.29.46-.64a1.91,1.91,0,0,0,.34-.28c.11,0,.23-.33.35-.33s.23-.07.33-.29.19-.28.26-.3a.84.84,0,0,0,.18-.41c0-.35,0-.17-.11-.41-.1-.08-.26-.24-.5-.44a.36.36,0,0,0-.39.17c-.08.17-.17-.06-.25.22-.08,0-.17.27-.24.21s-.29.26-.35.1-.13-.25-.2-.25c-.06-.37-.13,0-.2-.23s-.13-.31-.2-.18c-.07-.1-.14-.07-.21,0-.13-.18-.27,0-.4-.09-.13.16-.26,0-.38.08a.7.7,0,0,0-.35.14,1.92,1.92,0,0,0-.28.29,2.39,2.39,0,0,0-.33.67s0,.07,0,.17a.86.86,0,0,0,0,.15v0c0,.36.05.27.11.36s.12.23.17.4.06.24.08.22,0,0,0,.09c0-.23.06-.06.08.14,0,0,0,.07,0,.31a1,1,0,0,1,0,.42.68.68,0,0,1-.21.34c-.13.05-.3.27-.47.28h0a.17.17,0,0,1-.11,0h0l-.07-.07-.08,0h0a.47.47,0,0,1-.3-.09s-.06,0-.08,0h0l-.07,0c-.21-.08-.4-.28-.58-.35a3.29,3.29,0,0,1-.57-.48,4,4,0,0,1-1.06-2,3.67,3.67,0,0,1-.07-.75,4,4,0,1,1,8,0Z"/><path d="M694.28,361.09c0,.53,0,.32.13.57s.27.34.47.19a.94.94,0,0,1,.71-.07c.26.18.55-.12.85-.2s.51-.38.81-.41.71.37,1,.11c.28.12.54-.08.76.15.29-.07.43.15.49,0,.06,0,.8-.42.76-.54a5.48,5.48,0,0,0-.38-1.34c0-.16-.63-.64-.81-.32-.18-.21-.37,0-.65-.12-.28,0-.59-.23-.89-.29s-.58.06-.82-.11c-.19-.36-.4,0-.62.18-.21,0-.42.34-.63.48s-.17.59-.34.77-.54.39-.64.48C694.35,360.94,694.29,360.74,694.28,361.09Z"/><path d="M696.88,365c-.06.46-.14.38-.22.29s-.19-.19-.29.21c-.14,0-.29.15-.46.23h-.1l-.08,0c-.2-.1-.4-.24-.58-.35a3.29,3.29,0,0,1-.57-.48,4,4,0,0,1-1.06-2h.07a.55.55,0,0,1,.15.08,1.19,1.19,0,0,1,.94-.13c.33,0,.64.25.93.13a.86.86,0,0,0,.18.16,1,1,0,0,0,.58.17l.08-.1c.07,0,0,0,.11,0s0,.07,0,.08,0,.11,0,.19.11.25.15.38a4.71,4.71,0,0,1,.12.61s0,.18,0,.22A.39.39,0,0,1,696.88,365Z"/><path d="M700.44,364.77a3.88,3.88,0,0,1-1,.84c-.06-.26-.24,0-.34-.11s-.17-.25-.22-.26-.09-.09-.09-.08,0-.39.09-.21c.06-.2.13.08.23-.12.09,0,.21-.26.34-.1l.41,0A.73.73,0,0,1,700.44,364.77Z"/><text class="cls-4" transform="translate(306.16 207.77)">W<tspan class="cls-5" x="41.14" y="0">AIMEA</tspan><tspan class="cls-6"><tspan x="-203.55" y="53.35">S</tspan><tspan class="cls-7" x="-171.15" y="53.35">O</tspan><tspan class="cls-8" x="-132.17" y="53.35">L</tspan><tspan x="-96.24" y="53.35">AR </tspan><tspan class="cls-9" x="-5.18" y="53.35">SY</tspan><tspan x="61.61" y="53.35">STEM </tspan><tspan class="cls-10" x="229.06" y="53.35">W</tspan><tspan x="277.89" y="53.35">ALK</tspan></tspan></text><line class="cls-11" x1="105.07" y1="197.4" x2="280.53" y2="197.4"/><line class="cls-11" x1="515.34" y1="197.4" x2="690.8" y2="197.4"/></svg>