<?xml version="1.0" encoding="utf-8"?>
<!-- Generator: Adobe Illustrator 25.2.1, SVG Export Plug-In . SVG Version: 6.00 Build 0)  -->
<svg version="1.1" id="Layer_1" xmlns="http://www.w3.org/2000/svg" xmlns:xlink="http://www.w3.org/1999/xlink" x="0px" y="0px"
	 viewBox="0 0 1559.6 3957.5" style="enable-background:new 0 0 1559.6 3957.5;" xml:space="preserve">
<style type="text/css">
	.st0{fill:#213E48;}
	.st1{opacity:0.4;fill:url(#SVGID_1_);enable-background:new    ;}
	.st2{fill:url(#SVGID_2_);}
	.st3{fill:url(#SVGID_3_);}
	.st4{opacity:0.21;fill:url(#SVGID_4_);enable-background:new    ;}
	.st5{opacity:0.21;fill:url(#SVGID_5_);enable-background:new    ;}
	.st6{fill:#131517;}
</style>
<g id="Layer_2_2_" transform="translate(-65.911)">
	<path class="st0" d="M1625.6,2702v12.5C1634.2,2712.8,1635.6,2708.7,1625.6,2702z M177.5,413C172.8,416.7,185.6,413.8,177.5,413
		L177.5,413z"/>
	<path class="st0" d="M1314.6,1571l-12.7,32c-0.6,28-1.2,55.9-1.9,83.9l45.7-104.2C1340.7,1578.2,1319,1566.1,1314.6,1571z
		 M1104.5,1893c-46-12.6-108.3-28.2-111.2-31.1l-20.7-10.2c0.4,20.2,0.6,40.4,0.9,60.5c28.8,13.1,82.8,36.7,126.8,55.6
		c2.4,1.1,4.8,2.2,7.1,3.4C1106.4,1945.2,1105.5,1919.1,1104.5,1893z M1095.2,1659.6l-24.2,14.3l24.5,80.6
		c-0.1,4.8,1.3,9.6,3.9,13.6l0.2,0.4C1098.2,1732,1096.7,1695.6,1095.2,1659.6z M537.6,2312c-0.3,14.4-0.6,28.5-1,42.5
		c-0.2,7.8-0.4,15.5-0.6,23.1c-0.3,9.9-0.6,19.7-0.9,29.4l5.6-31l8.5-47.1L537.6,2312z M535.1,2407.1c0,0.1,0,0.3,0,0.4
		c0,0.2,0,0.4,0,0.6C535.2,2407.7,535.2,2407.4,535.1,2407.1z M355.6,2337.6l-5.3-97.3v-0.1c-4.7-4.7-48.5-4.7-53.2,0l32.4,84.1
		l29.5,76.5L355.6,2337.6z M177.5,413C172.8,416.7,185.6,413.8,177.5,413L177.5,413z"/>
</g>
<path class="st0" d="M781,2332.2c-1.6,0-3.1-0.1-4.4-0.4c-5-1.1-12.4-0.1-21.2,2.4c-15.6,4.4-36.1,13.2-57.7,22.8
	c-6.4,2.8-12.9,5.8-19.4,8.6c-17.1,7.6-34.2,14.9-49.7,20.4c-2.5,0.9-4.8,1.6-7.1,2.1c-48,11.7-70.1-36.6-146.5-12.1
	c-1.5,0.5-3.1,1-4.7,1.6l0,0c-6.5,2.3-13.4,5.1-20.8,8.5c-4.3,2-8.7,4.1-13.2,6.5c-26.1,13.7-48.9,19.8-67.4,19.2
	c-17.4-0.6-31.1-7.1-40.3-18.9c-1.9-2.5-3.7-5.2-5.2-8.1c-9.8-21.1-20.1-35.6-31.4-45.4c-0.7-0.6-1.4-1.2-2.1-1.8
	c-8.1-6.6-16.8-10.8-26.1-13.3c-26.1-7.1-57.3-0.9-97.1,3.6c-2.3,0.2-4.5,0.5-6.8,0.7c-25.2,2.7-51,4.4-74.8-4.1
	c-26-9.3-49-34.5-47.6-63.4c0.7-14.4,7.2-27.7,10.2-41.8c0.4-1.8,0.7-3.6,1-5.5c3.6-24.5-2.5-49.6-4.5-74.5
	c-2.1-26.7,2.6-57.5,23.7-72.5c14.6-10.3,33.4-10.5,50.3-15.3c13.1-3.8,24.9-10.2,36-18.2c29.4-21.1,53.5-52.9,84-73.4
	c10.1-6.8,20.1-12.3,30-16.9c70.7-32.2,137.8-11.4,205.2,8c40,11.5,80.1,22.5,121.1,21.7c12.3-0.3,24.8-1.6,37.3-4.3
	c59.8-13,92.7,102,153.2,85.9c54.8-14.7,107.2,93,112,154.8C902.8,2283.3,812,2332.3,781,2332.2z"/>
<path class="st0" d="M433.9,1351c-23.6,17.1-52.2,30.4-74.4,49.5c-61.2,52.6-66.2,140.5-66,218.6c0.1,18.4,1,38.7,14.3,52
	c38,37.8,104.6-27,157-10.7c24.4,7.6,38.9,31.2,60.6,44.2c13.2,7.9,28.6,11.7,43.9,14.6c233.3,45.1,470.3-72.4,707.9-56.8
	c71.7,4.7,142.1,21.5,213.8,26.1c21.9,1.4,45.1,1.4,64.3-8.8c17-9,28.9-25,36.5-42c32.6-72.5-16-167.1-96.5-187.7
	c-9-2.3-18.4-3.9-26.1-8.8c-35.1-22.4,0.7-73.5-3.2-113.3c-3.6-37-44.3-61.3-83.1-67.1c-38.8-5.7-78.6,1.2-117.6-2.9
	c-49-5.2-122.9-109-168.4-75.9c-45.1,32.8-102.8,1.1-153.3-7.4c-66.1-11-133.3-15.8-200.4-14.1c-28,0.7-57.9,3.2-79.6,19.9
	c-17.8,13.7-27.7,35.4-46.8,47.5c-36.1,22.9-93.1,4.3-122.7,34.5c-13.7,14-16.6,34.3-25.7,51.2
	C460.5,1328.9,448.1,1340.7,433.9,1351z"/>
<path class="st0" d="M1029.6,1754.5l-24.5-80.6l24.2-14.3c1.5,36,3,72.4,4.4,108.9l-0.2-0.4
	C1030.9,1764.1,1029.6,1759.3,1029.6,1754.5z"/>
<path class="st0" d="M1038.6,1893c1,26.1,2,52.2,2.9,78.1c-2.3-1.2-4.7-2.4-7.1-3.4c-44-18.9-98-42.4-126.8-55.6
	c-11.9-5.4-19.5-9.1-20.4-9.9l-161.9-108.7c-4.8-3.2-8.5-7.7-10.7-13L659.4,1648c-4.7-4.7-14.7-11.9-10.1-16.6l17.1-13.3
	c0.8-0.8,1.2-1.4,1.5-1.9c0.3,0.5,0.7,1.2,1.5,1.9l42.1,90.3c17.3,37.1,45.6,67.8,81,88c5.2,2.9,11.5-1.1,11.1-7l-8.6-123.8l20,6
	l2.4,75.6c1.2,37.7,23,71.7,56.8,88.5l32.4,16l20.8,10.3C930.3,1864.8,992.6,1880.4,1038.6,1893z"/>
<path class="st0" d="M1279.8,1582.6l-45.7,104.2c0.7-28,1.3-55.9,1.9-83.9l12.7-32C1253.1,1566.1,1274.8,1578.2,1279.8,1582.6z"/>
<path class="st0" d="M632.3,1642.9C631.1,1640.8,633.4,1640.8,632.3,1642.9L632.3,1642.9z"/>
<path class="st0" d="M594.5,1972.9c-41,0.9-81.1-10.2-121.1-21.7c1.2,125.1,0.7,248.3-1.6,360.8l11.6,16.9l-8.5,47.1
	c76.4-24.5,98.6,23.9,146.5,12.1C611.7,2262.5,602.6,2119.7,594.5,1972.9z M454.2,2357.5l9.7-1.1c-14.5,6.5-0.3,17.3-12.2,20.2
	c-0.6,3.2-1.4,6.4-2.4,9.5c7.4-3.4,14.3-6.2,20.8-8.5c-0.3,9.9-0.6,19.7-0.9,29.4c0.3-9.7,0.6-19.5,0.9-29.4
	c0.2-7.6,0.4-15.3,0.6-23.1c0.4-14,0.7-28.2,1-42.5l-17.5-25.5C446.7,2292.9,456.1,2323.5,454.2,2357.5z M396.2,2364l-49.4,30.2
	c-4,1-8.8,0.8-14-0.3c-1.5-0.3-3-0.7-4.4-1.1c9.2,11.8,22.9,18.3,40.3,18.9c1.2-0.5,2.4-1,3.6-1.4c21.4-8.3,27.3-37.6,52.4-34.5
	c14.6,1.8,22.7,1.8,27.1,0.7c1.3-6.4,2.1-12.8,2.4-19.1L396.2,2364z M289.7,2337.6c0.7,0.6,1.4,1.2,2.1,1.8l-7.4-99.1L289.7,2337.6z
	 M238.2,1960.1c-30.5,20.5-54.6,52.3-84,73.4c2.5,98.8,4.2,197,5.7,295.1c2.3-0.2,4.5-0.5,6.8-0.7c39.8-4.4,71-10.7,97.1-3.6
	l-32.4-84.1c4.7-4.7,48.5-4.7,53.2,0l-16.2-297C258.2,1947.8,248.2,1953.3,238.2,1960.1z M179.4,2618.9c-5.6,1-10.8-1.2-15.9-5.7
	c0.5,45.6,1.1,91.3,1.7,137.2c6.7-6.5,12.4-11.6,17.2-14.4c27.7-16.2,102.9-27.6,100.8-47.1C277.9,2640.2,244,2607.3,179.4,2618.9z"
	/>
<path class="st0" d="M293.2,2400.8l-29.5-76.5l-32.4-84.1c4.7-4.7,48.5-4.7,53.2,0v0.1l5.3,97.3L293.2,2400.8z"/>
<path class="st0" d="M451.7,2376.5c1.3-6.4,2.1-12.8,2.4-19.1l9.7-1.1C449.4,2362.9,463.6,2373.7,451.7,2376.5z"/>
<path class="st0" d="M469.2,2408.1c0-0.2,0-0.4,0-0.6c0-0.1,0-0.3,0-0.4C469.3,2407.4,469.2,2407.7,469.2,2408.1z"/>
<path class="st0" d="M483.3,2328.9l-8.5,47.1l-5.6,31c0.3-9.7,0.6-19.5,0.9-29.4c0.2-7.6,0.4-15.3,0.6-23.1c0.4-14,0.7-28.2,1-42.5
	L483.3,2328.9z"/>
<path class="st0" d="M1063.1,1669.8c-2.1-7.6-4-14.8-5.5-21.1l32.4-19.1C1094.6,1633,1080.4,1648.9,1063.1,1669.8z"/>
<path class="st0" d="M1386.3,2648.4c-17.6-59.1-9-633-14.5-1048c-1.2-85.5-2.3-169.6-3.3-249c-3.4-251.2-6.6-453.9-8.8-493.9
	c-1-18.5-1.9-37.2,7.1-54.8c7.3-14.7,21.3-28.1,32.3-42.2c35.3-44.9,39.6-94,47.1-141.9c0.7-4.6,2.3-9.1,3.3-13.7
	c3.3-13.4,47.9-23.1,65-31.8c9-4.7,36.8-23.6,45.1-29.6v-439c-2-0.2-4-0.5-6-0.6c-24.9-2.2-51.4,6.2-76.7,5.6
	c-78.2-1.6-149.2,12-226.7-3c-47.6-9.2-93.2,30.8-140.2,37.8c-60.4,9-115.2-31.4-175.2-20.1c-59.9,11.3-149.4,40.7-202.5,40.2
	c-60.8-0.6-107.7,38.9-167,44.4c-68.7,6.4-131.8-7.3-197.1,24.1c-4.6,2.3-9.4,4.9-9.9,8.3c-0.4,2.4,1.7,4.8,2.8,7.2
	c6.2,13.8-19,25.1-41.1,32.7c-5.2,1.9-10.5,3.3-15.9,4.3c-3,0.4-6.1,0.5-9.1,0.6c-3.1,0.1-6.2,0.1-9.1,0.1
	c-38,0.1-91.6,6.1-123.2,30.3c-9.5,7.3-16.4,19.3-14.1,31.1c0.9,4.5,3.1,9.1,1.9,13.6c-1.8,7-10.2,9.6-16.3,13.5
	c-12,7.8-16.3,23-19.7,36.8c0.5-2.2-64.7,16.8-70.9,20.3c-23.7,13.5-44.5,27.2-37.4,56.6c9.8,40.8,43.4,54,40.5,94.8
	c-2.2,30.9-9.3,62.3-13.9,93c-7.2,48.8-14.5,97.6-21.7,146.5c-0.9,6.1-0.7,12.3,0.7,18.4l100.6,328.1c0.9,3.9,8.8,164.6,8.7,168.5
	c18,240,27.4,469.6,33,695.9c29.4-21.1,53.5-52.9,84-73.4c10.1-6.8,20.1-12.3,30-16.9L226,1174.5c-0.1-6.1,5.4-37,7.6-42.8L310,923
	c6.8-18,11.1-36.8,12.9-55.8c0.9-9.4,12.9-12.7,18.4-5c4.2,5.8,8.7,11.6,13.5,17.4c12.5,14.9,26.9,29.5,37,44.9
	c46.4,22.8,76.8,539,81.5,1026.6c40,11.5,80.1,22.5,121.1,21.7c-29.2-525.2-46.6-1101.1-34.1-1120.1c-2.8-55.7,18.3-76,7.5-122.2
	c-1.9-8.3,6.9-14.8,14.3-10.4c22.4,13.2,42.3,10.1,59.4,43c12.3,23.6,20.6,48,42.2,69.6c23.4,23.2,60.7,41.1,94.3,60.2
	c86.2,63.3,121,515.3,128.7,958.8l20.8,10.3c2.9,2.9,65.2,18.5,111.2,31.1c-1.6-41.5-3.2-83.1-4.8-124.5l-0.2-0.4
	c-2.6-4.1-3.9-8.8-3.9-13.6l-24.5-80.6l24.2-14.3c-10.1-241.4-21.3-465-32.5-597.7c-3.3-39.4,23.9-77.7,49.7-104.7
	c33-34.5,83.4-52.7,76.1-110.2c-7.9-62.8-70.6-101.2-93.9-157.2c-24.4-58.9-1.1-137,63.5-156.9c27.9-8.6,108.2-44.3,110.8,4.7
	c0.2,3.2,0.4,6.2,0.5,9.4c4.5,143.6,21,284.5,28,427.7c10.3,208.8,8.9,418.7,4.4,628.4l12.7-32c4.4-4.9,26.1,7.2,31.1,11.6
	l-45.7,104.2c-2.1,88.8-4.6,177.5-6.8,266c-4.4,181.6-6.9,363.5-12.8,545.1c-0.2,6.7-10.1,7.1-10.8,0.4
	c-23-218.6-44.4-536.1-43-623.1c0.2-14.4,3.3-28.7,9.1-41.9l64.3-146.6c0.7-28,1.3-55.9,1.9-83.9l-39.6,99.8
	c-3.2,8.2-8.1,9.5-14.4,8.5c-11.7-1.8-21.2-10.5-24.7-21.8l-31.6-103.5l-36.8,6.7c-1.1,1.2,0.6,12.7,4.4,29.2l32.4-19.1
	c4.6,3.5-9.6,19.3-26.9,40.2c9.3,33.3,24.5,75.1,43.2,99.4c9.1,11.8,19.2,22.1,9.6,33.5l-10,11.9c-15.7,18.7-44.6,18.2-59.7-1
	c-7.7-9.9-16.5-21.1-25.7-32.7c-22.9-29,14.1-76.8,42.6-111c-2.1-7.6-4-14.8-5.5-21.1l-64,37.8c1.5,36,3,72.4,4.4,108.9l47.4,74.2
	l-2.3,62.2c-8.7-3-23.4-7.2-40.4-11.9c1,26.1,2,52.2,2.9,78.1c31.7,16.8,51.8,49.8,51.8,86.2V2736c0,9.3-8.6,16.4-17.6,14.1
	c-4.5-1.1-7.5-4-8.3-9c-0.9-5.6-11.2-369.9-25.9-769.7c-2.3-1.2-4.7-2.4-7.1-3.4c-44-18.9-98-42.4-126.8-55.6
	c5.1,436.8-15.3,847.8-37.9,849.8c-19.7,12.7-50.5,28.6-84,36.6c-1.9,0.5-3.9,0.9-5.9,1.2l-50.2-308.2c-2.9-18-0.7-36.5,6.4-53.3
	l45.1-106c-1.6,0-3.1-0.1-4.4-0.4c-5-1.1-12.4-0.1-21.2,2.4c-10.8,18.9-21,38.4-29,53.1c-5.2,9.6-19.5,7.7-22-2.9l-6.7-27.4
	c-6.4,2.8-12.9,5.8-19.4,8.6l13.3,157.1c0,0.2,1,0.4,1,0.6l22.4,268.2c-32.7-15.1-57.6-46.1-62.8-84.9
	c-10.5-78.4-21-189.4-30.8-318.5c-48,11.7-70.1-36.6-146.5-12.1l-5.6,31c0.3-9.7,0.6-19.5,0.9-29.4c-6.5,2.3-13.4,5.1-20.8,8.5
	c-2.7,8.9-6.7,17.6-12.4,25.8c-8.5,12.2-16.6,23.8-23.8,34.2c-13.9,20.1-42.8,22.3-59.5,4.5l-10.7-11.3c-9.4-10,11.5-21.4,25.7-27.3
	c-17.4-0.6-31.1-7.1-40.3-18.9c-20.1-6-34.4-24.2-36-45.5l-0.6-8c-0.7-0.6-1.4-1.2-2.1-1.8l3.5,63.2l36.4,94.4
	c5.5,14.2,9.2,28.9,11.3,44c8.4,62.2,33.2,240.7,23.9,299.5c-3,1.1-6.1,2.2-9.3,3.4c-18.6,6.8-38.5-6.3-39.6-26.1l-22.7-415.2
	l-29.5-76.5c-26.1-7.1-57.3-0.9-97.1,3.6c-2.3,0.2-4.5,0.5-6.8,0.7c1.4,94.7,2.5,189.4,3.6,284.6c5.1,4.5,10.3,6.7,15.9,5.7
	c64.6-11.6,98.5,21.4,103.7,70c2.1,19.5-73.1,30.9-100.8,47.1c-4.8,2.8-10.5,7.9-17.2,14.4c0.9,69.3,2,138.9,3.3,209.2
	c-0.4,22.4-104.1,77.8-124.6,86.8c-40.1,17.4-65.7,31.3-62.8,37.8c1.3,0.1,4.6,0.5,9.9,0.9L-9.7,3967h1569.2V2715
	C1528.2,2720.4,1399.8,2693.6,1386.3,2648.4z M111.6,413C119.7,413.8,106.9,416.7,111.6,413L111.6,413z M80.9,654.3l8.1-47.6
	c3.1-18.5,21.4-30.3,39.5-25.6c1.1,0.3,2.3,0.6,3.4,0.9c4.7,1.2,10.4,2,16.7,2.4c12.6,0.8,17.8,16.5,8.3,24.8l-61.3,53.4
	C89.3,668.1,79.5,662.6,80.9,654.3z M252.3,895.2l-23.2,55.2c-16.4,39.1-71.1,41-90.3,3.2L80.1,838.4c-4.4-8.6-6.1-18.4-5.1-28
	l8-72.4c1.4-12.5,7.4-23.9,16.9-32.2l112.2-97.4c7.1-6.1,18.1-1.9,19.3,7.3l28.9,219.9C263,855.8,260.2,876.4,252.3,895.2z
	 M467.6,866.4c-8.8,1.5-76.9,0-103.5-113.4c-6.3-27-12.8-54.3-23.1-79.6c-2.4-6-2.6-12.3-3.8-18.5c-0.9-4.6-1.9-9.1-2.7-13.8
	c-1-5.2-2.2-10.5-2.5-15.7c-0.4-6.5,0.3-13-0.5-19.5c-0.3-2.1,2.9-15.3,6.1-16c2.8-0.6,5.7-0.6,8.6,0c2.6,0.6,5.2,1,7.9,1.3
	c10.5,0.4,8.5,1.2,13-3.6c6.9-7.2,23-12.3,39.2-11.6c2.5,0.1,4.1,0.1,6.5-0.1c3.2-0.3,6.1-0.5,9.2,0.4c3,0.8,5.5-0.1,7.8-1.3
	c31.3-15.6,60.8,3.5,68.9,38.3c0.7,3.5,1.7,7,1.5,10.6c-0.2,2.9,2.2,6.1,2,9.1C499.8,674.5,533.1,853.8,467.6,866.4z M785.2,794.4
	c-0.5,7.7-9.7,11.1-15.2,5.7c-17.4-17.5-57.8-14.5-71.1-38.3C677.5,723.6,556.7,588.7,564.4,586c13.7-4.8,37.9-11.7,45-19.5
	c4.3-4.8-3.7-10.9,6.2-11.2c6.8-0.2,12.8,2.8,15.3,6.3c11.3,16.4,3.3,38.5,7.1,55.9c3.3,15.6,16.1,30,30.8,43.2
	c30,27.1,74,50.7,94.7,80.7C779.9,765.1,786.3,777.7,785.2,794.4z M816.2,604.6c-4.3,21.8-15,43.6-21.9,65.2
	c-0.5,1.7-1.2,3.5-3.4,4.8c-2.1,1.2-5.2,1.5-8.1,1.7c-27.7,1.8-57.8-14.7-72.7-26c-12.3-9.3-17.6-20.8-22.5-31.9l-15.3-33.8
	c-1.8-3.6-7.7-16.1-5.9-16.8c8.1-3.3,22.8,1.4,31.5,2.2c10.3,0.8,25.1-1.9,34-4.6c15.5-4.7,30.8-12.5,42.9-19.5
	C800.1,531.1,818,595.4,816.2,604.6z M1027.5,819.5c3.2,9.2,4.6,18.4,3.1,27.5c-0.8,5-2.5,9.9-5,14.3c-5.5,10.2-15.5,19.5-25.2,28.8
	c-9,8.5-18.2,17-30.1,24.3c-2,1.2-4.1,2.4-6.2,3.4c-5.7,2.8-12.2,5.1-19.7,5.8c-18.7,1.8-35.6-6.7-44.9-15.7
	c-18.8-18.6-18.8-40.9-26.6-61.8c-5.5-14.7-15.1-28.9-21.9-43.4c-12.9-27.5-16-56.1-9.2-84.3c5-20.6,17.1-40.6,18-61.5
	c0.9-21-7.1-42.7-11.3-63.6c-1.4-7.2-2.6-15.2,4.7-21.3c6.4-5.3,17.8-8,28.3-10.7c6.2-1.5,12.2-3.2,18.2-4.9
	c27.3-8,53.1-17.6,76.5-28.5c27-12.7,20.8,12.1,21.2,20.5c0.7,19.6-11.2,35.5-16.7,54.4c-1.5,5.2-3.2,10.2-4.8,15.3
	c-7.1,21.2-14.2,41.2-11.5,63.8c3.5,29.3,16.6,58.1,34.1,85.9C1009.2,784.6,1021.5,802.1,1027.5,819.5z M371,2872.8l1.4,0.1
	C371.9,2873,371.5,2872.9,371,2872.8z M469.2,2408.1c-3.5,106.5-8.9,199.5-16.4,269.8c-1.2,11.3-17.7,11.2-18.8-0.1l-14.7-153.1
	c-1.4-14.9,1.7-30,9.1-43.1l32-57.1c2.1-3.8,7.8-11,8.7-15.9c0-0.3,0.1-0.9,0.1-1.2c0-0.1,0-0.3,0-0.4
	C469.3,2407.4,469.2,2407.7,469.2,2408.1z M897.3,2842.9l2.4,0.1C898.9,2843,898.1,2843,897.3,2842.9z M1047,2906.3
	c-0.5,0.1-1,0.1-1.4,0H1047c0-0.1,0.1-0.1,0.2-0.1C1047.2,2906.3,1047.2,2906.3,1047,2906.3z M1331.9,748.6
	c-9.9,6.9-70.7,38.6-71.1,6.5c-0.5-34.1,0.3-68.2,0.9-102.3c0.3-16.8,0.6-33.7,0.8-50.5c0.2-17.5,1.4-35.5-2.2-52.6
	c14.2-3.2,29.8-0.8,43.4,3.8c10.9,3.7,21.4,9.8,33.2,9.8c7.1,0,64.8-16.6,65.9-2.2c2.9,34.4,1.2,70.5-9.7,103.4
	C1382.1,698,1362.1,727.6,1331.9,748.6z"/>
<path class="st0" d="M689.1,2322.2l8.5,34.9c-6.4,2.8-12.9,5.8-19.4,8.6l-3.5-41.1c-0.1-0.4-0.1-0.8-0.1-1.2c0-0.1,0-0.1,0-0.2
	C675.2,2314.9,687.2,2314.1,689.1,2322.2z"/>
<path class="st0" d="M795.6,2297.9l-14.6,34.3c-1.6,0-3.1-0.1-4.4-0.4c-5-1.1-12.4-0.1-21.2,2.4c9.2-16.1,18.7-31.8,27.6-43.6
	C788.1,2283.6,799,2289.9,795.6,2297.9z"/>
<linearGradient id="SVGID_1_" gradientUnits="userSpaceOnUse" x1="1203.9836" y1="1242.488" x2="1203.9836" y2="2535.9697" gradientTransform="matrix(0.9047 0 0 -0.9047 -182.5383 5160.4751)">
	<stop  offset="0" style="stop-color:#FFFFFF;stop-opacity:0"/>
	<stop  offset="0.325" style="stop-color:#D8EBEA;stop-opacity:0.325"/>
	<stop  offset="0.776" style="stop-color:#A6D2CE;stop-opacity:0.776"/>
	<stop  offset="1" style="stop-color:#93C8C4"/>
</linearGradient>
<path class="st1" d="M1562.3,2880.3v1157.8l-266.5-4.4l-634.3-10.5l-361-6l-45.2-0.7l-3.2-598.2l-0.6-275.4
	c-0.1-47.9-0.2-97.9-0.3-149.1c0-11.8-0.1-23.5-0.1-35.4l14.1,4l119.4,33.7c28,7.9,58.4,12,89.7,12.6c6.2,0.1,12.3,0.1,18.5-0.1
	c58.7-1.6,118.5-15.7,167.4-41l0.7-0.4c12.2-6.3,25.2-11.9,38.5-16.9c71.1-26.1,156.4-31.8,227.6-14.1l67.9,16.9
	c4.8,1.2,9.6,2.3,14.5,3.3c80.9,16.1,176.9,3.7,249.3-33l30.7-15.6c68-34.5,156.8-47.5,234.3-35.6c10.2,1.5,20.3,3.6,30.1,6.1
	L1562.3,2880.3z"/>
<linearGradient id="SVGID_2_" gradientUnits="userSpaceOnUse" x1="1349.0385" y1="4516.7397" x2="1349.0385" y2="1088.6296" gradientTransform="matrix(0.9047 0 0 -0.9047 -182.5383 5160.4751)">
	<stop  offset="0" style="stop-color:#FFFFFF;stop-opacity:0"/>
	<stop  offset="0.325" style="stop-color:#D8EBEA;stop-opacity:0.325"/>
	<stop  offset="0.776" style="stop-color:#A6D2CE;stop-opacity:0.776"/>
	<stop  offset="1" style="stop-color:#93C8C4"/>
</linearGradient>
<polygon class="st2" points="1700.9,1031.2 1700.9,2430.4 1597.8,2772.2 1571.3,2872.1 1492.7,3169.4 1433.9,3391.3 1352.6,3698.8 
	1352.6,3698.9 1267.5,4033.6 1241.5,4118.8 375,4118.8 422.5,4023.1 460.4,3924.4 512.2,3806.7 647.1,3500 674.2,3438.2 771.1,3218 
	814.1,3120.4 886.2,2956.3 933.9,2848 980.1,2742.9 1008.8,2677.4 1084.8,2504.7 1149.9,2356.5 1216.1,2205.8 1342.3,1918.7 
	1365.6,1865.7 1478.5,1609.3 1491.5,1579.6 1621.6,1283.8 "/>
<linearGradient id="SVGID_3_" gradientUnits="userSpaceOnUse" x1="1052.3656" y1="5555.9814" x2="1052.3656" y2="1069.149" gradientTransform="matrix(0.9047 0 0 -0.9047 -182.5383 5160.4751)">
	<stop  offset="0" style="stop-color:#FFFFFF;stop-opacity:0"/>
	<stop  offset="0.325" style="stop-color:#D8EBEA;stop-opacity:0.325"/>
	<stop  offset="0.776" style="stop-color:#A6D2CE;stop-opacity:0.776"/>
	<stop  offset="1" style="stop-color:#93C8C4"/>
</linearGradient>
<path class="st3" d="M1663.3,77.7v511.4l-0.4,0.7l-213.5,423.7l-43.3,86.2l-199,394.9l-231.9,459.7l-32,63.5l-242.3,480.6
	l-135.6,268.9l-77.9,154.9l-14.2,28.2l-62,123l-68.1,135l-37.8,74.8l-61.6,122.1l-19.3,38.2l-19.7,39.1l-263.1,534.6l-43,85.2
	l-14.7,16.4h-1.6c-0.3-38.4-0.6-64-1-102.4c-0.1-14.7-0.3-29.6-0.4-44.3c-1-131.7-2.1-276.1-3.2-407.8c-0.3-28-0.5-79.1-0.7-146.1
	l-0.8-275.4c-0.1-47.9-0.3-97.9-0.4-149.1l14.3-23.9l4.4-7.4l150.9-253l129-216.1l23.2-39l192.2-322.5l191-320.2l39.6-66.4
	l189.1-317.4l94.3-157.5l57-95.6l4-6.9l199.7-334.9l416-697.6l33.1-55.5L1663.3,77.7z"/>
<linearGradient id="SVGID_4_" gradientUnits="userSpaceOnUse" x1="1204.2596" y1="1131.616" x2="1204.2596" y2="2214.5007" gradientTransform="matrix(0.9047 0 0 -0.9047 -182.5383 5160.4751)">
	<stop  offset="0" style="stop-color:#FFFFFF;stop-opacity:0"/>
	<stop  offset="0.325" style="stop-color:#D8EBEA;stop-opacity:0.325"/>
	<stop  offset="0.776" style="stop-color:#A6D2CE;stop-opacity:0.776"/>
	<stop  offset="1" style="stop-color:#93C8C4"/>
</linearGradient>
<path class="st4" d="M1562.3,3141.5v990l-1306.2-12.7c-0.2-38.4-0.5-64-0.7-102.4l-3.2-598.2l-0.6-275.4
	c73.6-33.9,162-31.7,234.1,8.1l13.6,7.5l53.4,29.4c15.7,8.7,32.2,15.6,49.1,20.6c71.8,21.7,151.9,11.7,215.5-29.3l31.5-20.3
	c32.4-20.8,69-33.7,106.7-38.4c54-6.8,110.1,3.1,158.7,30l68.4,37.9c81.3,45.1,183.6,42.6,262.2-6.3l20.2-12.6l10.9-6.8
	C1502.5,3146,1531.9,3134.7,1562.3,3141.5z"/>
<linearGradient id="SVGID_5_" gradientUnits="userSpaceOnUse" x1="1204.5913" y1="932.2781" x2="1204.5913" y2="1545.4011" gradientTransform="matrix(0.9047 0 0 -0.9047 -182.5383 5160.4751)">
	<stop  offset="0" style="stop-color:#FFFFFF;stop-opacity:0"/>
	<stop  offset="0.325" style="stop-color:#D8EBEA;stop-opacity:0.325"/>
	<stop  offset="0.776" style="stop-color:#A6D2CE;stop-opacity:0.776"/>
	<stop  offset="0.9409" style="stop-color:#93C8C4"/>
</linearGradient>
<path class="st5" d="M1562.3,3497.9v633.6l-1306.2-12.7c-0.2-38.4-0.5-64-0.7-102.4l-3.2-598.2c79.3,67.1,180.3,67.1,259.5,1.3
	c4.5-3.7,8.9-7.6,13.1-11.8l0.7-0.6c0.6-0.5,1.3-1.2,1.8-1.7c78.6-73.8,182.6-79.2,265.3-13.2l57.9,46.1l9.1,7.2
	c82.4,65.7,186,60.7,264.6-12.6l31.5-29.3c78.8-73.5,182.6-78.3,265.1-12.2c0.1,0.1,0.2,0.1,0.2,0.2l68.4,54.8
	C1512.3,3464.8,1536.9,3477.7,1562.3,3497.9z"/>
<path class="st6" d="M1288.5,3549c-12,12-28.6,20.1-56,21c-102.6,3.6-184.5,203-229.2,206.6c-12.2,1-329.5-2.1-398.6-8.1
	c-74.4-6.4-156-16.3-189.9-28.2c-45.1-15.7-64-288.4-74.6-446.7c-0.5-8-1.1-15.9-1.6-24.1c-5.2-78.9-51-1828.2-18.4-1935.5
	c45.3-145.8,262.2-85.2,283.1-149.8c35.5-34.4,163.6-256.9,208.5-285.7c21.4-26.3,49.6-45.8,74.6-68.4c5.7-5.2,11.2-10.5,16.5-16.1
	c36-38.2,57.8-87.8,79.1-136.2c21-1.6,42,1.4,63,4.6c28.4,4.3,25-8,52.7-14c14.8-3.3,12-34.5,14.1-35.4
	c11.1-34.4,49.5-27.5,51.5-77.8c-2-64.6-13.8-25.4-25.2-81.8c-0.9-4.3-12.7-22.3-30-39.6c17.1-55.8-37.1-78.9-18.4-90.6
	c-28.9-85.9-71.7-57.8-88.2-89.1c-37.6-71.5-77.3-36-99.9-47.9c-41.8-22.1-51.2-58.5-98.4-72.6c-43.1-12.8-65.3,7.1-109.3-3.7
	c-29.6-7.3-85.8-43.7-116.2-41.9c-28.8,1.7-5.2-10.9-33.4-8.5C474,85.3,440.4,7.2,372.9,46.2c-22.2,12.9-60.7,12-97.4,8.6
	c-36.7-3.3-55,9.7-78.3,25.8c-35.4,24.5-38.4,59.3-83.4,61.2C61,144.1-60.5,114.6-3,311l-12.8,210.2c44.4,66.9-47-6.5-47.5,48.3
	c-1.1,138.3,36.2,312.8,36.9,400.7c1.6,206.4,14.4,934.3,16.1,1140.6c0.8,103.9,1.6,527.2,2.5,902.7c0,11.9,0.1,23.6,0.1,35.4
	C-7.6,3100-7.4,3150-7.3,3198l0.2,70.3c0.3,67,0.5,118.1,0.7,146.1c1.1,131.7,2.2,263.4,3.2,395.2c0.1,14.8,0.3,29.6,0.4,44.3
	c0.4,38.4,0.6,89.4,1,127.7h1560.2v-577.2C1316.4,3406.1,1332.9,3504.8,1288.5,3549z M726.5,711.9c14.6-23.3,88.7-14.2,115.3-19.2
	c13.3-2.5,89.3-43.3,87.5-15.8c-1.7,26.5-13.8,56-29.2,77.4c-27,37.3-76.9,42.4-112.8,82.4c-1.6,0.3-55.9,57.4-56.9,53.9
	c-3.3-11.7-12.2-121.6-13.1-134C716,741.1,718,725.6,726.5,711.9z M238.9,996.7c-46.8-61.3-50.6-203.9,26.6-342.2
	c23.2-41.5,53.6-68.6,86.7-85.8c36.4-18.9,68.5,19.1,105.7,17.6c60.8-2.4,23.2,51.5,39.8,56.9c8.4,20.1,18.6,35.6,23.7,40.2
	c9.7,8.8,22.4,13,34.7,17c2.3,0.7,4.5,1.6,6.6,2.5c49.6,21.9,29.4,95.5,71.4,56.8c16.5,28,27.7,62.5,25.8,95.4
	c-1.7,28,6.6,52-2.6,78.3c-7.5,21.5-130,96.7-152.3,112.1c-1.6,1.2-3.3,2.2-4.8,3.1c0.5,0.4,1.2,0.7,1.7,1.1c0,0-0.7,1-1.1,1.4
	c-0.7-0.5-1.4-1.1-2-1.6l-0.1-0.1C469.1,1065.9,318.1,1093.7,238.9,996.7z"/>
</svg>
